<?xml version="1.0" encoding="utf-8"?>
<!-- Generator: Adobe Illustrator 16.0.0, SVG Export Plug-In . SVG Version: 6.00 Build 0)  -->
<!DOCTYPE svg PUBLIC "-//W3C//DTD SVG 1.1//EN" "http://www.w3.org/Graphics/SVG/1.1/DTD/svg11.dtd">
<svg version="1.1" id="Layer_1" xmlns="http://www.w3.org/2000/svg" xmlns:xlink="http://www.w3.org/1999/xlink" x="0px" y="0px"
	 width="514.896px" height="149.146px" viewBox="183.533 6.47 514.896 149.146"
	 enable-background="new 183.533 6.47 514.896 149.146" xml:space="preserve">
<path opacity="0.6" fill="#8F98A1" enable-background="new    " d="M614.121,155.617c-6.75-0.097-14.278-1.015-21.534-3.625
	c-1.836-0.658-3.545-1.587-5.308-2.396c-0.362-0.166-0.926-0.424-0.731-0.873c0.256-0.617,0.817-0.236,1.209-0.037
	c9.821,5.066,20.358,6.438,31.211,5.779c8.467-0.517,16.557-2.66,24.19-6.445c8.273-4.102,13.646-10.734,16.601-19.322
	c3.854-11.207,4.119-22.342-1.447-33.172c-0.623-1.207-1.396-2.344-2.137-3.49c-0.31-0.479-0.689-0.938-1.322-1.041
	c-0.502-0.08-1.125-0.418-1.469,0.012c-0.252,0.312,0.315,0.701,0.51,1.062c0.772,1.447,0.381,2.322-1.33,2.746
	c-2.582,0.644-5.111,0.24-7.607-0.506c-3.403-1.029-6.432-2.82-9.422-4.687c-0.645-0.401-1.285-1.164-1.938,0.135
	c-0.33,0.64-1.218,0.525-1.898,0.468c-2.529-0.209-4.756-1.234-6.824-2.634c-3.344-2.268-5.545-5.555-7.832-8.76
	c-0.168-0.242-0.594-0.645-0.09-0.923c0.506-0.278,0.728,0.23,0.967,0.558c1.861,2.488,3.894,4.826,6.312,6.8
	c2.1,1.709,4.373,3.104,7.096,3.569c0.58,0.103,1.424,0.406,1.717-0.229c0.275-0.584-0.549-0.912-0.957-1.267
	c-1.86-1.625-3.502-3.483-5.506-4.948c-0.424-0.312-1.272-0.746-0.875-1.232c0.445-0.553,1.008,0.21,1.396,0.572
	c5.293,4.892,11.51,8.226,18.176,10.799c1.719,0.666,3.465,1.281,5.338,1.229c0.955-0.027,2.369,0.092,2.451-1.084
	c0.074-1.101-0.816-2.23-2.107-2.428c-5.485-0.843-9.467-4.302-13.512-7.662c-0.354-0.295-1.109-0.703-0.732-1.164
	c0.38-0.455,0.953,0.139,1.312,0.467c3.328,3.062,7.039,5.457,11.395,6.814c5.248,1.635,10.496,2.059,15.779,0.235
	c0.642-0.222,1.271-0.504,1.879-0.806c0.604-0.295,0.605-0.69,0.041-1.034c-1.885-1.146-3.713-2.031-6.139-1.951
	c-6.783,0.228-13.381-0.929-19.637-3.688c-0.318-0.141-0.832-0.252-0.648-0.715c0.207-0.541,0.713-0.268,1.098-0.16
	c3.384,0.955,6.707,2.119,10.173,2.787c5.666,1.094,11.271,1.25,16.717-1.061c0.545-0.23,1.49-0.328,1.36-1.039
	c-0.116-0.65-1.034-0.537-1.643-0.57c-2.201-0.117-4.404-0.197-6.611-0.311c-0.18-0.01-0.504-0.123-0.504-0.193
	c-0.008-0.277,0.273-0.277,0.467-0.277c2.625-0.006,5.257-0.08,7.867,0.256c0.564,0.076,1.187,0.279,1.381,0.906
	c0.224,0.713-0.289,1.197-0.752,1.609c-1.047,0.932-2.354,1.352-3.646,1.791c-0.287,0.102-0.691,0.133-0.688,0.498
	c0.006,0.156,0.365,0.328,0.58,0.461c0.943,0.6,2.354,0.912,2.133,2.387c-0.209,1.414-1.493,1.93-2.68,2.391
	c-1.43,0.56-2.928,0.849-4.451,0.96c-0.823,0.063-0.922,0.331-0.543,1.096c6.463,13.092,6.181,26.39,0.691,39.621
	c-3.123,7.537-9.142,12.578-16.142,16.465C636.027,153.617,625.753,155.573,614.121,155.617"/>
<path opacity="0.6" fill="#8F98A1" enable-background="new    " d="M605.714,52.321c5.192,0.24,9.625,2.326,13.534,5.661
	c3.505,2.987,6.25,6.659,9.158,10.183c0.258,0.315,0.826,0.76,0.287,1.179c-0.408,0.321-0.896-0.091-1.25-0.397
	c-1.779-1.506-3.147-3.372-4.52-5.232c-3.185-4.326-7.218-7.447-12.464-8.867c-4.334-1.18-8.6-1.19-12.795,0.654
	c-2.159,0.948-4.396,1.747-6.446,2.922c-0.244,0.139-0.685,0.246-0.49,0.648c0.065,0.134,0.467,0.155,0.707,0.145
	c0.84-0.037,1.678-0.15,2.516-0.155c0.566-0.005,1.238,0,1.447,0.691c0.209,0.719-0.102,1.335-0.682,1.796
	c-0.748,0.596-1.648,0.611-2.543,0.665c-0.216,0.011-0.57-0.226-0.621,0.183c-0.017,0.112,0.262,0.284,0.43,0.386
	c1.396,0.837,2.82,1.624,4.193,2.499c9.075,5.801,15.092,14.159,19.672,23.692c1.021,2.123,1.03,4.477,1.403,6.756
	c1.568,9.736,4.298,19.061,10.306,27.107c4.69,6.285,10.715,10.58,18.514,12.209c1.215,0.258,2.514,0.492,3.5,1.42
	c-1.275,0.199-2.512-0.127-3.738-0.348c-6.885-1.232-12.498-4.757-17.268-9.742c-7.371-7.711-11.537-17.142-12.332-27.531
	c-0.748-9.893-5.174-17.51-11.363-24.604c-2.881-3.298-5.996-6.322-9.741-8.648c-3.66-2.279-7.591-3.432-11.906-3.635
	c-8.604-0.402-17.129,0.311-25.568,1.85c-4.99,0.911-9.514,2.997-12.873,7.051c-0.209,0.251-0.498,0.781-0.805,0.541
	c-0.348-0.279,0.156-0.622,0.338-0.896c2.5-3.673,6.203-5.565,10.289-6.847c5.656-1.774,11.527-2.273,17.389-2.777
	c4.031-0.349,8.062-0.691,12.097-1.008c1.889-0.14,3.549-0.853,5.135-1.828c4.461-2.751,9.108-5.029,14.434-5.539
	C604.337,52.438,605.018,52.385,605.714,52.321"/>
<path opacity="0.6" fill="#8F98A1" enable-background="new    " d="M698.389,26.542c-0.371,1.845-1.244,3.587-2.178,5.286
	c-2.619,4.772-6.24,8.675-10.472,12.05c-0.242,0.19-0.461,0.697-0.862,0.327c-0.084-0.078,0.123-0.584,0.301-0.809
	c0.397-0.491,0.82-0.963,1.299-1.367c4.129-3.472,7.16-7.791,9.707-12.487c0.18-0.33,0.594-0.635,0.316-1.113
	c-0.304,0.198-0.634,0.362-0.904,0.595c-5.879,5.083-11.76,10.168-17.631,15.259c-10.287,8.911-21.16,16.911-33.765,22.326
	c-7.995,3.442-16.291,5.844-24.852,7.361c-1.191,0.215-2.406,0.226-3.615,0.134c-0.356-0.026-0.879,0.006-0.912-0.429
	c-0.043-0.606,0.574-0.499,0.939-0.53c3.887-0.349,7.688-1.148,11.436-2.183c3.689-1.024,7.386-2.043,10.925-3.538
	c1.702-0.719,3.338-1.571,4.694-2.842c7.254-6.777,15.15-12.825,22.314-19.704c1.362-1.308,2.715-2.63,4.096-3.925
	c0.295-0.273,0.676-0.632,1.109-0.402c0.457,0.247,0.328,0.767,0.172,1.134c-1.115,2.627-2.461,5.113-4.584,7.085
	c-0.166,0.15-0.381,0.477-0.633,0.268c-0.263-0.22,0.024-0.477,0.155-0.676c0.986-1.485,2.08-2.906,2.824-4.541
	c0.076-0.172,0.166-0.499,0.092-0.552c-0.203-0.155-0.348,0.086-0.483,0.22c-6.861,6.826-14.506,12.771-21.681,19.243
	c-0.268,0.24-0.5,0.531-0.746,0.799c0.479,0.268,0.798-0.129,1.132-0.306c8.756-4.601,17.129-9.817,25.125-15.629
	c8.213-5.979,15.944-12.509,23.063-19.766c0.773-0.791,1.594-1.525,2.543-2.104c0.271-0.164,0.562-0.349,0.873-0.134
	C698.492,25.802,698.441,26.14,698.389,26.542"/>
<path opacity="0.6" fill="#8F98A1" enable-background="new    " d="M655.469,79.371c-4.541-0.019-8.986-0.843-13.441-1.604
	c-0.358-0.064-0.99-0.043-0.869-0.627c0.08-0.408,0.629-0.284,0.972-0.246c2.346,0.251,4.686,0.627,7.039,0.787
	c7.354,0.504,14.567-0.364,21.627-2.472c0.899-0.268,1.756-0.696,2.608-1.099c0.457-0.221,1.109-0.45,0.996-1.062
	c-0.113-0.648-0.813-0.557-1.311-0.552c-2.207,0.017-4.422-0.032-6.617,0.14c-4.764,0.375-9.516,0.869-14.275,1.312
	c-0.287,0.026-0.729,0.215-0.781-0.183c-0.059-0.449,0.439-0.541,0.781-0.573c2.51-0.226,5.031-0.386,7.531-0.638
	c8.023-0.815,15.465-3.356,22.307-7.63c0.224-0.14,0.461-0.268,0.644-0.45c0.494-0.493,1.561-0.857,1.242-1.588
	c-0.261-0.6-1.326-0.455-2.052-0.391c-2.469,0.209-4.856,0.848-7.266,1.383c-3.945,0.885-7.896,1.732-11.854,2.563
	c-2.365,0.498-4.714,1.04-6.929,2.054c-0.315,0.145-0.785,0.466-0.959,0.059c-0.162-0.381,0.381-0.601,0.707-0.697
	c2.617-0.793,5.121-1.871,7.604-3.002c5.211-2.365,10.514-4.553,15.586-7.185c4.065-2.112,7.449-5.261,10.608-8.584
	c0.271-0.284,0.755-0.665,0.479-1.04c-0.269-0.365-0.795-0.07-1.164,0.097c-2.455,1.077-5.021,1.85-7.572,2.665
	c-0.451,0.145-0.883,0.327-1.338,0.456c-0.287,0.081-0.688,0.236-0.793-0.183c-0.104-0.38,0.277-0.536,0.566-0.616
	c1.475-0.413,2.868-1.029,4.258-1.646c2.203-0.979,4.36-2.094,6.764-2.544c0.641-0.118,1.402-0.555,1.885,0.169
	c0.412,0.62,0.113,1.33-0.18,1.957c-0.582,1.26-1.504,2.268-2.453,3.255c-4.896,5.04-10.932,8.272-17.27,11.05
	c-0.568,0.246-1.213,0.354-1.642,0.863c0.64,0.332,1.217-0.075,1.799-0.193c2.886-0.584,5.73-1.335,8.662-1.672
	c1.289-0.146,2.941-0.488,3.564,0.852c0.676,1.453-0.91,2.284-1.854,3.104c-2.563,2.23-5.553,3.759-8.69,5.019
	c-0.344,0.14-0.979,0.092-0.939,0.639c0.033,0.38,0.597,0.32,0.908,0.477c0.189,0.092,0.408,0.102,0.609,0.172
	c1.524,0.52,1.698,1.228,0.455,2.3c-1.9,1.646-4.177,2.606-6.572,3.281C664.479,78.78,659.998,79.305,655.469,79.371"/>
<path opacity="0.6" fill="#8F98A1" enable-background="new    " d="M659.521,14.199c0.021,5.056-1.131,9.897-2.738,14.637
	c-1.346,3.978-2.812,7.914-4.241,11.86c-0.107,0.289-0.123,0.857-0.613,0.713c-0.287-0.086-0.187-0.563-0.111-0.858
	c0.172-0.659,0.342-1.319,0.58-1.957c2.373-6.349,4.791-12.686,5.697-19.452c0.438-3.265,1.035-6.568-0.08-9.833
	c-0.283-0.821-0.387-1.999-1.437-2.019c-1.045-0.013-1.243,1.157-1.512,1.977c-1.281,3.908-1.768,7.993-2.463,12.02
	c-1.848,10.616-5.086,20.798-9.406,30.636c-1.471,3.351-3.506,6.45-5.811,9.335c-1.48,1.844-2.974,3.672-4.48,5.496
	c-0.369,0.434-0.801,0.824-1.239,1.195c-0.191,0.166-0.507,0.278-0.722,0.074c-0.364-0.332,0.023-0.525,0.209-0.744
	c0.568-0.688,1.113-1.4,1.722-2.055c6.637-7.152,10.694-15.677,13.789-24.855c2.885-8.568,4.346-17.398,5.893-26.234
	c0.377-2.123,0.84-4.236,1.979-6.111c0.466-0.763,1.011-1.564,2.027-1.554c1.102,0.008,1.609,0.862,2.059,1.721
	C659.626,10.086,659.518,12.151,659.521,14.199"/>
<path opacity="0.6" fill="#8F98A1" enable-background="new    " d="M666.718,22.896c-0.131,4.176-1.629,7.747-3.355,11.253
	c-1.828,3.721-3.817,7.356-6.02,10.878c-0.146,0.236-0.457,0.472-0.24,0.837c0.223-0.19,0.475-0.354,0.656-0.574
	c2.655-3.254,5.303-6.515,7.951-9.774c0.666-0.82,1.387-1.582,2.235-2.209c0.406-0.3,0.865-0.756,1.404-0.466
	c0.477,0.255,0.301,0.847,0.295,1.292c-0.012,0.523-0.033,1.067-0.193,1.555c-1.028,3.066-2.686,5.801-4.604,8.38
	c-0.187,0.244-0.375,0.775-0.793,0.477c-0.269-0.188,0.026-0.579,0.141-0.858c0.486-1.174,1.221-2.198,1.924-3.244
	c0.996-1.49,1.828-3.067,2.363-4.782c0.135-0.429,0.473-1.024,0.037-1.287c-0.342-0.209-0.66,0.391-0.941,0.681
	c-2.672,2.756-5.076,5.742-7.448,8.753c-3.875,4.903-7.65,9.889-12.38,14.045c-0.391,0.348-0.776,0.702-1.194,1.023
	c-0.181,0.135-0.388,0.515-0.619,0.242c-0.16-0.193,0.131-0.479,0.328-0.623c1.19-0.9,1.979-2.149,2.944-3.254
	c5.98-6.869,10.189-14.831,14.062-22.979c1.354-2.853,2.18-5.914,2.361-9.099c0.043-0.681,0.312-1.694-0.472-1.946
	c-0.66-0.214-1.057,0.713-1.436,1.255c-3.633,5.153-5.836,11.013-8.299,16.75c-0.519,1.204-1.117,2.375-1.697,3.549
	c-0.08,0.155-0.279,0.254-0.424,0.378c0.008-0.196-0.043-0.416,0.026-0.59c2.65-7.134,5.263-14.288,9.375-20.763
	c0.279-0.439,0.578-0.879,0.916-1.276c0.427-0.504,0.808-1.217,1.642-0.941c0.821,0.271,1.254,0.927,1.352,1.777
	C666.68,21.931,666.693,22.505,666.718,22.896"/>
<path opacity="0.6" fill="#8F98A1" enable-background="new    " d="M614.395,62.914c-0.027,0.601-0.436,0.467-0.672,0.354
	c-0.652-0.327-1.291-0.702-1.902-1.11c-2.106-1.389-4.381-2.262-6.932-2.3c-1.146-0.011-2.172-0.386-3.111-0.987
	c-1.369-0.873-2.766-1.254-4.311-0.492c-0.23,0.117-0.51,0.3-0.644-0.043c-0.123-0.301,0.177-0.478,0.406-0.568
	c0.68-0.285,1.359-0.574,2.066-0.777c1.08-0.312,1.991-0.746,2.713-1.717c0.895-1.211,2.69-1.099,3.414,0.338
	c1.2,2.402,3.25,3.619,5.491,4.708c1.046,0.509,1.992,1.174,2.871,1.94C614.02,62.459,614.212,62.711,614.395,62.914 M603.21,58.883
	c1.312-0.033,2.284-0.88,2.206-1.877c-0.098-1.174-0.885-1.592-1.944-1.576c-1.061,0.016-2.031,1.062-1.924,2.069
	C601.658,58.545,602.41,58.823,603.21,58.883"/>
<path opacity="0.6" fill="#8F98A1" enable-background="new    " d="M603.216,56.39c0.487,0.016,0.801,0.272,0.873,0.739
	c0.063,0.396-0.068,0.783-0.531,0.799c-0.529,0.016-0.926-0.295-1.012-0.814C602.48,56.69,602.824,56.481,603.216,56.39"/>
<path opacity="0.6" fill="#8F98A1" enable-background="new    " d="M614.121,155.617c-6.75-0.097-14.278-1.015-21.534-3.625
	c-1.836-0.658-3.545-1.587-5.308-2.396c-0.362-0.166-0.926-0.424-0.731-0.873c0.256-0.617,0.817-0.236,1.209-0.037
	c9.821,5.066,20.358,6.438,31.211,5.779c8.467-0.517,16.557-2.66,24.19-6.445c8.273-4.102,13.646-10.734,16.601-19.322
	c3.854-11.207,4.119-22.342-1.447-33.172c-0.623-1.207-1.396-2.344-2.137-3.49c-0.31-0.479-0.689-0.938-1.322-1.041
	c-0.502-0.08-1.125-0.418-1.469,0.012c-0.252,0.312,0.315,0.701,0.51,1.062c0.772,1.447,0.381,2.322-1.33,2.746
	c-2.582,0.644-5.111,0.24-7.607-0.506c-3.403-1.029-6.432-2.82-9.422-4.687c-0.645-0.401-1.285-1.164-1.938,0.135
	c-0.33,0.64-1.218,0.525-1.898,0.468c-2.529-0.209-4.756-1.234-6.824-2.634c-3.344-2.268-5.545-5.555-7.832-8.76
	c-0.168-0.242-0.594-0.645-0.09-0.923c0.506-0.278,0.728,0.23,0.967,0.558c1.861,2.488,3.894,4.826,6.312,6.8
	c2.1,1.709,4.373,3.104,7.096,3.569c0.58,0.103,1.424,0.406,1.717-0.229c0.275-0.584-0.549-0.912-0.957-1.267
	c-1.86-1.625-3.502-3.483-5.506-4.948c-0.424-0.312-1.272-0.746-0.875-1.232c0.445-0.553,1.008,0.21,1.396,0.572
	c5.293,4.892,11.51,8.226,18.176,10.799c1.719,0.666,3.465,1.281,5.338,1.229c0.955-0.027,2.369,0.092,2.451-1.084
	c0.074-1.101-0.816-2.23-2.107-2.428c-5.485-0.843-9.467-4.302-13.512-7.662c-0.354-0.295-1.109-0.703-0.732-1.164
	c0.38-0.455,0.953,0.139,1.312,0.467c3.328,3.062,7.039,5.457,11.395,6.814c5.248,1.635,10.496,2.059,15.779,0.235
	c0.642-0.222,1.271-0.504,1.879-0.806c0.604-0.295,0.605-0.69,0.041-1.034c-1.885-1.146-3.713-2.031-6.139-1.951
	c-6.783,0.228-13.381-0.929-19.637-3.688c-0.318-0.141-0.832-0.252-0.648-0.715c0.207-0.541,0.713-0.268,1.098-0.16
	c3.384,0.955,6.707,2.119,10.173,2.787c5.666,1.094,11.271,1.25,16.717-1.061c0.545-0.23,1.49-0.328,1.36-1.039
	c-0.116-0.65-1.034-0.537-1.643-0.57c-2.201-0.117-4.404-0.197-6.611-0.311c-0.18-0.01-0.504-0.123-0.504-0.193
	c-0.008-0.277,0.273-0.277,0.467-0.277c2.625-0.006,5.257-0.08,7.867,0.256c0.564,0.076,1.187,0.279,1.381,0.906
	c0.224,0.713-0.289,1.197-0.752,1.609c-1.047,0.932-2.354,1.352-3.646,1.791c-0.287,0.102-0.691,0.133-0.688,0.498
	c0.006,0.156,0.365,0.328,0.58,0.461c0.943,0.6,2.354,0.912,2.133,2.387c-0.209,1.414-1.493,1.93-2.68,2.391
	c-1.43,0.56-2.928,0.849-4.451,0.96c-0.823,0.063-0.922,0.331-0.543,1.096c6.463,13.092,6.181,26.39,0.691,39.621
	c-3.123,7.537-9.142,12.578-16.142,16.465C636.027,153.617,625.753,155.573,614.121,155.617"/>
<path opacity="0.6" fill="#8F98A1" enable-background="new    " d="M605.714,52.321c5.192,0.24,9.625,2.326,13.534,5.661
	c3.505,2.987,6.25,6.659,9.158,10.183c0.258,0.315,0.826,0.76,0.287,1.179c-0.408,0.321-0.896-0.091-1.25-0.397
	c-1.779-1.506-3.147-3.372-4.52-5.232c-3.185-4.326-7.218-7.447-12.464-8.867c-4.334-1.18-8.6-1.19-12.795,0.654
	c-2.159,0.948-4.396,1.747-6.446,2.922c-0.244,0.139-0.685,0.246-0.49,0.648c0.065,0.134,0.467,0.155,0.707,0.145
	c0.84-0.037,1.678-0.15,2.516-0.155c0.566-0.005,1.238,0,1.447,0.691c0.209,0.719-0.102,1.335-0.682,1.796
	c-0.748,0.596-1.648,0.611-2.543,0.665c-0.216,0.011-0.57-0.226-0.621,0.183c-0.017,0.112,0.262,0.284,0.43,0.386
	c1.396,0.837,2.82,1.624,4.193,2.499c9.075,5.801,15.092,14.159,19.672,23.692c1.021,2.123,1.03,4.477,1.403,6.756
	c1.568,9.736,4.298,19.061,10.306,27.107c4.69,6.285,10.715,10.58,18.514,12.209c1.215,0.258,2.514,0.492,3.5,1.42
	c-1.275,0.199-2.512-0.127-3.738-0.348c-6.885-1.232-12.498-4.757-17.268-9.742c-7.371-7.711-11.537-17.142-12.332-27.531
	c-0.748-9.893-5.174-17.51-11.363-24.604c-2.881-3.298-5.996-6.322-9.741-8.648c-3.66-2.279-7.591-3.432-11.906-3.635
	c-8.604-0.402-17.129,0.311-25.568,1.85c-4.99,0.911-9.514,2.997-12.873,7.051c-0.209,0.251-0.498,0.781-0.805,0.541
	c-0.348-0.279,0.156-0.622,0.338-0.896c2.5-3.673,6.203-5.565,10.289-6.847c5.656-1.774,11.527-2.273,17.389-2.777
	c4.031-0.349,8.062-0.691,12.097-1.008c1.889-0.14,3.549-0.853,5.135-1.828c4.461-2.751,9.108-5.029,14.434-5.539
	C604.337,52.438,605.018,52.385,605.714,52.321"/>
<text transform="matrix(1 0 0 1 183.5334 105.7075)" fill="#8F98A1" font-family="'Lora-Italic'" font-size="16.6675">M</text>
<text transform="matrix(1 0 0 1 198.9846 105.7075)" fill="#8F98A1" font-family="'Lora-Italic'" font-size="16.6675">B</text>
<text transform="matrix(1 0 0 1 209.47 105.7075)" fill="#8F98A1" font-family="'Lora-Italic'" font-size="16.6675">A</text>
<text transform="matrix(1 0 0 1 220.1199 105.7075)" fill="#8F98A1" font-family="'Lora-Italic'" font-size="16.6675">,</text>
<text transform="matrix(1 0 0 1 224.2366 105.7075)" fill="#8F98A1" font-family="'Lora-Italic'" font-size="16.6675"> </text>
<text transform="matrix(1 0 0 1 228.7698 105.7075)" fill="#8F98A1" font-family="'Lora-Italic'" font-size="16.6675">B</text>
<text transform="matrix(1 0 0 1 239.2708 105.7075)" fill="#8F98A1" font-family="'Lora-Italic'" font-size="16.6675">S</text>
<text transform="matrix(1 0 0 1 248.8538 105.7075)" fill="#8F98A1" font-family="'Lora-Italic'" font-size="16.6675">c</text>
<text transform="matrix(1 0 0 1 256.9045 105.7075)" fill="#8F98A1" font-family="'Lora-Italic'" font-size="16.6675"> </text>
<text transform="matrix(1 0 0 1 261.4358 105.7075)" fill="#8F98A1" font-family="'Lora-Italic'" font-size="16.6675">(OT</text>
<text transform="matrix(1 0 0 1 290.1389 105.7075)" fill="#8F98A1" font-family="'Lora-Italic'" font-size="16.6675">),</text>
<text transform="matrix(1 0 0 1 299.3562 105.7075)" fill="#8F98A1" font-family="'Lora-Italic'" font-size="16.6675"> </text>
<text transform="matrix(1 0 0 1 303.8909 105.7075)" fill="#8F98A1" font-family="'Lora-Italic'" font-size="16.6675">B</text>
<text transform="matrix(1 0 0 1 314.3752 105.7075)" fill="#8F98A1" font-family="'Lora-Italic'" font-size="16.6675">S</text>
<text transform="matrix(1 0 0 1 323.9592 105.7075)" fill="#8F98A1" font-family="'Lora-Italic'" font-size="16.6675">c</text>
<text transform="matrix(1 0 0 1 332.01 105.7075)" fill="#8F98A1" font-family="'Lora-Italic'" font-size="16.6675"> </text>
<text transform="matrix(1 0 0 1 336.5261 105.7075)" fill="#8F98A1" font-family="'Lora-Italic'" font-size="16.6675">(</text>
<text transform="matrix(1 0 0 1 341.6584 105.7075)" fill="#8F98A1" font-family="'Lora-Italic'" font-size="16.6675">P</text>
<text transform="matrix(1 0 0 1 351.7751 105.7075)" fill="#8F98A1" font-family="'Lora-Italic'" font-size="16.6675">s</text>
<text transform="matrix(1 0 0 1 359.0583 105.7075)" fill="#8F98A1" font-family="'Lora-Italic'" font-size="16.6675">y</text>
<text transform="matrix(1 0 0 1 367.7751 105.7075)" fill="#8F98A1" font-family="'Lora-Italic'" font-size="16.6675">c</text>
<text transform="matrix(1 0 0 1 375.8435 105.7075)" fill="#8F98A1" font-family="'Lora-Italic'" font-size="16.6675">h</text>
<text transform="matrix(1 0 0 1 385.5271 105.7075)" fill="#8F98A1" font-family="'Lora-Italic'" font-size="16.6675">)</text>
<text transform="matrix(1 0 0 1 390.6599 105.7075)" fill="#8F98A1" font-family="'Lora-Italic'" font-size="16.6675">,</text>
<text transform="matrix(1 0 0 1 394.7625 105.7075)" fill="#8F98A1" font-family="'Lora-Italic'" font-size="16.6675"> I</text>
<text transform="matrix(1 0 0 1 404.9617 105.7075)" fill="#8F98A1" font-family="'Lora-Italic'" font-size="16.6675">n</text>
<text transform="matrix(1 0 0 1 415.3611 105.7075)" fill="#8F98A1" font-family="'Lora-Italic'" font-size="16.6675">t</text>
<text transform="matrix(1 0 0 1 421.6033 105.7075)" fill="#8F98A1" font-family="'Lora-Italic'" font-size="16.6675">e</text>
<text transform="matrix(1 0 0 1 429.7126 105.7075)" fill="#8F98A1" font-family="'Lora-Italic'" font-size="16.6675">g</text>
<text transform="matrix(1 0 0 1 438.4978 105.7075)" fill="#8F98A1" font-family="'Lora-Italic'" font-size="16.6675">r</text>
<text transform="matrix(1 0 0 1 446.2458 105.7075)" fill="#8F98A1" font-family="'Lora-Italic'" font-size="16.6675">a</text>
<text transform="matrix(1 0 0 1 455.531 105.7075)" fill="#8F98A1" font-family="'Lora-Italic'" font-size="16.6675">l</text>
<text transform="matrix(1 0 0 1 460.4158 105.7075)" fill="#8F98A1" font-family="'Lora-Italic'" font-size="16.6675"> </text>
<text transform="matrix(1 0 0 1 464.947 105.7075)" fill="#8F98A1" font-family="'Lora-Italic'" font-size="16.6675">M</text>
<text transform="matrix(1 0 0 1 480.4001 105.7075)" fill="#8F98A1" font-family="'Lora-Italic'" font-size="16.6675">a</text>
<text transform="matrix(1 0 0 1 489.6814 105.7075)" fill="#8F98A1" font-family="'Lora-Italic'" font-size="16.6675">s</text>
<text transform="matrix(1 0 0 1 496.9841 105.7075)" fill="#8F98A1" font-family="'Lora-Italic'" font-size="16.6675">t</text>
<text transform="matrix(1 0 0 1 503.199 105.7075)" fill="#8F98A1" font-family="'Lora-Italic'" font-size="16.6675">e</text>
<text transform="matrix(1 0 0 1 511.3162 105.7075)" fill="#8F98A1" font-family="'Lora-Italic'" font-size="16.6675">r Co</text>
<text transform="matrix(1 0 0 1 543.9333 105.7075)" fill="#8F98A1" font-family="'Lora-Italic'" font-size="16.6675">a</text>
<text transform="matrix(1 0 0 1 553.2869 105.7075)" fill="#8F98A1" font-family="'Lora-Italic'" font-size="16.6675">c</text>
<text transform="matrix(1 0 0 1 561.3533 105.7075)" fill="#8F98A1" font-family="'Lora-Italic'" font-size="16.6675">h</text>
<text transform="matrix(1 0 0 1 571.0388 105.7075)" fill="#8F98A1" font-family="'Lora-Italic'" font-size="16.6675">™</text>
</svg>
