<?xml version="1.0" encoding="utf-8"?>
<!-- Generator: Adobe Illustrator 16.0.0, SVG Export Plug-In . SVG Version: 6.00 Build 0)  -->
<!DOCTYPE svg PUBLIC "-//W3C//DTD SVG 1.1//EN" "http://www.w3.org/Graphics/SVG/1.1/DTD/svg11.dtd">
<svg version="1.1" id="Layer_1" xmlns="http://www.w3.org/2000/svg" xmlns:xlink="http://www.w3.org/1999/xlink" x="0px" y="0px"
	 width="698.429px" height="155.616px" viewBox="0 0 698.429 155.616" enable-background="new 0 0 698.429 155.616"
	 xml:space="preserve">
<g>
	<path fill="#8B5C7A" d="M0,57.055l1.107-1.266c0.949,0,2.371-0.215,4.268-0.628c1.897-0.423,3.822-0.922,5.771-1.506
		c1.949-0.579,4.4-1.287,7.354-2.134c0-1.26,0.05-3.37,0.153-6.321c0.104-2.949,0.291-6.3,0.558-10.037
		c0.262-3.745,0.631-7.616,1.104-11.621c0.476-4.005,1.109-7.667,1.898-10.986c0.79-3.322,1.764-6.062,2.926-8.225
		c1.158-2.161,2.528-3.243,4.109-3.243c1.37,0,2.583,0.87,3.636,2.609c1.052,1.742,1.977,3.983,2.768,6.722
		c0.787,2.743,1.42,5.769,1.896,9.087c0.475,3.319,0.87,6.509,1.185,9.565c0.316,3.059,0.552,5.825,0.712,8.302
		c0.156,2.475,0.238,4.244,0.238,5.294c1.579-0.632,3.188-1.289,4.82-1.976c1.634-0.684,3.347-1.029,5.137-1.029l0.95,1.107
		c-0.104,0.316-0.631,0.686-1.582,1.107c-0.946,0.426-2.004,0.844-3.162,1.268c-1.161,0.421-2.292,0.789-3.399,1.102
		c-1.103,0.319-1.871,0.528-2.292,0.635c0.211,2.112,0.579,5.297,1.107,9.566c0.526,4.267,1.185,8.695,1.976,13.279
		c0.793,4.584,1.687,8.852,2.688,12.803c1.003,3.957,2.082,6.664,3.243,8.145c0.524,0.734,1.317,1.34,2.371,1.818
		c1.052,0.473,1.684,1.131,1.897,1.979l-1.109,1.1c-1.578,0-3.031-1.004-4.346-3.004c-1.32-2-2.506-4.557-3.555-7.66
		c-1.056-3.111-1.98-6.563-2.77-10.36c-0.788-3.795-1.45-7.453-1.974-10.986c-0.529-3.533-0.95-6.744-1.266-9.645
		c-0.318-2.896-0.529-4.981-0.631-6.241c-2.85,1.153-5.694,2.343-8.54,3.549c-2.844,1.217-5.691,2.403-8.539,3.56v27.666
		c0,0.418-0.104,1.293-0.312,2.611c-0.214,1.318-0.634,1.979-1.265,1.979s-1.026-0.479-1.186-1.422
		c-0.16-0.953-0.236-1.748-0.236-2.373c0-4.532,0.102-9.094,0.312-13.678c0.212-4.584,0.319-9.142,0.319-13.678
		c-2.742,1.057-5.534,1.979-8.381,2.771c-2.843,0.789-5.745,1.341-8.697,1.657L0,57.055z M29.562,3.936
		c-1.158,0-2.185,1.003-3.08,3.004c-0.897,2.004-1.661,4.584-2.295,7.747c-0.631,3.161-1.158,6.616-1.582,10.351
		c-0.422,3.745-0.765,7.332-1.025,10.753c-0.264,3.429-0.448,6.514-0.552,9.248c-0.107,2.748-0.16,4.584-0.16,5.539
		c2.844-1.158,5.637-2.375,8.379-3.641c2.738-1.26,5.533-2.471,8.38-3.635c-0.107-0.949-0.236-2.552-0.398-4.82
		c-0.157-2.268-0.396-4.874-0.708-7.828c-0.319-2.949-0.689-5.981-1.109-9.093c-0.42-3.104-0.922-5.973-1.501-8.611
		c-0.579-2.632-1.238-4.797-1.973-6.486C31.199,4.782,30.408,3.936,29.562,3.936"/>
	<path fill="#8B5C7A" d="M59.599,74.924c-0.843,0-1.478-1.265-1.896-3.796c-0.422-2.53-0.739-5.849-0.948-9.962
		c-0.212-4.111-0.45-8.771-0.713-13.993c-0.264-5.211-0.631-10.512-1.105-15.887c-0.473-5.375-1.162-10.567-2.054-15.572
		c-0.898-5.005-2.137-9.405-3.717-13.199l-0.157-0.634l1.105-1.265c0.843,0,1.503,0.637,1.977,1.899
		c0.475,1.265,0.815,2.213,1.027,2.841c1.367,4.956,2.42,10.124,3.162,15.494c0.736,5.378,1.288,10.833,1.661,16.367
		c0.364,5.533,0.657,11.044,0.867,16.519c0.212,5.479,0.527,10.81,0.951,15.966c0.315-1.367,0.71-3.371,1.186-6.004
		c0.475-2.639,1.051-5.561,1.74-8.777c0.684-3.211,1.447-6.482,2.289-9.798c0.843-3.319,1.792-6.351,2.85-9.091
		c1.048-2.745,2.21-4.98,3.476-6.718c1.265-1.742,2.688-2.614,4.268-2.614c2.001,0,3.662,0.818,4.979,2.453
		c1.317,1.635,2.344,3.56,3.083,5.769c0.736,2.212,1.238,4.485,1.503,6.796c0.26,2.325,0.394,4.217,0.394,5.697
		c0,1.791-0.291,4.477-0.87,8.059c-0.579,3.587-1.449,7.168-2.604,10.755c-1.163,3.581-2.587,6.718-4.272,9.404
		c-1.689,2.687-3.69,4.033-6.006,4.033c-0.95,0-1.658-0.264-2.135-0.795c-0.476-0.519-0.816-1.184-1.027-1.972
		c-0.212-0.788-0.343-1.636-0.395-2.531c-0.053-0.896-0.136-1.661-0.239-2.289l1.265-1.265l0.949,0.787l0.947,5.379l1.425,0.154
		c3.582-3.688,6.321-8.09,8.222-13.199c1.897-5.11,2.843-10.246,2.843-15.415c0-1.051-0.158-2.632-0.472-4.745
		c-0.319-2.104-0.82-4.238-1.501-6.402c-0.689-2.16-1.529-4.053-2.53-5.688c-1.005-1.636-2.189-2.451-3.559-2.451
		c-1.158,0-2.267,0.869-3.319,2.608c-1.057,1.737-2.031,3.976-2.926,6.715c-0.896,2.745-1.74,5.748-2.528,9.013
		c-0.791,3.271-1.477,6.434-2.056,9.485c-0.582,3.061-1.106,5.801-1.582,8.225c-0.472,2.423-0.815,4.111-1.029,5.055
		c-0.211,0.531-0.499,1.422-0.868,2.687C60.89,74.286,60.335,74.924,59.599,74.924"/>
	<path fill="#8B5C7A" d="M94.38,74.924c-0.846,0-1.478-1.265-1.897-3.796c-0.424-2.53-0.739-5.849-0.948-9.962
		c-0.213-4.111-0.451-8.771-0.713-13.993c-0.264-5.211-0.631-10.512-1.107-15.887c-0.472-5.375-1.161-10.567-2.055-15.572
		c-0.895-5.005-2.134-9.405-3.714-13.199l-0.157-0.634l1.105-1.265c0.843,0,1.501,0.637,1.975,1.899
		c0.474,1.265,0.817,2.213,1.029,2.841c1.367,4.956,2.421,10.124,3.162,15.494c0.736,5.378,1.289,10.833,1.658,16.367
		c0.367,5.533,0.66,11.044,0.87,16.519c0.211,5.479,0.526,10.81,0.95,15.966c0.312-1.367,0.708-3.371,1.187-6.004
		c0.474-2.639,1.05-5.561,1.737-8.777c0.686-3.211,1.449-6.482,2.292-9.798c0.843-3.319,1.792-6.351,2.847-9.091
		c1.051-2.745,2.211-4.98,3.479-6.718c1.265-1.742,2.688-2.614,4.267-2.614c2.001,0,3.663,0.818,4.98,2.453
		c1.317,1.635,2.344,3.56,3.083,5.769c0.735,2.212,1.238,4.485,1.501,6.796c0.261,2.325,0.396,4.217,0.396,5.697
		c0,1.791-0.293,4.477-0.87,8.059c-0.579,3.587-1.449,7.168-2.604,10.755c-1.165,3.581-2.587,6.718-4.272,9.404
		c-1.688,2.687-3.69,4.033-6.006,4.033c-0.95,0-1.658-0.264-2.135-0.795c-0.476-0.519-0.816-1.184-1.027-1.972
		c-0.211-0.788-0.343-1.636-0.395-2.531c-0.055-0.896-0.136-1.661-0.239-2.289l1.266-1.265l0.949,0.787l0.948,5.379l1.425,0.154
		c3.579-3.688,6.321-8.09,8.221-13.199c1.898-5.11,2.844-10.246,2.844-15.415c0-1.051-0.16-2.632-0.472-4.745
		c-0.319-2.104-0.82-4.238-1.501-6.402c-0.689-2.16-1.529-4.053-2.532-5.688c-1.003-1.636-2.19-2.451-3.558-2.451
		c-1.16,0-2.266,0.869-3.318,2.608c-1.056,1.737-2.031,3.976-2.926,6.715c-0.895,2.745-1.74,5.748-2.528,9.013
		c-0.791,3.271-1.477,6.434-2.056,9.485c-0.582,3.061-1.105,5.801-1.582,8.225c-0.474,2.423-0.814,4.111-1.029,5.055
		c-0.211,0.531-0.499,1.422-0.868,2.687C95.67,74.286,95.116,74.924,94.38,74.924"/>
	<path fill="#8B5C7A" d="M125.365,28.442l1.267,1.102c0,1.796-0.031,3.984-0.081,6.565c-0.055,2.582-0.079,5.402-0.079,8.458
		c0,2.847,0.024,5.796,0.079,8.852c0.049,3.056,0.211,5.983,0.474,8.776c0.262,2.794,0.604,5.352,1.027,7.668
		c0.421,2.316,1,4.16,1.741,5.533c0.631-0.107,1.446-1.314,2.449-3.641c0.999-2.316,2.056-5.158,3.162-8.53
		s2.237-7.089,3.398-11.152c1.159-4.053,2.239-7.924,3.242-11.619c1-3.689,1.896-6.98,2.685-9.881
		c0.793-2.895,1.396-4.922,1.82-6.085l0.949-0.472c0.633,0.102,1.209,1.051,1.739,2.845c0.527,1.793,0.949,4.163,1.263,7.117
		c0.319,2.949,0.579,6.268,0.793,9.957c0.208,3.688,0.34,7.426,0.395,11.227c0.05,3.796,0.105,7.507,0.16,11.142
		c0.048,3.641,0.077,6.825,0.077,9.564v-1.736c0.634,0.107,1.425,0.235,2.371,0.396c0.951,0.156,1.527,0.605,1.742,1.34
		l-1.422,1.111l-2.531-0.473v6.717c0,3.105-0.107,6.611-0.319,10.51s-0.527,7.93-0.946,12.096
		c-0.424,4.166-1.082,7.982-1.977,11.463c-0.898,3.475-2.056,6.326-3.479,8.541c-1.422,2.209-3.188,3.312-5.294,3.312
		c-2.108,0-3.77-0.66-4.984-1.973c-1.21-1.318-2.159-2.9-2.843-4.744c-0.687-1.846-1.134-3.797-1.346-5.85
		c-0.211-2.061-0.312-3.822-0.312-5.293c0-2.953,0.34-6.428,1.026-10.434c0.684-4.01,1.79-7.908,3.321-11.703
		c1.525-3.791,3.5-7.143,5.926-10.037c2.425-2.895,5.375-4.665,8.851-5.297v-13.12c0-5.378-0.131-10.755-0.396-16.127
		c-0.263-5.377-0.922-10.487-1.973-15.334c-0.531,1.161-1.162,3.158-1.896,6.005c-0.739,2.847-1.558,6.063-2.452,9.645
		c-0.898,3.587-1.873,7.324-2.923,11.227c-1.057,3.897-2.164,7.452-3.323,10.67c-1.161,3.217-2.316,5.849-3.474,7.903
		c-1.162,2.053-2.271,3.082-3.322,3.082c-1.058,0-1.924-1.029-2.611-3.082c-0.684-2.055-1.239-4.687-1.661-7.903
		c-0.419-3.218-0.736-6.724-0.945-10.515c-0.213-3.796-0.343-7.484-0.398-11.066s-0.077-6.801-0.077-9.643v-6.013L125.365,28.442z
		 M141.806,126.303c2.108-3.061,3.717-6.689,4.823-10.91c1.107-4.215,1.897-8.615,2.373-13.201
		c0.472-4.582,0.708-9.146,0.708-13.676V76.184c-1.683,0-3.293,0.688-4.82,2.06c-1.529,1.367-2.954,3.105-4.269,5.21
		c-1.317,2.107-2.476,4.482-3.479,7.115c-1.001,2.639-1.844,5.244-2.528,7.828c-0.689,2.578-1.213,5.002-1.58,7.27
		c-0.374,2.268-0.552,4.086-0.552,5.459c0,1.158,0.102,2.633,0.312,4.43c0.211,1.783,0.607,3.5,1.186,5.135
		c0.579,1.631,1.37,3.029,2.372,4.188c1.001,1.158,2.345,1.738,4.032,1.738C140.701,126.616,141.175,126.509,141.806,126.303"/>
	<path fill="#8B5C7A" d="M181.644,10.42l1.106,1.104c0.211,8.117,0.448,16.181,0.714,24.191c0.26,8.01,0.656,16.068,1.182,24.186
		c0.107-1.266,0.423-3.56,0.951-6.879c0.527-3.319,1.186-7.085,1.977-11.305c0.79-4.211,1.658-8.583,2.607-13.117
		c0.949-4.53,1.951-8.696,3.004-12.492c1.053-3.793,2.135-6.9,3.24-9.325c1.107-2.423,2.189-3.637,3.24-3.637
		c0.634,0,1.16,0.818,1.584,2.452c0.417,1.635,0.708,3.579,0.867,5.851c0.16,2.263,0.263,4.558,0.318,6.874
		c0.049,2.322,0.08,4.107,0.08,5.372c0,0.322,0.023,1.426,0.076,3.325c0.053,1.898,0.156,4.187,0.318,6.878
		c0.156,2.684,0.312,5.587,0.473,8.691c0.159,3.112,0.367,6.117,0.631,9.013c0.264,2.9,0.579,5.453,0.95,7.666
		c0.368,2.215,0.763,3.743,1.186,4.585c1.055-1.684,2.108-4.289,3.163-7.823c1.051-3.533,2.078-7.43,3.082-11.698
		c1-4.273,2.057-8.669,3.162-13.205c1.106-4.525,2.214-8.638,3.319-12.327c1.106-3.688,2.292-6.723,3.558-9.092
		c1.263-2.373,2.58-3.562,3.95-3.562c0.735,0,1.397,0.978,1.979,2.926c0.576,1.956,1.105,4.537,1.578,7.749
		c0.476,3.217,0.924,6.825,1.346,10.831c0.419,4.005,0.814,8.091,1.186,12.251c0.367,4.166,0.711,8.195,1.027,12.095
		c0.317,3.898,0.634,7.27,0.949,10.117c0.209,2.43,0.606,4.954,1.184,7.586c0.578,2.639,0.869,5.115,0.869,7.432
		c0,0.215-0.076,0.504-0.235,0.869c-0.157,0.375-0.396,0.552-0.71,0.552c-0.632,0-1.188-0.868-1.662-2.605
		c-0.473-1.737-0.926-4.032-1.342-6.874c-0.423-2.847-0.818-6.063-1.188-9.645c-0.369-3.582-0.71-7.249-1.029-10.992
		c-0.314-3.739-0.631-7.351-0.945-10.825c-0.316-3.482-0.58-6.536-0.791-9.171c-0.316-3.268-0.609-6.506-0.867-9.726
		c-0.268-3.209-0.978-6.345-2.14-9.404c-1.161,1.579-2.264,4.056-3.319,7.431c-1.053,3.37-2.106,7.166-3.161,11.385
		c-1.052,4.214-2.133,8.56-3.24,13.04c-1.105,4.477-2.19,8.589-3.241,12.332c-1.055,3.742-2.134,6.798-3.239,9.168
		c-1.106,2.369-2.188,3.56-3.242,3.56c-0.946,0-1.796-1.555-2.531-4.665c-0.738-3.109-1.317-6.664-1.737-10.674
		c-0.424-4-0.738-7.876-0.95-11.619c-0.212-3.743-0.312-6.3-0.312-7.667v-7.745c0-2.954-0.084-5.822-0.239-8.619
		c-0.159-2.791-0.61-5.56-1.346-8.299c-0.843,1.37-1.765,3.715-2.764,7.034c-1.005,3.319-2.004,7.195-3.007,11.621
		c-1.001,4.426-1.951,9.141-2.844,14.152c-0.897,5.002-1.716,9.801-2.452,14.386c-0.737,4.583-1.318,8.723-1.74,12.411
		c-0.422,3.688-0.631,6.429-0.631,8.22c0,0.102,0.024,0.215,0.079,0.316c0.052,0.102,0.081,0.209,0.081,0.316
		s-0.107,0.155-0.319,0.155h-0.631h-0.16L183.7,75.08c-0.211-0.418-0.423-2.107-0.631-5.062c-0.214-2.949-0.453-6.585-0.712-10.905
		c-0.262-4.327-0.501-9.013-0.713-14.075c-0.211-5.058-0.395-9.875-0.555-14.465c-0.157-4.584-0.288-8.616-0.393-12.09
		c-0.107-3.485-0.158-5.796-0.158-6.959L181.644,10.42z"/>
	<path fill="#8B5C7A" d="M239.824,57.055c0-2,0.235-4.848,0.709-8.536c0.476-3.688,1.292-7.297,2.453-10.828
		c1.157-3.531,2.658-6.613,4.508-9.246c1.842-2.638,4.188-3.957,7.035-3.957c1.787,0,3.34,0.579,4.66,1.74
		c1.318,1.161,2.451,2.372,3.398,3.635c0-0.525,0.08-1.002,0.24-1.418c0.156-0.423,0.496-0.737,1.025-0.954l1.105,1.109v5.531
		c0,2.74,0.053,5.906,0.16,9.487c0.102,3.582,0.289,7.351,0.553,11.302s0.686,7.565,1.266,10.83
		c0.578,3.266,1.342,5.984,2.291,8.139c0.947,2.167,2.162,3.244,3.635,3.244l2.848-1.266l0.949,1.266
		c-0.211,0.633-0.768,1.244-1.658,1.819c-0.898,0.584-1.66,0.867-2.291,0.867c-1.902,0-3.43-1.211-4.59-3.635
		c-1.16-2.423-2.078-5.217-2.766-8.374c-0.686-3.163-1.186-6.3-1.502-9.409c-0.316-3.105-0.529-5.399-0.631-6.879
		c-0.316,1.795-0.926,4.167-1.816,7.115c-0.898,2.954-2.035,5.909-3.4,8.852c-1.371,2.954-2.98,5.485-4.824,7.593
		c-1.844,2.106-3.926,3.163-6.242,3.163c-1.583,0-2.848-0.928-3.794-2.772c-0.95-1.838-1.661-3.945-2.137-6.32
		c-0.476-2.37-0.79-4.74-0.949-7.115C239.905,59.665,239.824,58.003,239.824,57.055 M247.57,75.24c1.477,0,2.871-0.74,4.188-2.22
		c1.318-1.469,2.557-3.366,3.717-5.688c1.16-2.316,2.158-4.9,3.008-7.747c0.84-2.847,1.576-5.608,2.211-8.3
		c0.633-2.686,1.105-5.139,1.422-7.348c0.316-2.217,0.473-3.9,0.473-5.059v-6.484c-0.631,0-1.182-0.292-1.658-0.872
		c-0.475-0.579-0.977-1.206-1.504-1.898c-0.527-0.681-1.131-1.316-1.816-1.896c-0.688-0.579-1.555-0.871-2.607-0.871
		c-2.529,0-4.613,1.265-6.246,3.796c-1.637,2.531-2.923,5.479-3.873,8.852c-0.947,3.377-1.637,6.747-2.055,10.117
		c-0.422,3.378-0.633,5.957-0.633,7.752c0,0.843,0.025,2.236,0.08,4.188c0.051,1.952,0.236,3.952,0.553,6.006
		c0.317,2.053,0.842,3.85,1.58,5.377C245.145,74.474,246.197,75.24,247.57,75.24"/>
	<path fill="#8B5C7A" d="M281.166,15.636c-0.055,4.426-0.08,8.852-0.08,13.281c0,8.533,0.133,16.969,0.395,25.29
		c0.262,8.332,0.924,16.707,1.977,25.141l-1.105,0.947c-0.635,0-1.133-0.867-1.506-2.61c-0.367-1.737-0.686-3.973-0.943-6.719
		c-0.266-2.734-0.453-5.85-0.557-9.328c-0.105-3.475-0.184-7.008-0.236-10.59c-0.055-3.581-0.105-7.061-0.16-10.433
		s-0.076-6.38-0.076-9.016l-0.16-14.543v-1.973c0-1.528,0.025-3.265,0.08-5.219c0.053-1.952,0.156-3.793,0.316-5.535
		c0.16-1.737,0.447-2.767,0.869-3.081l0.949,0.314l0.314,0.791C281.242,6.781,281.219,11.208,281.166,15.636"/>
	<path fill="#8B5C7A" d="M287.725,57.055c0-2,0.236-4.848,0.709-8.536c0.475-3.688,1.291-7.297,2.453-10.828
		c1.158-3.531,2.658-6.613,4.506-9.246c1.842-2.638,4.189-3.957,7.037-3.957c1.787,0,3.34,0.579,4.66,1.74
		c1.318,1.161,2.451,2.372,3.398,3.635c0-0.525,0.08-1.002,0.238-1.418c0.158-0.423,0.498-0.737,1.027-0.954l1.107,1.109v5.531
		c0,2.74,0.051,5.906,0.158,9.487c0.102,3.582,0.289,7.351,0.555,11.302c0.26,3.951,0.684,7.565,1.264,10.83
		c0.578,3.266,1.342,5.984,2.291,8.139c0.947,2.167,2.16,3.244,3.635,3.244l2.846-1.266l0.951,1.266
		c-0.213,0.633-0.766,1.244-1.658,1.819c-0.898,0.584-1.662,0.867-2.291,0.867c-1.902,0-3.43-1.211-4.59-3.635
		c-1.16-2.423-2.08-5.217-2.766-8.374c-0.686-3.163-1.188-6.3-1.502-9.409c-0.316-3.105-0.529-5.399-0.631-6.879
		c-0.316,1.795-0.926,4.167-1.818,7.115c-0.896,2.954-2.033,5.909-3.4,8.852c-1.371,2.954-2.979,5.485-4.824,7.593
		c-1.842,2.106-3.924,3.163-6.24,3.163c-1.582,0-2.848-0.928-3.795-2.772c-0.949-1.838-1.66-3.945-2.137-6.32
		c-0.475-2.37-0.789-4.74-0.947-7.115C287.807,59.665,287.725,58.003,287.725,57.055 M295.471,75.24c1.477,0,2.871-0.74,4.188-2.22
		c1.318-1.469,2.557-3.366,3.717-5.688c1.158-2.316,2.158-4.9,3.006-7.747c0.842-2.847,1.578-5.608,2.211-8.3
		c0.635-2.686,1.107-5.139,1.424-7.348c0.316-2.217,0.473-3.9,0.473-5.059v-6.484c-0.631,0-1.184-0.292-1.658-0.872
		s-0.977-1.206-1.504-1.898c-0.527-0.681-1.131-1.316-1.816-1.896c-0.688-0.579-1.555-0.871-2.609-0.871
		c-2.527,0-4.611,1.265-6.244,3.796c-1.637,2.531-2.924,5.479-3.873,8.852c-0.949,3.377-1.639,6.747-2.055,10.117
		c-0.422,3.378-0.633,5.957-0.633,7.752c0,0.843,0.023,2.236,0.078,4.188c0.053,1.952,0.238,3.952,0.555,6.006
		c0.316,2.053,0.844,3.85,1.58,5.377C293.043,74.474,294.098,75.24,295.471,75.24"/>
	<path fill="#8B5C7A" d="M326.453,33.34l1.105,1.11c0.951,6.004,1.555,12.015,1.82,18.02c0.262,6.005,1.236,11.968,2.924,17.864
		c0.42-1.157,0.818-3.082,1.186-5.768c0.367-2.687,0.738-5.695,1.107-9.014c0.367-3.318,0.764-6.745,1.186-10.272
		c0.42-3.533,0.975-6.745,1.66-9.646c0.684-2.896,1.529-5.297,2.531-7.193c1-1.9,2.236-2.844,3.713-2.844
		c1.475,0,2.609,1.077,3.4,3.238c0.791,2.161,1.426,4.927,1.896,8.297c0.475,3.375,0.844,7.117,1.105,11.224
		c0.264,4.112,0.607,8.117,1.027,12.021c0.422,3.896,0.975,7.404,1.66,10.508c0.686,3.109,1.711,5.404,3.082,6.879
		c0.951,1.057,1.898,2.053,2.848,3.008c0.951,0.943,1.949,1.84,3.002,2.68l-0.945,1.109c-3.162-0.943-5.59-2.9-7.273-5.848
		c-1.688-2.95-2.953-6.403-3.795-10.354s-1.396-8.145-1.662-12.572c-0.262-4.429-0.498-8.562-0.707-12.412
		c-0.215-3.842-0.582-7.163-1.105-9.957c-0.531-2.788-1.48-4.557-2.848-5.292c-1.057,0-1.928,0.893-2.607,2.684
		c-0.689,1.793-1.27,4.088-1.74,6.879c-0.477,2.791-0.898,5.927-1.266,9.404c-0.371,3.482-0.768,6.931-1.186,10.356
		c-0.422,3.426-0.871,6.67-1.344,9.721c-0.475,3.061-1.029,5.533-1.662,7.431l-0.473,0.161c-0.951,0-1.766-0.875-2.451-2.611
		c-0.688-1.737-1.289-3.92-1.818-6.562c-0.527-2.627-0.975-5.555-1.342-8.771c-0.371-3.211-0.689-6.327-0.949-9.329
		c-0.264-3.002-0.502-5.686-0.711-8.062c-0.213-2.372-0.373-4.032-0.475-4.978L326.453,33.34z"/>
	<path opacity="0.6" fill="#8F98A1" d="M614.121,155.616c-6.75-0.096-14.279-1.014-21.535-3.625
		c-1.836-0.658-3.545-1.586-5.307-2.396c-0.363-0.166-0.926-0.424-0.732-0.873c0.256-0.617,0.818-0.236,1.209-0.037
		c9.822,5.066,20.359,6.438,31.211,5.779c8.467-0.516,16.557-2.66,24.191-6.445c8.273-4.102,13.646-10.734,16.6-19.322
		c3.854-11.207,4.119-22.342-1.447-33.172c-0.623-1.207-1.395-2.344-2.137-3.49c-0.309-0.479-0.689-0.939-1.322-1.041
		c-0.502-0.08-1.125-0.418-1.469,0.012c-0.252,0.311,0.316,0.701,0.51,1.061c0.773,1.447,0.381,2.322-1.33,2.746
		c-2.582,0.643-5.111,0.24-7.607-0.506c-3.404-1.029-6.432-2.82-9.422-4.686c-0.645-0.402-1.285-1.164-1.939,0.135
		c-0.33,0.639-1.217,0.525-1.898,0.467c-2.529-0.209-4.756-1.234-6.824-2.633c-3.344-2.268-5.545-5.555-7.832-8.76
		c-0.168-0.243-0.594-0.645-0.09-0.923c0.506-0.278,0.727,0.23,0.967,0.558c1.861,2.487,3.893,4.825,6.311,6.799
		c2.1,1.709,4.373,3.104,7.096,3.57c0.58,0.102,1.424,0.406,1.717-0.23c0.275-0.584-0.549-0.912-0.957-1.266
		c-1.861-1.625-3.502-3.484-5.506-4.949c-0.424-0.311-1.273-0.746-0.875-1.232c0.445-0.553,1.008,0.209,1.396,0.572
		c5.293,4.891,11.51,8.225,18.176,10.799c1.719,0.666,3.465,1.281,5.338,1.229c0.955-0.027,2.369,0.092,2.451-1.084
		c0.074-1.1-0.816-2.23-2.107-2.428c-5.486-0.842-9.467-4.301-13.512-7.662c-0.354-0.295-1.109-0.703-0.732-1.164
		c0.379-0.455,0.953,0.139,1.312,0.467c3.328,3.062,7.039,5.457,11.395,6.814c5.248,1.635,10.496,2.059,15.779,0.236
		c0.641-0.221,1.271-0.504,1.879-0.805c0.604-0.295,0.605-0.691,0.041-1.035c-1.885-1.146-3.713-2.031-6.139-1.951
		c-6.783,0.227-13.381-0.928-19.637-3.688c-0.318-0.141-0.832-0.252-0.648-0.715c0.207-0.541,0.713-0.268,1.098-0.16
		c3.383,0.955,6.707,2.119,10.172,2.787c5.666,1.094,11.271,1.25,16.717-1.061c0.545-0.23,1.49-0.328,1.361-1.039
		c-0.117-0.65-1.035-0.537-1.643-0.57c-2.201-0.117-4.404-0.197-6.611-0.311c-0.18-0.01-0.504-0.123-0.504-0.193
		c-0.008-0.277,0.273-0.277,0.467-0.277c2.625-0.006,5.256-0.08,7.867,0.256c0.564,0.076,1.186,0.279,1.381,0.906
		c0.223,0.713-0.289,1.197-0.752,1.609c-1.047,0.932-2.354,1.352-3.646,1.791c-0.287,0.102-0.691,0.133-0.688,0.498
		c0.006,0.156,0.365,0.328,0.58,0.461c0.943,0.6,2.354,0.912,2.133,2.387c-0.209,1.414-1.494,1.93-2.68,2.391
		c-1.43,0.559-2.928,0.848-4.451,0.959c-0.824,0.064-0.922,0.332-0.543,1.096c6.463,13.092,6.18,26.389,0.691,39.621
		c-3.123,7.537-9.141,12.578-16.141,16.465C636.027,153.616,625.752,155.573,614.121,155.616"/>
	<path opacity="0.6" fill="#8F98A1" d="M605.713,52.321c5.193,0.24,9.625,2.326,13.535,5.661c3.504,2.987,6.25,6.659,9.158,10.183
		c0.258,0.315,0.826,0.76,0.287,1.179c-0.408,0.321-0.896-0.091-1.25-0.397c-1.779-1.506-3.148-3.372-4.52-5.232
		c-3.184-4.326-7.217-7.447-12.463-8.867c-4.334-1.18-8.6-1.19-12.795,0.654c-2.16,0.948-4.396,1.747-6.447,2.922
		c-0.244,0.139-0.684,0.246-0.49,0.648c0.066,0.134,0.467,0.155,0.707,0.145c0.84-0.037,1.678-0.15,2.516-0.155
		c0.566-0.005,1.238,0,1.447,0.691c0.209,0.719-0.102,1.335-0.682,1.796c-0.748,0.596-1.648,0.611-2.543,0.665
		c-0.215,0.011-0.57-0.226-0.621,0.183c-0.016,0.112,0.262,0.284,0.43,0.386c1.395,0.837,2.82,1.624,4.193,2.499
		c9.076,5.801,15.092,14.159,19.672,23.692c1.021,2.123,1.031,4.477,1.404,6.756c1.568,9.736,4.297,19.061,10.305,27.107
		c4.691,6.285,10.715,10.58,18.514,12.209c1.215,0.258,2.514,0.492,3.5,1.42c-1.275,0.199-2.512-0.127-3.738-0.348
		c-6.885-1.232-12.498-4.756-17.268-9.742c-7.371-7.711-11.537-17.141-12.332-27.531c-0.748-9.893-5.174-17.51-11.363-24.604
		c-2.881-3.298-5.996-6.322-9.742-8.648c-3.66-2.279-7.59-3.432-11.906-3.635c-8.604-0.402-17.129,0.311-25.568,1.85
		c-4.99,0.911-9.514,2.997-12.873,7.051c-0.209,0.251-0.498,0.781-0.805,0.541c-0.348-0.279,0.156-0.622,0.338-0.896
		c2.5-3.673,6.203-5.565,10.289-6.847c5.656-1.774,11.527-2.273,17.389-2.777c4.031-0.349,8.061-0.691,12.096-1.008
		c1.889-0.14,3.549-0.853,5.135-1.828c4.461-2.751,9.109-5.029,14.434-5.539C604.336,52.438,605.018,52.385,605.713,52.321"/>
	<path opacity="0.6" fill="#8F98A1" d="M698.389,26.542c-0.371,1.845-1.244,3.587-2.178,5.286c-2.619,4.772-6.24,8.675-10.471,12.05
		c-0.242,0.19-0.461,0.697-0.863,0.327c-0.084-0.078,0.123-0.584,0.301-0.809c0.398-0.491,0.82-0.963,1.299-1.367
		c4.129-3.472,7.16-7.791,9.707-12.487c0.18-0.33,0.594-0.635,0.316-1.113c-0.303,0.198-0.633,0.362-0.904,0.595
		c-5.879,5.083-11.76,10.168-17.631,15.259c-10.287,8.911-21.16,16.911-33.764,22.326c-7.996,3.442-16.291,5.844-24.852,7.361
		c-1.191,0.215-2.406,0.226-3.615,0.134c-0.357-0.026-0.879,0.006-0.912-0.429c-0.043-0.606,0.574-0.499,0.939-0.53
		c3.887-0.349,7.688-1.148,11.436-2.183c3.689-1.024,7.385-2.043,10.924-3.538c1.703-0.719,3.338-1.571,4.695-2.842
		c7.254-6.777,15.15-12.825,22.314-19.704c1.363-1.308,2.715-2.63,4.096-3.925c0.295-0.273,0.676-0.632,1.109-0.402
		c0.457,0.247,0.328,0.767,0.172,1.134c-1.115,2.627-2.461,5.113-4.584,7.085c-0.166,0.15-0.381,0.477-0.633,0.268
		c-0.262-0.22,0.025-0.477,0.156-0.676c0.986-1.485,2.08-2.906,2.824-4.541c0.076-0.172,0.166-0.499,0.092-0.552
		c-0.203-0.155-0.348,0.086-0.484,0.22c-6.861,6.826-14.506,12.771-21.68,19.243c-0.268,0.24-0.5,0.531-0.746,0.799
		c0.479,0.268,0.797-0.129,1.131-0.306c8.756-4.601,17.129-9.817,25.125-15.629c8.213-5.979,15.945-12.509,23.064-19.766
		c0.773-0.791,1.594-1.525,2.543-2.104c0.27-0.164,0.561-0.349,0.873-0.134C698.492,25.802,698.441,26.14,698.389,26.542"/>
	<path opacity="0.6" fill="#8F98A1" d="M655.469,79.37c-4.541-0.018-8.986-0.842-13.441-1.604c-0.359-0.064-0.99-0.043-0.869-0.627
		c0.08-0.408,0.629-0.284,0.971-0.246c2.346,0.251,4.686,0.627,7.039,0.787c7.354,0.504,14.568-0.364,21.627-2.472
		c0.9-0.268,1.756-0.696,2.609-1.099c0.457-0.221,1.109-0.45,0.996-1.062c-0.113-0.648-0.814-0.557-1.311-0.552
		c-2.207,0.017-4.422-0.032-6.617,0.14c-4.764,0.375-9.516,0.869-14.275,1.313c-0.287,0.026-0.729,0.215-0.781-0.183
		c-0.059-0.449,0.439-0.541,0.781-0.573c2.51-0.226,5.031-0.386,7.531-0.638c8.023-0.815,15.465-3.356,22.307-7.63
		c0.223-0.14,0.461-0.268,0.643-0.45c0.494-0.493,1.561-0.857,1.242-1.588c-0.26-0.6-1.326-0.455-2.051-0.391
		c-2.469,0.209-4.857,0.848-7.266,1.383c-3.945,0.885-7.896,1.732-11.854,2.563c-2.365,0.498-4.713,1.04-6.928,2.054
		c-0.316,0.145-0.785,0.466-0.959,0.059c-0.162-0.381,0.381-0.601,0.707-0.697c2.617-0.793,5.121-1.871,7.604-3.002
		c5.211-2.365,10.514-4.553,15.586-7.185c4.066-2.112,7.449-5.261,10.609-8.584c0.27-0.284,0.754-0.665,0.479-1.04
		c-0.268-0.365-0.795-0.07-1.164,0.097c-2.455,1.077-5.02,1.85-7.572,2.665c-0.451,0.145-0.883,0.327-1.338,0.456
		c-0.287,0.081-0.688,0.236-0.793-0.183c-0.104-0.38,0.277-0.536,0.566-0.616c1.475-0.413,2.869-1.029,4.258-1.646
		c2.203-0.979,4.361-2.094,6.764-2.544c0.641-0.118,1.402-0.555,1.885,0.169c0.412,0.62,0.113,1.33-0.18,1.957
		c-0.582,1.26-1.504,2.268-2.453,3.255c-4.896,5.04-10.932,8.272-17.27,11.05c-0.568,0.246-1.213,0.354-1.641,0.863
		c0.639,0.332,1.217-0.075,1.799-0.193c2.885-0.584,5.73-1.335,8.662-1.672c1.289-0.146,2.941-0.488,3.564,0.852
		c0.676,1.453-0.91,2.284-1.854,3.104c-2.564,2.23-5.553,3.759-8.691,5.019c-0.344,0.14-0.979,0.092-0.939,0.639
		c0.033,0.38,0.596,0.32,0.908,0.477c0.189,0.092,0.408,0.102,0.609,0.172c1.525,0.52,1.699,1.228,0.455,2.3
		c-1.9,1.646-4.176,2.606-6.572,3.281C664.479,78.78,659.998,79.305,655.469,79.37"/>
	<path opacity="0.6" fill="#8F98A1" d="M659.521,14.199c0.021,5.056-1.131,9.897-2.738,14.637c-1.346,3.978-2.812,7.914-4.242,11.86
		c-0.107,0.289-0.123,0.857-0.613,0.713c-0.287-0.086-0.186-0.563-0.111-0.858c0.172-0.659,0.342-1.319,0.58-1.957
		c2.373-6.349,4.791-12.686,5.697-19.452c0.438-3.265,1.035-6.568-0.08-9.833c-0.283-0.821-0.387-1.999-1.436-2.019
		c-1.045-0.013-1.244,1.157-1.512,1.977c-1.281,3.908-1.768,7.993-2.463,12.02c-1.848,10.616-5.086,20.798-9.406,30.636
		c-1.471,3.351-3.506,6.45-5.811,9.335c-1.48,1.844-2.973,3.672-4.48,5.496c-0.369,0.434-0.801,0.824-1.24,1.195
		c-0.191,0.166-0.506,0.278-0.721,0.074c-0.365-0.332,0.023-0.525,0.209-0.744c0.568-0.688,1.113-1.4,1.721-2.055
		c6.637-7.152,10.695-15.677,13.789-24.855c2.885-8.568,4.346-17.398,5.893-26.234c0.377-2.123,0.84-4.236,1.979-6.111
		c0.465-0.763,1.01-1.564,2.027-1.554c1.102,0.008,1.609,0.862,2.059,1.721C659.625,10.086,659.518,12.151,659.521,14.199"/>
	<path opacity="0.6" fill="#8F98A1" d="M666.717,22.896c-0.131,4.176-1.629,7.747-3.355,11.253
		c-1.828,3.721-3.818,7.356-6.02,10.878c-0.146,0.236-0.457,0.472-0.24,0.837c0.223-0.19,0.475-0.354,0.656-0.574
		c2.656-3.254,5.303-6.515,7.951-9.774c0.666-0.82,1.387-1.582,2.236-2.209c0.406-0.3,0.865-0.756,1.404-0.466
		c0.477,0.255,0.301,0.847,0.295,1.292c-0.012,0.523-0.033,1.067-0.193,1.555c-1.029,3.066-2.686,5.801-4.605,8.38
		c-0.186,0.244-0.375,0.775-0.793,0.477c-0.268-0.188,0.027-0.579,0.141-0.858c0.486-1.174,1.221-2.198,1.924-3.244
		c0.996-1.49,1.828-3.067,2.363-4.782c0.135-0.429,0.473-1.024,0.037-1.287c-0.342-0.209-0.66,0.391-0.941,0.681
		c-2.672,2.756-5.076,5.742-7.449,8.753c-3.875,4.903-7.65,9.889-12.379,14.045c-0.391,0.348-0.777,0.702-1.195,1.023
		c-0.18,0.135-0.387,0.515-0.619,0.242c-0.16-0.193,0.131-0.479,0.328-0.623c1.191-0.9,1.98-2.149,2.945-3.254
		c5.98-6.869,10.189-14.831,14.061-22.98c1.354-2.853,2.18-5.914,2.361-9.099c0.043-0.681,0.312-1.694-0.471-1.946
		c-0.66-0.214-1.057,0.713-1.436,1.255c-3.633,5.153-5.836,11.013-8.299,16.75c-0.518,1.204-1.117,2.375-1.697,3.549
		c-0.08,0.155-0.279,0.254-0.424,0.378c0.008-0.196-0.043-0.416,0.027-0.59c2.65-7.134,5.262-14.288,9.375-20.763
		c0.279-0.439,0.578-0.879,0.916-1.276c0.426-0.504,0.807-1.217,1.641-0.941c0.822,0.271,1.254,0.927,1.352,1.777
		C666.68,21.931,666.693,22.505,666.717,22.896"/>
	<path opacity="0.6" fill="#8F98A1" d="M614.395,62.914c-0.027,0.601-0.436,0.467-0.672,0.354c-0.652-0.327-1.291-0.702-1.902-1.11
		c-2.107-1.389-4.381-2.262-6.932-2.3c-1.145-0.011-2.172-0.386-3.111-0.987c-1.369-0.873-2.766-1.254-4.311-0.492
		c-0.23,0.117-0.51,0.3-0.643-0.043c-0.123-0.301,0.176-0.478,0.406-0.568c0.68-0.285,1.359-0.574,2.066-0.777
		c1.08-0.312,1.992-0.746,2.713-1.717c0.895-1.211,2.691-1.099,3.414,0.338c1.201,2.402,3.25,3.619,5.492,4.708
		c1.045,0.509,1.992,1.174,2.871,1.94C614.02,62.459,614.211,62.711,614.395,62.914 M603.209,58.883
		c1.312-0.033,2.285-0.88,2.207-1.877c-0.098-1.174-0.885-1.592-1.945-1.576s-2.031,1.062-1.924,2.069
		C601.658,58.545,602.41,58.823,603.209,58.883"/>
	<path opacity="0.6" fill="#8F98A1" d="M603.215,56.39c0.488,0.016,0.801,0.272,0.873,0.739c0.064,0.396-0.068,0.783-0.531,0.799
		c-0.529,0.016-0.926-0.295-1.012-0.814C602.48,56.69,602.824,56.481,603.215,56.39"/>
	<path opacity="0.6" fill="#8F98A1" d="M614.121,155.616c-6.75-0.096-14.279-1.014-21.535-3.625
		c-1.836-0.658-3.545-1.586-5.307-2.396c-0.363-0.166-0.926-0.424-0.732-0.873c0.256-0.617,0.818-0.236,1.209-0.037
		c9.822,5.066,20.359,6.438,31.211,5.779c8.467-0.516,16.557-2.66,24.191-6.445c8.273-4.102,13.646-10.734,16.6-19.322
		c3.854-11.207,4.119-22.342-1.447-33.172c-0.623-1.207-1.395-2.344-2.137-3.49c-0.309-0.479-0.689-0.939-1.322-1.041
		c-0.502-0.08-1.125-0.418-1.469,0.012c-0.252,0.311,0.316,0.701,0.51,1.061c0.773,1.447,0.381,2.322-1.33,2.746
		c-2.582,0.643-5.111,0.24-7.607-0.506c-3.404-1.029-6.432-2.82-9.422-4.686c-0.645-0.402-1.285-1.164-1.939,0.135
		c-0.33,0.639-1.217,0.525-1.898,0.467c-2.529-0.209-4.756-1.234-6.824-2.633c-3.344-2.268-5.545-5.555-7.832-8.76
		c-0.168-0.243-0.594-0.645-0.09-0.923c0.506-0.278,0.727,0.23,0.967,0.558c1.861,2.487,3.893,4.825,6.311,6.799
		c2.1,1.709,4.373,3.104,7.096,3.57c0.58,0.102,1.424,0.406,1.717-0.23c0.275-0.584-0.549-0.912-0.957-1.266
		c-1.861-1.625-3.502-3.484-5.506-4.949c-0.424-0.311-1.273-0.746-0.875-1.232c0.445-0.553,1.008,0.209,1.396,0.572
		c5.293,4.891,11.51,8.225,18.176,10.799c1.719,0.666,3.465,1.281,5.338,1.229c0.955-0.027,2.369,0.092,2.451-1.084
		c0.074-1.1-0.816-2.23-2.107-2.428c-5.486-0.842-9.467-4.301-13.512-7.662c-0.354-0.295-1.109-0.703-0.732-1.164
		c0.379-0.455,0.953,0.139,1.312,0.467c3.328,3.062,7.039,5.457,11.395,6.814c5.248,1.635,10.496,2.059,15.779,0.236
		c0.641-0.221,1.271-0.504,1.879-0.805c0.604-0.295,0.605-0.691,0.041-1.035c-1.885-1.146-3.713-2.031-6.139-1.951
		c-6.783,0.227-13.381-0.928-19.637-3.688c-0.318-0.141-0.832-0.252-0.648-0.715c0.207-0.541,0.713-0.268,1.098-0.16
		c3.383,0.955,6.707,2.119,10.172,2.787c5.666,1.094,11.271,1.25,16.717-1.061c0.545-0.23,1.49-0.328,1.361-1.039
		c-0.117-0.65-1.035-0.537-1.643-0.57c-2.201-0.117-4.404-0.197-6.611-0.311c-0.18-0.01-0.504-0.123-0.504-0.193
		c-0.008-0.277,0.273-0.277,0.467-0.277c2.625-0.006,5.256-0.08,7.867,0.256c0.564,0.076,1.186,0.279,1.381,0.906
		c0.223,0.713-0.289,1.197-0.752,1.609c-1.047,0.932-2.354,1.352-3.646,1.791c-0.287,0.102-0.691,0.133-0.688,0.498
		c0.006,0.156,0.365,0.328,0.58,0.461c0.943,0.6,2.354,0.912,2.133,2.387c-0.209,1.414-1.494,1.93-2.68,2.391
		c-1.43,0.559-2.928,0.848-4.451,0.959c-0.824,0.064-0.922,0.332-0.543,1.096c6.463,13.092,6.18,26.389,0.691,39.621
		c-3.123,7.537-9.141,12.578-16.141,16.465C636.027,153.616,625.752,155.573,614.121,155.616"/>
	<path opacity="0.6" fill="#8F98A1" d="M605.713,52.321c5.193,0.24,9.625,2.326,13.535,5.661c3.504,2.987,6.25,6.659,9.158,10.183
		c0.258,0.315,0.826,0.76,0.287,1.179c-0.408,0.321-0.896-0.091-1.25-0.397c-1.779-1.506-3.148-3.372-4.52-5.232
		c-3.184-4.326-7.217-7.447-12.463-8.867c-4.334-1.18-8.6-1.19-12.795,0.654c-2.16,0.948-4.396,1.747-6.447,2.922
		c-0.244,0.139-0.684,0.246-0.49,0.648c0.066,0.134,0.467,0.155,0.707,0.145c0.84-0.037,1.678-0.15,2.516-0.155
		c0.566-0.005,1.238,0,1.447,0.691c0.209,0.719-0.102,1.335-0.682,1.796c-0.748,0.596-1.648,0.611-2.543,0.665
		c-0.215,0.011-0.57-0.226-0.621,0.183c-0.016,0.112,0.262,0.284,0.43,0.386c1.395,0.837,2.82,1.624,4.193,2.499
		c9.076,5.801,15.092,14.159,19.672,23.692c1.021,2.123,1.031,4.477,1.404,6.756c1.568,9.736,4.297,19.061,10.305,27.107
		c4.691,6.285,10.715,10.58,18.514,12.209c1.215,0.258,2.514,0.492,3.5,1.42c-1.275,0.199-2.512-0.127-3.738-0.348
		c-6.885-1.232-12.498-4.756-17.268-9.742c-7.371-7.711-11.537-17.141-12.332-27.531c-0.748-9.893-5.174-17.51-11.363-24.604
		c-2.881-3.298-5.996-6.322-9.742-8.648c-3.66-2.279-7.59-3.432-11.906-3.635c-8.604-0.402-17.129,0.311-25.568,1.85
		c-4.99,0.911-9.514,2.997-12.873,7.051c-0.209,0.251-0.498,0.781-0.805,0.541c-0.348-0.279,0.156-0.622,0.338-0.896
		c2.5-3.673,6.203-5.565,10.289-6.847c5.656-1.774,11.527-2.273,17.389-2.777c4.031-0.349,8.061-0.691,12.096-1.008
		c1.889-0.14,3.549-0.853,5.135-1.828c4.461-2.751,9.109-5.029,14.434-5.539C604.336,52.438,605.018,52.385,605.713,52.321"/>
	<text transform="matrix(1 0 0 1 183.5332 105.7078)"><tspan x="0" y="0" fill="#8F98A1" font-family="'Lora-Italic'" font-size="16.6675">M</tspan><tspan x="15.451" y="0" fill="#8F98A1" font-family="'Lora-Italic'" font-size="16.6675">B</tspan></text>
	<text transform="matrix(1 0 0 1 209.4697 105.7078)"><tspan x="0" y="0" fill="#8F98A1" font-family="'Lora-Italic'" font-size="16.6675">A</tspan><tspan x="10.65" y="0" fill="#8F98A1" font-family="'Lora-Italic'" font-size="16.6675">,</tspan></text>
	<text transform="matrix(1 0 0 1 224.2363 105.7078)"><tspan x="0" y="0" fill="#8F98A1" font-family="'Lora-Italic'" font-size="16.6675"> </tspan><tspan x="4.533" y="0" fill="#8F98A1" font-family="'Lora-Italic'" font-size="16.6675">B</tspan></text>
	<text transform="matrix(1 0 0 1 239.2705 105.7078)" fill="#8F98A1" font-family="'Lora-Italic'" font-size="16.6675">S</text>
	<text transform="matrix(1 0 0 1 248.8535 105.7078)" fill="#8F98A1" font-family="'Lora-Italic'" font-size="16.6675">c</text>
	<text transform="matrix(1 0 0 1 256.9043 105.7078)" fill="#8F98A1" font-family="'Lora-Italic'" font-size="16.6675"> </text>
	<text transform="matrix(1 0 0 1 261.4355 105.7078)" fill="#8F98A1" font-family="'Lora-Italic'" font-size="16.6675">(OT</text>
	<text transform="matrix(1 0 0 1 290.1387 105.7078)"><tspan x="0" y="0" fill="#8F98A1" font-family="'Lora-Italic'" font-size="16.6675">),</tspan><tspan x="9.217" y="0" fill="#8F98A1" font-family="'Lora-Italic'" font-size="16.6675"> </tspan></text>
	<text transform="matrix(1 0 0 1 303.8906 105.7078)" fill="#8F98A1" font-family="'Lora-Italic'" font-size="16.6675">B</text>
	<text transform="matrix(1 0 0 1 314.375 105.7078)" fill="#8F98A1" font-family="'Lora-Italic'" font-size="16.6675">S</text>
	<text transform="matrix(1 0 0 1 323.959 105.7078)" fill="#8F98A1" font-family="'Lora-Italic'" font-size="16.6675">c</text>
	<text transform="matrix(1 0 0 1 332.0098 105.7078)"><tspan x="0" y="0" fill="#8F98A1" font-family="'Lora-Italic'" font-size="16.6675"> </tspan><tspan x="4.516" y="0" fill="#8F98A1" font-family="'Lora-Italic'" font-size="16.6675">(</tspan></text>
	<text transform="matrix(1 0 0 1 341.6582 105.7078)" fill="#8F98A1" font-family="'Lora-Italic'" font-size="16.6675">P</text>
	<text transform="matrix(1 0 0 1 351.7754 105.7078)" fill="#8F98A1" font-family="'Lora-Italic'" font-size="16.6675">s</text>
	<text transform="matrix(1 0 0 1 359.0586 105.7078)"><tspan x="0" y="0" fill="#8F98A1" font-family="'Lora-Italic'" font-size="16.6675">y</tspan><tspan x="8.717" y="0" fill="#8F98A1" font-family="'Lora-Italic'" font-size="16.6675">c</tspan></text>
	<text transform="matrix(1 0 0 1 375.8438 105.7078)" fill="#8F98A1" font-family="'Lora-Italic'" font-size="16.6675">h</text>
	<text transform="matrix(1 0 0 1 385.5273 105.7078)" fill="#8F98A1" font-family="'Lora-Italic'" font-size="16.6675">)</text>
	<text transform="matrix(1 0 0 1 390.6602 105.7078)"><tspan x="0" y="0" fill="#8F98A1" font-family="'Lora-Italic'" font-size="16.6675">,</tspan><tspan x="4.102" y="0" fill="#8F98A1" font-family="'Lora-Italic'" font-size="16.6675"> I</tspan><tspan x="14.301" y="0" fill="#8F98A1" font-family="'Lora-Italic'" font-size="16.6675">n</tspan><tspan x="24.701" y="0" fill="#8F98A1" font-family="'Lora-Italic'" font-size="16.6675">t</tspan></text>
	<text transform="matrix(1 0 0 1 421.6035 105.7078)" fill="#8F98A1" font-family="'Lora-Italic'" font-size="16.6675">e</text>
	<text transform="matrix(1 0 0 1 429.7129 105.7078)" fill="#8F98A1" font-family="'Lora-Italic'" font-size="16.6675">g</text>
	<text transform="matrix(1 0 0 1 438.498 105.7078)" fill="#8F98A1" font-family="'Lora-Italic'" font-size="16.6675">r</text>
	<text transform="matrix(1 0 0 1 446.2461 105.7078)" fill="#8F98A1" font-family="'Lora-Italic'" font-size="16.6675">a</text>
	<text transform="matrix(1 0 0 1 455.5312 105.7078)" fill="#8F98A1" font-family="'Lora-Italic'" font-size="16.6675">l</text>
	<text transform="matrix(1 0 0 1 460.416 105.7078)" fill="#8F98A1" font-family="'Lora-Italic'" font-size="16.6675"> </text>
	<text transform="matrix(1 0 0 1 464.9473 105.7078)" fill="#8F98A1" font-family="'Lora-Italic'" font-size="16.6675">M</text>
	<text transform="matrix(1 0 0 1 480.4004 105.7078)" fill="#8F98A1" font-family="'Lora-Italic'" font-size="16.6675">a</text>
	<text transform="matrix(1 0 0 1 489.6816 105.7078)" fill="#8F98A1" font-family="'Lora-Italic'" font-size="16.6675">s</text>
	<text transform="matrix(1 0 0 1 496.9844 105.7078)" fill="#8F98A1" font-family="'Lora-Italic'" font-size="16.6675">t</text>
	<text transform="matrix(1 0 0 1 503.1992 105.7078)" fill="#8F98A1" font-family="'Lora-Italic'" font-size="16.6675">e</text>
	<text transform="matrix(1 0 0 1 511.3164 105.7078)"><tspan x="0" y="0" fill="#8F98A1" font-family="'Lora-Italic'" font-size="16.6675">r Co</tspan><tspan x="32.617" y="0" fill="#8F98A1" font-family="'Lora-Italic'" font-size="16.6675">a</tspan></text>
	<text transform="matrix(1 0 0 1 553.2871 105.7078)" fill="#8F98A1" font-family="'Lora-Italic'" font-size="16.6675">c</text>
	<text transform="matrix(1 0 0 1 561.3535 105.7078)" fill="#8F98A1" font-family="'Lora-Italic'" font-size="16.6675">h</text>
	<text transform="matrix(1 0 0 1 571.0391 105.7078)" fill="#8F98A1" font-family="'Lora-Italic'" font-size="16.6675">™</text>
</g>
</svg>
