<?xml version="1.0" encoding="utf-8"?>
<!-- Generator: Adobe Illustrator 16.0.0, SVG Export Plug-In . SVG Version: 6.00 Build 0)  -->
<!DOCTYPE svg PUBLIC "-//W3C//DTD SVG 1.1//EN" "http://www.w3.org/Graphics/SVG/1.1/DTD/svg11.dtd">
<svg version="1.1" id="Layer_1" xmlns="http://www.w3.org/2000/svg" xmlns:xlink="http://www.w3.org/1999/xlink" x="0px" y="0px"
	 width="694.429px" height="162.073px" viewBox="0 0 694.429 162.073" enable-background="new 0 0 694.429 162.073"
	 xml:space="preserve">
<path opacity="0.6" fill="#8F98A1" enable-background="new    " d="M610.121,155.617c-6.75-0.097-14.277-1.015-21.533-3.625
	c-1.837-0.658-3.546-1.587-5.309-2.396c-0.362-0.166-0.926-0.425-0.73-0.873c0.256-0.617,0.816-0.236,1.209-0.037
	c9.82,5.065,20.357,6.438,31.211,5.778c8.467-0.517,16.557-2.659,24.189-6.444c8.273-4.103,13.646-10.734,16.602-19.322
	c3.854-11.207,4.119-22.342-1.447-33.172c-0.623-1.207-1.396-2.344-2.137-3.49c-0.311-0.479-0.689-0.938-1.322-1.041
	c-0.502-0.08-1.125-0.418-1.469,0.012c-0.252,0.312,0.314,0.701,0.51,1.062c0.771,1.447,0.381,2.322-1.33,2.746
	c-2.582,0.644-5.111,0.24-7.607-0.506c-3.402-1.029-6.432-2.82-9.422-4.688c-0.645-0.4-1.285-1.164-1.938,0.135
	c-0.33,0.641-1.218,0.525-1.898,0.469c-2.528-0.209-4.756-1.234-6.824-2.635c-3.344-2.268-5.545-5.555-7.831-8.76
	c-0.169-0.242-0.595-0.645-0.091-0.923c0.506-0.278,0.729,0.23,0.968,0.558c1.86,2.488,3.894,4.826,6.312,6.801
	c2.1,1.709,4.373,3.104,7.096,3.568c0.58,0.104,1.425,0.406,1.718-0.229c0.274-0.584-0.55-0.912-0.957-1.268
	c-1.86-1.625-3.502-3.482-5.507-4.947c-0.424-0.312-1.271-0.746-0.875-1.232c0.445-0.553,1.009,0.21,1.396,0.572
	c5.293,4.892,11.51,8.226,18.176,10.799c1.719,0.666,3.465,1.281,5.338,1.229c0.955-0.026,2.369,0.093,2.451-1.084
	c0.074-1.101-0.815-2.229-2.106-2.428c-5.485-0.843-9.468-4.302-13.513-7.662c-0.354-0.295-1.108-0.703-0.731-1.164
	c0.38-0.455,0.953,0.14,1.312,0.468c3.328,3.062,7.039,5.457,11.396,6.813c5.248,1.635,10.496,2.06,15.778,0.235
	c0.643-0.223,1.271-0.504,1.88-0.807c0.604-0.295,0.604-0.689,0.041-1.033c-1.886-1.146-3.714-2.031-6.14-1.951
	c-6.783,0.228-13.381-0.929-19.637-3.688c-0.318-0.141-0.832-0.252-0.648-0.715c0.207-0.541,0.713-0.268,1.099-0.16
	c3.384,0.955,6.707,2.119,10.173,2.787c5.666,1.094,11.271,1.25,16.717-1.061c0.545-0.23,1.49-0.328,1.36-1.039
	c-0.116-0.65-1.034-0.537-1.644-0.57c-2.201-0.117-4.403-0.197-6.61-0.311c-0.181-0.011-0.505-0.123-0.505-0.193
	c-0.008-0.277,0.273-0.277,0.468-0.277c2.625-0.006,5.257-0.08,7.866,0.257c0.564,0.075,1.188,0.278,1.382,0.905
	c0.224,0.713-0.289,1.197-0.753,1.609c-1.047,0.932-2.354,1.352-3.646,1.791c-0.287,0.102-0.691,0.133-0.688,0.498
	c0.007,0.156,0.365,0.328,0.58,0.461c0.943,0.6,2.354,0.912,2.134,2.387c-0.209,1.414-1.493,1.93-2.681,2.392
	c-1.43,0.56-2.928,0.849-4.451,0.96c-0.822,0.062-0.922,0.331-0.543,1.096c6.464,13.092,6.182,26.39,0.691,39.621
	c-3.123,7.537-9.142,12.578-16.142,16.465C632.027,153.617,621.754,155.573,610.121,155.617"/>
<path opacity="0.6" fill="#8F98A1" enable-background="new    " d="M601.715,52.321c5.191,0.24,9.625,2.326,13.533,5.661
	c3.506,2.987,6.25,6.659,9.158,10.183c0.258,0.315,0.826,0.76,0.287,1.18c-0.408,0.32-0.896-0.092-1.25-0.397
	c-1.779-1.506-3.146-3.372-4.52-5.232c-3.186-4.325-7.219-7.446-12.464-8.866c-4.334-1.181-8.601-1.19-12.796,0.653
	c-2.158,0.948-4.396,1.747-6.445,2.922c-0.244,0.14-0.686,0.246-0.49,0.648c0.065,0.134,0.467,0.155,0.707,0.145
	c0.84-0.036,1.678-0.149,2.516-0.154c0.566-0.005,1.238,0,1.447,0.69c0.209,0.72-0.102,1.335-0.682,1.796
	c-0.748,0.597-1.648,0.611-2.543,0.665c-0.217,0.012-0.57-0.226-0.621,0.184c-0.018,0.111,0.262,0.284,0.43,0.386
	c1.396,0.837,2.82,1.624,4.193,2.499c9.075,5.801,15.092,14.159,19.672,23.692c1.021,2.123,1.03,4.477,1.403,6.756
	c1.567,9.735,4.298,19.061,10.306,27.106c4.689,6.285,10.715,10.58,18.514,12.209c1.215,0.259,2.515,0.492,3.5,1.42
	c-1.274,0.199-2.512-0.127-3.737-0.348c-6.886-1.231-12.498-4.757-17.269-9.742c-7.371-7.711-11.537-17.142-12.332-27.53
	c-0.748-9.894-5.174-17.511-11.363-24.604c-2.881-3.298-5.995-6.322-9.74-8.648c-3.66-2.278-7.592-3.432-11.906-3.635
	c-8.604-0.401-17.129,0.312-25.568,1.851c-4.989,0.911-9.514,2.997-12.873,7.051c-0.209,0.251-0.498,0.781-0.805,0.541
	c-0.348-0.279,0.156-0.622,0.338-0.896c2.5-3.673,6.203-5.564,10.289-6.847c5.656-1.774,11.527-2.273,17.389-2.777
	c4.031-0.349,8.062-0.69,12.098-1.008c1.889-0.14,3.549-0.853,5.135-1.828c4.461-2.751,9.108-5.028,14.434-5.539
	C600.338,52.438,601.018,52.385,601.715,52.321"/>
<path opacity="0.6" fill="#8F98A1" enable-background="new    " d="M694.389,26.542c-0.371,1.846-1.244,3.587-2.178,5.286
	c-2.619,4.772-6.24,8.675-10.473,12.05c-0.242,0.19-0.461,0.697-0.861,0.327c-0.084-0.078,0.123-0.584,0.301-0.809
	c0.396-0.491,0.82-0.963,1.299-1.367c4.129-3.472,7.16-7.791,9.707-12.487c0.18-0.33,0.594-0.635,0.316-1.112
	c-0.305,0.197-0.635,0.361-0.904,0.595c-5.879,5.083-11.76,10.168-17.631,15.259c-10.287,8.911-21.16,16.911-33.766,22.326
	c-7.995,3.442-16.291,5.844-24.852,7.361c-1.191,0.215-2.406,0.226-3.615,0.134c-0.355-0.026-0.879,0.006-0.912-0.43
	c-0.043-0.605,0.574-0.498,0.939-0.529c3.887-0.35,7.688-1.148,11.436-2.184c3.689-1.023,7.387-2.043,10.925-3.538
	c1.702-0.719,3.339-1.57,4.694-2.842c7.254-6.776,15.15-12.825,22.314-19.704c1.361-1.308,2.715-2.63,4.096-3.925
	c0.295-0.272,0.676-0.632,1.109-0.402c0.457,0.247,0.327,0.768,0.172,1.135c-1.115,2.627-2.461,5.112-4.584,7.085
	c-0.166,0.149-0.381,0.477-0.633,0.268c-0.264-0.22,0.023-0.477,0.154-0.676c0.986-1.485,2.08-2.906,2.824-4.541
	c0.076-0.172,0.166-0.499,0.092-0.552c-0.203-0.155-0.348,0.086-0.482,0.22c-6.861,6.826-14.506,12.771-21.682,19.243
	c-0.268,0.24-0.5,0.531-0.746,0.799c0.479,0.268,0.799-0.129,1.133-0.306c8.756-4.602,17.129-9.817,25.125-15.629
	c8.213-5.979,15.943-12.51,23.062-19.767c0.773-0.791,1.594-1.524,2.543-2.104c0.271-0.164,0.562-0.35,0.873-0.135
	C694.492,25.802,694.441,26.14,694.389,26.542"/>
<path opacity="0.6" fill="#8F98A1" enable-background="new    " d="M651.469,79.371c-4.541-0.019-8.986-0.843-13.441-1.604
	c-0.357-0.064-0.99-0.043-0.869-0.627c0.08-0.408,0.629-0.284,0.973-0.246c2.346,0.251,4.686,0.627,7.039,0.787
	c7.354,0.504,14.566-0.364,21.627-2.473c0.898-0.268,1.756-0.695,2.607-1.099c0.457-0.221,1.109-0.45,0.996-1.062
	c-0.113-0.647-0.812-0.557-1.311-0.552c-2.207,0.018-4.422-0.032-6.617,0.141c-4.764,0.375-9.517,0.868-14.275,1.312
	c-0.287,0.026-0.729,0.215-0.781-0.183c-0.059-0.449,0.439-0.541,0.781-0.573c2.51-0.227,5.031-0.386,7.531-0.638
	c8.023-0.815,15.465-3.356,22.307-7.631c0.225-0.14,0.461-0.268,0.645-0.449c0.494-0.493,1.561-0.857,1.242-1.588
	c-0.262-0.601-1.326-0.455-2.053-0.392c-2.469,0.209-4.855,0.849-7.266,1.383c-3.945,0.886-7.896,1.732-11.854,2.563
	c-2.364,0.498-4.714,1.04-6.929,2.054c-0.314,0.146-0.785,0.466-0.959,0.06c-0.162-0.382,0.381-0.602,0.707-0.697
	c2.617-0.793,5.121-1.871,7.604-3.002c5.211-2.365,10.514-4.553,15.586-7.186c4.064-2.111,7.448-5.261,10.607-8.584
	c0.271-0.283,0.755-0.665,0.479-1.04c-0.27-0.364-0.795-0.069-1.164,0.098c-2.455,1.077-5.021,1.85-7.572,2.665
	c-0.451,0.145-0.883,0.327-1.338,0.456c-0.287,0.081-0.688,0.235-0.793-0.184c-0.104-0.38,0.276-0.536,0.565-0.616
	c1.476-0.412,2.868-1.028,4.259-1.646c2.202-0.979,4.359-2.094,6.764-2.544c0.641-0.118,1.402-0.555,1.885,0.169
	c0.412,0.62,0.113,1.33-0.18,1.957c-0.582,1.26-1.504,2.268-2.453,3.255c-4.896,5.04-10.932,8.272-17.271,11.05
	c-0.567,0.246-1.213,0.354-1.642,0.863c0.64,0.332,1.217-0.075,1.799-0.193c2.886-0.584,5.73-1.335,8.662-1.672
	c1.289-0.146,2.941-0.488,3.564,0.853c0.676,1.453-0.91,2.283-1.854,3.104c-2.562,2.23-5.553,3.759-8.689,5.02
	c-0.345,0.14-0.979,0.092-0.939,0.639c0.033,0.38,0.597,0.32,0.908,0.477c0.188,0.093,0.408,0.103,0.608,0.173
	c1.524,0.52,1.698,1.228,0.455,2.3c-1.899,1.646-4.177,2.605-6.571,3.28C660.479,78.78,655.998,79.305,651.469,79.371"/>
<path opacity="0.6" fill="#8F98A1" enable-background="new    " d="M655.521,14.199c0.021,5.056-1.131,9.897-2.738,14.637
	c-1.346,3.979-2.812,7.914-4.241,11.86c-0.106,0.289-0.122,0.857-0.612,0.713c-0.287-0.086-0.188-0.562-0.111-0.857
	c0.172-0.659,0.342-1.319,0.58-1.957c2.373-6.35,4.791-12.687,5.697-19.452c0.438-3.266,1.035-6.568-0.08-9.833
	c-0.283-0.821-0.387-1.999-1.438-2.02c-1.045-0.013-1.242,1.157-1.512,1.978c-1.281,3.907-1.768,7.993-2.463,12.02
	c-1.848,10.616-5.086,20.798-9.406,30.636c-1.471,3.352-3.506,6.45-5.811,9.335c-1.48,1.845-2.975,3.673-4.48,5.496
	c-0.369,0.435-0.801,0.824-1.239,1.195c-0.19,0.166-0.507,0.278-0.722,0.074c-0.364-0.332,0.023-0.525,0.209-0.744
	c0.568-0.688,1.113-1.4,1.722-2.055c6.638-7.152,10.694-15.678,13.789-24.855c2.886-8.568,4.347-17.397,5.894-26.233
	c0.377-2.123,0.84-4.236,1.979-6.111c0.467-0.763,1.012-1.564,2.027-1.554c1.102,0.008,1.609,0.861,2.059,1.721
	C655.626,10.086,655.518,12.151,655.521,14.199"/>
<path opacity="0.6" fill="#8F98A1" enable-background="new    " d="M662.719,22.896c-0.131,4.176-1.629,7.747-3.355,11.253
	c-1.828,3.721-3.816,7.355-6.02,10.878c-0.146,0.236-0.457,0.472-0.24,0.837c0.223-0.19,0.475-0.354,0.656-0.574
	c2.655-3.254,5.303-6.515,7.951-9.773c0.666-0.82,1.387-1.582,2.234-2.209c0.406-0.301,0.865-0.756,1.404-0.467
	c0.477,0.256,0.301,0.848,0.295,1.292c-0.012,0.523-0.033,1.067-0.193,1.556c-1.027,3.065-2.686,5.801-4.604,8.38
	c-0.188,0.244-0.375,0.775-0.793,0.477c-0.27-0.188,0.025-0.579,0.141-0.857c0.486-1.174,1.221-2.198,1.924-3.244
	c0.996-1.49,1.828-3.067,2.363-4.782c0.135-0.429,0.473-1.023,0.037-1.287c-0.342-0.209-0.66,0.392-0.941,0.682
	c-2.672,2.756-5.075,5.741-7.447,8.753c-3.875,4.902-7.65,9.889-12.381,14.045c-0.391,0.348-0.775,0.702-1.193,1.022
	c-0.182,0.136-0.388,0.516-0.619,0.242c-0.16-0.193,0.131-0.479,0.328-0.623c1.189-0.899,1.979-2.148,2.943-3.254
	c5.98-6.869,10.189-14.831,14.062-22.979c1.354-2.854,2.18-5.914,2.361-9.1c0.043-0.681,0.312-1.693-0.473-1.946
	c-0.659-0.214-1.057,0.714-1.436,1.256c-3.633,5.152-5.836,11.013-8.299,16.75c-0.52,1.203-1.117,2.375-1.697,3.549
	c-0.08,0.154-0.279,0.254-0.424,0.378c0.008-0.196-0.043-0.416,0.025-0.59c2.65-7.135,5.264-14.288,9.375-20.764
	c0.279-0.438,0.578-0.879,0.916-1.275c0.428-0.504,0.809-1.217,1.643-0.941c0.821,0.271,1.254,0.927,1.352,1.777
	C662.68,21.931,662.693,22.505,662.719,22.896"/>
<path opacity="0.6" fill="#8F98A1" enable-background="new    " d="M610.395,62.914c-0.027,0.602-0.436,0.467-0.672,0.354
	c-0.652-0.327-1.291-0.702-1.902-1.11c-2.105-1.389-4.381-2.262-6.932-2.3c-1.146-0.011-2.172-0.386-3.111-0.987
	c-1.369-0.873-2.766-1.254-4.311-0.492c-0.23,0.117-0.51,0.301-0.645-0.043c-0.123-0.301,0.178-0.478,0.406-0.567
	c0.68-0.285,1.359-0.574,2.066-0.777c1.08-0.312,1.99-0.746,2.713-1.717c0.895-1.211,2.689-1.1,3.414,0.338
	c1.199,2.402,3.25,3.619,5.49,4.708c1.047,0.509,1.992,1.174,2.871,1.94C610.02,62.459,610.213,62.711,610.395,62.914
	 M599.211,58.883c1.312-0.032,2.283-0.88,2.206-1.877c-0.099-1.174-0.886-1.592-1.944-1.575c-1.062,0.016-2.031,1.062-1.924,2.068
	C597.658,58.545,598.41,58.823,599.211,58.883"/>
<path opacity="0.6" fill="#8F98A1" enable-background="new    " d="M599.217,56.39c0.486,0.016,0.801,0.271,0.873,0.738
	c0.062,0.396-0.068,0.783-0.531,0.8c-0.529,0.016-0.926-0.296-1.012-0.814C598.48,56.69,598.824,56.481,599.217,56.39"/>
<path opacity="0.6" fill="#8F98A1" enable-background="new    " d="M610.121,155.617c-6.75-0.097-14.277-1.015-21.533-3.625
	c-1.837-0.658-3.546-1.587-5.309-2.396c-0.362-0.166-0.926-0.425-0.73-0.873c0.256-0.617,0.816-0.236,1.209-0.037
	c9.82,5.065,20.357,6.438,31.211,5.778c8.467-0.517,16.557-2.659,24.189-6.444c8.273-4.103,13.646-10.734,16.602-19.322
	c3.854-11.207,4.119-22.342-1.447-33.172c-0.623-1.207-1.396-2.344-2.137-3.49c-0.311-0.479-0.689-0.938-1.322-1.041
	c-0.502-0.08-1.125-0.418-1.469,0.012c-0.252,0.312,0.314,0.701,0.51,1.062c0.771,1.447,0.381,2.322-1.33,2.746
	c-2.582,0.644-5.111,0.24-7.607-0.506c-3.402-1.029-6.432-2.82-9.422-4.688c-0.645-0.4-1.285-1.164-1.938,0.135
	c-0.33,0.641-1.218,0.525-1.898,0.469c-2.528-0.209-4.756-1.234-6.824-2.635c-3.344-2.268-5.545-5.555-7.831-8.76
	c-0.169-0.242-0.595-0.645-0.091-0.923c0.506-0.278,0.729,0.23,0.968,0.558c1.86,2.488,3.894,4.826,6.312,6.801
	c2.1,1.709,4.373,3.104,7.096,3.568c0.58,0.104,1.425,0.406,1.718-0.229c0.274-0.584-0.55-0.912-0.957-1.268
	c-1.86-1.625-3.502-3.482-5.507-4.947c-0.424-0.312-1.271-0.746-0.875-1.232c0.445-0.553,1.009,0.21,1.396,0.572
	c5.293,4.892,11.51,8.226,18.176,10.799c1.719,0.666,3.465,1.281,5.338,1.229c0.955-0.026,2.369,0.093,2.451-1.084
	c0.074-1.101-0.815-2.229-2.106-2.428c-5.485-0.843-9.468-4.302-13.513-7.662c-0.354-0.295-1.108-0.703-0.731-1.164
	c0.38-0.455,0.953,0.14,1.312,0.468c3.328,3.062,7.039,5.457,11.396,6.813c5.248,1.635,10.496,2.06,15.778,0.235
	c0.643-0.223,1.271-0.504,1.88-0.807c0.604-0.295,0.604-0.689,0.041-1.033c-1.886-1.146-3.714-2.031-6.14-1.951
	c-6.783,0.228-13.381-0.929-19.637-3.688c-0.318-0.141-0.832-0.252-0.648-0.715c0.207-0.541,0.713-0.268,1.099-0.16
	c3.384,0.955,6.707,2.119,10.173,2.787c5.666,1.094,11.271,1.25,16.717-1.061c0.545-0.23,1.49-0.328,1.36-1.039
	c-0.116-0.65-1.034-0.537-1.644-0.57c-2.201-0.117-4.403-0.197-6.61-0.311c-0.181-0.011-0.505-0.123-0.505-0.193
	c-0.008-0.277,0.273-0.277,0.468-0.277c2.625-0.006,5.257-0.08,7.866,0.257c0.564,0.075,1.188,0.278,1.382,0.905
	c0.224,0.713-0.289,1.197-0.753,1.609c-1.047,0.932-2.354,1.352-3.646,1.791c-0.287,0.102-0.691,0.133-0.688,0.498
	c0.007,0.156,0.365,0.328,0.58,0.461c0.943,0.6,2.354,0.912,2.134,2.387c-0.209,1.414-1.493,1.93-2.681,2.392
	c-1.43,0.56-2.928,0.849-4.451,0.96c-0.822,0.062-0.922,0.331-0.543,1.096c6.464,13.092,6.182,26.39,0.691,39.621
	c-3.123,7.537-9.142,12.578-16.142,16.465C632.027,153.617,621.754,155.573,610.121,155.617"/>
<path opacity="0.6" fill="#8F98A1" enable-background="new    " d="M601.715,52.321c5.191,0.24,9.625,2.326,13.533,5.661
	c3.506,2.987,6.25,6.659,9.158,10.183c0.258,0.315,0.826,0.76,0.287,1.18c-0.408,0.32-0.896-0.092-1.25-0.397
	c-1.779-1.506-3.146-3.372-4.52-5.232c-3.186-4.325-7.219-7.446-12.464-8.866c-4.334-1.181-8.601-1.19-12.796,0.653
	c-2.158,0.948-4.396,1.747-6.445,2.922c-0.244,0.14-0.686,0.246-0.49,0.648c0.065,0.134,0.467,0.155,0.707,0.145
	c0.84-0.036,1.678-0.149,2.516-0.154c0.566-0.005,1.238,0,1.447,0.69c0.209,0.72-0.102,1.335-0.682,1.796
	c-0.748,0.597-1.648,0.611-2.543,0.665c-0.217,0.012-0.57-0.226-0.621,0.184c-0.018,0.111,0.262,0.284,0.43,0.386
	c1.396,0.837,2.82,1.624,4.193,2.499c9.075,5.801,15.092,14.159,19.672,23.692c1.021,2.123,1.03,4.477,1.403,6.756
	c1.567,9.735,4.298,19.061,10.306,27.106c4.689,6.285,10.715,10.58,18.514,12.209c1.215,0.259,2.515,0.492,3.5,1.42
	c-1.274,0.199-2.512-0.127-3.737-0.348c-6.886-1.231-12.498-4.757-17.269-9.742c-7.371-7.711-11.537-17.142-12.332-27.53
	c-0.748-9.894-5.174-17.511-11.363-24.604c-2.881-3.298-5.995-6.322-9.74-8.648c-3.66-2.278-7.592-3.432-11.906-3.635
	c-8.604-0.401-17.129,0.312-25.568,1.851c-4.989,0.911-9.514,2.997-12.873,7.051c-0.209,0.251-0.498,0.781-0.805,0.541
	c-0.348-0.279,0.156-0.622,0.338-0.896c2.5-3.673,6.203-5.564,10.289-6.847c5.656-1.774,11.527-2.273,17.389-2.777
	c4.031-0.349,8.062-0.69,12.098-1.008c1.889-0.14,3.549-0.853,5.135-1.828c4.461-2.751,9.108-5.028,14.434-5.539
	C600.338,52.438,601.018,52.385,601.715,52.321"/>
<text transform="matrix(1 0 0 1 179.5334 105.7078)" fill="#8F98A1" font-family="'Lora-Italic'" font-size="16.6675">M</text>
<text transform="matrix(1 0 0 1 194.9846 105.7078)" fill="#8F98A1" font-family="'Lora-Italic'" font-size="16.6675">B</text>
<text transform="matrix(1 0 0 1 205.4705 105.7078)" fill="#8F98A1" font-family="'Lora-Italic'" font-size="16.6675">A</text>
<text transform="matrix(1 0 0 1 216.1204 105.7078)" fill="#8F98A1" font-family="'Lora-Italic'" font-size="16.6675">,</text>
<text transform="matrix(1 0 0 1 220.2371 105.7078)" fill="#8F98A1" font-family="'Lora-Italic'" font-size="16.6675"> </text>
<text transform="matrix(1 0 0 1 224.7703 105.7078)" fill="#8F98A1" font-family="'Lora-Italic'" font-size="16.6675">B</text>
<text transform="matrix(1 0 0 1 235.2712 105.7078)" fill="#8F98A1" font-family="'Lora-Italic'" font-size="16.6675">S</text>
<text transform="matrix(1 0 0 1 244.8542 105.7078)" fill="#8F98A1" font-family="'Lora-Italic'" font-size="16.6675">c</text>
<text transform="matrix(1 0 0 1 252.9045 105.7078)" fill="#8F98A1" font-family="'Lora-Italic'" font-size="16.6675"> </text>
<text transform="matrix(1 0 0 1 257.4363 105.7078)" fill="#8F98A1" font-family="'Lora-Italic'" font-size="16.6675">(OT</text>
<text transform="matrix(1 0 0 1 286.1394 105.7078)" fill="#8F98A1" font-family="'Lora-Italic'" font-size="16.6675">),</text>
<text transform="matrix(1 0 0 1 295.3562 105.7078)" fill="#8F98A1" font-family="'Lora-Italic'" font-size="16.6675"> </text>
<text transform="matrix(1 0 0 1 299.8914 105.7078)" fill="#8F98A1" font-family="'Lora-Italic'" font-size="16.6675">B</text>
<text transform="matrix(1 0 0 1 310.3757 105.7078)" fill="#8F98A1" font-family="'Lora-Italic'" font-size="16.6675">S</text>
<text transform="matrix(1 0 0 1 319.9597 105.7078)" fill="#8F98A1" font-family="'Lora-Italic'" font-size="16.6675">c</text>
<text transform="matrix(1 0 0 1 328.0105 105.7078)" fill="#8F98A1" font-family="'Lora-Italic'" font-size="16.6675"> </text>
<text transform="matrix(1 0 0 1 332.5261 105.7078)" fill="#8F98A1" font-family="'Lora-Italic'" font-size="16.6675">(</text>
<text transform="matrix(1 0 0 1 337.6589 105.7078)" fill="#8F98A1" font-family="'Lora-Italic'" font-size="16.6675">P</text>
<text transform="matrix(1 0 0 1 347.7751 105.7078)" fill="#8F98A1" font-family="'Lora-Italic'" font-size="16.6675">s</text>
<text transform="matrix(1 0 0 1 355.0583 105.7078)" fill="#8F98A1" font-family="'Lora-Italic'" font-size="16.6675">y</text>
<text transform="matrix(1 0 0 1 363.7751 105.7078)" fill="#8F98A1" font-family="'Lora-Italic'" font-size="16.6675">c</text>
<text transform="matrix(1 0 0 1 371.8435 105.7078)" fill="#8F98A1" font-family="'Lora-Italic'" font-size="16.6675">h</text>
<text transform="matrix(1 0 0 1 381.5271 105.7078)" fill="#8F98A1" font-family="'Lora-Italic'" font-size="16.6675">)</text>
<text transform="matrix(1 0 0 1 386.6599 105.7078)" fill="#8F98A1" font-family="'Lora-Italic'" font-size="16.6675">,</text>
<text transform="matrix(1 0 0 1 390.7625 105.7078)" fill="#8F98A1" font-family="'Lora-Italic'" font-size="16.6675"> I</text>
<text transform="matrix(1 0 0 1 400.9617 105.7078)" fill="#8F98A1" font-family="'Lora-Italic'" font-size="16.6675">n</text>
<text transform="matrix(1 0 0 1 411.3621 105.7078)" fill="#8F98A1" font-family="'Lora-Italic'" font-size="16.6675">t</text>
<text transform="matrix(1 0 0 1 417.6042 105.7078)" fill="#8F98A1" font-family="'Lora-Italic'" font-size="16.6675">e</text>
<text transform="matrix(1 0 0 1 425.7126 105.7078)" fill="#8F98A1" font-family="'Lora-Italic'" font-size="16.6675">g</text>
<text transform="matrix(1 0 0 1 434.4978 105.7078)" fill="#8F98A1" font-family="'Lora-Italic'" font-size="16.6675">r</text>
<text transform="matrix(1 0 0 1 442.2458 105.7078)" fill="#8F98A1" font-family="'Lora-Italic'" font-size="16.6675">a</text>
<text transform="matrix(1 0 0 1 451.531 105.7078)" fill="#8F98A1" font-family="'Lora-Italic'" font-size="16.6675">l</text>
<text transform="matrix(1 0 0 1 456.4167 105.7078)" fill="#8F98A1" font-family="'Lora-Italic'" font-size="16.6675"> </text>
<text transform="matrix(1 0 0 1 460.947 105.7078)" fill="#8F98A1" font-family="'Lora-Italic'" font-size="16.6675">M</text>
<text transform="matrix(1 0 0 1 476.4001 105.7078)" fill="#8F98A1" font-family="'Lora-Italic'" font-size="16.6675">a</text>
<text transform="matrix(1 0 0 1 485.6814 105.7078)" fill="#8F98A1" font-family="'Lora-Italic'" font-size="16.6675">s</text>
<text transform="matrix(1 0 0 1 492.9841 105.7078)" fill="#8F98A1" font-family="'Lora-Italic'" font-size="16.6675">t</text>
<text transform="matrix(1 0 0 1 499.199 105.7078)" fill="#8F98A1" font-family="'Lora-Italic'" font-size="16.6675">e</text>
<text transform="matrix(1 0 0 1 507.3162 105.7078)" fill="#8F98A1" font-family="'Lora-Italic'" font-size="16.6675">r Co</text>
<text transform="matrix(1 0 0 1 539.9333 105.7078)" fill="#8F98A1" font-family="'Lora-Italic'" font-size="16.6675">a</text>
<text transform="matrix(1 0 0 1 549.2878 105.7078)" fill="#8F98A1" font-family="'Lora-Italic'" font-size="16.6675">c</text>
<text transform="matrix(1 0 0 1 557.3533 105.7078)" fill="#8F98A1" font-family="'Lora-Italic'" font-size="16.6675">h</text>
<text transform="matrix(1 0 0 1 567.0388 105.7078)" fill="#8F98A1" font-family="'Lora-Italic'" font-size="16.6675">™</text>
<path fill="#8B5C7A" d="M3,58.054l1.107-1.266c0.949,0,2.371-0.216,4.268-0.628c1.897-0.424,3.822-0.923,5.771-1.507
	c1.949-0.578,4.399-1.286,7.354-2.134c0-1.26,0.05-3.37,0.153-6.32c0.104-2.949,0.291-6.301,0.558-10.037
	c0.263-3.745,0.631-7.616,1.104-11.621c0.476-4.005,1.108-7.667,1.897-10.986c0.79-3.322,1.765-6.062,2.927-8.225
	c1.157-2.161,2.527-3.243,4.108-3.243c1.37,0,2.583,0.87,3.636,2.608c1.053,1.742,1.978,3.983,2.769,6.723
	c0.787,2.743,1.42,5.769,1.896,9.087c0.476,3.319,0.87,6.509,1.186,9.564c0.315,3.06,0.552,5.825,0.712,8.303
	c0.156,2.475,0.238,4.244,0.238,5.294c1.579-0.632,3.188-1.289,4.819-1.977c1.635-0.684,3.348-1.028,5.138-1.028l0.949,1.106
	c-0.104,0.316-0.631,0.687-1.582,1.107c-0.945,0.426-2.004,0.844-3.161,1.268c-1.161,0.421-2.292,0.789-3.399,1.103
	c-1.103,0.318-1.871,0.527-2.292,0.635c0.211,2.112,0.579,5.297,1.107,9.565c0.525,4.268,1.185,8.695,1.976,13.279
	c0.793,4.584,1.687,8.853,2.688,12.803c1.004,3.957,2.082,6.664,3.243,8.146c0.524,0.734,1.317,1.341,2.371,1.818
	c1.052,0.473,1.685,1.131,1.897,1.979l-1.109,1.1c-1.578,0-3.031-1.004-4.346-3.004c-1.32-2-2.506-4.557-3.555-7.66
	c-1.057-3.109-1.98-6.562-2.771-10.359c-0.788-3.795-1.45-7.453-1.974-10.986c-0.529-3.533-0.95-6.744-1.267-9.645
	c-0.317-2.896-0.528-4.981-0.631-6.241c-2.85,1.153-5.694,2.343-8.54,3.549c-2.844,1.217-5.69,2.403-8.539,3.561v27.667
	c0,0.418-0.104,1.293-0.312,2.609c-0.214,1.317-0.634,1.979-1.266,1.979c-0.631,0-1.025-0.479-1.186-1.422
	c-0.16-0.953-0.236-1.748-0.236-2.373c0-4.533,0.103-9.096,0.312-13.68c0.212-4.584,0.318-9.142,0.318-13.678
	c-2.741,1.057-5.533,1.979-8.381,2.771C10.112,58.447,7.21,59,4.259,59.315L3,58.054z M32.562,4.935
	c-1.158,0-2.186,1.003-3.08,3.004c-0.897,2.004-1.661,4.584-2.295,7.747c-0.631,3.161-1.158,6.616-1.582,10.352
	c-0.422,3.745-0.766,7.332-1.025,10.753c-0.264,3.429-0.448,6.514-0.552,9.248c-0.107,2.748-0.16,4.584-0.16,5.539
	c2.844-1.158,5.637-2.375,8.379-3.642c2.738-1.26,5.533-2.471,8.38-3.635c-0.106-0.949-0.235-2.552-0.397-4.82
	c-0.157-2.268-0.396-4.874-0.708-7.828c-0.319-2.948-0.689-5.98-1.109-9.093c-0.42-3.104-0.922-5.973-1.501-8.61
	c-0.579-2.633-1.238-4.798-1.973-6.486C34.199,5.781,33.408,4.935,32.562,4.935"/>
<path fill="#8B5C7A" d="M62.599,75.924c-0.844,0-1.479-1.265-1.896-3.796c-0.422-2.53-0.739-5.85-0.948-9.962
	c-0.212-4.111-0.449-8.771-0.713-13.993c-0.264-5.211-0.631-10.512-1.104-15.887s-1.162-10.567-2.055-15.572
	c-0.897-5.005-2.137-9.405-3.717-13.199l-0.157-0.634l1.105-1.265c0.843,0,1.503,0.637,1.977,1.898
	c0.476,1.265,0.815,2.213,1.027,2.841c1.367,4.956,2.42,10.124,3.162,15.494c0.736,5.378,1.288,10.833,1.661,16.367
	c0.364,5.533,0.657,11.044,0.867,16.519c0.212,5.479,0.526,10.811,0.95,15.967c0.315-1.367,0.711-3.371,1.187-6.005
	c0.475-2.639,1.051-5.561,1.74-8.776c0.684-3.211,1.446-6.482,2.289-9.798c0.843-3.319,1.792-6.352,2.85-9.092
	c1.048-2.744,2.21-4.979,3.476-6.718c1.266-1.742,2.688-2.613,4.269-2.613c2.001,0,3.662,0.817,4.979,2.452
	c1.317,1.636,2.345,3.561,3.083,5.77c0.736,2.212,1.238,4.484,1.503,6.796c0.261,2.325,0.395,4.217,0.395,5.697
	c0,1.791-0.291,4.477-0.87,8.059c-0.579,3.587-1.449,7.168-2.604,10.755c-1.163,3.581-2.588,6.718-4.272,9.404
	c-1.689,2.687-3.69,4.033-6.006,4.033c-0.95,0-1.658-0.265-2.135-0.795c-0.477-0.52-0.816-1.185-1.027-1.973
	c-0.212-0.788-0.343-1.636-0.396-2.53c-0.053-0.896-0.136-1.661-0.238-2.289l1.265-1.266l0.949,0.787l0.947,5.379l1.425,0.154
	c3.582-3.688,6.321-8.09,8.222-13.199c1.897-5.109,2.843-10.246,2.843-15.415c0-1.051-0.157-2.632-0.472-4.745
	c-0.319-2.104-0.82-4.237-1.501-6.401c-0.689-2.16-1.529-4.054-2.53-5.688c-1.005-1.636-2.188-2.451-3.559-2.451
	c-1.158,0-2.268,0.869-3.319,2.608c-1.057,1.737-2.031,3.976-2.926,6.715c-0.896,2.745-1.74,5.748-2.528,9.013
	c-0.791,3.271-1.477,6.435-2.056,9.485c-0.582,3.062-1.106,5.801-1.582,8.225c-0.472,2.424-0.815,4.111-1.029,5.056
	c-0.211,0.53-0.499,1.422-0.868,2.687C63.89,75.286,63.335,75.924,62.599,75.924"/>
<path fill="#8B5C7A" d="M97.38,75.924c-0.846,0-1.478-1.265-1.896-3.796c-0.424-2.53-0.739-5.85-0.948-9.962
	c-0.213-4.111-0.451-8.771-0.713-13.993c-0.264-5.211-0.631-10.512-1.107-15.887c-0.472-5.375-1.16-10.567-2.055-15.572
	s-2.134-9.405-3.714-13.199L86.79,2.881l1.105-1.265c0.843,0,1.501,0.637,1.975,1.898c0.474,1.265,0.817,2.213,1.029,2.841
	c1.367,4.956,2.421,10.124,3.162,15.494c0.735,5.378,1.289,10.833,1.657,16.367c0.367,5.533,0.66,11.044,0.87,16.519
	c0.211,5.479,0.526,10.811,0.95,15.967c0.312-1.367,0.708-3.371,1.188-6.005c0.474-2.639,1.05-5.561,1.736-8.776
	c0.687-3.211,1.449-6.482,2.292-9.798c0.844-3.319,1.792-6.352,2.848-9.092c1.051-2.744,2.211-4.979,3.479-6.718
	c1.266-1.742,2.688-2.613,4.268-2.613c2.001,0,3.663,0.817,4.979,2.452c1.317,1.636,2.344,3.561,3.083,5.77
	c0.735,2.212,1.238,4.484,1.501,6.796c0.261,2.325,0.396,4.217,0.396,5.697c0,1.791-0.293,4.477-0.87,8.059
	c-0.579,3.587-1.449,7.168-2.604,10.755c-1.165,3.581-2.587,6.718-4.271,9.404c-1.688,2.687-3.69,4.033-6.006,4.033
	c-0.95,0-1.658-0.265-2.136-0.795c-0.476-0.52-0.815-1.185-1.026-1.973s-0.344-1.636-0.396-2.53
	c-0.055-0.896-0.136-1.661-0.239-2.289l1.267-1.266l0.949,0.787l0.947,5.379l1.426,0.154c3.578-3.688,6.32-8.09,8.221-13.199
	c1.897-5.109,2.844-10.246,2.844-15.415c0-1.051-0.16-2.632-0.472-4.745c-0.319-2.104-0.82-4.237-1.501-6.401
	c-0.689-2.16-1.529-4.054-2.532-5.688c-1.003-1.636-2.19-2.451-3.558-2.451c-1.16,0-2.267,0.869-3.318,2.608
	c-1.056,1.737-2.031,3.976-2.926,6.715c-0.896,2.745-1.74,5.748-2.528,9.013c-0.791,3.271-1.477,6.435-2.056,9.485
	c-0.582,3.062-1.105,5.801-1.582,8.225c-0.475,2.424-0.814,4.111-1.029,5.056c-0.211,0.53-0.499,1.422-0.868,2.687
	C98.67,75.286,98.116,75.924,97.38,75.924"/>
<path fill="#8B5C7A" d="M128.365,29.441l1.267,1.103c0,1.796-0.03,3.983-0.081,6.564c-0.055,2.582-0.078,5.402-0.078,8.458
	c0,2.848,0.023,5.796,0.078,8.853c0.05,3.056,0.212,5.982,0.475,8.775c0.262,2.794,0.604,5.353,1.026,7.668
	c0.422,2.316,1,4.16,1.741,5.533c0.631-0.106,1.446-1.313,2.449-3.641c0.999-2.316,2.056-5.158,3.162-8.53
	c1.105-3.372,2.237-7.089,3.397-11.152c1.159-4.053,2.239-7.924,3.242-11.618c1-3.689,1.896-6.98,2.686-9.882
	c0.793-2.895,1.396-4.922,1.819-6.085l0.949-0.472c0.633,0.103,1.209,1.051,1.739,2.845c0.527,1.793,0.949,4.163,1.263,7.117
	c0.319,2.949,0.579,6.269,0.793,9.957c0.208,3.688,0.34,7.426,0.396,11.228c0.05,3.796,0.104,7.507,0.16,11.142
	c0.048,3.641,0.076,6.825,0.076,9.564v-1.736c0.635,0.106,1.426,0.235,2.371,0.396c0.951,0.156,1.527,0.605,1.742,1.341l-1.422,1.11
	l-2.531-0.473v6.717c0,3.104-0.106,6.61-0.318,10.51c-0.212,3.9-0.527,7.932-0.946,12.098c-0.424,4.166-1.082,7.98-1.978,11.463
	c-0.897,3.475-2.056,6.326-3.479,8.541c-1.422,2.209-3.188,3.312-5.294,3.312c-2.108,0-3.771-0.66-4.984-1.974
	c-1.21-1.317-2.158-2.899-2.843-4.743c-0.687-1.847-1.134-3.798-1.346-5.851c-0.211-2.062-0.312-3.822-0.312-5.293
	c0-2.953,0.34-6.429,1.026-10.435c0.684-4.01,1.79-7.908,3.321-11.703c1.524-3.791,3.5-7.143,5.926-10.037
	c2.425-2.895,5.375-4.665,8.851-5.297v-13.12c0-5.378-0.131-10.755-0.396-16.127c-0.264-5.377-0.922-10.486-1.974-15.334
	c-0.53,1.161-1.161,3.158-1.896,6.005c-0.739,2.848-1.558,6.063-2.452,9.646c-0.897,3.587-1.873,7.324-2.923,11.227
	c-1.057,3.897-2.164,7.452-3.323,10.67c-1.161,3.218-2.315,5.85-3.474,7.903c-1.162,2.053-2.271,3.082-3.322,3.082
	c-1.058,0-1.924-1.029-2.611-3.082c-0.684-2.055-1.238-4.687-1.66-7.903c-0.42-3.218-0.736-6.724-0.945-10.515
	c-0.213-3.796-0.343-7.484-0.398-11.065c-0.055-3.582-0.077-6.802-0.077-9.644v-6.013L128.365,29.441z M144.806,127.302
	c2.107-3.062,3.717-6.689,4.822-10.91c1.107-4.215,1.897-8.615,2.373-13.201c0.473-4.582,0.708-9.146,0.708-13.676V77.183
	c-1.683,0-3.293,0.688-4.819,2.061c-1.529,1.366-2.954,3.104-4.27,5.21s-2.476,4.48-3.479,7.113
	c-1.001,2.641-1.845,5.244-2.528,7.828c-0.689,2.578-1.213,5.002-1.58,7.271c-0.374,2.268-0.552,4.086-0.552,5.459
	c0,1.158,0.102,2.633,0.312,4.43c0.211,1.783,0.607,3.5,1.187,5.135c0.579,1.631,1.37,3.029,2.372,4.188
	c1.001,1.158,2.345,1.738,4.031,1.738C143.701,127.617,144.175,127.509,144.806,127.302"/>
<path fill="#8B5C7A" d="M184.643,11.42l1.105,1.104c0.211,8.117,0.447,16.182,0.714,24.191c0.261,8.01,0.656,16.068,1.183,24.186
	c0.106-1.266,0.424-3.56,0.951-6.879c0.526-3.318,1.187-7.085,1.978-11.305c0.79-4.211,1.657-8.583,2.606-13.117
	c0.948-4.53,1.95-8.696,3.004-12.492c1.053-3.793,2.135-6.899,3.239-9.324c1.106-2.424,2.188-3.638,3.24-3.638
	c0.634,0,1.16,0.818,1.584,2.452c0.417,1.635,0.708,3.579,0.867,5.851c0.159,2.264,0.263,4.559,0.317,6.874
	c0.049,2.322,0.08,4.107,0.08,5.372c0,0.322,0.022,1.427,0.075,3.325c0.054,1.898,0.156,4.188,0.317,6.878
	c0.156,2.685,0.312,5.587,0.474,8.691c0.159,3.112,0.367,6.117,0.632,9.013c0.264,2.9,0.578,5.453,0.949,7.666
	c0.368,2.215,0.764,3.743,1.188,4.585c1.055-1.684,2.106-4.289,3.162-7.823c1.051-3.532,2.078-7.43,3.082-11.697
	c1-4.273,2.058-8.669,3.162-13.205c1.105-4.525,2.215-8.639,3.318-12.327c1.105-3.688,2.292-6.723,3.559-9.092
	c1.264-2.373,2.58-3.562,3.949-3.562c0.735,0,1.396,0.979,1.979,2.926c0.576,1.956,1.104,4.537,1.578,7.749
	c0.477,3.218,0.924,6.825,1.347,10.831c0.419,4.005,0.813,8.092,1.187,12.251c0.366,4.166,0.711,8.195,1.026,12.096
	c0.317,3.897,0.634,7.27,0.948,10.116c0.209,2.431,0.607,4.954,1.185,7.587c0.578,2.639,0.869,5.114,0.869,7.432
	c0,0.215-0.076,0.504-0.233,0.869c-0.158,0.375-0.396,0.552-0.711,0.552c-0.633,0-1.188-0.868-1.662-2.605
	c-0.474-1.736-0.926-4.031-1.342-6.873c-0.424-2.848-0.818-6.063-1.188-9.646s-0.711-7.249-1.029-10.992
	c-0.312-3.739-0.631-7.351-0.943-10.825c-0.316-3.481-0.58-6.535-0.791-9.171c-0.316-3.268-0.609-6.506-0.867-9.726
	c-0.27-3.209-0.979-6.345-2.142-9.404c-1.159,1.579-2.264,4.057-3.317,7.432c-1.053,3.369-2.106,7.166-3.162,11.385
	c-1.051,4.214-2.133,8.56-3.239,13.04c-1.104,4.477-2.188,8.589-3.241,12.332c-1.055,3.742-2.134,6.798-3.238,9.168
	c-1.105,2.369-2.188,3.56-3.242,3.56c-0.945,0-1.795-1.555-2.53-4.665c-0.738-3.108-1.317-6.664-1.737-10.674
	c-0.424-4-0.736-7.876-0.949-11.619c-0.211-3.743-0.312-6.3-0.312-7.667v-7.745c0-2.954-0.084-5.821-0.239-8.619
	c-0.158-2.791-0.609-5.56-1.346-8.299c-0.844,1.37-1.766,3.715-2.764,7.034c-1.006,3.319-2.004,7.195-3.008,11.621
	c-1,4.426-1.951,9.141-2.845,14.152c-0.896,5.002-1.716,9.801-2.452,14.386c-0.736,4.583-1.316,8.723-1.738,12.411
	c-0.422,3.688-0.631,6.429-0.631,8.22c0,0.103,0.022,0.215,0.077,0.316c0.054,0.102,0.081,0.209,0.081,0.315
	c0,0.107-0.105,0.155-0.318,0.155h-0.631h-0.16L186.7,76.08c-0.211-0.418-0.424-2.107-0.631-5.062
	c-0.215-2.949-0.453-6.585-0.713-10.905c-0.262-4.326-0.5-9.013-0.713-14.074c-0.211-5.059-0.396-9.875-0.556-14.466
	c-0.156-4.584-0.288-8.615-0.393-12.09c-0.107-3.484-0.158-5.796-0.158-6.959L184.643,11.42z"/>
<path fill="#8B5C7A" d="M242.824,58.054c0-2,0.235-4.848,0.709-8.536c0.476-3.688,1.292-7.297,2.452-10.828
	c1.158-3.53,2.658-6.612,4.509-9.246c1.842-2.638,4.188-3.957,7.034-3.957c1.787,0,3.341,0.579,4.66,1.74
	c1.317,1.161,2.451,2.372,3.397,3.635c0-0.524,0.08-1.002,0.24-1.418c0.155-0.423,0.495-0.736,1.024-0.953l1.104,1.108v5.531
	c0,2.74,0.054,5.906,0.159,9.487c0.104,3.582,0.289,7.351,0.554,11.302s0.687,7.564,1.267,10.83
	c0.578,3.266,1.342,5.983,2.291,8.139c0.946,2.167,2.162,3.244,3.635,3.244l2.849-1.266l0.949,1.266
	c-0.212,0.633-0.769,1.244-1.658,1.82c-0.897,0.584-1.66,0.865-2.291,0.865c-1.901,0-3.431-1.211-4.59-3.635
	c-1.16-2.423-2.078-5.217-2.767-8.374c-0.687-3.163-1.187-6.3-1.502-9.409c-0.315-3.104-0.529-5.398-0.631-6.879
	c-0.316,1.795-0.927,4.167-1.816,7.115c-0.897,2.954-2.034,5.909-3.399,8.852c-1.371,2.954-2.979,5.485-4.823,7.594
	c-1.845,2.105-3.927,3.163-6.242,3.163c-1.582,0-2.849-0.929-3.793-2.772c-0.951-1.838-1.662-3.945-2.139-6.32
	c-0.477-2.37-0.789-4.739-0.947-7.114C242.905,60.665,242.824,59.003,242.824,58.054 M250.569,76.239
	c1.478,0,2.871-0.739,4.188-2.22c1.318-1.469,2.558-3.366,3.718-5.688c1.16-2.316,2.157-4.9,3.008-7.747
	c0.841-2.848,1.576-5.608,2.211-8.3c0.634-2.687,1.104-5.14,1.423-7.349c0.315-2.217,0.473-3.899,0.473-5.059v-6.484
	c-0.631,0-1.182-0.292-1.657-0.872c-0.476-0.579-0.978-1.206-1.504-1.897c-0.527-0.682-1.132-1.316-1.816-1.896
	c-0.688-0.579-1.555-0.871-2.606-0.871c-2.528,0-4.612,1.266-6.246,3.796c-1.637,2.531-2.923,5.479-3.872,8.853
	c-0.947,3.377-1.638,6.747-2.056,10.117c-0.422,3.378-0.634,5.957-0.634,7.752c0,0.843,0.025,2.235,0.08,4.188
	c0.052,1.952,0.236,3.952,0.554,6.006s0.842,3.851,1.58,5.377C248.145,75.473,249.196,76.239,250.569,76.239"/>
<path fill="#8B5C7A" d="M284.166,16.635c-0.056,4.426-0.08,8.852-0.08,13.281c0,8.533,0.134,16.969,0.396,25.29
	c0.263,8.332,0.924,16.707,1.978,25.141l-1.104,0.946c-0.635,0-1.133-0.866-1.506-2.609c-0.367-1.737-0.687-3.973-0.943-6.719
	c-0.266-2.734-0.452-5.851-0.557-9.328c-0.104-3.475-0.185-7.008-0.236-10.59c-0.055-3.581-0.104-7.062-0.159-10.434
	c-0.056-3.371-0.076-6.38-0.076-9.016l-0.16-14.543v-1.973c0-1.528,0.025-3.266,0.08-5.22c0.054-1.951,0.156-3.793,0.315-5.534
	c0.16-1.737,0.447-2.768,0.869-3.081l0.949,0.313l0.313,0.791C284.242,7.78,284.219,12.208,284.166,16.635"/>
<path fill="#8B5C7A" d="M290.725,58.054c0-2,0.234-4.848,0.709-8.536c0.475-3.688,1.291-7.297,2.453-10.828
	c1.156-3.53,2.656-6.612,4.506-9.246c1.842-2.638,4.188-3.957,7.037-3.957c1.785,0,3.34,0.579,4.658,1.74s2.451,2.372,3.398,3.635
	c0-0.524,0.08-1.002,0.238-1.418c0.157-0.423,0.498-0.736,1.025-0.953l1.107,1.108v5.531c0,2.74,0.051,5.906,0.158,9.487
	c0.102,3.582,0.289,7.351,0.555,11.302c0.26,3.951,0.684,7.564,1.264,10.83c0.578,3.266,1.344,5.983,2.291,8.139
	c0.947,2.167,2.16,3.244,3.637,3.244l2.846-1.266l0.951,1.266c-0.213,0.633-0.768,1.244-1.658,1.82
	c-0.898,0.584-1.662,0.865-2.291,0.865c-1.902,0-3.43-1.211-4.59-3.635c-1.16-2.423-2.08-5.217-2.768-8.374
	c-0.686-3.163-1.188-6.3-1.502-9.409c-0.314-3.104-0.527-5.398-0.631-6.879c-0.314,1.795-0.926,4.167-1.816,7.115
	c-0.896,2.954-2.033,5.909-3.4,8.852c-1.371,2.954-2.979,5.485-4.824,7.594c-1.842,2.105-3.924,3.163-6.24,3.163
	c-1.581,0-2.848-0.929-3.795-2.772c-0.947-1.838-1.658-3.945-2.137-6.32c-0.475-2.37-0.789-4.739-0.947-7.114
	C290.807,60.665,290.725,59.003,290.725,58.054 M298.471,76.239c1.477,0,2.869-0.739,4.188-2.22
	c1.318-1.469,2.557-3.366,3.717-5.688c1.158-2.316,2.158-4.9,3.006-7.747c0.844-2.848,1.578-5.608,2.213-8.3
	c0.635-2.687,1.105-5.14,1.424-7.349c0.314-2.217,0.473-3.899,0.473-5.059v-6.484c-0.631,0-1.184-0.292-1.658-0.872
	s-0.977-1.206-1.504-1.897c-0.525-0.682-1.131-1.316-1.814-1.896c-0.688-0.579-1.557-0.871-2.609-0.871
	c-2.527,0-4.611,1.266-6.244,3.796c-1.637,2.531-2.924,5.479-3.873,8.853c-0.949,3.377-1.639,6.747-2.055,10.117
	c-0.422,3.378-0.633,5.957-0.633,7.752c0,0.843,0.021,2.235,0.078,4.188c0.053,1.952,0.236,3.952,0.555,6.006
	c0.314,2.054,0.844,3.851,1.58,5.377C296.043,75.473,297.098,76.239,298.471,76.239"/>
<path fill="#8B5C7A" d="M329.453,34.34l1.104,1.11c0.95,6.004,1.555,12.015,1.819,18.02c0.263,6.005,1.235,11.968,2.925,17.864
	c0.42-1.157,0.817-3.082,1.186-5.769c0.367-2.687,0.738-5.694,1.107-9.014c0.366-3.318,0.764-6.745,1.186-10.272
	c0.421-3.532,0.976-6.744,1.66-9.646c0.685-2.896,1.529-5.297,2.531-7.193c1-1.899,2.235-2.844,3.713-2.844
	c1.476,0,2.608,1.077,3.399,3.238s1.427,4.927,1.896,8.297c0.476,3.375,0.845,7.117,1.104,11.224
	c0.265,4.112,0.606,8.117,1.026,12.021c0.423,3.896,0.976,7.403,1.66,10.508c0.687,3.109,1.711,5.404,3.082,6.879
	c0.951,1.057,1.897,2.053,2.849,3.008c0.95,0.942,1.948,1.84,3.002,2.682l-0.944,1.107c-3.162-0.941-5.591-2.898-7.273-5.849
	c-1.688-2.949-2.952-6.402-3.795-10.354c-0.842-3.951-1.396-8.145-1.662-12.571c-0.262-4.43-0.497-8.562-0.707-12.412
	c-0.215-3.843-0.581-7.163-1.104-9.957c-0.531-2.788-1.48-4.558-2.849-5.292c-1.058,0-1.929,0.893-2.606,2.684
	c-0.688,1.793-1.271,4.088-1.74,6.879c-0.478,2.791-0.897,5.927-1.266,9.404c-0.371,3.481-0.77,6.931-1.188,10.355
	c-0.422,3.427-0.87,6.671-1.344,9.722c-0.476,3.061-1.028,5.533-1.662,7.431l-0.473,0.161c-0.951,0-1.767-0.875-2.451-2.611
	c-0.688-1.736-1.289-3.92-1.817-6.562c-0.527-2.627-0.976-5.555-1.343-8.771c-0.371-3.211-0.688-6.327-0.948-9.329
	c-0.265-3.002-0.503-5.686-0.712-8.062c-0.213-2.372-0.372-4.032-0.475-4.979L329.453,34.34z"/>
</svg>
