<?xml version="1.0" encoding="utf-8"?>
<!-- Generator: Adobe Illustrator 16.0.0, SVG Export Plug-In . SVG Version: 6.00 Build 0)  -->
<!DOCTYPE svg PUBLIC "-//W3C//DTD SVG 1.1//EN" "http://www.w3.org/Graphics/SVG/1.1/DTD/svg11.dtd">
<svg version="1.1" id="Layer_1" xmlns="http://www.w3.org/2000/svg" xmlns:xlink="http://www.w3.org/1999/xlink" x="0px" y="0px"
	 width="788.924px" height="198.356px" viewBox="-205.572 -17.257 788.924 198.356"
	 enable-background="new -205.572 -17.257 788.924 198.356" xml:space="preserve">
<path fill="#8B5C7A" d="M0,74.094l1.107-1.266c0.949,0,2.371-0.215,4.268-0.628c1.897-0.425,3.822-0.922,5.771-1.508
	c1.949-0.577,4.399-1.285,7.354-2.134c0-1.26,0.05-3.37,0.153-6.319c0.104-2.949,0.291-6.302,0.558-10.037
	c0.263-3.745,0.631-7.616,1.104-11.621c0.476-4.005,1.108-7.667,1.897-10.986c0.79-3.322,1.765-6.062,2.927-8.225
	c1.157-2.161,2.527-3.243,4.108-3.243c1.37,0,2.583,0.87,3.636,2.607c1.053,1.742,1.978,3.983,2.769,6.724
	c0.787,2.743,1.42,5.769,1.896,9.087c0.476,3.319,0.87,6.509,1.186,9.563c0.315,3.061,0.552,5.825,0.712,8.304
	c0.156,2.475,0.238,4.244,0.238,5.294c1.579-0.632,3.188-1.289,4.819-1.978c1.635-0.684,3.348-1.027,5.138-1.027l0.949,1.105
	c-0.104,0.316-0.631,0.688-1.582,1.107c-0.945,0.426-2.004,0.844-3.161,1.268c-1.161,0.421-2.292,0.789-3.399,1.104
	c-1.103,0.317-1.871,0.526-2.292,0.635c0.211,2.112,0.579,5.296,1.107,9.564c0.525,4.269,1.185,8.695,1.976,13.279
	c0.793,4.584,1.687,8.854,2.688,12.803c1.004,3.957,2.082,6.664,3.243,8.146c0.524,0.734,1.317,1.341,2.371,1.818
	c1.052,0.473,1.685,1.131,1.897,1.979l-1.109,1.1c-1.578,0-3.031-1.004-4.346-3.004c-1.32-2-2.506-4.557-3.555-7.658
	c-1.057-3.11-1.98-6.562-2.771-10.36c-0.788-3.795-1.45-7.453-1.974-10.986c-0.529-3.533-0.95-6.744-1.267-9.645
	c-0.317-2.896-0.528-4.981-0.631-6.241c-2.85,1.153-5.694,2.343-8.54,3.548c-2.844,1.217-5.69,2.403-8.539,3.562v27.667
	c0,0.418-0.104,1.293-0.312,2.608c-0.214,1.317-0.634,1.979-1.266,1.979c-0.631,0-1.025-0.479-1.186-1.422
	c-0.16-0.953-0.236-1.748-0.236-2.373c0-4.533,0.103-9.097,0.312-13.681c0.212-4.584,0.318-9.142,0.318-13.678
	c-2.741,1.057-5.533,1.979-8.381,2.771c-2.843,0.789-5.745,1.341-8.696,1.656L0,74.094z M29.562,20.975
	c-1.158,0-2.186,1.003-3.08,3.004c-0.897,2.004-1.661,4.584-2.295,7.747c-0.631,3.161-1.158,6.616-1.582,10.353
	c-0.422,3.745-0.766,7.332-1.025,10.753c-0.264,3.429-0.448,6.514-0.552,9.248c-0.107,2.748-0.16,4.583-0.16,5.539
	c2.844-1.158,5.637-2.375,8.379-3.642c2.738-1.26,5.533-2.471,8.38-3.635c-0.106-0.949-0.235-2.552-0.397-4.82
	c-0.157-2.268-0.396-4.874-0.708-7.828c-0.319-2.947-0.689-5.979-1.109-9.093c-0.42-3.104-0.922-5.973-1.501-8.609
	c-0.579-2.634-1.238-4.799-1.973-6.486C31.199,21.822,30.408,20.975,29.562,20.975"/>
<path fill="#8B5C7A" d="M59.599,91.963c-0.844,0-1.479-1.265-1.896-3.796c-0.422-2.53-0.739-5.851-0.948-9.962
	c-0.212-4.111-0.449-8.771-0.713-13.993c-0.264-5.211-0.631-10.512-1.104-15.887s-1.162-10.567-2.055-15.572
	c-0.897-5.005-2.137-9.405-3.717-13.199l-0.157-0.634l1.105-1.265c0.843,0,1.503,0.637,1.977,1.897
	c0.476,1.265,0.815,2.213,1.027,2.841c1.367,4.956,2.42,10.124,3.162,15.494c0.736,5.378,1.288,10.833,1.661,16.367
	c0.364,5.533,0.657,11.043,0.867,16.518c0.212,5.479,0.526,10.812,0.95,15.968c0.315-1.367,0.711-3.371,1.187-6.004
	c0.475-2.641,1.051-5.562,1.74-8.777c0.684-3.211,1.446-6.482,2.289-9.797c0.843-3.319,1.792-6.353,2.85-9.091
	c1.048-2.745,2.21-4.979,3.476-6.72c1.266-1.74,2.688-2.612,4.269-2.612c2.001,0,3.662,0.816,4.979,2.451
	c1.317,1.637,2.345,3.562,3.083,5.771c0.736,2.212,1.238,4.485,1.503,6.796c0.261,2.325,0.395,4.217,0.395,5.697
	c0,1.791-0.291,4.476-0.87,8.058c-0.579,3.587-1.449,7.168-2.604,10.755c-1.163,3.581-2.588,6.72-4.272,9.404
	c-1.689,2.687-3.69,4.033-6.006,4.033c-0.95,0-1.658-0.266-2.135-0.795c-0.477-0.521-0.816-1.186-1.027-1.974
	c-0.212-0.788-0.343-1.636-0.396-2.529c-0.053-0.896-0.136-1.661-0.238-2.289l1.265-1.267l0.949,0.787l0.947,5.379l1.425,0.154
	c3.582-3.688,6.321-8.09,8.222-13.199c1.897-5.108,2.843-10.246,2.843-15.415c0-1.05-0.157-2.631-0.472-4.745
	c-0.319-2.104-0.82-4.236-1.501-6.4c-0.689-2.16-1.529-4.055-2.53-5.688c-1.005-1.636-2.188-2.451-3.559-2.451
	c-1.158,0-2.268,0.869-3.319,2.608c-1.057,1.737-2.031,3.976-2.926,6.715c-0.896,2.745-1.74,5.748-2.528,9.013
	c-0.791,3.271-1.477,6.435-2.056,9.485c-0.582,3.062-1.106,5.801-1.582,8.225c-0.472,2.425-0.815,4.111-1.029,5.057
	c-0.211,0.531-0.499,1.422-0.868,2.687C60.89,91.325,60.335,91.963,59.599,91.963"/>
<path fill="#8B5C7A" d="M94.38,91.963c-0.846,0-1.478-1.265-1.896-3.796c-0.424-2.53-0.739-5.851-0.948-9.962
	c-0.213-4.111-0.451-8.771-0.713-13.993c-0.264-5.211-0.631-10.512-1.107-15.887c-0.472-5.375-1.16-10.567-2.055-15.572
	s-2.134-9.405-3.714-13.199l-0.157-0.634l1.105-1.265c0.843,0,1.501,0.637,1.975,1.897c0.474,1.265,0.817,2.213,1.029,2.841
	c1.367,4.956,2.421,10.124,3.162,15.494c0.735,5.378,1.289,10.833,1.657,16.367c0.367,5.533,0.66,11.043,0.87,16.518
	c0.211,5.479,0.526,10.812,0.95,15.968c0.312-1.367,0.708-3.371,1.188-6.004c0.474-2.641,1.05-5.562,1.736-8.777
	c0.687-3.211,1.449-6.482,2.292-9.797c0.844-3.319,1.792-6.353,2.848-9.091c1.051-2.745,2.211-4.979,3.479-6.72
	c1.266-1.741,2.688-2.612,4.268-2.612c2.001,0,3.663,0.816,4.979,2.451c1.317,1.637,2.344,3.562,3.083,5.771
	c0.735,2.212,1.238,4.485,1.501,6.796c0.261,2.325,0.396,4.217,0.396,5.697c0,1.791-0.293,4.476-0.87,8.058
	c-0.579,3.587-1.449,7.168-2.604,10.755c-1.165,3.581-2.587,6.72-4.271,9.404c-1.688,2.687-3.69,4.033-6.006,4.033
	c-0.95,0-1.658-0.266-2.136-0.795c-0.476-0.521-0.815-1.186-1.026-1.974s-0.344-1.636-0.396-2.529
	c-0.055-0.896-0.136-1.661-0.239-2.289l1.267-1.267l0.949,0.787l0.947,5.379l1.426,0.154c3.578-3.688,6.32-8.09,8.221-13.199
	c1.897-5.108,2.844-10.246,2.844-15.415c0-1.05-0.16-2.631-0.472-4.745c-0.319-2.104-0.82-4.236-1.501-6.4
	c-0.689-2.16-1.529-4.055-2.532-5.688c-1.003-1.636-2.19-2.451-3.558-2.451c-1.16,0-2.267,0.869-3.318,2.608
	c-1.056,1.737-2.031,3.976-2.926,6.715c-0.896,2.745-1.74,5.748-2.528,9.013c-0.791,3.271-1.477,6.435-2.056,9.485
	c-0.582,3.062-1.105,5.801-1.582,8.225c-0.475,2.425-0.814,4.111-1.029,5.057c-0.211,0.531-0.499,1.422-0.868,2.687
	C95.67,91.325,95.116,91.963,94.38,91.963"/>
<path fill="#8B5C7A" d="M125.365,45.481l1.267,1.104c0,1.796-0.03,3.982-0.081,6.563c-0.055,2.582-0.078,5.402-0.078,8.458
	c0,2.849,0.023,5.795,0.078,8.853c0.05,3.056,0.212,5.981,0.475,8.774c0.262,2.796,0.604,5.354,1.026,7.668
	c0.422,2.316,1,4.16,1.741,5.533c0.631-0.105,1.446-1.312,2.449-3.641c0.999-2.316,2.056-5.158,3.162-8.53
	c1.105-3.372,2.237-7.089,3.397-11.15c1.159-4.054,2.239-7.925,3.242-11.619c1-3.689,1.896-6.98,2.686-9.881
	c0.793-2.896,1.396-4.924,1.819-6.087l0.949-0.472c0.633,0.104,1.209,1.051,1.739,2.845c0.527,1.793,0.949,4.163,1.263,7.117
	c0.319,2.949,0.579,6.27,0.793,9.957c0.208,3.688,0.34,7.425,0.396,11.228c0.05,3.796,0.104,7.507,0.16,11.142
	c0.048,3.641,0.076,6.825,0.076,9.564v-1.736c0.635,0.107,1.426,0.235,2.371,0.396c0.951,0.156,1.527,0.605,1.742,1.342
	l-1.422,1.109l-2.531-0.473v6.717c0,3.104-0.106,6.61-0.318,10.51c-0.212,3.9-0.527,7.933-0.946,12.099
	c-0.424,4.166-1.082,7.979-1.978,11.463c-0.897,3.475-2.056,6.326-3.479,8.541c-1.422,2.209-3.188,3.312-5.294,3.312
	c-2.108,0-3.771-0.66-4.984-1.974c-1.21-1.317-2.158-2.899-2.843-4.743c-0.687-1.847-1.134-3.798-1.346-5.851
	c-0.211-2.062-0.312-3.822-0.312-5.293c0-2.953,0.34-6.43,1.026-10.436c0.684-4.01,1.79-7.908,3.321-11.703
	c1.524-3.791,3.5-7.143,5.926-10.037c2.425-2.895,5.375-4.664,8.851-5.297v-13.12c0-5.378-0.131-10.755-0.396-16.126
	c-0.264-5.377-0.922-10.485-1.974-15.334c-0.53,1.161-1.161,3.158-1.896,6.006c-0.739,2.848-1.558,6.062-2.452,9.646
	c-0.897,3.586-1.873,7.324-2.923,11.226c-1.057,3.897-2.164,7.452-3.323,10.672c-1.161,3.217-2.315,5.849-3.474,7.901
	c-1.162,2.054-2.271,3.082-3.322,3.082c-1.058,0-1.924-1.028-2.611-3.082c-0.684-2.055-1.238-4.687-1.66-7.901
	c-0.42-3.22-0.736-6.726-0.945-10.517c-0.213-3.796-0.343-7.482-0.398-11.064c-0.055-3.582-0.077-6.803-0.077-9.645v-6.013
	L125.365,45.481z M141.806,143.342c2.107-3.062,3.717-6.688,4.822-10.91c1.107-4.215,1.897-8.615,2.373-13.201
	c0.473-4.582,0.708-9.146,0.708-13.676V93.223c-1.683,0-3.293,0.688-4.819,2.062c-1.529,1.365-2.954,3.104-4.27,5.21
	c-1.316,2.105-2.476,4.479-3.479,7.112c-1.001,2.642-1.845,5.244-2.528,7.828c-0.689,2.578-1.213,5.002-1.58,7.271
	c-0.374,2.268-0.552,4.086-0.552,5.459c0,1.158,0.102,2.633,0.312,4.43c0.211,1.783,0.607,3.5,1.187,5.135
	c0.579,1.631,1.37,3.029,2.372,4.188c1.001,1.158,2.345,1.738,4.031,1.738C140.701,143.656,141.175,143.548,141.806,143.342"/>
<path fill="#8B5C7A" d="M181.644,27.46l1.105,1.104c0.211,8.117,0.447,16.183,0.714,24.191c0.261,8.01,0.656,16.068,1.183,24.185
	c0.106-1.266,0.424-3.56,0.951-6.879c0.526-3.317,1.188-7.084,1.979-11.304c0.79-4.211,1.656-8.583,2.605-13.117
	c0.948-4.53,1.95-8.696,3.004-12.492c1.053-3.793,2.135-6.898,3.239-9.323c1.106-2.425,2.188-3.639,3.24-3.639
	c0.634,0,1.16,0.818,1.584,2.452c0.417,1.635,0.708,3.579,0.867,5.853c0.159,2.263,0.263,4.558,0.317,6.874
	c0.049,2.32,0.08,4.105,0.08,5.37c0,0.322,0.021,1.428,0.074,3.325c0.055,1.898,0.156,4.188,0.316,6.878
	c0.156,2.686,0.312,5.587,0.475,8.691c0.159,3.112,0.367,6.117,0.632,9.012c0.265,2.9,0.578,5.453,0.949,7.666
	c0.368,2.215,0.765,3.743,1.188,4.585c1.055-1.684,2.105-4.289,3.162-7.823c1.051-3.531,2.078-7.43,3.082-11.696
	c1-4.273,2.058-8.669,3.162-13.205c1.104-4.525,2.215-8.638,3.317-12.327c1.104-3.688,2.292-6.723,3.56-9.092
	c1.264-2.373,2.58-3.562,3.948-3.562c0.735,0,1.396,0.979,1.979,2.927c0.576,1.955,1.104,4.536,1.578,7.748
	c0.477,3.219,0.924,6.825,1.347,10.831c0.419,4.007,0.813,8.093,1.187,12.251c0.366,4.166,0.711,8.195,1.026,12.096
	c0.317,3.896,0.634,7.27,0.948,10.117c0.209,2.43,0.605,4.952,1.185,7.586c0.578,2.639,0.869,5.113,0.869,7.432
	c0,0.215-0.076,0.504-0.233,0.869c-0.158,0.375-0.396,0.552-0.711,0.552c-0.633,0-1.188-0.868-1.662-2.604
	c-0.474-1.737-0.926-4.032-1.342-6.874c-0.424-2.849-0.818-6.063-1.188-9.646c-0.37-3.583-0.711-7.249-1.029-10.992
	c-0.312-3.737-0.631-7.35-0.943-10.824c-0.315-3.481-0.58-6.535-0.791-9.172c-0.315-3.268-0.608-6.506-0.867-9.726
	c-0.27-3.209-0.979-6.345-2.142-9.404c-1.159,1.579-2.264,4.058-3.317,7.433c-1.053,3.369-2.105,7.166-3.162,11.385
	c-1.051,4.214-2.133,8.56-3.238,13.04c-1.104,4.477-2.188,8.588-3.241,12.332c-1.055,3.742-2.134,6.798-3.237,9.168
	c-1.105,2.369-2.188,3.56-3.242,3.56c-0.945,0-1.795-1.555-2.53-4.665c-0.738-3.107-1.317-6.664-1.737-10.674
	c-0.424-4-0.736-7.875-0.949-11.619c-0.211-3.743-0.312-6.3-0.312-7.667V40.9c0-2.953-0.084-5.82-0.239-8.617
	c-0.158-2.791-0.609-5.562-1.346-8.301c-0.844,1.37-1.766,3.716-2.764,7.034c-1.006,3.319-2.004,7.195-3.008,11.621
	c-1,4.426-1.951,9.142-2.846,14.152c-0.896,5.002-1.716,9.8-2.451,14.385c-0.736,4.583-1.316,8.723-1.738,12.411
	c-0.422,3.688-0.631,6.429-0.631,8.22c0,0.104,0.021,0.215,0.076,0.316s0.081,0.209,0.081,0.314c0,0.107-0.104,0.155-0.317,0.155
	h-0.631h-0.16l-0.949-0.473c-0.211-0.418-0.424-2.107-0.631-5.062c-0.215-2.949-0.453-6.585-0.713-10.905
	c-0.262-4.325-0.5-9.013-0.713-14.073c-0.211-5.06-0.396-9.875-0.557-14.465c-0.156-4.584-0.288-8.616-0.393-12.092
	c-0.107-3.483-0.158-5.796-0.158-6.959L181.644,27.46z"/>
<path fill="#8B5C7A" d="M239.824,74.094c0-2,0.235-4.848,0.709-8.536c0.476-3.687,1.292-7.296,2.452-10.828
	c1.158-3.529,2.658-6.611,4.509-9.246c1.842-2.638,4.188-3.957,7.034-3.957c1.787,0,3.341,0.579,4.66,1.74
	c1.316,1.161,2.451,2.372,3.396,3.635c0-0.523,0.08-1.002,0.24-1.418c0.154-0.423,0.494-0.735,1.023-0.952l1.104,1.107v5.531
	c0,2.74,0.054,5.906,0.159,9.487c0.104,3.582,0.289,7.35,0.554,11.301s0.687,7.563,1.267,10.83c0.578,3.266,1.342,5.982,2.291,8.139
	c0.946,2.167,2.162,3.244,3.635,3.244l2.85-1.266l0.949,1.266c-0.213,0.633-0.77,1.244-1.658,1.82
	c-0.896,0.584-1.66,0.864-2.291,0.864c-1.9,0-3.432-1.211-4.59-3.635c-1.16-2.423-2.078-5.217-2.768-8.374
	c-0.687-3.163-1.187-6.3-1.502-9.409c-0.314-3.104-0.527-5.397-0.631-6.879c-0.316,1.795-0.927,4.167-1.816,7.115
	c-0.896,2.954-2.033,5.909-3.398,8.852c-1.371,2.954-2.979,5.485-4.822,7.595c-1.846,2.104-3.928,3.163-6.242,3.163
	c-1.582,0-2.85-0.93-3.793-2.772c-0.951-1.838-1.662-3.945-2.14-6.32c-0.478-2.368-0.789-4.738-0.946-7.113
	C239.905,76.704,239.824,75.042,239.824,74.094 M247.569,92.28c1.478,0,2.871-0.74,4.188-2.222c1.318-1.469,2.559-3.366,3.719-5.688
	c1.159-2.316,2.156-4.9,3.008-7.747c0.841-2.849,1.576-5.608,2.211-8.3c0.634-2.688,1.104-5.14,1.423-7.349
	c0.315-2.217,0.473-3.898,0.473-5.059v-6.484c-0.631,0-1.182-0.292-1.657-0.872c-0.476-0.579-0.978-1.206-1.504-1.896
	c-0.527-0.683-1.132-1.316-1.816-1.896c-0.688-0.579-1.555-0.871-2.605-0.871c-2.527,0-4.611,1.267-6.246,3.796
	c-1.637,2.531-2.923,5.479-3.871,8.854c-0.947,3.377-1.639,6.747-2.057,10.117c-0.422,3.378-0.633,5.957-0.633,7.752
	c0,0.843,0.023,2.234,0.078,4.188c0.053,1.952,0.236,3.952,0.555,6.006c0.318,2.055,0.842,3.852,1.58,5.377
	C245.146,91.513,246.196,92.28,247.569,92.28"/>
<path fill="#8B5C7A" d="M281.166,32.676c-0.056,4.426-0.08,8.852-0.08,13.281c0,8.533,0.134,16.969,0.396,25.29
	c0.264,8.332,0.926,16.707,1.979,25.141l-1.104,0.946c-0.637,0-1.133-0.866-1.506-2.609c-0.367-1.735-0.688-3.973-0.943-6.719
	c-0.266-2.734-0.452-5.85-0.557-9.328c-0.104-3.475-0.186-7.008-0.236-10.59c-0.055-3.581-0.104-7.062-0.159-10.432
	c-0.056-3.372-0.076-6.382-0.076-9.018l-0.16-14.543v-1.973c0-1.528,0.025-3.267,0.08-5.22c0.054-1.951,0.156-3.794,0.315-5.534
	c0.16-1.737,0.447-2.769,0.869-3.081l0.949,0.312l0.312,0.791C281.242,23.821,281.219,28.248,281.166,32.676"/>
<path fill="#8B5C7A" d="M287.726,74.094c0-2,0.234-4.848,0.709-8.536c0.476-3.687,1.291-7.296,2.453-10.828
	c1.156-3.529,2.656-6.611,4.506-9.246c1.842-2.638,4.188-3.957,7.037-3.957c1.785,0,3.34,0.579,4.658,1.74s2.451,2.372,3.398,3.635
	c0-0.523,0.08-1.002,0.238-1.418c0.156-0.423,0.498-0.735,1.024-0.952l1.106,1.107v5.531c0,2.74,0.052,5.906,0.158,9.487
	c0.103,3.582,0.289,7.35,0.555,11.301c0.261,3.951,0.685,7.563,1.265,10.83c0.578,3.266,1.345,5.982,2.291,8.139
	c0.946,2.167,2.16,3.244,3.638,3.244l2.846-1.266l0.951,1.266c-0.213,0.633-0.769,1.244-1.658,1.82
	c-0.898,0.584-1.662,0.864-2.291,0.864c-1.902,0-3.43-1.211-4.59-3.635c-1.16-2.423-2.08-5.217-2.769-8.374
	c-0.687-3.163-1.188-6.3-1.502-9.409c-0.313-3.104-0.526-5.397-0.631-6.879c-0.313,1.795-0.927,4.167-1.816,7.115
	c-0.896,2.954-2.032,5.909-3.399,8.852c-1.371,2.954-2.979,5.485-4.824,7.595c-1.842,2.104-3.924,3.163-6.24,3.163
	c-1.581,0-2.848-0.93-3.795-2.772c-0.947-1.838-1.659-3.945-2.137-6.32c-0.475-2.368-0.789-4.738-0.947-7.113
	C287.808,76.704,287.726,75.042,287.726,74.094 M295.472,92.28c1.478,0,2.869-0.74,4.188-2.222c1.317-1.469,2.557-3.366,3.717-5.688
	c1.158-2.316,2.158-4.9,3.006-7.747c0.845-2.849,1.578-5.608,2.214-8.3c0.635-2.688,1.104-5.14,1.424-7.349
	c0.313-2.217,0.473-3.898,0.473-5.059v-6.484c-0.631,0-1.184-0.292-1.658-0.872s-0.977-1.206-1.504-1.896
	c-0.525-0.683-1.131-1.316-1.814-1.896c-0.688-0.579-1.557-0.871-2.608-0.871c-2.527,0-4.611,1.267-6.244,3.796
	c-1.638,2.531-2.924,5.479-3.873,8.854c-0.949,3.377-1.64,6.747-2.056,10.117c-0.422,3.378-0.633,5.957-0.633,7.752
	c0,0.843,0.021,2.234,0.078,4.188c0.053,1.952,0.236,3.952,0.555,6.006c0.314,2.055,0.845,3.852,1.58,5.377
	C293.043,91.513,294.099,92.28,295.472,92.28"/>
<path fill="#8B5C7A" d="M326.453,50.38l1.104,1.11c0.949,6.004,1.555,12.015,1.818,18.019c0.264,6.005,1.234,11.968,2.925,17.864
	c0.421-1.157,0.817-3.082,1.187-5.77c0.367-2.687,0.738-5.693,1.106-9.014c0.366-3.318,0.765-6.745,1.188-10.272
	c0.42-3.531,0.975-6.743,1.659-9.646c0.685-2.896,1.528-5.297,2.531-7.193c1-1.898,2.234-2.844,3.713-2.844
	c1.476,0,2.607,1.077,3.398,3.238s1.427,4.927,1.896,8.297c0.476,3.375,0.845,7.117,1.104,11.223
	c0.266,4.112,0.605,8.117,1.025,12.021c0.424,3.896,0.977,7.403,1.66,10.508c0.688,3.109,1.711,5.404,3.082,6.879
	c0.951,1.057,1.897,2.053,2.85,3.008c0.949,0.942,1.947,1.84,3.002,2.683l-0.944,1.106c-3.161-0.94-5.591-2.897-7.272-5.849
	c-1.688-2.949-2.952-6.402-3.795-10.354c-0.842-3.949-1.396-8.145-1.662-12.57c-0.262-4.431-0.497-8.562-0.706-12.412
	c-0.216-3.842-0.582-7.163-1.104-9.957c-0.531-2.788-1.48-4.559-2.849-5.292c-1.058,0-1.929,0.893-2.606,2.684
	c-0.688,1.793-1.271,4.088-1.74,6.879c-0.478,2.791-0.896,5.929-1.266,9.404c-0.371,3.482-0.769,6.93-1.188,10.356
	c-0.422,3.426-0.87,6.67-1.344,9.721c-0.477,3.061-1.028,5.533-1.662,7.431L333.09,91.8c-0.95,0-1.767-0.875-2.45-2.611
	c-0.688-1.735-1.289-3.92-1.817-6.562c-0.527-2.627-0.976-5.555-1.343-8.771c-0.371-3.211-0.688-6.325-0.948-9.329
	c-0.265-3.002-0.502-5.686-0.711-8.062c-0.214-2.372-0.373-4.032-0.476-4.978L326.453,50.38z"/>
<text transform="matrix(1 0 0 1 177.5273 126.7463)" fill="#8F98A1" font-family="'Lora-Italic'" font-size="16.6675">M</text>
<text transform="matrix(1 0 0 1 192.9785 126.7463)" fill="#8F98A1" font-family="'Lora-Italic'" font-size="16.6675">B</text>
<text transform="matrix(1 0 0 1 203.4639 126.7463)" fill="#8F98A1" font-family="'Lora-Italic'" font-size="16.6675">A</text>
<text transform="matrix(1 0 0 1 214.1143 126.7463)" fill="#8F98A1" font-family="'Lora-Italic'" font-size="16.6675">,</text>
<text transform="matrix(1 0 0 1 218.2314 126.7463)" fill="#8F98A1" font-family="'Lora-Italic'" font-size="16.6675"> </text>
<text transform="matrix(1 0 0 1 222.7646 126.7463)" fill="#8F98A1" font-family="'Lora-Italic'" font-size="16.6675">B</text>
<text transform="matrix(1 0 0 1 233.2646 126.7463)" fill="#8F98A1" font-family="'Lora-Italic'" font-size="16.6675">S</text>
<text transform="matrix(1 0 0 1 242.8486 126.7463)" fill="#8F98A1" font-family="'Lora-Italic'" font-size="16.6675">c</text>
<text transform="matrix(1 0 0 1 250.8984 126.7463)" fill="#8F98A1" font-family="'Lora-Italic'" font-size="16.6675"> </text>
<text transform="matrix(1 0 0 1 255.4297 126.7463)" fill="#8F98A1" font-family="'Lora-Italic'" font-size="16.6675">(OT</text>
<text transform="matrix(1 0 0 1 284.1328 126.7463)" fill="#8F98A1" font-family="'Lora-Italic'" font-size="16.6675">),</text>
<text transform="matrix(1 0 0 1 293.3506 126.7463)" fill="#8F98A1" font-family="'Lora-Italic'" font-size="16.6675"> </text>
<text transform="matrix(1 0 0 1 297.8857 126.7463)" fill="#8F98A1" font-family="'Lora-Italic'" font-size="16.6675">B</text>
<text transform="matrix(1 0 0 1 308.3691 126.7463)" fill="#8F98A1" font-family="'Lora-Italic'" font-size="16.6675">S</text>
<text transform="matrix(1 0 0 1 317.9531 126.7463)" fill="#8F98A1" font-family="'Lora-Italic'" font-size="16.6675">c</text>
<text transform="matrix(1 0 0 1 326.0039 126.7463)" fill="#8F98A1" font-family="'Lora-Italic'" font-size="16.6675"> </text>
<text transform="matrix(1 0 0 1 330.5205 126.7463)" fill="#8F98A1" font-family="'Lora-Italic'" font-size="16.6675">(</text>
<text transform="matrix(1 0 0 1 335.6523 126.7463)" fill="#8F98A1" font-family="'Lora-Italic'" font-size="16.6675">P</text>
<text transform="matrix(1 0 0 1 345.7686 126.7463)" fill="#8F98A1" font-family="'Lora-Italic'" font-size="16.6675">s</text>
<text transform="matrix(1 0 0 1 353.0518 126.7463)" fill="#8F98A1" font-family="'Lora-Italic'" font-size="16.6675">y</text>
<text transform="matrix(1 0 0 1 361.7686 126.7463)" fill="#8F98A1" font-family="'Lora-Italic'" font-size="16.6675">c</text>
<text transform="matrix(1 0 0 1 369.8379 126.7463)" fill="#8F98A1" font-family="'Lora-Italic'" font-size="16.6675">h</text>
<text transform="matrix(1 0 0 1 379.5215 126.7463)" fill="#8F98A1" font-family="'Lora-Italic'" font-size="16.6675">)</text>
<text transform="matrix(1 0 0 1 384.6543 126.7463)" fill="#8F98A1" font-family="'Lora-Italic'" font-size="16.6675">,</text>
<text transform="matrix(1 0 0 1 388.7568 126.7463)" fill="#8F98A1" font-family="'Lora-Italic'" font-size="16.6675"> I</text>
<text transform="matrix(1 0 0 1 398.9561 126.7463)" fill="#8F98A1" font-family="'Lora-Italic'" font-size="16.6675">n</text>
<text transform="matrix(1 0 0 1 409.3555 126.7463)" fill="#8F98A1" font-family="'Lora-Italic'" font-size="16.6675">t</text>
<text transform="matrix(1 0 0 1 415.5977 126.7463)" fill="#8F98A1" font-family="'Lora-Italic'" font-size="16.6675">e</text>
<text transform="matrix(1 0 0 1 423.7061 126.7463)" fill="#8F98A1" font-family="'Lora-Italic'" font-size="16.6675">g</text>
<text transform="matrix(1 0 0 1 432.4922 126.7463)" fill="#8F98A1" font-family="'Lora-Italic'" font-size="16.6675">r</text>
<text transform="matrix(1 0 0 1 440.2393 126.7463)" fill="#8F98A1" font-family="'Lora-Italic'" font-size="16.6675">a</text>
<text transform="matrix(1 0 0 1 449.5254 126.7463)" fill="#8F98A1" font-family="'Lora-Italic'" font-size="16.6675">l</text>
<text transform="matrix(1 0 0 1 454.4102 126.7463)" fill="#8F98A1" font-family="'Lora-Italic'" font-size="16.6675"> </text>
<text transform="matrix(1 0 0 1 458.9404 126.7463)" fill="#8F98A1" font-family="'Lora-Italic'" font-size="16.6675">M</text>
<text transform="matrix(1 0 0 1 474.3936 126.7463)" fill="#8F98A1" font-family="'Lora-Italic'" font-size="16.6675">a</text>
<text transform="matrix(1 0 0 1 483.6758 126.7463)" fill="#8F98A1" font-family="'Lora-Italic'" font-size="16.6675">s</text>
<text transform="matrix(1 0 0 1 490.9775 126.7463)" fill="#8F98A1" font-family="'Lora-Italic'" font-size="16.6675">t</text>
<text transform="matrix(1 0 0 1 497.1934 126.7463)" fill="#8F98A1" font-family="'Lora-Italic'" font-size="16.6675">e</text>
<text transform="matrix(1 0 0 1 505.3105 126.7463)" fill="#8F98A1" font-family="'Lora-Italic'" font-size="16.6675">r Co</text>
<text transform="matrix(1 0 0 1 537.9268 126.7463)" fill="#8F98A1" font-family="'Lora-Italic'" font-size="16.6675">a</text>
<text transform="matrix(1 0 0 1 547.2812 126.7463)" fill="#8F98A1" font-family="'Lora-Italic'" font-size="16.6675">c</text>
<text transform="matrix(1 0 0 1 555.3477 126.7463)" fill="#8F98A1" font-family="'Lora-Italic'" font-size="16.6675">h</text>
<text transform="matrix(1 0 0 1 565.0332 126.7463)" fill="#8F98A1" font-family="'Lora-Italic'" font-size="16.6675">™</text>
<g>
	<path opacity="0.6" fill="#8F98A1" enable-background="new    " d="M-113.306,179.846c-8.864-0.127-18.75-1.332-28.277-4.76
		c-2.411-0.864-4.655-2.084-6.969-3.146c-0.476-0.219-1.217-0.559-0.96-1.146c0.336-0.811,1.073-0.311,1.587-0.049
		c12.896,6.651,26.733,8.453,40.984,7.587c11.117-0.678,21.743-3.491,31.766-8.462c10.861-5.387,17.917-14.096,21.797-25.372
		c5.062-14.717,5.409-29.338-1.9-43.559c-0.816-1.585-1.832-3.078-2.806-4.584c-0.405-0.628-0.902-1.23-1.736-1.366
		c-0.659-0.105-1.477-0.549-1.928,0.015c-0.331,0.411,0.416,0.921,0.669,1.396c1.016,1.9,0.502,3.05-1.747,3.606
		c-3.388,0.845-6.709,0.315-9.987-0.665c-4.47-1.352-8.445-3.703-12.372-6.155c-0.849-0.525-1.688-1.528-2.546,0.178
		c-0.434,0.841-1.598,0.689-2.49,0.615c-3.321-0.274-6.245-1.621-8.961-3.46c-4.391-2.978-7.282-7.294-10.285-11.503
		c-0.221-0.317-0.78-0.846-0.118-1.211c0.664-0.366,0.955,0.302,1.27,0.731c2.444,3.268,5.113,6.338,8.29,8.931
		c2.757,2.244,5.74,4.075,9.318,4.686c0.762,0.136,1.87,0.533,2.254-0.3c0.362-0.767-0.72-1.198-1.256-1.665
		c-2.444-2.134-4.599-4.572-7.23-6.496c-0.557-0.41-1.672-0.979-1.149-1.618c0.584-0.726,1.323,0.275,1.831,0.751
		c6.953,6.424,15.116,10.802,23.87,14.181c2.257,0.874,4.55,1.683,7.009,1.613c1.254-0.035,3.111,0.122,3.219-1.424
		c0.095-1.445-1.072-2.928-2.767-3.188c-7.205-1.106-12.431-5.648-17.743-10.062c-0.467-0.387-1.457-0.923-0.962-1.528
		c0.498-0.598,1.251,0.184,1.724,0.614c4.37,4.02,9.243,7.166,14.962,8.946c6.891,2.147,13.783,2.705,20.72,0.31
		c0.841-0.292,1.667-0.662,2.467-1.06c0.792-0.387,0.795-0.905,0.054-1.356c-2.475-1.506-4.875-2.667-8.061-2.562
		c-8.907,0.299-17.57-1.221-25.788-4.843c-0.416-0.185-1.093-0.331-0.849-0.938c0.272-0.711,0.936-0.352,1.441-0.211
		c4.442,1.254,8.807,2.783,13.357,3.66c7.44,1.437,14.801,1.642,21.954-1.393c0.716-0.303,1.955-0.431,1.785-1.364
		c-0.154-0.854-1.359-0.706-2.157-0.749c-2.891-0.154-5.784-0.259-8.682-0.408c-0.236-0.014-0.662-0.161-0.662-0.254
		c-0.01-0.364,0.356-0.364,0.613-0.364c3.447-0.008,6.901-0.104,10.331,0.336c0.739,0.101,1.557,0.367,1.813,1.19
		c0.292,0.936-0.38,1.572-0.988,2.113c-1.375,1.224-3.093,1.774-4.788,2.352c-0.377,0.134-0.908,0.175-0.903,0.654
		c0.008,0.204,0.479,0.431,0.762,0.605c1.239,0.787,3.09,1.197,2.801,3.134c-0.274,1.856-1.962,2.534-3.519,3.139
		c-1.88,0.736-3.844,1.116-5.845,1.263c-1.083,0.082-1.21,0.433-0.713,1.438c8.486,17.191,8.115,34.652,0.905,52.027
		c-4.099,9.897-12.003,16.517-21.195,21.62C-84.54,177.22-98.032,179.788-113.306,179.846"/>
	<path opacity="0.6" fill="#8F98A1" enable-background="new    " d="M-124.346,44.206c6.818,0.315,12.639,3.055,17.772,7.434
		c4.602,3.921,8.208,8.745,12.026,13.371c0.338,0.414,1.085,0.998,0.377,1.547c-0.536,0.422-1.177-0.119-1.642-0.521
		c-2.336-1.977-4.134-4.428-5.937-6.871c-4.181-5.679-9.477-9.778-16.366-11.642c-5.691-1.551-11.292-1.563-16.801,0.858
		c-2.835,1.245-5.773,2.294-8.465,3.836c-0.32,0.184-0.898,0.323-0.642,0.852c0.084,0.176,0.613,0.204,0.927,0.19
		c1.104-0.047,2.204-0.196,3.304-0.203c0.743-0.006,1.626,0,1.9,0.907c0.274,0.945-0.134,1.753-0.896,2.358
		c-0.982,0.784-2.164,0.803-3.339,0.874c-0.283,0.015-0.749-0.296-0.815,0.241c-0.022,0.146,0.345,0.374,0.565,0.507
		c1.833,1.099,3.702,2.132,5.505,3.281c11.917,7.617,19.817,18.593,25.832,31.111c1.341,2.788,1.353,5.878,1.843,8.871
		c2.06,12.784,5.644,25.029,13.532,35.594c6.16,8.254,14.072,13.894,24.313,16.032c1.595,0.34,3.301,0.646,4.596,1.864
		c-1.675,0.262-3.301-0.166-4.909-0.456c-9.041-1.618-16.411-6.246-22.674-12.793c-9.68-10.125-15.15-22.509-16.194-36.151
		c-0.982-12.99-6.795-22.993-14.921-32.308c-3.783-4.331-7.874-8.302-12.792-11.356c-4.806-2.992-9.968-4.506-15.634-4.773
		c-11.297-0.527-22.493,0.409-33.573,2.43c-6.553,1.195-12.494,3.936-16.904,9.258c-0.274,0.33-0.654,1.026-1.057,0.711
		c-0.458-0.367,0.204-0.817,0.444-1.178c3.283-4.822,8.146-7.306,13.511-8.99c7.426-2.33,15.135-2.985,22.833-3.647
		c5.293-0.458,10.585-0.907,15.884-1.323c2.481-0.184,4.66-1.12,6.743-2.4c5.859-3.613,11.96-6.603,18.954-7.273
		C-126.154,44.36-125.26,44.289-124.346,44.206"/>
	<path opacity="0.6" fill="#8F98A1" enable-background="new    " d="M-2.651,10.354c-0.487,2.424-1.634,4.71-2.86,6.941
		c-3.439,6.267-8.194,11.391-13.752,15.823c-0.318,0.25-0.605,0.916-1.131,0.43c-0.11-0.103,0.162-0.767,0.395-1.062
		c0.521-0.645,1.077-1.265,1.706-1.795c5.422-4.559,9.402-10.23,12.747-16.397c0.236-0.434,0.779-0.833,0.416-1.46
		c-0.4,0.259-0.834,0.475-1.188,0.781c-7.72,6.675-15.442,13.352-23.152,20.037c-13.508,11.702-27.786,22.207-44.338,29.317
		c-10.497,4.519-21.392,7.673-32.634,9.667c-1.563,0.282-3.158,0.296-4.746,0.176c-0.468-0.035-1.156,0.008-1.198-0.564
		c-0.057-0.795,0.752-0.655,1.232-0.695c5.105-0.459,10.095-1.508,15.017-2.867c4.845-1.344,9.7-2.683,14.347-4.646
		c2.234-0.944,4.383-2.062,6.163-3.732c9.525-8.898,19.895-16.841,29.302-25.874c1.788-1.717,3.565-3.454,5.378-5.154
		c0.387-0.358,0.887-0.83,1.457-0.528c0.6,0.324,0.431,1.008,0.226,1.49c-1.464,3.45-3.231,6.713-6.019,9.304
		c-0.218,0.196-0.5,0.625-0.831,0.351c-0.346-0.289,0.031-0.625,0.203-0.887c1.295-1.95,2.731-3.816,3.708-5.963
		c0.1-0.226,0.218-0.655,0.121-0.725c-0.267-0.204-0.457,0.113-0.634,0.289c-9.01,8.964-19.048,16.769-28.471,25.269
		c-0.351,0.315-0.656,0.698-0.979,1.049c0.628,0.351,1.049-0.169,1.487-0.401c11.498-6.042,22.493-12.892,32.992-20.523
		c10.785-7.852,20.936-16.427,30.284-25.956c1.016-1.039,2.093-2.001,3.339-2.762c0.356-0.215,0.738-0.459,1.146-0.177
		C-2.516,9.383-2.582,9.827-2.651,10.354"/>
	<path opacity="0.6" fill="#8F98A1" enable-background="new    " d="M-59.011,79.726c-5.963-0.024-11.8-1.107-17.65-2.106
		c-0.47-0.084-1.3-0.056-1.142-0.823c0.105-0.535,0.826-0.373,1.277-0.322c3.08,0.329,6.153,0.823,9.243,1.033
		c9.656,0.661,19.127-0.479,28.399-3.247c1.18-0.352,2.306-0.913,3.424-1.442c0.6-0.29,1.457-0.592,1.308-1.396
		c-0.149-0.85-1.067-0.73-1.721-0.725c-2.898,0.023-5.806-0.042-8.689,0.185c-6.255,0.493-12.495,1.141-18.746,1.723
		c-0.377,0.034-0.957,0.282-1.026-0.24c-0.077-0.59,0.577-0.71,1.026-0.753c3.296-0.297,6.607-0.506,9.89-0.837
		c10.536-1.07,20.307-4.407,29.292-10.02c0.295-0.184,0.605-0.352,0.846-0.59c0.649-0.647,2.049-1.125,1.631-2.085
		c-0.344-0.789-1.742-0.598-2.696-0.514c-3.242,0.274-6.376,1.113-9.541,1.816c-5.181,1.163-10.369,2.275-15.565,3.366
		c-3.106,0.654-6.191,1.366-9.1,2.696c-0.413,0.191-1.031,0.612-1.259,0.078c-0.213-0.501,0.5-0.79,0.928-0.915
		c3.437-1.042,6.725-2.457,9.984-3.942c6.843-3.106,13.806-5.979,20.466-9.436c5.34-2.772,9.782-6.908,13.931-11.272
		c0.354-0.373,0.99-0.873,0.628-1.366c-0.354-0.478-1.043-0.091-1.528,0.128c-3.224,1.415-6.594,2.429-9.943,3.5
		c-0.592,0.19-1.159,0.428-1.757,0.599c-0.377,0.106-0.903,0.309-1.042-0.241c-0.136-0.499,0.364-0.704,0.744-0.81
		c1.936-0.541,3.765-1.35,5.591-2.161c2.893-1.286,5.725-2.75,8.881-3.34c0.841-0.155,1.842-0.729,2.475,0.222
		c0.541,0.814,0.149,1.747-0.236,2.57c-0.764,1.654-1.975,2.978-3.221,4.274c-6.43,6.618-14.354,10.863-22.677,14.51
		c-0.746,0.323-1.593,0.466-2.157,1.134c0.841,0.436,1.598-0.099,2.362-0.254c3.791-0.767,7.525-1.753,11.375-2.195
		c1.693-0.191,3.863-0.641,4.681,1.119c0.887,1.907-1.195,2.999-2.434,4.076c-3.367,2.929-7.294,4.936-11.413,6.591
		c-0.452,0.184-1.285,0.12-1.231,0.839c0.041,0.498,0.782,0.42,1.19,0.625c0.249,0.122,0.536,0.135,0.8,0.227
		c2.003,0.683,2.231,1.612,0.597,3.021c-2.495,2.161-5.483,3.422-8.63,4.308C-47.18,78.949-53.063,79.64-59.011,79.726"/>
	<path opacity="0.6" fill="#8F98A1" enable-background="new    " d="M-53.689-5.853c0.026,6.639-1.487,12.997-3.596,19.22
		c-1.767,5.225-3.693,10.392-5.57,15.574c-0.141,0.379-0.162,1.126-0.805,0.936c-0.377-0.113-0.244-0.739-0.144-1.127
		c0.226-0.864,0.449-1.731,0.762-2.57c3.116-8.336,6.292-16.658,7.479-25.542c0.577-4.288,1.359-8.625-0.105-12.912
		c-0.369-1.079-0.508-2.625-1.885-2.652c-1.372-0.017-1.634,1.52-1.985,2.597c-1.682,5.13-2.323,10.495-3.236,15.783
		c-2.426,13.94-6.679,27.311-12.349,40.229c-1.934,4.401-4.604,8.47-7.632,12.258c-1.942,2.422-3.904,4.823-5.881,7.217
		c-0.485,0.571-1.052,1.083-1.629,1.57c-0.251,0.218-0.664,0.365-0.946,0.097c-0.479-0.436,0.028-0.69,0.274-0.977
		c0.744-0.904,1.459-1.839,2.26-2.698c8.714-9.392,14.044-20.586,18.106-32.638c3.788-11.251,5.707-22.845,7.738-34.449
		c0.495-2.787,1.105-5.562,2.601-8.024c0.61-1.002,1.326-2.054,2.662-2.04c1.446,0.01,2.111,1.131,2.703,2.26
		C-53.553-11.255-53.694-8.542-53.689-5.853"/>
	<path opacity="0.6" fill="#8F98A1" enable-background="new    " d="M-44.241,5.568c-0.172,5.483-2.139,10.173-4.403,14.776
		c-2.4,4.886-5.014,9.659-7.907,14.284c-0.189,0.311-0.6,0.62-0.312,1.099c0.292-0.25,0.623-0.465,0.859-0.754
		c3.488-4.273,6.966-8.555,10.441-12.834c0.875-1.077,1.821-2.077,2.937-2.9c0.531-0.395,1.134-0.994,1.841-0.613
		c0.628,0.336,0.398,1.113,0.388,1.696c-0.016,0.688-0.041,1.402-0.251,2.043c-1.352,4.025-3.529,7.617-6.048,11.003
		c-0.244,0.321-0.492,1.017-1.041,0.626c-0.352-0.246,0.036-0.76,0.187-1.126c0.636-1.541,1.603-2.886,2.526-4.26
		c1.308-1.957,2.4-4.028,3.104-6.28c0.177-0.563,0.621-1.344,0.046-1.69c-0.449-0.274-0.864,0.514-1.233,0.895
		c-3.509,3.619-6.666,7.539-9.782,11.494c-5.088,6.438-10.046,12.985-16.255,18.443c-0.513,0.457-1.021,0.922-1.569,1.342
		c-0.236,0.177-0.508,0.677-0.813,0.318c-0.208-0.254,0.174-0.628,0.431-0.818c1.564-1.181,2.601-2.821,3.868-4.273
		c7.851-9.02,13.38-19.475,18.463-30.173c1.78-3.747,2.865-7.766,3.101-11.949c0.057-0.894,0.41-2.225-0.618-2.556
		c-0.867-0.281-1.39,0.938-1.888,1.649c-4.77,6.766-7.663,14.461-10.897,21.995c-0.679,1.58-1.467,3.119-2.229,4.66
		c-0.103,0.203-0.364,0.333-0.557,0.496c0.01-0.258-0.056-0.546,0.036-0.774c3.48-9.369,6.909-18.762,12.311-27.265
		c0.367-0.576,0.759-1.154,1.203-1.675c0.559-0.662,1.059-1.599,2.154-1.236c1.08,0.356,1.646,1.217,1.777,2.334
		C-44.289,4.301-44.271,5.053-44.241,5.568"/>
	<path opacity="0.6" fill="#8F98A1" enable-background="new    " d="M-112.947,58.115c-0.035,0.79-0.572,0.613-0.882,0.465
		c-0.855-0.43-1.695-0.922-2.497-1.458c-2.766-1.824-5.752-2.97-9.104-3.02c-1.504-0.014-2.852-0.506-4.084-1.296
		c-1.798-1.146-3.633-1.646-5.662-0.646c-0.301,0.154-0.669,0.395-0.845-0.056c-0.162-0.395,0.232-0.627,0.534-0.745
		c0.893-0.375,1.784-0.754,2.712-1.021c1.418-0.409,2.615-0.98,3.562-2.254c1.176-1.59,3.533-1.444,4.483,0.443
		c1.576,3.155,4.268,4.752,7.211,6.182c1.373,0.668,2.616,1.542,3.77,2.547C-113.439,57.518-113.187,57.849-112.947,58.115
		 M-127.633,52.822c1.723-0.042,3-1.156,2.896-2.465c-0.128-1.542-1.162-2.09-2.553-2.068c-1.393,0.021-2.666,1.394-2.526,2.716
		C-129.671,52.378-128.684,52.743-127.633,52.822"/>
	<path opacity="0.6" fill="#8F98A1" enable-background="new    " d="M-127.625,49.549c0.64,0.021,1.051,0.356,1.146,0.97
		c0.083,0.521-0.088,1.028-0.697,1.05c-0.694,0.021-1.216-0.389-1.329-1.07C-128.591,49.943-128.14,49.669-127.625,49.549"/>
	<path opacity="0.6" fill="#8F98A1" enable-background="new    " d="M-113.306,179.846c-8.864-0.127-18.75-1.332-28.277-4.76
		c-2.411-0.864-4.655-2.084-6.969-3.146c-0.476-0.219-1.217-0.559-0.96-1.146c0.336-0.811,1.073-0.311,1.587-0.049
		c12.896,6.651,26.733,8.453,40.984,7.587c11.117-0.678,21.743-3.491,31.766-8.462c10.861-5.387,17.917-14.096,21.797-25.372
		c5.062-14.717,5.409-29.338-1.9-43.559c-0.816-1.585-1.832-3.078-2.806-4.584c-0.405-0.628-0.902-1.23-1.736-1.366
		c-0.659-0.105-1.477-0.549-1.928,0.015c-0.331,0.411,0.416,0.921,0.669,1.396c1.016,1.9,0.502,3.05-1.747,3.606
		c-3.388,0.845-6.709,0.315-9.987-0.665c-4.47-1.352-8.445-3.703-12.372-6.155c-0.849-0.525-1.688-1.528-2.546,0.178
		c-0.434,0.841-1.598,0.689-2.49,0.615c-3.321-0.274-6.245-1.621-8.961-3.46c-4.391-2.978-7.282-7.294-10.285-11.503
		c-0.221-0.317-0.78-0.846-0.118-1.211c0.664-0.366,0.955,0.302,1.27,0.731c2.444,3.268,5.113,6.338,8.29,8.931
		c2.757,2.244,5.74,4.075,9.318,4.686c0.762,0.136,1.87,0.533,2.254-0.3c0.362-0.767-0.72-1.198-1.256-1.665
		c-2.444-2.134-4.599-4.572-7.23-6.496c-0.557-0.41-1.672-0.979-1.149-1.618c0.584-0.726,1.323,0.275,1.831,0.751
		c6.953,6.424,15.116,10.802,23.87,14.181c2.257,0.874,4.55,1.683,7.009,1.613c1.254-0.035,3.111,0.122,3.219-1.424
		c0.095-1.445-1.072-2.928-2.767-3.188c-7.205-1.106-12.431-5.648-17.743-10.062c-0.467-0.387-1.457-0.923-0.962-1.528
		c0.498-0.598,1.251,0.184,1.724,0.614c4.37,4.02,9.243,7.166,14.962,8.946c6.891,2.147,13.783,2.705,20.72,0.31
		c0.841-0.292,1.667-0.662,2.467-1.06c0.792-0.387,0.795-0.905,0.054-1.356c-2.475-1.506-4.875-2.667-8.061-2.562
		c-8.907,0.299-17.57-1.221-25.788-4.843c-0.416-0.185-1.093-0.331-0.849-0.938c0.272-0.711,0.936-0.352,1.441-0.211
		c4.442,1.254,8.807,2.783,13.357,3.66c7.44,1.437,14.801,1.642,21.954-1.393c0.716-0.303,1.955-0.431,1.785-1.364
		c-0.154-0.854-1.359-0.706-2.157-0.749c-2.891-0.154-5.784-0.259-8.682-0.408c-0.236-0.014-0.662-0.161-0.662-0.254
		c-0.01-0.364,0.356-0.364,0.613-0.364c3.447-0.008,6.901-0.104,10.331,0.336c0.739,0.101,1.557,0.367,1.813,1.19
		c0.292,0.936-0.38,1.572-0.988,2.113c-1.375,1.224-3.093,1.774-4.788,2.352c-0.377,0.134-0.908,0.175-0.903,0.654
		c0.008,0.204,0.479,0.431,0.762,0.605c1.239,0.787,3.09,1.197,2.801,3.134c-0.274,1.856-1.962,2.534-3.519,3.139
		c-1.88,0.736-3.844,1.116-5.845,1.263c-1.083,0.082-1.21,0.433-0.713,1.438c8.486,17.191,8.115,34.652,0.905,52.027
		c-4.099,9.897-12.003,16.517-21.195,21.62C-84.54,177.22-98.032,179.788-113.306,179.846"/>
	<path opacity="0.6" fill="#8F98A1" enable-background="new    " d="M-124.346,44.206c6.818,0.315,12.639,3.055,17.772,7.434
		c4.602,3.921,8.208,8.745,12.026,13.371c0.338,0.414,1.085,0.998,0.377,1.547c-0.536,0.422-1.177-0.119-1.642-0.521
		c-2.336-1.977-4.134-4.428-5.937-6.871c-4.181-5.679-9.477-9.778-16.366-11.642c-5.691-1.551-11.292-1.563-16.801,0.858
		c-2.835,1.245-5.773,2.294-8.465,3.836c-0.32,0.184-0.898,0.323-0.642,0.852c0.084,0.176,0.613,0.204,0.927,0.19
		c1.104-0.047,2.204-0.196,3.304-0.203c0.743-0.006,1.626,0,1.9,0.907c0.274,0.945-0.134,1.753-0.896,2.358
		c-0.982,0.784-2.164,0.803-3.339,0.874c-0.283,0.015-0.749-0.296-0.815,0.241c-0.022,0.146,0.345,0.374,0.565,0.507
		c1.833,1.099,3.702,2.132,5.505,3.281c11.917,7.617,19.817,18.593,25.832,31.111c1.341,2.788,1.353,5.878,1.843,8.871
		c2.06,12.784,5.644,25.029,13.532,35.594c6.16,8.254,14.072,13.894,24.313,16.032c1.595,0.34,3.301,0.646,4.596,1.864
		c-1.675,0.262-3.301-0.166-4.909-0.456c-9.041-1.618-16.411-6.246-22.674-12.793c-9.68-10.125-15.15-22.509-16.194-36.151
		c-0.982-12.99-6.795-22.993-14.921-32.308c-3.783-4.331-7.874-8.302-12.792-11.356c-4.806-2.992-9.968-4.506-15.634-4.773
		c-11.297-0.527-22.493,0.409-33.573,2.43c-6.553,1.195-12.494,3.936-16.904,9.258c-0.274,0.33-0.654,1.026-1.057,0.711
		c-0.458-0.367,0.204-0.817,0.444-1.178c3.283-4.822,8.146-7.306,13.511-8.99c7.426-2.33,15.135-2.985,22.833-3.647
		c5.293-0.458,10.585-0.907,15.884-1.323c2.481-0.184,4.66-1.12,6.743-2.4c5.859-3.613,11.96-6.603,18.954-7.273
		C-126.154,44.36-125.26,44.289-124.346,44.206"/>
</g>
</svg>
