<?xml version="1.0" encoding="utf-8"?>
<!-- Generator: Adobe Illustrator 16.0.0, SVG Export Plug-In . SVG Version: 6.00 Build 0)  -->
<!DOCTYPE svg PUBLIC "-//W3C//DTD SVG 1.1//EN" "http://www.w3.org/Graphics/SVG/1.1/DTD/svg11.dtd">
<svg version="1.1" id="Layer_1" xmlns="http://www.w3.org/2000/svg" xmlns:xlink="http://www.w3.org/1999/xlink" x="0px" y="0px"
	 width="492px" height="156.232px" viewBox="0 0 492 156.232" enable-background="new 0 0 492 156.232" xml:space="preserve">
<g>
	<path fill="#1A1919" d="M456.116,54.382c0.047,0.042,0.105,0.06,0.166,0.07C456.228,54.429,456.172,54.406,456.116,54.382z"/>
	<path fill="#1A1919" d="M405.119,44.877c0.009,0.017,0.016,0.032,0.021,0.05c-0.009,0.563,0.011,1.126,0.038,1.69
		c0.326-0.047,0.558,0.077,0.679,0.392c0.009-0.004,0.015-0.009,0.023-0.014c0.929-0.266,1.856-0.535,2.187-1.614
		c0.001-0.002,0.001-0.003,0.001-0.003C406.97,44.488,406.811,44.492,405.119,44.877z M407.138,45.719
		c-0.09,0.346-0.196,0.702-0.624,0.639c-0.502-0.076-0.922-0.36-0.895-0.914c0.018-0.342,0.341-0.56,0.715-0.541
		C406.843,44.931,407.054,45.274,407.138,45.719z"/>
	<path fill="#1A1919" d="M408.65,44.965c-0.103,0.213-0.204,0.425-0.306,0.637c-0.099-0.081-0.189-0.155-0.276-0.225
		c0,0,0,0.002-0.001,0.004c-0.33,1.079-1.258,1.349-2.187,1.614c-0.009,0.005-0.015,0.01-0.023,0.014
		c0.021,0.051,0.039,0.108,0.054,0.172c-0.108,0.088-0.218,0.177-0.325,0.265c0.576,0.191,1.154,0.555,1.727,0.544
		c2.917-0.052,5.362,1.139,7.694,2.708c0.385,0.26,0.784,0.645,1.451,0.339c-1.074-1.427-2.535-2.172-3.973-2.918
		C410.975,47.333,409.476,46.57,408.65,44.965z"/>
	<path fill="#1A1919" d="M398.187,52.62c2.051,1.339,4.008,2.805,5.907,4.351c-0.036-0.486,0.175-0.574,0.576-0.359
		c-1.777-1.699-3.748-3.133-5.909-4.305C398.788,52.81,398.547,52.824,398.187,52.62z"/>
	<path fill="#1A1919" d="M405.179,46.617c-0.027-0.564-0.047-1.127-0.038-1.69c-0.006-0.018-0.013-0.033-0.021-0.05
		c-0.049,0.011-0.091,0.021-0.144,0.032c-0.096-0.081-0.19-0.163-0.288-0.244c-1.232,0.943-3,0.751-4.154,1.922
		c1.561-0.357,3.059-0.459,4.436,0.511c0.007-0.146,0.016-0.292,0.021-0.439C405.057,46.639,405.119,46.626,405.179,46.617z"/>
	<path fill="#1A1919" d="M358.114,53.418c-2.277,1.015-3.889,2.716-5.049,4.894c1.662-1.801,3.539-3.318,5.648-4.551
		C358.338,53.951,358.074,53.95,358.114,53.418z"/>
	<path fill="#1A1919" d="M405.119,44.877c1.691-0.385,1.851-0.389,2.949,0.5c0.087,0.069,0.178,0.144,0.276,0.225
		c0.102-0.212,0.203-0.424,0.306-0.637c-0.362-0.994-0.974-1.667-2.111-1.75c-1.077-0.077-1.424,0.725-1.852,1.45
		c0.098,0.081,0.192,0.163,0.288,0.244C405.028,44.897,405.07,44.887,405.119,44.877z"/>
	<path fill="#1A1919" d="M466.931,66.802c-0.114,0.111-0.229,0.224-0.342,0.337c0.036,0.869-0.728,0.879-1.238,1.104
		c-4.969,2.174-10.1,2.002-15.28,1.007c-3.101-0.595-6.069-1.679-9.109-2.5c-0.348-0.093-0.784-0.408-0.954,0.124
		c-0.129,0.402,0.351,0.46,0.635,0.587c5.47,2.468,11.264,3.428,17.199,3.325c2.152-0.037,3.977,0.406,5.697,1.571
		c0.291,0.198,0.797,0.283,0.722,0.757c-0.053,0.34-0.461,0.429-0.753,0.568c-2.156,1.029-4.448,1.566-6.818,1.632
		c-6.36,0.172-12.049-1.76-17.08-5.646c-0.241,0.019-0.459,0.076-0.569,0.323c2.77,2.435,5.772,4.493,9.454,5.223
		c1.104,0.219,1.913,0.635,2.51,1.539c0.097-0.11,0.194-0.222,0.293-0.331c-0.038-0.335,0.065-0.487,0.448-0.52
		c1.575-0.135,2.229,0.987,2.925,2.071c4.749,7.402,5.816,15.534,4.552,24.038c-1.979,13.316-8.755,22.896-21.765,27.591
		c-9.447,3.41-19.126,4.686-29.076,3.31c-5.506-0.761-10.923-1.991-15.855-4.752c-0.387-0.214-0.801-0.544-1.299-0.148
		c0.03,0.522,0.453,0.7,0.819,0.882c1.053,0.522,2.104,1.061,3.194,1.501c4.925,1.989,10.059,3.061,15.344,3.511
		c9.913,0.846,19.606,0.013,28.866-3.848c7.421-3.092,13.869-7.5,18.074-14.573c3.696-6.214,4.872-13.088,4.881-20.213
		c0.01-6.557-1.141-12.842-4.48-18.596c-0.054-0.092,0.009-0.252,0.019-0.404c0.412-0.026,0.792-0.029,1.164-0.081
		c1.729-0.241,3.461-0.502,4.95-1.504c1.56-1.05,1.521-2.164-0.049-3.158c-0.468-0.297-1.067-0.391-1.412-0.896
		c0.31-0.528,0.902-0.479,1.36-0.655c0.929-0.356,1.875-0.692,2.612-1.36C467.075,68.154,467.841,67.605,466.931,66.802z"/>
	<path fill="#1A1919" d="M455.722,60.141c-0.038,0.008-0.078,0.016-0.116,0.022C455.644,60.157,455.684,60.15,455.722,60.141z"/>
	<path fill="#1A1919" d="M485.568,35.736c-0.817,0.216-1.647,0.386-2.454,0.634c-2.79,0.856-5.264,2.505-8.108,3.23
		c-0.23,0.061-0.602,0.211-0.476,0.565c0.139,0.394,0.457,0.182,0.709,0.089c2.422-0.894,4.953-1.464,7.317-2.533
		c0.574-0.26,1.166-0.663,1.928-0.339c-0.076,0.179-0.107,0.379-0.223,0.503c-3.297,3.54-6.82,6.798-11.274,8.855
		c-5.334,2.466-10.682,4.902-16.023,7.349c0.208,0.091,0.417,0.182,0.625,0.272c4.73-1.006,9.46-2.013,14.192-3.015
		c2.067-0.437,4.11-1.053,6.259-0.971c0.385,0.015,0.844,0.037,1.004,0.384c0.197,0.426-0.269,0.663-0.536,0.893
		c-0.5,0.427-1.016,0.848-1.573,1.192c-6.729,4.181-14.109,6.3-21.963,6.92c0.345,0.381,0.834,0.133,1.231,0.285l0,0l0,0
		c0.143,0,0.284,0.008,0.426-0.003c4.192-0.301,8.376-0.835,12.594-0.626c0.458,0.022,1.105-0.111,1.243,0.411
		c0.164,0.618-0.506,0.817-0.943,1.066c-1.785,1.014-3.778,1.399-5.744,1.874c-6.589,1.584-13.229,1.886-19.946,0.971
		c-1.126-0.152-2.302-0.717-3.522-0.104c0.309,0.454,0.72,0.48,1.067,0.539c3.815,0.631,7.625,1.37,11.509,1.369
		c5.025-0.002,9.978-0.547,14.707-2.403c1.409-0.553,2.753-1.246,3.848-2.309c0.89-0.862,0.733-1.319-0.412-1.798
		c-0.555-0.232-1.311-0.116-1.685-0.848c1.164-0.512,2.29-0.979,3.388-1.498c2.402-1.137,4.643-2.523,6.51-4.438
		c0.446-0.459,0.978-1.015,0.678-1.741c-0.296-0.716-1.021-0.732-1.692-0.783c-1.528-0.11-3.008,0.195-4.487,0.497
		c-2.15,0.44-4.3,0.894-6.688,1.392c0.713-0.791,1.456-0.966,2.121-1.261c5.862-2.594,11.403-5.662,15.768-10.5
		c0.767-0.849,1.475-1.746,1.756-2.867C486.916,36.126,486.758,35.426,485.568,35.736z"/>
	<path fill="#1A1919" d="M398.761,52.306c-1.046-0.656-2.093-1.314-3.289-2.064c1.02-0.285,1.885-0.007,2.668-0.419
		c0.742-0.391,1.272-0.973,1.098-1.776c-0.181-0.827-1.029-0.661-1.663-0.655c-0.912,0.01-1.823,0.082-2.911,0.136
		c1.428-1.499,7.762-4.183,10.61-4.603c0.428-0.395,0.939-0.257,1.436-0.232c7.412,0.053,13.278,3.062,17.57,9.133
		c1.009,1.425,2.084,2.811,3.377,4c0.471,0.43,0.926,0.947,1.661,0.767c0.194-0.47-0.134-0.706-0.314-0.932
		c-2.611-3.236-5.121-6.579-8.32-9.27c-4.736-3.988-10.045-5.996-16.354-4.583c-3.874,0.868-7.321,2.628-10.669,4.646
		c-1.385,0.835-2.814,1.463-4.458,1.63c-6.853,0.7-13.762,0.871-20.567,2.007c-3.654,0.609-7.29,1.35-10.52,3.327
		c-0.04,0.532,0.224,0.533,0.6,0.343c2.246-0.958,4.504-1.863,6.93-2.298c4.936-0.88,9.914-1.416,14.912-1.595
		c6.032-0.215,12.115-0.472,17.631,2.752C398.547,52.824,398.788,52.81,398.761,52.306z"/>
	<path fill="#1A1919" d="M476.866,30.207c-0.227,0.161-0.463,0.311-0.679,0.485c-9.408,7.657-19.431,14.392-30.169,20.051
		c-0.449,0.237-0.871,0.675-1.579,0.337c1.574-1.42,3.071-2.77,4.569-4.119c-0.119-0.24-0.342-0.281-0.576-0.299
		c-1.938,1.427-3.771,2.977-5.441,4.714c-1.458,1.519-3.17,2.703-5.125,3.449c-6.56,2.503-13.249,4.523-20.282,5.191
		c-0.354,0.034-0.776-0.031-0.917,0.452c0.309,0.521,0.823,0.362,1.276,0.397c1.377,0.107,2.734-0.099,4.081-0.337
		c21.792-3.851,39.547-15.166,55.399-29.991C477.319,30.291,477.108,30.222,476.866,30.207z"/>
	<path fill="#1A1919" d="M404.094,56.97c1.701,1.895,3.412,3.782,5.104,5.686c3.487,3.923,6.036,8.396,7.79,13.331
		c0.236,0.665,0.479,1.328,0.494,2.043c0.082,3.883,0.712,7.675,1.693,11.433c2.294,8.784,6.59,16.312,13.825,21.935
		c3.84,2.983,8.128,5.092,13.109,5.422c0.374-0.141,0.825,0.092,1.163-0.234c-0.892-0.297-1.765-0.688-2.678-0.877
		c-6.433-1.333-11.486-4.84-15.592-9.835c-5.55-6.749-8.055-14.818-9.791-23.169c-0.742-3.572-0.601-7.339-2.633-10.598
		c-1.098-1.758-2.037-3.615-3.154-5.358c-2.43-3.794-5.233-7.278-8.755-10.137C404.269,56.396,404.058,56.484,404.094,56.97z"/>
	<path fill="#1A1919" d="M439.669,45.259c0.816-1.312,1.817-2.545,2.418-3.949c3.668-8.573,6.678-17.357,8.344-26.569
		c0.705-3.889,1.224-7.819,2.291-11.633c0.263-0.939,0.372-2.397,1.582-2.391c1.234,0.007,1.273,1.458,1.5,2.413
		c0.828,3.492,0.178,6.953-0.439,10.385c-0.961,5.344-2.908,10.395-4.804,15.455c-0.302,0.808-0.651,1.606-0.31,2.852
		c1.024-2.802,1.93-5.299,2.85-7.791c2.246-6.079,4.131-12.228,3.858-18.824c-0.056-1.337-0.265-2.628-0.896-3.813
		c-0.957-1.794-2.296-1.858-3.453-0.168c-0.67,0.979-1.046,2.096-1.328,3.239c-0.937,3.8-1.361,7.694-2.095,11.528
		c-1.915,10.019-4.968,19.662-9.844,28.672C439.361,44.911,439.41,45.141,439.669,45.259z"/>
	<path fill="#1A1919" d="M450.204,78.475c-1.892,0.487-3.636-0.108-5.357-0.724c-5.57-1.987-10.708-4.778-15.388-8.4
		c-0.117,0.115-0.235,0.23-0.354,0.346c0.94,0.926,1.873,1.858,2.823,2.774c0.489,0.474,1.57,0.939,1.278,1.455
		c-0.371,0.657-1.434,0.261-2.203,0.151c-0.092-0.014-0.176-0.074-0.266-0.099c-3.675-0.991-6.331-3.453-8.8-6.156
		c-0.92-1.011-1.726-2.126-2.574-3.2c-0.221-0.278-0.488-0.552-0.812-0.273c-0.258,0.222,0.032,0.517,0.169,0.715
		c0.638,0.937,1.291,1.861,1.969,2.768c2.595,3.479,5.646,6.36,10.047,7.354c1.028,0.232,2.281,0.646,3.007-0.432
		c0.516-0.766,0.815-0.474,1.292-0.168c1.985,1.271,4.001,2.492,6.162,3.443c2.841,1.248,5.765,2.071,8.914,1.567
		c0.793-0.126,1.694-0.227,2-1.09c0.296-0.833-0.132-1.55-0.815-2.086c-0.099,0.109-0.196,0.221-0.293,0.331
		C451.534,77.697,451.211,78.216,450.204,78.475z"/>
	<path fill="#1A1919" d="M491.691,17.22c-0.536-0.353-1.124,0.363-1.542,0.75c-2.212,2.05-4.469,4.055-6.494,6.297
		c0.008,0.236,0.072,0.441,0.308,0.549c2.176-1.603,4.033-3.609,6.614-5.326c-0.91,2.162-1.962,3.811-3.047,5.43
		c-1.129,1.683-2.413,3.252-3.769,4.766c-1.27,1.417-2.999,2.406-3.916,4.153c2.175-1.12,3.819-2.859,5.442-4.604
		c2.78-2.989,5.028-6.327,6.367-10.224C491.863,18.404,492.295,17.618,491.691,17.22z"/>
	<path fill="#1A1919" d="M453.821,27.919c0.094-0.159,0.208-0.311,0.28-0.479c1.834-4.375,3.665-8.755,6.356-12.695
		c0.429-0.632,0.888-1.818,1.617-1.511c0.828,0.349,0.497,1.546,0.407,2.424c-0.329,3.217-1.534,6.172-2.689,9.144
		c0.025,0.221,0.046,0.445,0.278,0.563c1.267-2.108,2.18-4.372,2.802-6.737c0.406-1.546,0.673-3.135,0.517-4.758
		c-0.085-0.885-0.301-1.757-1.218-2.064c-0.947-0.316-1.354,0.586-1.721,1.167c-2.839,4.503-5.386,9.159-6.948,14.286
		C453.553,27.507,453.561,27.774,453.821,27.919z"/>
	<path fill="#1A1919" d="M446.381,45.262c0.827,0.358,1.009,0.012,1.227-0.199c5.009-4.839,9.039-10.501,13.354-15.924
		c-0.121-0.129-0.239-0.257-0.358-0.385c-1.717,1.979-3.435,3.957-5.152,5.936c-0.018-0.848,0.236-1.517,0.705-2.095
		c-0.124-0.144-0.247-0.288-0.372-0.432C452.688,36.515,450.777,41.669,446.381,45.262z"/>
	<path fill="#1A1919" d="M454.304,42.397c3.535-2.872,6.891-5.945,10.232-9.035c0.036-0.035,0.163,0.027,0.285,0.051
		c-0.411,1.823-1.929,3.041-2.827,5.038c2.544-1.907,3.731-4.285,4.838-6.711c0.146-0.319,0.264-0.818-0.1-1.049
		c-0.357-0.226-0.733,0.095-0.998,0.34c-0.759,0.71-1.46,1.48-2.225,2.182c-3.226,2.963-6.468,5.906-9.703,8.859
		C453.896,42.299,454.079,42.378,454.304,42.397z"/>
	<path fill="#1A1919" d="M465.289,24.685c-0.219,3.907-3.27,6.355-4.266,9.704c1.718-1.678,2.883-3.704,3.912-5.814
		c0.555-1.136,1.173-2.267,1.112-3.59c-0.02-0.437,0.261-1.044-0.247-1.274c-0.523-0.237-0.979,0.229-1.356,0.557
		c-1.503,1.302-2.78,2.805-3.842,4.487c0.119,0.128,0.237,0.256,0.358,0.385C462.467,27.816,463.547,26.071,465.289,24.685z"/>
	<path fill="#1A1919" d="M433.026,54.197c1.069-1.26,2.077-2.568,3.118-3.854c1.301-1.606,2.689-3.153,3.524-5.085
		c-0.259-0.117-0.308-0.348-0.325-0.595c-2.512,3.731-5.434,7.151-8.469,10.78C432.112,55.519,432.54,54.767,433.026,54.197z"/>
	<path fill="#1A1919" d="M483.655,24.267c-2.263,1.981-4.525,3.959-6.789,5.939c0.242,0.016,0.453,0.084,0.558,0.331
		c2.285-1.787,4.425-3.74,6.539-5.722C483.728,24.709,483.663,24.504,483.655,24.267z"/>
	<path fill="#1A1919" d="M449.009,46.961c1.836-1.438,3.637-2.92,5.295-4.563c-0.225-0.02-0.408-0.099-0.497-0.325
		c-1.792,1.528-3.582,3.059-5.374,4.59C448.667,46.679,448.89,46.72,449.009,46.961z"/>
	<path fill="#1A1919" d="M459.793,24.801c-1.337,2.456-2.673,4.91-4.01,7.363c0.125,0.144,0.248,0.288,0.372,0.432
		c1.535-2.286,2.824-4.706,3.916-7.231C459.839,25.246,459.818,25.021,459.793,24.801z"/>
	<path fill="#1A1919" d="M458.521,66.26c0.603,0.436,1.271,0.246,1.908,0.323c2.047,0.249,4.145-0.068,6.159,0.556
		c0.113-0.113,0.228-0.226,0.342-0.337C464.182,65.583,461.323,66.469,458.521,66.26z"/>
	<path fill="#1A1919" d="M454.972,59.765c-1.811,0.134-3.675-0.063-5.375,0.82c2.009-0.104,4.024-0.07,6.009-0.422
		c0.038-0.007,0.078-0.015,0.116-0.022c0.161-0.03,0.322-0.057,0.481-0.091l0,0C455.806,59.898,455.316,60.146,454.972,59.765z"/>
	<path fill="#1A1919" d="M439.608,69.668c-0.999-0.895-1.888-1.959-3.274-2.276c0.703,1.104,1.583,1.982,2.705,2.6
		C439.149,69.744,439.367,69.686,439.608,69.668z"/>
	<path fill="#1A1919" d="M426.41,67.153c0.628,1.15,1.703,1.803,2.695,2.544c0.118-0.115,0.236-0.23,0.354-0.346
		C428.564,68.45,427.749,67.439,426.41,67.153z"/>
	<path fill="#1A1919" d="M453.503,27.258c-0.571,1.122-0.985,2.304-1.337,3.51c0.092,0.113,0.184,0.226,0.275,0.337
		c0.668-0.971,1.049-2.067,1.38-3.186C453.561,27.774,453.553,27.507,453.503,27.258z"/>
	<path fill="#1A1919" d="M454.948,54.821L454.948,54.821c-0.691,0.464-1.859,0.019-2.39,1.454c0.968-0.497,1.806-0.542,2.374-1.222
		C454.93,54.976,454.936,54.898,454.948,54.821L454.948,54.821z"/>
	<path fill="#1A1919" d="M456.116,54.382c-0.362,0.219-0.866,0.063-1.168,0.439l0,0c-0.013,0.077-0.019,0.155-0.016,0.232
		c0.663,0.162,1.213-0.153,1.771-0.425c-0.142-0.059-0.281-0.116-0.422-0.177C456.222,54.441,456.163,54.424,456.116,54.382z"/>
	<path fill="#1A1919" d="M446.109,116.819c0.614,0.348,1.265,0.274,1.968,0.03c-0.268-0.087-0.537-0.177-0.805-0.265
		C446.935,116.911,446.483,116.678,446.109,116.819z"/>
	<path fill="#1A1919" d="M456.116,54.382c0.056,0.024,0.111,0.048,0.166,0.07c0.141,0.061,0.28,0.118,0.422,0.177
		c0.319-0.011,0.649,0.022,0.885-0.267c-0.208-0.091-0.417-0.182-0.625-0.272C456.683,54.187,456.399,54.285,456.116,54.382z"/>
	<path fill="#1A1919" d="M451.879,31.909c0.39-0.151,0.544-0.426,0.562-0.805c-0.092-0.111-0.184-0.224-0.275-0.337
		C452.007,31.113,451.682,31.416,451.879,31.909z"/>
	<path fill="#1A1919" d="M405.857,47.009c-0.121-0.314-0.353-0.438-0.679-0.392c-0.06,0.009-0.122,0.022-0.188,0.041
		c-0.006,0.147-0.015,0.294-0.021,0.439c0.206,0.116,0.411,0.231,0.617,0.348c0.107-0.088,0.217-0.177,0.325-0.265
		C405.896,47.117,405.878,47.059,405.857,47.009z"/>
	<path fill="#1A1919" d="M405.273,42.925c0.495,0.023,1.001,0.118,1.436-0.232C406.213,42.668,405.701,42.53,405.273,42.925z"/>
	<path fill="#1A1919" d="M405.619,45.443c-0.027,0.554,0.393,0.838,0.895,0.914c0.428,0.063,0.534-0.293,0.624-0.639
		c-0.084-0.444-0.295-0.787-0.804-0.816C405.96,44.884,405.637,45.101,405.619,45.443z"/>
</g>
<g>
	<path fill="#1A1919" d="M0,100.895l0.849-0.971c0.729,0,1.821-0.163,3.277-0.487c1.457-0.321,2.931-0.707,4.429-1.151
		c1.496-0.444,3.377-0.991,5.644-1.64c0-0.97,0.041-2.587,0.121-4.854c0.081-2.264,0.222-4.834,0.425-7.707
		c0.201-2.87,0.485-5.844,0.85-8.919c0.364-3.074,0.85-5.886,1.456-8.434s1.354-4.652,2.245-6.312
		c0.89-1.657,1.941-2.488,3.155-2.488c1.05,0,1.981,0.669,2.792,2.004c0.807,1.335,1.517,3.054,2.124,5.157
		c0.606,2.104,1.091,4.43,1.456,6.979c0.364,2.549,0.668,4.996,0.91,7.342c0.243,2.347,0.425,4.471,0.547,6.37
		c0.121,1.902,0.182,3.258,0.182,4.066c1.214-0.485,2.446-0.99,3.701-1.518c1.253-0.525,2.567-0.789,3.944-0.789l0.728,0.85
		c-0.081,0.243-0.485,0.527-1.213,0.851c-0.729,0.323-1.538,0.648-2.428,0.971c-0.89,0.323-1.758,0.605-2.608,0.849
		c-0.85,0.243-1.437,0.406-1.76,0.486c0.162,1.618,0.444,4.065,0.85,7.341c0.403,3.277,0.91,6.675,1.517,10.195
		c0.606,3.519,1.292,6.796,2.062,9.828c0.769,3.036,1.596,5.117,2.488,6.252c0.404,0.564,1.011,1.03,1.821,1.394
		c0.808,0.365,1.293,0.869,1.456,1.518l-0.85,0.85c-1.213,0-2.326-0.769-3.337-2.305c-1.013-1.539-1.923-3.5-2.73-5.886
		c-0.81-2.387-1.517-5.036-2.124-7.949c-0.607-2.913-1.114-5.723-1.517-8.436c-0.406-2.709-0.729-5.176-0.971-7.401
		c-0.243-2.226-0.407-3.822-0.485-4.793c-2.185,0.89-4.37,1.801-6.554,2.73c-2.185,0.93-4.369,1.841-6.553,2.729v21.237
		c0,0.323-0.082,0.99-0.244,2.004c-0.163,1.01-0.485,1.517-0.97,1.517c-0.486,0-0.79-0.365-0.911-1.094
		c-0.121-0.728-0.181-1.333-0.181-1.819c0-3.478,0.079-6.978,0.242-10.496c0.161-3.521,0.242-7.02,0.242-10.498
		c-2.104,0.81-4.247,1.518-6.431,2.123c-2.185,0.606-4.41,1.032-6.674,1.274L0,100.895z M22.694,60.12
		c-0.892,0-1.681,0.768-2.367,2.305c-0.688,1.538-1.274,3.519-1.759,5.946c-0.486,2.428-0.892,5.077-1.214,7.95
		c-0.324,2.871-0.588,5.623-0.79,8.251c-0.202,2.63-0.345,4.996-0.424,7.1c-0.082,2.104-0.122,3.519-0.122,4.247
		c2.185-0.89,4.327-1.82,6.432-2.79c2.103-0.971,4.249-1.901,6.432-2.792c-0.081-0.728-0.182-1.961-0.303-3.701
		c-0.122-1.738-0.303-3.742-0.545-6.009c-0.243-2.262-0.527-4.589-0.85-6.976c-0.324-2.386-0.71-4.592-1.153-6.615
		c-0.445-2.021-0.952-3.681-1.517-4.977C23.947,60.767,23.34,60.12,22.694,60.12z"/>
	<path fill="#1A1919" d="M58.856,114.608c-0.648,0-1.134-0.972-1.456-2.912c-0.324-1.943-0.567-4.491-0.729-7.646
		c-0.163-3.154-0.345-6.734-0.546-10.74c-0.203-4.005-0.485-8.07-0.849-12.196c-0.364-4.126-0.891-8.109-1.578-11.954
		c-0.688-3.841-1.639-7.22-2.853-10.133l-0.121-0.484l0.851-0.971c0.646,0,1.153,0.484,1.517,1.455
		c0.363,0.971,0.625,1.699,0.788,2.184c1.051,3.806,1.86,7.768,2.428,11.894c0.564,4.127,0.989,8.312,1.274,12.561
		c0.283,4.247,0.504,8.477,0.667,12.682c0.162,4.208,0.405,8.294,0.728,12.258c0.243-1.05,0.546-2.589,0.911-4.612
		c0.363-2.021,0.807-4.266,1.334-6.735c0.524-2.466,1.111-4.976,1.759-7.524c0.646-2.548,1.375-4.872,2.184-6.978
		c0.808-2.104,1.7-3.823,2.67-5.157c0.97-1.336,2.063-2.002,3.277-2.002c1.535,0,2.809,0.628,3.822,1.88
		c1.011,1.257,1.8,2.731,2.366,4.431c0.565,1.699,0.95,3.439,1.153,5.218c0.2,1.78,0.303,3.236,0.303,4.368
		c0,1.377-0.224,3.44-0.667,6.19c-0.446,2.751-1.114,5.502-2.003,8.252c-0.892,2.751-1.983,5.157-3.277,7.221
		c-1.295,2.063-2.833,3.095-4.611,3.095c-0.729,0-1.275-0.2-1.639-0.607c-0.362-0.404-0.626-0.91-0.788-1.518
		c-0.163-0.606-0.264-1.253-0.304-1.941c-0.042-0.686-0.102-1.273-0.183-1.76l0.972-0.971l0.728,0.606l0.728,4.126l1.092,0.122
		c2.75-2.831,4.854-6.207,6.311-10.133c1.457-3.923,2.185-7.866,2.185-11.833c0-0.808-0.122-2.021-0.363-3.64
		c-0.243-1.617-0.628-3.255-1.153-4.916c-0.528-1.657-1.174-3.113-1.941-4.369c-0.771-1.253-1.681-1.88-2.73-1.88
		c-0.892,0-1.741,0.668-2.549,2.001c-0.809,1.337-1.559,3.057-2.245,5.159c-0.689,2.104-1.335,4.41-1.942,6.916
		c-0.606,2.509-1.134,4.937-1.577,7.283c-0.445,2.346-0.85,4.448-1.214,6.31c-0.364,1.861-0.627,3.155-0.789,3.883
		c-0.163,0.405-0.385,1.093-0.667,2.064C59.846,114.123,59.421,114.608,58.856,114.608z"/>
	<path fill="#1A1919" d="M97.204,114.608c-0.648,0-1.133-0.972-1.456-2.912c-0.324-1.943-0.567-4.491-0.728-7.646
		c-0.163-3.154-0.346-6.734-0.546-10.74c-0.204-4.005-0.485-8.07-0.85-12.196s-0.892-8.109-1.578-11.954
		c-0.688-3.841-1.638-7.22-2.852-10.133l-0.122-0.484l0.849-0.971c0.646,0,1.154,0.484,1.518,1.455s0.625,1.699,0.789,2.184
		c1.051,3.806,1.86,7.768,2.427,11.894c0.565,4.127,0.99,8.312,1.274,12.561c0.282,4.247,0.504,8.477,0.668,12.682
		c0.161,4.208,0.403,8.294,0.727,12.258c0.243-1.05,0.546-2.589,0.911-4.612c0.364-2.021,0.808-4.266,1.334-6.735
		c0.525-2.466,1.111-4.976,1.76-7.524c0.646-2.548,1.375-4.872,2.185-6.978c0.808-2.104,1.698-3.823,2.669-5.157
		c0.971-1.336,2.063-2.002,3.277-2.002c1.536,0,2.811,0.628,3.823,1.88c1.01,1.257,1.799,2.731,2.367,4.431
		c0.564,1.699,0.95,3.439,1.152,5.218c0.202,1.78,0.304,3.236,0.304,4.368c0,1.377-0.223,3.44-0.668,6.19
		c-0.445,2.751-1.112,5.502-2.002,8.252c-0.892,2.751-1.984,5.157-3.276,7.221c-1.295,2.063-2.833,3.095-4.612,3.095
		c-0.728,0-1.274-0.2-1.639-0.607c-0.364-0.404-0.628-0.91-0.789-1.518c-0.163-0.606-0.264-1.253-0.303-1.941
		c-0.042-0.686-0.102-1.273-0.182-1.76l0.971-0.971l0.729,0.606l0.727,4.126l1.093,0.122c2.749-2.831,4.854-6.207,6.311-10.133
		c1.456-3.923,2.185-7.866,2.185-11.833c0-0.808-0.122-2.021-0.364-3.64c-0.244-1.617-0.628-3.255-1.154-4.916
		c-0.527-1.657-1.173-3.113-1.941-4.369c-0.77-1.253-1.68-1.88-2.73-1.88c-0.892,0-1.742,0.668-2.548,2.001
		c-0.81,1.337-1.559,3.057-2.246,5.159c-0.688,2.104-1.335,4.41-1.941,6.916c-0.606,2.509-1.134,4.937-1.578,7.283
		c-0.445,2.346-0.849,4.448-1.213,6.31c-0.365,1.861-0.628,3.155-0.789,3.883c-0.164,0.405-0.386,1.093-0.668,2.064
		C98.194,114.123,97.77,114.608,97.204,114.608z"/>
	<path fill="#1A1919" d="M128.271,78.929l0.971,0.849c0,1.376-0.021,3.055-0.061,5.037c-0.041,1.983-0.061,4.146-0.061,6.492
		c0,2.184,0.02,4.451,0.061,6.796c0.04,2.348,0.161,4.593,0.364,6.735c0.201,2.144,0.465,4.106,0.789,5.886
		c0.322,1.78,0.768,3.196,1.334,4.247c0.486-0.079,1.111-1.01,1.881-2.791c0.767-1.778,1.577-3.963,2.427-6.554
		c0.849-2.588,1.718-5.439,2.609-8.555c0.89-3.113,1.718-6.087,2.488-8.919c0.768-2.833,1.456-5.36,2.062-7.586
		c0.606-2.224,1.071-3.78,1.395-4.672l0.729-0.365c0.484,0.083,0.928,0.811,1.334,2.185c0.403,1.377,0.729,3.197,0.971,5.461
		c0.242,2.267,0.443,4.814,0.606,7.646c0.161,2.833,0.262,5.704,0.303,8.616c0.041,2.914,0.081,5.766,0.121,8.557
		s0.061,5.238,0.061,7.342v-1.334c0.485,0.081,1.093,0.181,1.82,0.303c0.729,0.121,1.171,0.466,1.335,1.031l-1.092,0.849
		l-1.941-0.362c0,1.053,0,2.772,0,5.157s-0.083,5.075-0.243,8.07c-0.163,2.992-0.406,6.087-0.729,9.283
		c-0.324,3.194-0.83,6.128-1.517,8.799c-0.688,2.67-1.577,4.854-2.67,6.553c-1.092,1.699-2.448,2.548-4.065,2.548
		c-1.619,0-2.894-0.506-3.823-1.517c-0.93-1.013-1.658-2.227-2.184-3.641c-0.527-1.416-0.87-2.912-1.031-4.49
		c-0.163-1.577-0.243-2.933-0.243-4.065c0-2.266,0.262-4.936,0.789-8.01c0.526-3.075,1.375-6.067,2.548-8.98
		c1.173-2.911,2.689-5.481,4.552-7.706c1.86-2.225,4.125-3.578,6.794-4.065v-10.071c0-4.127-0.101-8.253-0.302-12.379
		c-0.204-4.126-0.709-8.049-1.518-11.771c-0.406,0.891-0.891,2.427-1.456,4.61c-0.568,2.186-1.195,4.654-1.882,7.404
		c-0.688,2.751-1.437,5.623-2.245,8.615c-0.81,2.994-1.659,5.725-2.548,8.192c-0.892,2.468-1.781,4.489-2.671,6.067
		c-0.891,1.579-1.74,2.366-2.547,2.366c-0.81,0-1.478-0.787-2.004-2.366c-0.526-1.578-0.951-3.6-1.273-6.067
		c-0.324-2.468-0.568-5.158-0.729-8.071c-0.163-2.912-0.264-5.743-0.304-8.494c-0.041-2.75-0.06-5.218-0.06-7.403
		c0-2.184,0-3.72,0-4.611L128.271,78.929z M140.892,154.049c1.617-2.347,2.852-5.14,3.701-8.374
		c0.85-3.236,1.457-6.614,1.821-10.133c0.363-3.52,0.544-7.02,0.544-10.497c0-3.479,0-6.634,0-9.466
		c-1.295,0-2.528,0.526-3.701,1.576c-1.173,1.053-2.266,2.386-3.276,4.007c-1.013,1.615-1.903,3.437-2.67,5.461
		c-0.77,2.02-1.417,4.022-1.942,6.007c-0.527,1.981-0.931,3.842-1.213,5.582c-0.284,1.739-0.425,3.134-0.425,4.186
		c0,0.89,0.08,2.023,0.243,3.398c0.162,1.376,0.465,2.69,0.911,3.944c0.443,1.253,1.051,2.326,1.82,3.217
		c0.768,0.889,1.8,1.335,3.094,1.335C140.042,154.292,140.406,154.21,140.892,154.049z"/>
	<path fill="#1A1919" d="M186.034,65.094l0.85,0.849c0.162,6.231,0.344,12.422,0.547,18.568c0.201,6.15,0.503,12.339,0.91,18.567
		c0.079-0.971,0.322-2.731,0.728-5.279c0.403-2.549,0.911-5.44,1.517-8.677c0.606-3.234,1.273-6.594,2.002-10.073
		c0.729-3.478,1.496-6.675,2.306-9.586c0.808-2.912,1.639-5.299,2.488-7.161c0.849-1.859,1.678-2.791,2.487-2.791
		c0.486,0,0.89,0.628,1.213,1.882c0.323,1.254,0.546,2.75,0.668,4.489c0.121,1.74,0.2,3.5,0.242,5.279
		c0.041,1.781,0.061,3.155,0.061,4.126c0,0.242,0.02,1.092,0.061,2.549c0.04,1.456,0.122,3.216,0.243,5.278
		c0.121,2.064,0.243,4.291,0.364,6.676c0.121,2.387,0.282,4.692,0.485,6.917c0.201,2.226,0.444,4.188,0.728,5.886
		c0.283,1.698,0.586,2.872,0.91,3.52c0.809-1.294,1.619-3.296,2.428-6.008c0.808-2.71,1.597-5.703,2.367-8.98
		c0.767-3.275,1.577-6.653,2.426-10.132s1.699-6.635,2.549-9.468c0.85-2.83,1.76-5.157,2.73-6.978
		c0.971-1.818,1.981-2.73,3.034-2.73c0.566,0,1.072,0.75,1.517,2.246c0.443,1.497,0.85,3.479,1.213,5.945
		c0.365,2.47,0.708,5.239,1.033,8.314c0.322,3.074,0.626,6.209,0.91,9.403c0.283,3.198,0.546,6.293,0.789,9.284
		c0.242,2.994,0.485,5.583,0.728,7.768c0.162,1.861,0.465,3.805,0.91,5.825c0.444,2.022,0.668,3.925,0.668,5.703
		c0,0.164-0.061,0.385-0.182,0.668c-0.122,0.285-0.304,0.424-0.547,0.424c-0.485,0-0.91-0.667-1.274-2.003
		c-0.364-1.334-0.709-3.094-1.031-5.278c-0.324-2.184-0.627-4.651-0.91-7.403c-0.284-2.749-0.546-5.561-0.79-8.434
		c-0.242-2.87-0.483-5.643-0.727-8.312c-0.243-2.671-0.447-5.015-0.607-7.038c-0.243-2.507-0.466-4.994-0.667-7.465
		c-0.204-2.466-0.75-4.873-1.639-7.219c-0.891,1.213-1.74,3.113-2.548,5.702c-0.81,2.591-1.62,5.504-2.427,8.739
		c-0.81,3.235-1.638,6.572-2.488,10.011c-0.85,3.439-1.68,6.596-2.488,9.467c-0.81,2.873-1.637,5.218-2.487,7.038
		c-0.85,1.819-1.68,2.73-2.489,2.73c-0.727,0-1.375-1.193-1.94-3.581c-0.567-2.384-1.013-5.114-1.335-8.191
		c-0.325-3.072-0.568-6.046-0.728-8.919c-0.164-2.871-0.243-4.833-0.243-5.885V75.41c0-2.265-0.061-4.47-0.183-6.615
		c-0.121-2.143-0.466-4.266-1.031-6.37c-0.648,1.052-1.355,2.852-2.124,5.4c-0.77,2.548-1.538,5.521-2.305,8.919
		c-0.771,3.399-1.499,7.02-2.186,10.862c-0.688,3.844-1.315,7.523-1.88,11.044c-0.567,3.519-1.014,6.693-1.335,9.525
		c-0.325,2.834-0.485,4.936-0.485,6.31c0,0.083,0.02,0.164,0.061,0.243c0.039,0.082,0.06,0.164,0.06,0.243
		c0,0.082-0.082,0.122-0.243,0.122h-0.484h-0.122l-0.729-0.365c-0.163-0.322-0.323-1.617-0.485-3.883
		c-0.164-2.263-0.345-5.055-0.546-8.372c-0.203-3.318-0.384-6.919-0.546-10.802c-0.162-3.884-0.302-7.586-0.424-11.104
		c-0.122-3.52-0.224-6.614-0.304-9.284c-0.081-2.669-0.121-4.448-0.121-5.34L186.034,65.094z"/>
	<path fill="#1A1919" d="M237.975,100.895c0-1.536,0.182-3.722,0.546-6.555c0.364-2.83,0.991-5.601,1.881-8.312
		c0.89-2.71,2.042-5.075,3.459-7.099c1.413-2.022,3.215-3.034,5.4-3.034c1.374,0,2.566,0.445,3.578,1.335
		c1.012,0.892,1.883,1.819,2.609,2.791c0-0.403,0.061-0.769,0.183-1.092s0.384-0.564,0.788-0.729l0.85,0.85c0,0.729,0,2.145,0,4.247
		c0,2.105,0.041,4.532,0.121,7.283c0.08,2.752,0.223,5.642,0.425,8.676s0.526,5.807,0.972,8.313c0.444,2.509,1.032,4.593,1.76,6.249
		c0.729,1.66,1.658,2.488,2.791,2.488l2.184-0.971l0.729,0.971c-0.162,0.485-0.588,0.953-1.273,1.396
		c-0.688,0.445-1.274,0.668-1.76,0.668c-1.457,0-2.631-0.93-3.52-2.791c-0.892-1.86-1.598-4.004-2.123-6.432
		c-0.527-2.428-0.91-4.834-1.154-7.222c-0.242-2.385-0.404-4.144-0.484-5.279c-0.242,1.378-0.709,3.198-1.396,5.462
		c-0.688,2.266-1.559,4.531-2.609,6.795c-1.052,2.267-2.286,4.208-3.702,5.825c-1.416,1.62-3.014,2.427-4.792,2.427
		c-1.214,0-2.185-0.707-2.914-2.123c-0.727-1.413-1.274-3.033-1.637-4.854c-0.364-1.82-0.607-3.641-0.729-5.462
		C238.036,102.896,237.975,101.623,237.975,100.895z M243.921,114.85c1.131,0,2.203-0.565,3.215-1.698
		c1.012-1.133,1.96-2.59,2.852-4.37c0.891-1.777,1.658-3.761,2.307-5.946c0.646-2.185,1.213-4.308,1.699-6.371
		c0.485-2.062,0.85-3.944,1.092-5.644c0.242-1.698,0.363-2.992,0.363-3.882v-4.977c-0.484,0-0.909-0.223-1.273-0.667
		s-0.75-0.929-1.153-1.457c-0.405-0.524-0.87-1.011-1.395-1.456c-0.528-0.443-1.195-0.668-2.003-0.668
		c-1.941,0-3.541,0.973-4.793,2.912c-1.256,1.943-2.245,4.21-2.974,6.797c-0.729,2.591-1.254,5.179-1.577,7.767
		c-0.325,2.592-0.485,4.571-0.485,5.947c0,0.648,0.018,1.719,0.061,3.215c0.039,1.499,0.182,3.035,0.425,4.613
		c0.242,1.577,0.646,2.953,1.213,4.125C242.06,114.265,242.869,114.85,243.921,114.85z"/>
	<path fill="#1A1919" d="M276.989,69.099c-0.041,3.397-0.06,6.796-0.06,10.193c0,6.553,0.101,13.026,0.303,19.417
		c0.201,6.393,0.708,12.823,1.517,19.296l-0.85,0.728c-0.485,0-0.869-0.666-1.152-2.002c-0.285-1.336-0.528-3.053-0.729-5.156
		c-0.202-2.104-0.345-4.492-0.424-7.162c-0.082-2.669-0.143-5.379-0.183-8.129c-0.042-2.751-0.082-5.421-0.122-8.012
		c-0.042-2.587-0.061-4.893-0.061-6.915l-0.12-11.166c0,0.164,0-0.344,0-1.517c0-1.172,0.018-2.507,0.061-4.006
		c0.039-1.496,0.12-2.912,0.242-4.247s0.344-2.123,0.667-2.366l0.728,0.243l0.243,0.607C277.05,62.302,277.03,65.701,276.989,69.099
		z"/>
	<path fill="#1A1919" d="M289.306,100.895c0-1.536,0.183-3.722,0.547-6.555c0.363-2.83,0.99-5.601,1.88-8.312
		c0.89-2.71,2.043-5.075,3.46-7.099c1.413-2.022,3.215-3.034,5.398-3.034c1.377,0,2.569,0.445,3.582,1.335
		c1.011,0.892,1.88,1.819,2.608,2.791c0-0.403,0.062-0.769,0.182-1.092c0.122-0.323,0.384-0.564,0.788-0.729l0.851,0.85
		c0,0.729,0,2.145,0,4.247c0,2.105,0.039,4.532,0.121,7.283c0.079,2.752,0.223,5.642,0.424,8.676
		c0.202,3.034,0.526,5.807,0.973,8.313c0.442,2.509,1.03,4.593,1.759,6.249c0.729,1.66,1.657,2.488,2.791,2.488l2.185-0.971
		l0.729,0.971c-0.163,0.485-0.587,0.953-1.274,1.396c-0.689,0.445-1.275,0.668-1.759,0.668c-1.457,0-2.632-0.93-3.52-2.791
		c-0.892-1.86-1.6-4.004-2.125-6.432c-0.526-2.428-0.909-4.834-1.153-7.222c-0.242-2.385-0.404-4.144-0.484-5.279
		c-0.242,1.378-0.71,3.198-1.396,5.462c-0.687,2.266-1.558,4.531-2.608,6.795c-1.053,2.267-2.286,4.208-3.7,5.825
		c-1.417,1.62-3.016,2.427-4.794,2.427c-1.215,0-2.185-0.707-2.913-2.123c-0.729-1.413-1.275-3.033-1.639-4.854
		s-0.606-3.641-0.728-5.462C289.366,102.896,289.306,101.623,289.306,100.895z M295.252,114.85c1.133,0,2.204-0.565,3.217-1.698
		c1.011-1.133,1.96-2.59,2.853-4.37c0.888-1.777,1.655-3.761,2.304-5.946c0.647-2.185,1.214-4.308,1.7-6.371
		c0.484-2.062,0.849-3.944,1.092-5.644c0.243-1.698,0.364-2.992,0.364-3.882v-4.977c-0.486,0-0.911-0.223-1.274-0.667
		c-0.364-0.444-0.749-0.929-1.152-1.457c-0.407-0.524-0.87-1.011-1.396-1.456c-0.527-0.443-1.195-0.668-2.004-0.668
		c-1.94,0-3.54,0.973-4.793,2.912c-1.255,1.943-2.245,4.21-2.973,6.797c-0.729,2.591-1.255,5.179-1.577,7.767
		c-0.324,2.592-0.487,4.571-0.487,5.947c0,0.648,0.02,1.719,0.062,3.215c0.039,1.499,0.183,3.035,0.426,4.613
		c0.242,1.577,0.646,2.953,1.212,4.125C293.39,114.265,294.2,114.85,295.252,114.85z"/>
	<path fill="#1A1919" d="M326.317,82.691l0.85,0.849c0.729,4.613,1.192,9.224,1.396,13.835c0.2,4.612,0.95,9.184,2.245,13.713
		c0.323-0.888,0.625-2.365,0.911-4.428c0.281-2.064,0.563-4.37,0.849-6.918c0.282-2.548,0.586-5.178,0.911-7.889
		c0.321-2.71,0.746-5.177,1.273-7.403c0.524-2.223,1.172-4.064,1.94-5.521s1.719-2.186,2.852-2.186s2.003,0.83,2.609,2.488
		c0.608,1.659,1.093,3.783,1.458,6.372c0.363,2.59,0.646,5.46,0.85,8.616c0.201,3.154,0.463,6.23,0.789,9.223
		c0.321,2.993,0.745,5.684,1.273,8.069c0.525,2.389,1.313,4.146,2.367,5.279c0.727,0.811,1.455,1.578,2.184,2.306
		c0.729,0.729,1.495,1.416,2.305,2.064l-0.727,0.848c-2.428-0.729-4.289-2.225-5.582-4.489c-1.296-2.265-2.267-4.915-2.914-7.949
		c-0.648-3.033-1.072-6.25-1.273-9.646c-0.203-3.399-0.386-6.573-0.546-9.527c-0.164-2.951-0.447-5.5-0.851-7.645
		c-0.406-2.144-1.133-3.5-2.185-4.065c-0.809,0-1.477,0.687-2.001,2.062c-0.527,1.377-0.973,3.136-1.335,5.278
		c-0.364,2.145-0.689,4.552-0.971,7.222c-0.285,2.669-0.589,5.32-0.91,7.947c-0.325,2.63-0.668,5.119-1.032,7.464
		c-0.364,2.349-0.789,4.248-1.273,5.705l-0.365,0.119c-0.728,0-1.355-0.667-1.881-2.001c-0.528-1.336-0.991-3.014-1.395-5.037
		c-0.406-2.021-0.749-4.266-1.033-6.734c-0.284-2.467-0.527-4.854-0.727-7.161c-0.204-2.306-0.387-4.368-0.546-6.188
		c-0.164-1.819-0.285-3.094-0.365-3.823L326.317,82.691z"/>
</g>
<g>
	<path stroke="#000000" stroke-width="0.25" stroke-miterlimit="10" d="M8,142.937h0.673v9.645H8V142.937z"/>
	<path stroke="#000000" stroke-width="0.25" stroke-miterlimit="10" d="M11.381,145.558h0.556l0.059,1.081h0.043
		c0.718-0.717,1.449-1.258,2.415-1.258c1.45,0,2.123,0.879,2.123,2.691v4.509h-0.645v-4.42c0-1.492-0.468-2.193-1.61-2.193
		c-0.834,0-1.433,0.438-2.297,1.314v5.299h-0.644V145.558z"/>
	<path stroke="#000000" stroke-width="0.25" stroke-miterlimit="10" d="M19.332,146.114h-1.097v-0.497l1.112-0.059l0.088-2.036
		h0.556v2.036h2.034v0.556h-2.034v4.581c0,0.891,0.22,1.491,1.186,1.491c0.262,0,0.628-0.103,0.878-0.221l0.175,0.528
		c-0.409,0.146-0.849,0.263-1.143,0.263c-1.36,0-1.755-0.861-1.755-2.122V146.114z"/>
	<path stroke="#000000" stroke-width="0.25" stroke-miterlimit="10" d="M26.066,145.382c1.668,0,2.692,1.184,2.692,3.249
		c0,0.175,0,0.351-0.029,0.525h-5.063c0.029,1.771,1.069,3.044,2.648,3.044c0.761,0,1.361-0.247,1.888-0.629l0.263,0.497
		c-0.556,0.338-1.185,0.688-2.209,0.688c-1.8,0-3.249-1.375-3.249-3.671C23.008,146.787,24.5,145.382,26.066,145.382z
		 M28.145,148.66c0-1.8-0.804-2.724-2.063-2.724c-1.2,0-2.268,1.039-2.415,2.724H28.145z"/>
	<path stroke="#000000" stroke-width="0.25" stroke-miterlimit="10" d="M30.973,152.317v-0.057
		c-0.351-0.205-0.615-0.585-0.615-1.129c0-0.628,0.454-1.065,0.761-1.288v-0.057c-0.439-0.382-0.879-1.084-0.879-1.933
		c0-1.448,1.099-2.473,2.474-2.473c0.381,0,0.702,0.087,0.922,0.177h2.385v0.54h-1.639c0.455,0.395,0.776,1.025,0.776,1.77
		c0,1.436-1.067,2.476-2.444,2.476c-0.395,0-0.849-0.103-1.171-0.295c-0.308,0.249-0.571,0.543-0.571,1.012
		c0,0.511,0.293,0.92,1.347,0.92h1.507c1.58,0,2.312,0.498,2.312,1.611c0,1.214-1.303,2.37-3.322,2.37
		c-1.771,0-2.883-0.761-2.883-1.947C29.934,153.4,30.328,152.786,30.973,152.317z M32.89,155.435c1.58,0,2.59-0.894,2.59-1.77
		c0-0.777-0.571-1.07-1.625-1.07h-1.506c-0.148,0-0.513-0.028-0.879-0.117c-0.643,0.438-0.922,0.982-0.922,1.478
		C30.548,154.834,31.397,155.435,32.89,155.435z M34.529,147.854c0-1.185-0.82-1.944-1.815-1.944c-0.995,0-1.83,0.745-1.83,1.944
		c0,1.186,0.849,1.977,1.83,1.977C33.68,149.831,34.529,149.04,34.529,147.854z"/>
	<path stroke="#000000" stroke-width="0.25" stroke-miterlimit="10" d="M37.65,145.558h0.555l0.059,1.302h0.044
		c0.468-0.864,1.156-1.479,1.99-1.479c0.264,0,0.469,0.028,0.703,0.146l-0.146,0.587c-0.232-0.09-0.365-0.118-0.644-0.118
		c-0.63,0-1.375,0.484-1.917,1.8v4.786H37.65V145.558z"/>
	<path stroke="#000000" stroke-width="0.25" stroke-miterlimit="10" d="M46.096,148.177c0.03-1.068-0.278-2.224-1.654-2.224
		c-0.951,0-1.771,0.468-2.239,0.818l-0.292-0.483c0.498-0.352,1.463-0.906,2.606-0.906c1.667,0,2.224,1.201,2.224,2.708v4.492
		h-0.542l-0.072-0.906h-0.03c-0.717,0.57-1.565,1.081-2.488,1.081c-1.113,0-2.048-0.6-2.048-1.931
		C41.56,149.273,42.978,148.528,46.096,148.177z M43.71,152.2c0.806,0,1.523-0.394,2.386-1.14v-2.385
		c-2.883,0.336-3.864,1.007-3.864,2.12C42.232,151.806,42.905,152.2,43.71,152.2z"/>
	<path stroke="#000000" stroke-width="0.25" stroke-miterlimit="10" d="M49.26,142.059h0.646v9.673c0,0.308,0.13,0.454,0.306,0.454
		c0.059,0,0.117,0,0.263-0.029l0.117,0.526c-0.131,0.044-0.263,0.073-0.468,0.073c-0.571,0-0.864-0.351-0.864-1.11V142.059z"/>
	<path stroke="#000000" stroke-width="0.25" stroke-miterlimit="10" d="M55.673,142.937h0.937l2.019,5.664l0.762,2.136h0.058
		l0.747-2.136l2.006-5.664h0.95v9.645h-0.659v-6.336c0-0.791,0.043-1.801,0.087-2.605h-0.059l-0.746,2.122l-2.078,5.766h-0.585
		l-2.078-5.766l-0.761-2.122h-0.058c0.029,0.805,0.072,1.814,0.072,2.605v6.336h-0.614V142.937z"/>
	<path stroke="#000000" stroke-width="0.25" stroke-miterlimit="10" d="M70.02,148.177c0.03-1.068-0.278-2.224-1.654-2.224
		c-0.95,0-1.771,0.468-2.239,0.818l-0.292-0.483c0.498-0.352,1.463-0.906,2.605-0.906c1.667,0,2.225,1.201,2.225,2.708v4.492h-0.542
		l-0.073-0.906h-0.03c-0.717,0.57-1.566,1.081-2.488,1.081c-1.111,0-2.048-0.6-2.048-1.931
		C65.483,149.273,66.903,148.528,70.02,148.177z M67.635,152.2c0.805,0,1.522-0.394,2.385-1.14v-2.385
		c-2.882,0.336-3.863,1.007-3.863,2.12C66.156,151.806,66.829,152.2,67.635,152.2z"/>
	<path stroke="#000000" stroke-width="0.25" stroke-miterlimit="10" d="M72.687,151.309c0.601,0.497,1.23,0.891,2.24,0.891
		c1.097,0,1.667-0.644,1.667-1.39c0-0.879-0.906-1.259-1.711-1.551c-1.068-0.38-2.239-0.805-2.239-2.005
		c0-1.023,0.806-1.873,2.269-1.873c0.746,0,1.492,0.308,2.004,0.732l-0.351,0.451c-0.469-0.35-0.966-0.629-1.683-0.629
		c-1.083,0-1.581,0.629-1.581,1.274c0,0.776,0.819,1.111,1.653,1.42c1.098,0.409,2.297,0.774,2.297,2.152
		c0,1.052-0.848,1.974-2.369,1.974c-1.039,0-1.947-0.439-2.576-0.966L72.687,151.309z"/>
	<path stroke="#000000" stroke-width="0.25" stroke-miterlimit="10" d="M79.275,146.114h-1.098v-0.497l1.113-0.059l0.087-2.036
		h0.556v2.036h2.034v0.556h-2.034v4.581c0,0.891,0.221,1.491,1.186,1.491c0.264,0,0.629-0.103,0.879-0.221l0.175,0.528
		c-0.409,0.146-0.848,0.263-1.142,0.263c-1.36,0-1.756-0.861-1.756-2.122V146.114z"/>
	<path stroke="#000000" stroke-width="0.25" stroke-miterlimit="10" d="M86.01,145.382c1.667,0,2.693,1.184,2.693,3.249
		c0,0.175,0,0.351-0.031,0.525H83.61c0.028,1.771,1.067,3.044,2.647,3.044c0.762,0,1.363-0.247,1.889-0.629l0.264,0.497
		c-0.557,0.338-1.186,0.688-2.209,0.688c-1.801,0-3.25-1.375-3.25-3.671C82.951,146.787,84.444,145.382,86.01,145.382z
		 M88.087,148.66c0-1.8-0.805-2.724-2.064-2.724c-1.199,0-2.267,1.039-2.413,2.724H88.087z"/>
	<path stroke="#000000" stroke-width="0.25" stroke-miterlimit="10" d="M90.609,145.558h0.555l0.059,1.302h0.045
		c0.467-0.864,1.156-1.479,1.99-1.479c0.262,0,0.469,0.028,0.703,0.146l-0.148,0.587c-0.234-0.09-0.363-0.118-0.645-0.118
		c-0.627,0-1.373,0.484-1.916,1.8v4.786h-0.643V145.558z"/>
	<path stroke="#000000" stroke-width="0.25" stroke-miterlimit="10" d="M101.691,142.761c1.127,0,1.99,0.556,2.502,1.155
		l-0.395,0.44c-0.527-0.586-1.23-0.981-2.107-0.981c-2.107,0-3.426,1.684-3.426,4.362s1.303,4.404,3.367,4.404
		c0.994,0,1.74-0.395,2.443-1.185l0.393,0.424c-0.73,0.85-1.607,1.375-2.867,1.375c-2.369,0-4.037-1.946-4.037-5.019
		C97.564,144.678,99.232,142.761,101.691,142.761z"/>
	<path stroke="#000000" stroke-width="0.25" stroke-miterlimit="10" d="M108.878,145.382c1.699,0,3.162,1.345,3.162,3.704
		c0,2.325-1.463,3.671-3.162,3.671c-1.682,0-3.145-1.346-3.145-3.671C105.734,146.726,107.197,145.382,108.878,145.382z
		 M108.878,152.186c1.42,0,2.488-1.259,2.488-3.101c0-1.86-1.068-3.133-2.488-3.133c-1.416,0-2.471,1.272-2.471,3.133
		C106.408,150.927,107.462,152.186,108.878,152.186z"/>
	<path stroke="#000000" stroke-width="0.25" stroke-miterlimit="10" d="M118.074,148.177c0.029-1.068-0.277-2.224-1.654-2.224
		c-0.951,0-1.77,0.468-2.238,0.818l-0.293-0.483c0.498-0.352,1.463-0.906,2.604-0.906c1.67,0,2.225,1.201,2.225,2.708v4.492h-0.539
		l-0.074-0.906h-0.029c-0.717,0.57-1.564,1.081-2.488,1.081c-1.111,0-2.049-0.6-2.049-1.931
		C113.537,149.273,114.957,148.528,118.074,148.177z M115.689,152.2c0.803,0,1.521-0.394,2.385-1.14v-2.385
		c-2.885,0.336-3.863,1.007-3.863,2.12C114.21,151.806,114.884,152.2,115.689,152.2z"/>
	<path stroke="#000000" stroke-width="0.25" stroke-miterlimit="10" d="M123.855,145.382c0.969,0,1.6,0.424,2.068,0.864
		l-0.383,0.453c-0.453-0.425-0.98-0.746-1.666-0.746c-1.436,0-2.549,1.272-2.549,3.133c0,1.842,1.012,3.101,2.549,3.101
		c0.746,0,1.389-0.365,1.871-0.805l0.338,0.439c-0.602,0.542-1.348,0.936-2.24,0.936c-1.814,0-3.189-1.346-3.189-3.671
		C120.654,146.726,122.146,145.382,123.855,145.382z"/>
	<path stroke="#000000" stroke-width="0.25" stroke-miterlimit="10" d="M127.814,142.059h0.643v3.043v1.553
		c0.732-0.732,1.463-1.273,2.428-1.273c1.449,0,2.125,0.879,2.125,2.691v4.509h-0.646v-4.42c0-1.492-0.469-2.193-1.609-2.193
		c-0.834,0-1.434,0.438-2.297,1.314v5.299h-0.643V142.059z"/>
	<path stroke="#000000" stroke-width="0.25" stroke-miterlimit="10" d="M135.5,143.202h-1.564v-0.513h3.701v0.513h-1.58v3.979H135.5
		V143.202z M138.396,142.689h0.764l0.76,1.828l0.453,1.259h0.059l0.453-1.259l0.73-1.828h0.764v4.492h-0.559v-2.356l0.074-1.435
		h-0.059l-1.199,3.09h-0.498l-1.199-3.09h-0.059l0.072,1.435v2.356h-0.557V142.689z"/>
</g>
<path stroke="#000000" stroke-width="0.25" stroke-miterlimit="10" d="M159.901,142.814h0.946l2.042,5.724l0.769,2.159h0.059
	l0.754-2.159l2.026-5.724h0.961v9.746h-0.666v-6.403c0-0.798,0.045-1.819,0.088-2.632h-0.059l-0.755,2.145l-2.099,5.826h-0.592
	l-2.1-5.826l-0.769-2.145h-0.059c0.029,0.812,0.073,1.834,0.073,2.632v6.403h-0.62V142.814z"/>
<path stroke="#000000" stroke-width="0.25" stroke-miterlimit="10" d="M170.244,142.814h2.632c1.953,0,3.21,0.739,3.21,2.366
	c0,1.021-0.577,1.836-1.731,2.129v0.061c1.435,0.207,2.337,1.004,2.337,2.351c0,1.879-1.419,2.84-3.623,2.84h-2.825V142.814z
	 M172.594,147.102c2.012,0,2.811-0.65,2.811-1.938c0-1.256-0.933-1.789-2.721-1.789h-1.76v3.727H172.594z M172.891,151.999
	c1.937,0,3.12-0.71,3.12-2.278c0-1.389-1.139-2.07-3.12-2.07h-1.967v4.349H172.891z"/>
<path stroke="#000000" stroke-width="0.25" stroke-miterlimit="10" d="M183.056,149.218h-3.86l-1.139,3.343h-0.695l3.446-9.746h0.68
	l3.432,9.746h-0.725L183.056,149.218z M182.862,148.64l-0.62-1.818c-0.386-1.152-0.74-2.174-1.08-3.37h-0.06
	c-0.339,1.196-0.68,2.218-1.08,3.37l-0.62,1.818H182.862z"/>
<path stroke="#000000" stroke-width="0.25" stroke-miterlimit="10" d="M201.648,142.814h2.632c1.951,0,3.209,0.739,3.209,2.366
	c0,1.021-0.577,1.836-1.73,2.129v0.061c1.436,0.207,2.337,1.004,2.337,2.351c0,1.879-1.42,2.84-3.624,2.84h-2.824V142.814z
	 M203.999,147.102c2.011,0,2.81-0.65,2.81-1.938c0-1.256-0.932-1.789-2.72-1.789h-1.761v3.727H203.999z M204.295,151.999
	c1.936,0,3.12-0.71,3.12-2.278c0-1.389-1.139-2.07-3.12-2.07h-1.967v4.349H204.295z"/>
<path stroke="#000000" stroke-width="0.25" stroke-miterlimit="10" d="M209.61,150.801c0.709,0.799,1.729,1.316,2.868,1.316
	c1.479,0,2.426-0.8,2.426-1.952c0-1.213-0.799-1.612-1.761-2.04l-1.479-0.666c-0.843-0.37-1.967-0.978-1.967-2.426
	c0-1.404,1.213-2.396,2.824-2.396c1.183,0,2.129,0.533,2.722,1.168l-0.398,0.459c-0.563-0.606-1.347-1.006-2.323-1.006
	c-1.286,0-2.143,0.682-2.143,1.745c0,1.125,0.975,1.554,1.685,1.878l1.479,0.65c1.08,0.49,2.041,1.095,2.041,2.591
	c0,1.493-1.227,2.615-3.12,2.615c-1.42,0-2.514-0.605-3.283-1.462L209.61,150.801z"/>
<path stroke="#000000" stroke-width="0.25" stroke-miterlimit="10" d="M220.158,145.284c0.977,0,1.612,0.429,2.085,0.873
	l-0.384,0.458c-0.458-0.429-0.992-0.753-1.687-0.753c-1.449,0-2.573,1.286-2.573,3.165c0,1.861,1.021,3.135,2.573,3.135
	c0.754,0,1.405-0.37,1.893-0.814l0.34,0.444c-0.606,0.548-1.36,0.945-2.263,0.945c-1.834,0-3.224-1.359-3.224-3.71
	C216.919,146.644,218.428,145.284,220.158,145.284z"/>
<path stroke="#000000" stroke-width="0.25" stroke-miterlimit="10" d="M227.039,148.449c0-2.604,0.74-4.732,1.952-6.7l0.4,0.237
	c-1.168,1.863-1.775,4.127-1.775,6.463c0,2.337,0.606,4.599,1.775,6.463l-0.4,0.236
	C227.779,153.181,227.039,151.052,227.039,148.449z"/>
<path stroke="#000000" stroke-width="0.25" stroke-miterlimit="10" d="M230.62,147.65c0-3.076,1.671-5.014,4.022-5.014
	c2.337,0,4.008,1.938,4.008,5.014c0,3.092-1.671,5.087-4.008,5.087C232.291,152.737,230.62,150.742,230.62,147.65z M237.94,147.65
	c0-2.691-1.331-4.393-3.298-4.393c-1.981,0-3.312,1.701-3.312,4.393c0,2.706,1.331,4.467,3.312,4.467
	C236.61,152.117,237.94,150.356,237.94,147.65z"/>
<path stroke="#000000" stroke-width="0.25" stroke-miterlimit="10" d="M243.417,145.284c0.977,0,1.613,0.429,2.086,0.873
	l-0.385,0.458c-0.458-0.429-0.991-0.753-1.686-0.753c-1.45,0-2.574,1.286-2.574,3.165c0,1.861,1.02,3.135,2.574,3.135
	c0.754,0,1.404-0.37,1.893-0.814l0.34,0.444c-0.606,0.548-1.361,0.945-2.263,0.945c-1.835,0-3.224-1.359-3.224-3.71
	C240.179,146.644,241.688,145.284,243.417,145.284z"/>
<path stroke="#000000" stroke-width="0.25" stroke-miterlimit="10" d="M249.809,145.284c0.977,0,1.613,0.429,2.086,0.873
	l-0.385,0.458c-0.459-0.429-0.991-0.753-1.686-0.753c-1.449,0-2.573,1.286-2.573,3.165c0,1.861,1.021,3.135,2.573,3.135
	c0.754,0,1.404-0.37,1.893-0.814l0.34,0.444c-0.605,0.548-1.36,0.945-2.263,0.945c-1.833,0-3.225-1.359-3.225-3.71
	C246.569,146.644,248.079,145.284,249.809,145.284z"/>
<path stroke="#000000" stroke-width="0.25" stroke-miterlimit="10" d="M253.702,145.463h0.651v4.465c0,1.51,0.473,2.219,1.611,2.219
	c0.843,0,1.464-0.443,2.293-1.449v-5.234h0.65v7.098h-0.547l-0.075-1.183h-0.028c-0.695,0.813-1.435,1.359-2.411,1.359
	c-1.464,0-2.145-0.887-2.145-2.719V145.463z"/>
<path stroke="#000000" stroke-width="0.25" stroke-miterlimit="10" d="M262.284,153.181v2.588h-0.65v-10.307h0.562l0.059,0.886
	h0.046c0.694-0.546,1.537-1.064,2.41-1.064c1.893,0,2.839,1.421,2.839,3.624c0,2.409-1.463,3.829-3.136,3.829
	c-0.665,0-1.39-0.324-2.129-0.871V153.181z M264.384,152.162c1.435,0,2.471-1.332,2.471-3.254c0-1.745-0.621-3.046-2.248-3.046
	c-0.71,0-1.465,0.412-2.322,1.167v4.215C263.098,151.91,263.837,152.162,264.384,152.162z"/>
<path stroke="#000000" stroke-width="0.25" stroke-miterlimit="10" d="M273.647,148.108c0.028-1.079-0.283-2.246-1.673-2.246
	c-0.961,0-1.789,0.473-2.262,0.826l-0.296-0.487c0.503-0.355,1.479-0.917,2.632-0.917c1.687,0,2.249,1.214,2.249,2.737v4.539h-0.547
	l-0.075-0.915h-0.028c-0.726,0.575-1.584,1.092-2.516,1.092c-1.122,0-2.069-0.605-2.069-1.951
	C269.062,149.218,270.496,148.465,273.647,148.108z M271.235,152.176c0.813,0,1.539-0.398,2.412-1.152v-2.41
	c-2.914,0.339-3.905,1.019-3.905,2.144C269.742,151.777,270.423,152.176,271.235,152.176z"/>
<path stroke="#000000" stroke-width="0.25" stroke-miterlimit="10" d="M277.008,146.025h-1.11v-0.504l1.125-0.059l0.089-2.057h0.562
	v2.057h2.056v0.562h-2.056v4.629c0,0.9,0.222,1.508,1.199,1.508c0.265,0,0.634-0.104,0.887-0.224l0.178,0.534
	c-0.415,0.147-0.858,0.265-1.154,0.265c-1.376,0-1.774-0.871-1.774-2.144V146.025z"/>
<path stroke="#000000" stroke-width="0.25" stroke-miterlimit="10" d="M281.211,143.17c0-0.37,0.265-0.591,0.59-0.591
	c0.327,0,0.593,0.221,0.593,0.591c0,0.34-0.266,0.575-0.593,0.575C281.476,143.745,281.211,143.51,281.211,143.17z M281.461,145.463
	h0.65v7.098h-0.65V145.463z"/>
<path stroke="#000000" stroke-width="0.25" stroke-miterlimit="10" d="M287.438,145.284c1.716,0,3.195,1.36,3.195,3.743
	c0,2.351-1.479,3.71-3.195,3.71c-1.7,0-3.178-1.359-3.178-3.71C284.26,146.644,285.737,145.284,287.438,145.284z M287.438,152.162
	c1.436,0,2.515-1.273,2.515-3.135c0-1.879-1.079-3.165-2.515-3.165c-1.434,0-2.498,1.286-2.498,3.165
	C284.939,150.888,286.004,152.162,287.438,152.162z"/>
<path stroke="#000000" stroke-width="0.25" stroke-miterlimit="10" d="M292.767,145.463h0.562l0.06,1.094h0.045
	c0.726-0.725,1.464-1.272,2.44-1.272c1.464,0,2.144,0.888,2.144,2.721v4.556h-0.65v-4.467c0-1.508-0.475-2.217-1.627-2.217
	c-0.843,0-1.45,0.443-2.323,1.329v5.354h-0.649V145.463z"/>
<path stroke="#000000" stroke-width="0.25" stroke-miterlimit="10" d="M304.824,148.108c0.029-1.079-0.281-2.246-1.672-2.246
	c-0.961,0-1.789,0.473-2.263,0.826l-0.296-0.487c0.503-0.355,1.479-0.917,2.632-0.917c1.687,0,2.25,1.214,2.25,2.737v4.539h-0.547
	l-0.075-0.915h-0.029c-0.726,0.575-1.581,1.092-2.515,1.092c-1.124,0-2.07-0.605-2.07-1.951
	C300.239,149.218,301.675,148.465,304.824,148.108z M302.413,152.176c0.812,0,1.538-0.398,2.411-1.152v-2.41
	c-2.913,0.339-3.905,1.019-3.905,2.144C300.919,151.777,301.599,152.176,302.413,152.176z"/>
<path stroke="#000000" stroke-width="0.25" stroke-miterlimit="10" d="M308.023,141.927h0.649v9.776
	c0,0.311,0.133,0.459,0.309,0.459c0.061,0,0.121,0,0.268-0.03l0.118,0.532c-0.133,0.044-0.265,0.073-0.472,0.073
	c-0.577,0-0.872-0.354-0.872-1.122V141.927z"/>
<path stroke="#000000" stroke-width="0.25" stroke-miterlimit="10" d="M314.637,146.025h-1.11v-0.504l1.125-0.059l0.088-2.057h0.562
	v2.057h2.056v0.562h-2.056v4.629c0,0.9,0.222,1.508,1.199,1.508c0.265,0,0.635-0.104,0.885-0.224l0.179,0.534
	c-0.414,0.147-0.857,0.265-1.154,0.265c-1.376,0-1.773-0.871-1.773-2.144V146.025z"/>
<path stroke="#000000" stroke-width="0.25" stroke-miterlimit="10" d="M319.091,141.927h0.65v3.076v1.569
	c0.739-0.74,1.48-1.288,2.455-1.288c1.464,0,2.143,0.888,2.143,2.721v4.556h-0.649v-4.467c0-1.508-0.473-2.217-1.626-2.217
	c-0.842,0-1.449,0.443-2.322,1.329v5.354h-0.65V141.927z"/>
<path stroke="#000000" stroke-width="0.25" stroke-miterlimit="10" d="M329.402,145.284c1.687,0,2.721,1.197,2.721,3.284
	c0,0.177,0,0.354-0.029,0.531h-5.116c0.03,1.789,1.079,3.076,2.677,3.076c0.769,0,1.375-0.25,1.907-0.636l0.267,0.502
	c-0.562,0.341-1.198,0.695-2.232,0.695c-1.82,0-3.284-1.39-3.284-3.71C326.312,146.705,327.82,145.284,329.402,145.284z
	 M331.503,148.597c0-1.818-0.814-2.752-2.086-2.752c-1.213,0-2.292,1.05-2.439,2.752H331.503z"/>
<path stroke="#000000" stroke-width="0.25" stroke-miterlimit="10" d="M334.05,145.463h0.562l0.059,1.316h0.045
	c0.473-0.875,1.168-1.495,2.012-1.495c0.265,0,0.473,0.029,0.71,0.147l-0.148,0.594c-0.236-0.091-0.37-0.121-0.651-0.121
	c-0.635,0-1.39,0.49-1.936,1.82v4.836h-0.652V145.463z"/>
<path stroke="#000000" stroke-width="0.25" stroke-miterlimit="10" d="M342.585,148.108c0.03-1.079-0.28-2.246-1.672-2.246
	c-0.961,0-1.789,0.473-2.263,0.826l-0.295-0.487c0.504-0.355,1.479-0.917,2.633-0.917c1.686,0,2.248,1.214,2.248,2.737v4.539h-0.547
	l-0.074-0.915h-0.03c-0.725,0.575-1.582,1.092-2.515,1.092c-1.122,0-2.069-0.605-2.069-1.951
	C338.001,149.218,339.436,148.465,342.585,148.108z M340.174,152.176c0.814,0,1.539-0.398,2.411-1.152v-2.41
	c-2.913,0.339-3.904,1.019-3.904,2.144C338.681,151.777,339.361,152.176,340.174,152.176z"/>
<path stroke="#000000" stroke-width="0.25" stroke-miterlimit="10" d="M346.434,153.181v2.588h-0.649v-10.307h0.562l0.059,0.886
	h0.046c0.693-0.546,1.538-1.064,2.41-1.064c1.893,0,2.839,1.421,2.839,3.624c0,2.409-1.464,3.829-3.136,3.829
	c-0.664,0-1.388-0.324-2.13-0.871V153.181z M348.535,152.162c1.434,0,2.47-1.332,2.47-3.254c0-1.745-0.622-3.046-2.248-3.046
	c-0.711,0-1.465,0.412-2.323,1.167v4.215C347.248,151.91,347.988,152.162,348.535,152.162z"/>
<path stroke="#000000" stroke-width="0.25" stroke-miterlimit="10" d="M353.552,155.192c0.873,0,1.464-0.798,1.819-1.878
	l0.192-0.619l-2.913-7.232h0.71l1.715,4.465c0.222,0.592,0.503,1.361,0.77,1.982h0.059c0.223-0.621,0.459-1.391,0.651-1.982
	l1.522-4.465h0.666l-2.81,7.986c-0.398,1.181-1.109,2.352-2.382,2.352c-0.267,0-0.531-0.062-0.724-0.149l0.147-0.575
	C353.124,155.135,353.346,155.192,353.552,155.192z"/>
<path stroke="#000000" stroke-width="0.25" stroke-miterlimit="10" d="M361.172,148.449c0-2.336-0.605-4.6-1.774-6.463l0.399-0.237
	c1.212,1.968,1.951,4.097,1.951,6.7c0,2.603-0.739,4.732-1.951,6.699l-0.399-0.236C360.566,153.048,361.172,150.786,361.172,148.449
	z"/>
<path stroke="#000000" stroke-width="0.25" stroke-miterlimit="10" d="M379.718,142.814h2.632c1.952,0,3.211,0.739,3.211,2.366
	c0,1.021-0.578,1.836-1.73,2.129v0.061c1.433,0.207,2.336,1.004,2.336,2.351c0,1.879-1.42,2.84-3.623,2.84h-2.825V142.814z
	 M382.069,147.102c2.011,0,2.811-0.65,2.811-1.938c0-1.256-0.932-1.789-2.722-1.789h-1.759v3.727H382.069z M382.365,151.999
	c1.937,0,3.12-0.71,3.12-2.278c0-1.389-1.139-2.07-3.12-2.07h-1.966v4.349H382.365z"/>
<path stroke="#000000" stroke-width="0.25" stroke-miterlimit="10" d="M387.68,150.801c0.709,0.799,1.729,1.316,2.868,1.316
	c1.48,0,2.427-0.8,2.427-1.952c0-1.213-0.8-1.612-1.761-2.04l-1.479-0.666c-0.843-0.37-1.967-0.978-1.967-2.426
	c0-1.404,1.212-2.396,2.824-2.396c1.183,0,2.129,0.533,2.722,1.168l-0.399,0.459c-0.562-0.606-1.346-1.006-2.322-1.006
	c-1.287,0-2.145,0.682-2.145,1.745c0,1.125,0.977,1.554,1.687,1.878l1.478,0.65c1.081,0.49,2.043,1.095,2.043,2.591
	c0,1.493-1.229,2.615-3.122,2.615c-1.419,0-2.514-0.605-3.282-1.462L387.68,150.801z"/>
<path stroke="#000000" stroke-width="0.25" stroke-miterlimit="10" d="M398.229,145.284c0.977,0,1.611,0.429,2.084,0.873
	l-0.384,0.458c-0.459-0.429-0.991-0.753-1.686-0.753c-1.449,0-2.574,1.286-2.574,3.165c0,1.861,1.021,3.135,2.574,3.135
	c0.755,0,1.403-0.37,1.893-0.814l0.341,0.444c-0.606,0.548-1.362,0.945-2.264,0.945c-1.834,0-3.224-1.359-3.224-3.71
	C394.989,146.644,396.497,145.284,398.229,145.284z"/>
<path stroke="#000000" stroke-width="0.25" stroke-miterlimit="10" d="M405.11,148.449c0-2.604,0.739-4.732,1.951-6.7l0.4,0.237
	c-1.168,1.863-1.776,4.127-1.776,6.463c0,2.337,0.608,4.599,1.776,6.463l-0.4,0.236C405.85,153.181,405.11,151.052,405.11,148.449z"
	/>
<path stroke="#000000" stroke-width="0.25" stroke-miterlimit="10" d="M409.327,142.814h2.661c2.175,0,3.461,0.711,3.461,2.722
	c0,1.907-1.3,2.838-3.461,2.838h-1.98v4.187h-0.681V142.814z M411.812,147.798c1.997,0,2.943-0.665,2.943-2.262
	c0-1.642-0.962-2.145-2.943-2.145h-1.804v4.406H411.812z"/>
<path stroke="#000000" stroke-width="0.25" stroke-miterlimit="10" d="M416.8,151.275c0.606,0.502,1.242,0.9,2.263,0.9
	c1.108,0,1.686-0.651,1.686-1.405c0-0.887-0.918-1.271-1.731-1.566c-1.079-0.384-2.262-0.812-2.262-2.026
	c0-1.034,0.812-1.894,2.293-1.894c0.754,0,1.508,0.312,2.025,0.741l-0.354,0.456c-0.475-0.354-0.977-0.636-1.702-0.636
	c-1.094,0-1.596,0.636-1.596,1.287c0,0.785,0.828,1.124,1.671,1.436c1.108,0.413,2.321,0.783,2.321,2.174
	c0,1.064-0.857,1.995-2.396,1.995c-1.048,0-1.966-0.443-2.602-0.976L416.8,151.275z"/>
<path stroke="#000000" stroke-width="0.25" stroke-miterlimit="10" d="M423.013,155.192c0.873,0,1.465-0.798,1.82-1.878l0.192-0.619
	l-2.914-7.232h0.71l1.716,4.465c0.222,0.592,0.503,1.361,0.769,1.982h0.06c0.221-0.621,0.458-1.391,0.651-1.982l1.523-4.465h0.664
	l-2.81,7.986c-0.399,1.181-1.108,2.352-2.382,2.352c-0.265,0-0.53-0.062-0.725-0.149l0.148-0.575
	C422.586,155.135,422.807,155.192,423.013,155.192z"/>
<path stroke="#000000" stroke-width="0.25" stroke-miterlimit="10" d="M432.393,145.284c0.978,0,1.612,0.429,2.087,0.873
	l-0.386,0.458c-0.457-0.429-0.991-0.753-1.686-0.753c-1.45,0-2.573,1.286-2.573,3.165c0,1.861,1.02,3.135,2.573,3.135
	c0.754,0,1.405-0.37,1.893-0.814l0.341,0.444c-0.606,0.548-1.361,0.945-2.264,0.945c-1.834,0-3.224-1.359-3.224-3.71
	C429.154,146.644,430.664,145.284,432.393,145.284z"/>
<path stroke="#000000" stroke-width="0.25" stroke-miterlimit="10" d="M436.391,141.927h0.65v3.076v1.569
	c0.739-0.74,1.479-1.288,2.455-1.288c1.464,0,2.144,0.888,2.144,2.721v4.556h-0.65v-4.467c0-1.508-0.474-2.217-1.627-2.217
	c-0.843,0-1.448,0.443-2.321,1.329v5.354h-0.65V141.927z"/>
<path stroke="#000000" stroke-width="0.25" stroke-miterlimit="10" d="M446.79,145.284c1.715,0,3.194,1.36,3.194,3.743
	c0,2.351-1.479,3.71-3.194,3.71c-1.7,0-3.18-1.359-3.18-3.71C443.61,146.644,445.09,145.284,446.79,145.284z M446.79,152.162
	c1.434,0,2.515-1.273,2.515-3.135c0-1.879-1.081-3.165-2.515-3.165c-1.435,0-2.499,1.286-2.499,3.165
	C444.291,150.888,445.355,152.162,446.79,152.162z"/>
<path stroke="#000000" stroke-width="0.25" stroke-miterlimit="10" d="M452.119,141.927h0.65v9.776c0,0.311,0.134,0.459,0.311,0.459
	c0.06,0,0.118,0,0.267-0.03l0.118,0.532c-0.133,0.044-0.267,0.073-0.474,0.073c-0.575,0-0.872-0.354-0.872-1.122V141.927z"/>
<path stroke="#000000" stroke-width="0.25" stroke-miterlimit="10" d="M458.214,145.284c1.718,0,3.195,1.36,3.195,3.743
	c0,2.351-1.478,3.71-3.195,3.71c-1.7,0-3.18-1.359-3.18-3.71C455.034,146.644,456.514,145.284,458.214,145.284z M458.214,152.162
	c1.436,0,2.515-1.273,2.515-3.135c0-1.879-1.079-3.165-2.515-3.165c-1.433,0-2.498,1.286-2.498,3.165
	C455.716,150.888,456.781,152.162,458.214,152.162z"/>
<path stroke="#000000" stroke-width="0.25" stroke-miterlimit="10" d="M464.001,152.294v-0.058
	c-0.354-0.207-0.621-0.591-0.621-1.141c0-0.635,0.459-1.077,0.769-1.302v-0.058c-0.443-0.385-0.887-1.096-0.887-1.952
	c0-1.464,1.11-2.5,2.5-2.5c0.382,0,0.71,0.088,0.931,0.179h2.411v0.547h-1.655c0.457,0.398,0.782,1.035,0.782,1.788
	c0,1.449-1.081,2.501-2.469,2.501c-0.4,0-0.858-0.104-1.184-0.298c-0.311,0.252-0.577,0.548-0.577,1.022
	c0,0.517,0.296,0.93,1.36,0.93h1.524c1.597,0,2.336,0.504,2.336,1.628c0,1.228-1.316,2.396-3.357,2.396
	c-1.791,0-2.913-0.769-2.913-1.967C462.951,153.388,463.35,152.767,464.001,152.294z M465.938,155.445
	c1.599,0,2.618-0.903,2.618-1.789c0-0.785-0.577-1.081-1.642-1.081h-1.523c-0.147,0-0.518-0.028-0.887-0.118
	c-0.65,0.442-0.933,0.992-0.933,1.493C463.571,154.837,464.43,155.445,465.938,155.445z M467.595,147.784
	c0-1.198-0.828-1.966-1.833-1.966c-1.007,0-1.85,0.754-1.85,1.966c0,1.197,0.857,1.997,1.85,1.997
	C466.737,149.781,467.595,148.981,467.595,147.784z"/>
<path stroke="#000000" stroke-width="0.25" stroke-miterlimit="10" d="M470.468,155.192c0.872,0,1.463-0.798,1.818-1.878
	l0.192-0.619l-2.914-7.232h0.711l1.716,4.465c0.222,0.592,0.501,1.361,0.769,1.982h0.059c0.222-0.621,0.459-1.391,0.651-1.982
	l1.523-4.465h0.666l-2.811,7.986c-0.399,1.181-1.109,2.352-2.381,2.352c-0.268,0-0.533-0.062-0.725-0.149l0.147-0.575
	C470.038,155.135,470.261,155.192,470.468,155.192z"/>
<path stroke="#000000" stroke-width="0.25" stroke-miterlimit="10" d="M478.088,148.449c0-2.336-0.606-4.6-1.774-6.463l0.399-0.237
	c1.213,1.968,1.952,4.097,1.952,6.7c0,2.603-0.739,4.732-1.952,6.699l-0.399-0.236C477.481,153.048,478.088,150.786,478.088,148.449
	z"/>
</svg>
