<?xml version="1.0" encoding="utf-8"?>
<!-- Generator: Adobe Illustrator 16.0.0, SVG Export Plug-In . SVG Version: 6.00 Build 0)  -->
<!DOCTYPE svg PUBLIC "-//W3C//DTD SVG 1.1//EN" "http://www.w3.org/Graphics/SVG/1.1/DTD/svg11.dtd">
<svg version="1.1" id="Layer_1" xmlns="http://www.w3.org/2000/svg" xmlns:xlink="http://www.w3.org/1999/xlink" x="0px" y="0px"
	 width="492px" height="156.232px" viewBox="0 0 492 156.232" enable-background="new 0 0 492 156.232" xml:space="preserve">
<g>
	<path fill="#191919" d="M456.116,54.382c0.048,0.042,0.105,0.06,0.166,0.069C456.228,54.429,456.172,54.405,456.116,54.382z"/>
	<path fill="#191919" d="M405.12,44.877c0.008,0.017,0.015,0.032,0.021,0.05c-0.01,0.563,0.01,1.126,0.037,1.689
		c0.327-0.046,0.558,0.078,0.68,0.393c0.008-0.005,0.015-0.009,0.022-0.014c0.929-0.267,1.856-0.535,2.187-1.615
		c0.001-0.001,0.002-0.002,0.002-0.003C406.971,44.488,406.811,44.492,405.12,44.877z M407.138,45.719
		c-0.089,0.346-0.196,0.702-0.624,0.638c-0.502-0.076-0.921-0.36-0.894-0.914c0.017-0.341,0.34-0.56,0.714-0.54
		C406.843,44.931,407.055,45.274,407.138,45.719z"/>
	<path fill="#191919" d="M408.65,44.965c-0.102,0.213-0.203,0.425-0.306,0.637c-0.099-0.081-0.189-0.155-0.275-0.225
		c0,0.001-0.001,0.002-0.002,0.003c-0.33,1.08-1.258,1.349-2.187,1.615c-0.008,0.005-0.015,0.009-0.022,0.014
		c0.021,0.051,0.038,0.108,0.053,0.171c-0.108,0.089-0.217,0.178-0.325,0.266c0.576,0.191,1.155,0.555,1.728,0.544
		c2.916-0.053,5.361,1.138,7.693,2.707c0.386,0.26,0.785,0.646,1.452,0.34c-1.074-1.427-2.536-2.172-3.973-2.918
		C410.976,47.332,409.476,46.57,408.65,44.965z"/>
	<path fill="#191919" d="M398.187,52.619c2.051,1.34,4.009,2.806,5.908,4.352c-0.037-0.486,0.174-0.574,0.575-0.359
		c-1.777-1.699-3.747-3.133-5.909-4.306C398.788,52.811,398.547,52.824,398.187,52.619z"/>
	<path fill="#191919" d="M405.179,46.616c-0.027-0.563-0.047-1.126-0.037-1.689c-0.007-0.018-0.014-0.033-0.021-0.05
		c-0.049,0.011-0.092,0.021-0.144,0.032c-0.096-0.081-0.191-0.163-0.288-0.244c-1.233,0.943-3.001,0.751-4.154,1.921
		c1.561-0.356,3.059-0.459,4.435,0.511c0.008-0.146,0.016-0.292,0.022-0.438C405.058,46.639,405.119,46.625,405.179,46.616z"/>
	<path fill="#191919" d="M358.114,53.418c-2.277,1.015-3.888,2.716-5.049,4.893c1.662-1.8,3.54-3.317,5.648-4.55
		C358.339,53.951,358.074,53.95,358.114,53.418z"/>
	<path fill="#191919" d="M405.12,44.877c1.69-0.385,1.851-0.389,2.949,0.5c0.086,0.069,0.177,0.144,0.275,0.225
		c0.103-0.212,0.204-0.424,0.306-0.637c-0.362-0.995-0.974-1.668-2.11-1.75c-1.078-0.078-1.425,0.725-1.852,1.45
		c0.097,0.081,0.192,0.163,0.288,0.244C405.028,44.897,405.071,44.888,405.12,44.877z"/>
	<path fill="#191919" d="M466.931,66.801c-0.113,0.112-0.228,0.225-0.342,0.338c0.037,0.868-0.727,0.879-1.238,1.104
		c-4.969,2.174-10.099,2.003-15.279,1.008c-3.102-0.596-6.07-1.68-9.11-2.5c-0.348-0.094-0.784-0.408-0.954,0.124
		c-0.128,0.401,0.351,0.459,0.636,0.587c5.47,2.467,11.263,3.428,17.199,3.325c2.152-0.037,3.977,0.406,5.696,1.571
		c0.291,0.197,0.797,0.283,0.723,0.757c-0.054,0.34-0.462,0.429-0.754,0.567c-2.156,1.029-4.448,1.567-6.818,1.632
		c-6.36,0.173-12.049-1.759-17.08-5.646c-0.24,0.018-0.459,0.076-0.569,0.323c2.771,2.435,5.772,4.492,9.455,5.223
		c1.104,0.219,1.912,0.635,2.509,1.539c0.098-0.111,0.195-0.222,0.293-0.332c-0.037-0.334,0.065-0.487,0.448-0.52
		c1.575-0.134,2.229,0.987,2.926,2.072c4.748,7.401,5.815,15.534,4.551,24.038c-1.979,13.315-8.754,22.896-21.765,27.591
		c-9.447,3.41-19.126,4.686-29.075,3.31c-5.506-0.761-10.923-1.992-15.856-4.752c-0.386-0.215-0.801-0.545-1.298-0.149
		c0.03,0.522,0.452,0.701,0.818,0.883c1.054,0.521,2.104,1.061,3.194,1.501c4.925,1.988,10.059,3.061,15.345,3.511
		c9.912,0.846,19.605,0.012,28.866-3.848c7.42-3.092,13.868-7.501,18.074-14.573c3.695-6.214,4.871-13.089,4.881-20.214
		c0.009-6.556-1.141-12.841-4.481-18.596c-0.054-0.091,0.009-0.251,0.02-0.403c0.411-0.027,0.791-0.029,1.163-0.081
		c1.729-0.242,3.462-0.503,4.95-1.504c1.561-1.051,1.521-2.164-0.048-3.158c-0.469-0.297-1.067-0.392-1.413-0.896
		c0.31-0.527,0.903-0.479,1.36-0.654c0.93-0.356,1.876-0.692,2.612-1.361C467.075,68.154,467.841,67.605,466.931,66.801z"/>
	<path fill="#191919" d="M455.723,60.141c-0.039,0.008-0.078,0.016-0.117,0.022C455.645,60.157,455.684,60.15,455.723,60.141z"/>
	<path fill="#191919" d="M485.568,35.736c-0.817,0.215-1.647,0.386-2.454,0.633c-2.789,0.856-5.264,2.506-8.108,3.231
		c-0.23,0.06-0.602,0.21-0.476,0.565c0.14,0.394,0.457,0.182,0.709,0.088c2.422-0.893,4.954-1.463,7.318-2.533
		c0.574-0.26,1.165-0.662,1.927-0.338c-0.076,0.178-0.107,0.379-0.223,0.503c-3.296,3.54-6.819,6.798-11.274,8.855
		c-5.333,2.466-10.681,4.901-16.022,7.349c0.208,0.091,0.416,0.182,0.624,0.272c4.731-1.006,9.461-2.013,14.192-3.015
		c2.068-0.438,4.11-1.053,6.259-0.972c0.385,0.015,0.844,0.037,1.005,0.385c0.196,0.425-0.269,0.662-0.537,0.892
		c-0.5,0.428-1.015,0.848-1.572,1.193c-6.729,4.181-14.11,6.3-21.963,6.92c0.345,0.381,0.834,0.133,1.231,0.284l0,0l0,0
		c0.142,0,0.283,0.008,0.425-0.002c4.193-0.301,8.376-0.835,12.594-0.626c0.458,0.022,1.105-0.111,1.244,0.411
		c0.164,0.618-0.507,0.817-0.943,1.065c-1.786,1.015-3.778,1.4-5.744,1.874c-6.589,1.585-13.23,1.887-19.946,0.972
		c-1.126-0.153-2.303-0.717-3.523-0.104c0.309,0.454,0.721,0.48,1.067,0.539c3.815,0.63,7.625,1.369,11.509,1.368
		c5.026-0.001,9.979-0.547,14.707-2.402c1.41-0.554,2.753-1.247,3.848-2.31c0.891-0.862,0.733-1.319-0.412-1.797
		c-0.555-0.232-1.31-0.116-1.684-0.848c1.164-0.513,2.289-0.979,3.388-1.499c2.401-1.137,4.642-2.523,6.509-4.438
		c0.447-0.459,0.979-1.014,0.679-1.74c-0.296-0.716-1.021-0.733-1.692-0.783c-1.529-0.111-3.009,0.195-4.488,0.497
		c-2.15,0.44-4.299,0.894-6.687,1.391c0.712-0.791,1.455-0.965,2.121-1.26c5.861-2.594,11.402-5.662,15.768-10.5
		c0.766-0.85,1.475-1.747,1.756-2.867C486.916,36.125,486.759,35.425,485.568,35.736z"/>
	<path fill="#191919" d="M398.761,52.306c-1.046-0.656-2.092-1.313-3.289-2.063c1.02-0.286,1.886-0.008,2.668-0.419
		c0.743-0.392,1.272-0.974,1.098-1.776c-0.181-0.828-1.029-0.661-1.663-0.655c-0.912,0.009-1.823,0.082-2.91,0.136
		c1.427-1.5,7.761-4.184,10.609-4.604c0.428-0.395,0.94-0.256,1.436-0.231c7.412,0.053,13.278,3.061,17.571,9.132
		c1.008,1.426,2.083,2.812,3.377,4.001c0.47,0.43,0.926,0.947,1.66,0.767c0.195-0.471-0.133-0.707-0.314-0.932
		c-2.611-3.236-5.12-6.579-8.319-9.271c-4.737-3.987-10.046-5.996-16.354-4.582c-3.875,0.868-7.321,2.627-10.67,4.646
		c-1.385,0.835-2.814,1.463-4.458,1.63c-6.853,0.699-13.761,0.871-20.567,2.007c-3.653,0.609-7.289,1.349-10.52,3.327
		c-0.04,0.532,0.225,0.533,0.6,0.343c2.246-0.959,4.505-1.864,6.931-2.298c4.935-0.881,9.913-1.416,14.911-1.595
		c6.032-0.215,12.115-0.472,17.631,2.751C398.547,52.824,398.788,52.811,398.761,52.306z"/>
	<path fill="#191919" d="M476.866,30.206c-0.227,0.161-0.462,0.312-0.678,0.486c-9.409,7.657-19.432,14.391-30.169,20.05
		c-0.45,0.237-0.872,0.676-1.58,0.337c1.575-1.42,3.072-2.77,4.569-4.119c-0.119-0.239-0.342-0.28-0.576-0.299
		c-1.938,1.427-3.77,2.977-5.44,4.715c-1.458,1.518-3.17,2.702-5.125,3.448c-6.56,2.503-13.25,4.523-20.282,5.192
		c-0.354,0.033-0.777-0.031-0.918,0.451c0.309,0.521,0.824,0.363,1.277,0.398c1.377,0.107,2.733-0.1,4.08-0.338
		c21.793-3.85,39.548-15.165,55.4-29.991C477.319,30.29,477.108,30.223,476.866,30.206z"/>
	<path fill="#191919" d="M404.095,56.971c1.701,1.895,3.411,3.782,5.104,5.686c3.487,3.922,6.035,8.395,7.789,13.331
		c0.236,0.665,0.479,1.328,0.494,2.042c0.082,3.883,0.712,7.676,1.693,11.434c2.294,8.784,6.591,16.312,13.826,21.934
		c3.84,2.983,8.128,5.093,13.108,5.423c0.374-0.141,0.825,0.092,1.163-0.235c-0.892-0.297-1.764-0.688-2.677-0.877
		c-6.433-1.333-11.487-4.839-15.593-9.834c-5.549-6.75-8.055-14.819-9.791-23.169c-0.742-3.572-0.6-7.339-2.633-10.598
		c-1.098-1.759-2.036-3.615-3.154-5.359c-2.43-3.793-5.233-7.278-8.755-10.136C404.269,56.396,404.058,56.484,404.095,56.971z"/>
	<path fill="#191919" d="M439.669,45.259c0.816-1.312,1.818-2.545,2.419-3.949c3.668-8.573,6.677-17.358,8.344-26.569
		c0.704-3.889,1.223-7.819,2.29-11.633c0.263-0.939,0.372-2.397,1.582-2.392c1.234,0.007,1.274,1.459,1.501,2.414
		c0.827,3.492,0.177,6.952-0.439,10.384c-0.961,5.345-2.909,10.396-4.804,15.456c-0.303,0.808-0.651,1.606-0.31,2.852
		c1.024-2.802,1.929-5.299,2.85-7.791c2.245-6.079,4.13-12.228,3.857-18.824c-0.056-1.338-0.265-2.629-0.896-3.813
		c-0.956-1.794-2.295-1.859-3.453-0.168c-0.67,0.979-1.046,2.096-1.327,3.239c-0.937,3.8-1.362,7.693-2.096,11.528
		c-1.915,10.019-4.967,19.661-9.844,28.671C439.361,44.911,439.41,45.142,439.669,45.259z"/>
	<path fill="#191919" d="M450.204,78.476c-1.891,0.487-3.635-0.109-5.357-0.724c-5.569-1.987-10.707-4.779-15.388-8.4
		c-0.117,0.115-0.235,0.23-0.353,0.346c0.939,0.925,1.873,1.858,2.822,2.773c0.49,0.474,1.57,0.94,1.279,1.456
		c-0.371,0.656-1.434,0.261-2.204,0.15c-0.091-0.014-0.175-0.074-0.266-0.099c-3.675-0.99-6.331-3.452-8.799-6.156
		c-0.921-1.01-1.726-2.125-2.574-3.199c-0.222-0.279-0.488-0.552-0.813-0.273c-0.258,0.222,0.032,0.516,0.169,0.715
		c0.638,0.936,1.292,1.86,1.969,2.768c2.596,3.479,5.646,6.359,10.047,7.354c1.028,0.232,2.281,0.646,3.007-0.432
		c0.516-0.766,0.815-0.474,1.293-0.168c1.985,1.271,4,2.492,6.162,3.442c2.84,1.249,5.764,2.072,8.913,1.568
		c0.794-0.127,1.694-0.227,2-1.09c0.296-0.833-0.131-1.55-0.815-2.087c-0.098,0.11-0.195,0.221-0.293,0.332
		C451.534,77.697,451.212,78.216,450.204,78.476z"/>
	<path fill="#191919" d="M491.691,17.221c-0.536-0.353-1.124,0.362-1.541,0.749c-2.212,2.051-4.47,4.056-6.495,6.298
		c0.009,0.236,0.072,0.441,0.309,0.549c2.176-1.603,4.033-3.609,6.614-5.327c-0.911,2.163-1.962,3.812-3.048,5.43
		c-1.129,1.684-2.412,3.252-3.769,4.767c-1.269,1.417-2.998,2.405-3.916,4.153c2.176-1.121,3.82-2.86,5.442-4.604
		c2.781-2.989,5.028-6.327,6.367-10.224C491.863,18.404,492.295,17.618,491.691,17.221z"/>
	<path fill="#191919" d="M453.822,27.919c0.094-0.16,0.208-0.311,0.279-0.48c1.835-4.374,3.665-8.754,6.356-12.695
		c0.43-0.631,0.889-1.817,1.617-1.511c0.828,0.35,0.497,1.547,0.407,2.425c-0.329,3.217-1.534,6.172-2.689,9.144
		c0.026,0.221,0.046,0.445,0.279,0.562c1.266-2.107,2.179-4.371,2.801-6.737c0.406-1.546,0.673-3.135,0.517-4.757
		c-0.085-0.885-0.301-1.758-1.218-2.064c-0.947-0.316-1.354,0.586-1.72,1.167c-2.839,4.503-5.387,9.158-6.949,14.286
		C453.553,27.506,453.561,27.773,453.822,27.919z"/>
	<path fill="#191919" d="M446.381,45.263c0.827,0.358,1.009,0.012,1.227-0.199c5.009-4.84,9.039-10.502,13.354-15.924
		c-0.12-0.129-0.239-0.257-0.358-0.385c-1.717,1.979-3.435,3.957-5.151,5.936c-0.018-0.848,0.235-1.518,0.704-2.096
		c-0.124-0.144-0.247-0.287-0.372-0.431C452.688,36.515,450.777,41.669,446.381,45.263z"/>
	<path fill="#191919" d="M454.304,42.396c3.535-2.871,6.891-5.944,10.232-9.034c0.037-0.035,0.164,0.026,0.285,0.05
		c-0.41,1.824-1.928,3.042-2.827,5.039c2.544-1.907,3.731-4.286,4.838-6.712c0.146-0.318,0.265-0.817-0.1-1.048
		c-0.357-0.227-0.733,0.094-0.998,0.34c-0.759,0.709-1.459,1.48-2.224,2.182c-3.227,2.962-6.468,5.906-9.704,8.858
		C453.896,42.298,454.079,42.378,454.304,42.396z"/>
	<path fill="#191919" d="M465.29,24.686c-0.22,3.906-3.271,6.355-4.267,9.704c1.718-1.678,2.883-3.704,3.912-5.815
		c0.555-1.136,1.173-2.267,1.112-3.589c-0.02-0.437,0.261-1.044-0.247-1.274c-0.523-0.237-0.979,0.229-1.356,0.557
		c-1.502,1.302-2.78,2.804-3.842,4.487c0.119,0.128,0.238,0.256,0.358,0.385C462.467,27.816,463.547,26.07,465.29,24.686z"/>
	<path fill="#191919" d="M433.026,54.197c1.069-1.26,2.078-2.568,3.118-3.854c1.302-1.607,2.69-3.153,3.524-5.085
		c-0.259-0.117-0.308-0.348-0.325-0.596c-2.512,3.732-5.433,7.152-8.469,10.781C432.112,55.519,432.541,54.768,433.026,54.197z"/>
	<path fill="#191919" d="M483.655,24.268c-2.263,1.98-4.525,3.959-6.789,5.938c0.242,0.017,0.453,0.084,0.559,0.331
		c2.284-1.787,4.424-3.74,6.539-5.721C483.728,24.709,483.664,24.504,483.655,24.268z"/>
	<path fill="#191919" d="M449.009,46.96c1.836-1.438,3.637-2.919,5.295-4.563c-0.225-0.019-0.408-0.099-0.497-0.325
		c-1.791,1.529-3.582,3.06-5.374,4.59C448.667,46.68,448.89,46.721,449.009,46.96z"/>
	<path fill="#191919" d="M459.793,24.801c-1.337,2.455-2.673,4.909-4.01,7.363c0.125,0.144,0.248,0.287,0.372,0.431
		c1.535-2.286,2.824-4.705,3.917-7.231C459.839,25.246,459.819,25.021,459.793,24.801z"/>
	<path fill="#191919" d="M458.521,66.259c0.603,0.436,1.271,0.247,1.908,0.324c2.047,0.248,4.146-0.068,6.159,0.556
		c0.114-0.113,0.229-0.226,0.342-0.338C464.183,65.583,461.323,66.47,458.521,66.259z"/>
	<path fill="#191919" d="M454.973,59.766c-1.812,0.134-3.675-0.064-5.376,0.82c2.01-0.104,4.025-0.071,6.009-0.423
		c0.039-0.007,0.078-0.015,0.117-0.022c0.16-0.029,0.321-0.056,0.481-0.091l0,0C455.807,59.898,455.317,60.146,454.973,59.766z"/>
	<path fill="#191919" d="M439.608,69.668c-0.999-0.895-1.887-1.959-3.274-2.276c0.704,1.103,1.584,1.982,2.705,2.6
		C439.149,69.744,439.368,69.686,439.608,69.668z"/>
	<path fill="#191919" d="M426.41,67.152c0.628,1.151,1.704,1.803,2.696,2.545c0.117-0.115,0.235-0.23,0.353-0.346
		C428.565,68.45,427.75,67.439,426.41,67.152z"/>
	<path fill="#191919" d="M453.503,27.258c-0.571,1.122-0.984,2.304-1.337,3.51c0.092,0.112,0.184,0.225,0.275,0.337
		c0.668-0.971,1.05-2.067,1.381-3.186C453.561,27.773,453.553,27.506,453.503,27.258z"/>
	<path fill="#191919" d="M454.948,54.821L454.948,54.821c-0.69,0.463-1.859,0.018-2.39,1.453c0.969-0.496,1.806-0.542,2.374-1.222
		C454.931,54.976,454.936,54.898,454.948,54.821L454.948,54.821z"/>
	<path fill="#191919" d="M456.116,54.382c-0.362,0.219-0.865,0.063-1.168,0.439l0,0c-0.013,0.077-0.018,0.154-0.016,0.231
		c0.664,0.163,1.213-0.153,1.771-0.424c-0.141-0.059-0.281-0.117-0.422-0.178C456.222,54.441,456.164,54.424,456.116,54.382z"/>
	<path fill="#191919" d="M446.109,116.819c0.614,0.348,1.265,0.274,1.968,0.03c-0.268-0.088-0.537-0.177-0.805-0.266
		C446.935,116.911,446.483,116.679,446.109,116.819z"/>
	<path fill="#191919" d="M456.116,54.382c0.056,0.023,0.111,0.047,0.166,0.069c0.141,0.061,0.281,0.119,0.422,0.178
		c0.319-0.011,0.65,0.022,0.885-0.267c-0.208-0.091-0.416-0.182-0.624-0.272C456.683,54.188,456.399,54.285,456.116,54.382z"/>
	<path fill="#191919" d="M451.88,31.909c0.39-0.151,0.543-0.426,0.562-0.805c-0.092-0.112-0.184-0.225-0.275-0.337
		C452.007,31.113,451.683,31.416,451.88,31.909z"/>
	<path fill="#191919" d="M405.858,47.009c-0.122-0.314-0.353-0.438-0.68-0.393c-0.06,0.009-0.121,0.022-0.188,0.042
		c-0.007,0.146-0.015,0.293-0.022,0.438c0.206,0.116,0.411,0.232,0.617,0.349c0.108-0.088,0.217-0.177,0.325-0.266
		C405.896,47.117,405.879,47.06,405.858,47.009z"/>
	<path fill="#191919" d="M405.273,42.924c0.495,0.023,1.001,0.119,1.436-0.231C406.214,42.668,405.701,42.529,405.273,42.924z"/>
	<path fill="#191919" d="M405.62,45.442c-0.027,0.554,0.392,0.838,0.894,0.914c0.428,0.064,0.535-0.292,0.624-0.638
		c-0.083-0.444-0.295-0.788-0.804-0.816C405.96,44.883,405.637,45.102,405.62,45.442z"/>
</g>
<g>
	<path fill="#191919" d="M0,100.895l0.85-0.971c0.729,0,1.82-0.162,3.276-0.486c1.457-0.322,2.932-0.707,4.43-1.152
		c1.496-0.443,3.377-0.99,5.644-1.639c0-0.97,0.04-2.588,0.121-4.854c0.08-2.264,0.222-4.833,0.425-7.706
		c0.201-2.87,0.485-5.844,0.85-8.919c0.364-3.074,0.85-5.886,1.456-8.435c0.606-2.548,1.354-4.651,2.245-6.311
		c0.89-1.657,1.941-2.488,3.155-2.488c1.051,0,1.981,0.668,2.791,2.003c0.808,1.335,1.518,3.055,2.124,5.158
		c0.606,2.104,1.092,4.429,1.456,6.978s0.668,4.996,0.91,7.342c0.243,2.348,0.425,4.472,0.547,6.371
		c0.121,1.901,0.182,3.258,0.182,4.066c1.214-0.486,2.446-0.99,3.701-1.518c1.253-0.525,2.567-0.789,3.944-0.789l0.728,0.85
		c-0.081,0.243-0.485,0.527-1.213,0.85c-0.729,0.324-1.538,0.648-2.428,0.971c-0.891,0.324-1.759,0.606-2.608,0.85
		s-1.438,0.405-1.76,0.485c0.161,1.619,0.443,4.065,0.85,7.342c0.403,3.277,0.91,6.675,1.517,10.194s1.293,6.796,2.062,9.829
		c0.769,3.035,1.597,5.117,2.488,6.251c0.404,0.564,1.011,1.031,1.82,1.395c0.808,0.365,1.293,0.869,1.456,1.518l-0.85,0.849
		c-1.213,0-2.326-0.769-3.337-2.305c-1.013-1.538-1.923-3.5-2.73-5.886c-0.81-2.386-1.517-5.036-2.124-7.949
		c-0.606-2.912-1.113-5.723-1.517-8.435c-0.406-2.709-0.729-5.176-0.971-7.402c-0.243-2.225-0.406-3.822-0.485-4.793
		c-2.185,0.891-4.369,1.801-6.554,2.73c-2.185,0.931-4.368,1.841-6.553,2.729v21.237c0,0.322-0.082,0.99-0.243,2.003
		c-0.163,1.011-0.485,1.517-0.971,1.517s-0.789-0.364-0.91-1.093c-0.121-0.728-0.182-1.334-0.182-1.819
		c0-3.478,0.079-6.978,0.242-10.497c0.161-3.52,0.242-7.019,0.242-10.498c-2.104,0.811-4.247,1.518-6.432,2.124
		s-4.41,1.032-6.674,1.274L0,100.895z M22.694,60.119c-0.892,0-1.681,0.769-2.367,2.306c-0.688,1.537-1.273,3.519-1.759,5.946
		c-0.485,2.427-0.892,5.077-1.214,7.949c-0.324,2.872-0.588,5.623-0.789,8.252c-0.203,2.63-0.345,4.996-0.425,7.099
		c-0.081,2.104-0.121,3.52-0.121,4.247c2.185-0.889,4.327-1.819,6.432-2.79c2.103-0.971,4.248-1.9,6.432-2.792
		c-0.081-0.728-0.182-1.96-0.303-3.701c-0.122-1.738-0.304-3.741-0.546-6.008c-0.243-2.263-0.527-4.59-0.85-6.977
		c-0.324-2.386-0.71-4.592-1.153-6.614c-0.445-2.021-0.952-3.681-1.517-4.977C23.947,60.767,23.341,60.119,22.694,60.119z"/>
	<path fill="#191919" d="M58.856,114.607c-0.648,0-1.134-0.971-1.456-2.912c-0.324-1.942-0.567-4.49-0.729-7.646
		c-0.163-3.155-0.345-6.735-0.546-10.741c-0.203-4.004-0.485-8.069-0.85-12.195c-0.363-4.126-0.891-8.109-1.577-11.954
		c-0.688-3.841-1.639-7.22-2.853-10.133l-0.121-0.485l0.85-0.971c0.646,0,1.153,0.485,1.518,1.456
		c0.363,0.971,0.625,1.699,0.788,2.184c1.051,3.805,1.86,7.768,2.428,11.894c0.564,4.126,0.989,8.312,1.274,12.561
		c0.282,4.247,0.504,8.476,0.667,12.682c0.161,4.208,0.404,8.294,0.729,12.257c0.242-1.05,0.546-2.588,0.91-4.611
		c0.363-2.021,0.808-4.267,1.335-6.735c0.524-2.467,1.11-4.976,1.759-7.524c0.646-2.549,1.375-4.873,2.185-6.978
		c0.808-2.104,1.699-3.823,2.67-5.157c0.971-1.336,2.063-2.003,3.277-2.003c1.535,0,2.81,0.628,3.822,1.881
		c1.011,1.256,1.8,2.731,2.366,4.43c0.565,1.699,0.95,3.439,1.153,5.218c0.2,1.781,0.303,3.237,0.303,4.369
		c0,1.377-0.224,3.44-0.667,6.189c-0.445,2.752-1.113,5.503-2.002,8.252c-0.892,2.752-1.983,5.158-3.277,7.222
		c-1.295,2.062-2.833,3.094-4.611,3.094c-0.729,0-1.274-0.2-1.639-0.606c-0.363-0.404-0.627-0.91-0.788-1.518
		c-0.163-0.606-0.264-1.253-0.304-1.941c-0.042-0.687-0.103-1.274-0.183-1.76l0.972-0.971l0.728,0.606l0.729,4.126l1.092,0.122
		c2.75-2.831,4.854-6.208,6.311-10.134c1.457-3.923,2.185-7.866,2.185-11.832c0-0.808-0.121-2.021-0.363-3.641
		c-0.243-1.617-0.628-3.255-1.153-4.915c-0.527-1.657-1.174-3.113-1.941-4.369c-0.771-1.253-1.681-1.88-2.73-1.88
		c-0.892,0-1.741,0.667-2.549,2.001c-0.81,1.336-1.559,3.056-2.245,5.158c-0.688,2.104-1.335,4.41-1.942,6.917
		c-0.606,2.509-1.134,4.937-1.577,7.282c-0.445,2.347-0.85,4.449-1.214,6.311c-0.363,1.861-0.627,3.154-0.789,3.883
		c-0.162,0.405-0.385,1.093-0.667,2.063C59.847,114.122,59.422,114.607,58.856,114.607z"/>
	<path fill="#191919" d="M97.205,114.607c-0.648,0-1.134-0.971-1.456-2.912c-0.324-1.942-0.567-4.49-0.729-7.646
		c-0.163-3.155-0.346-6.735-0.546-10.741c-0.203-4.004-0.485-8.069-0.85-12.195s-0.892-8.109-1.578-11.954
		c-0.688-3.841-1.638-7.22-2.852-10.133l-0.122-0.485l0.85-0.971c0.646,0,1.153,0.485,1.518,1.456s0.625,1.699,0.789,2.184
		c1.051,3.805,1.859,7.768,2.427,11.894c0.565,4.126,0.99,8.312,1.274,12.561c0.282,4.247,0.504,8.476,0.668,12.682
		c0.161,4.208,0.403,8.294,0.728,12.257c0.242-1.05,0.546-2.588,0.91-4.611c0.364-2.021,0.808-4.267,1.335-6.735
		c0.525-2.467,1.111-4.976,1.76-7.524c0.646-2.549,1.375-4.873,2.185-6.978c0.808-2.104,1.698-3.823,2.67-5.157
		c0.971-1.336,2.062-2.003,3.276-2.003c1.536,0,2.811,0.628,3.823,1.881c1.01,1.256,1.799,2.731,2.366,4.43
		c0.564,1.699,0.95,3.439,1.152,5.218c0.201,1.781,0.304,3.237,0.304,4.369c0,1.377-0.224,3.44-0.668,6.189
		c-0.445,2.752-1.112,5.503-2.002,8.252c-0.892,2.752-1.983,5.158-3.276,7.222c-1.295,2.062-2.833,3.094-4.611,3.094
		c-0.729,0-1.274-0.2-1.639-0.606c-0.364-0.404-0.628-0.91-0.789-1.518c-0.163-0.606-0.264-1.253-0.303-1.941
		c-0.042-0.687-0.103-1.274-0.183-1.76l0.971-0.971l0.729,0.606l0.728,4.126l1.093,0.122c2.749-2.831,4.854-6.208,6.311-10.134
		c1.456-3.923,2.185-7.866,2.185-11.832c0-0.808-0.122-2.021-0.364-3.641c-0.243-1.617-0.628-3.255-1.153-4.915
		c-0.527-1.657-1.174-3.113-1.941-4.369c-0.77-1.253-1.68-1.88-2.73-1.88c-0.892,0-1.741,0.667-2.549,2.001
		c-0.81,1.336-1.559,3.056-2.245,5.158c-0.688,2.104-1.335,4.41-1.941,6.917c-0.606,2.509-1.134,4.937-1.577,7.282
		c-0.446,2.347-0.85,4.449-1.214,6.311s-0.628,3.154-0.789,3.883c-0.163,0.405-0.385,1.093-0.668,2.063
		C98.194,114.122,97.771,114.607,97.205,114.607z"/>
	<path fill="#191919" d="M128.271,78.929l0.971,0.849c0,1.377-0.021,3.056-0.061,5.037c-0.041,1.984-0.061,4.147-0.061,6.493
		c0,2.184,0.02,4.45,0.061,6.796c0.04,2.347,0.161,4.593,0.364,6.735c0.201,2.144,0.465,4.106,0.789,5.886
		c0.322,1.78,0.768,3.196,1.335,4.247c0.485-0.08,1.11-1.011,1.881-2.791c0.768-1.778,1.577-3.964,2.427-6.554
		c0.85-2.588,1.719-5.439,2.609-8.556c0.89-3.113,1.718-6.086,2.488-8.919c0.768-2.832,1.456-5.359,2.062-7.585
		c0.606-2.225,1.071-3.781,1.396-4.673l0.729-0.364c0.485,0.082,0.929,0.811,1.335,2.185c0.403,1.377,0.729,3.197,0.971,5.461
		c0.242,2.267,0.443,4.814,0.606,7.646c0.161,2.833,0.262,5.704,0.304,8.616c0.04,2.913,0.08,5.765,0.121,8.556
		c0.04,2.792,0.061,5.239,0.061,7.342v-1.334c0.485,0.081,1.093,0.182,1.82,0.304c0.729,0.121,1.172,0.466,1.335,1.03l-1.092,0.85
		l-1.941-0.363c0,1.053,0,2.772,0,5.157c0,2.386-0.082,5.076-0.243,8.07c-0.163,2.992-0.406,6.087-0.729,9.283
		c-0.324,3.195-0.83,6.129-1.517,8.799c-0.688,2.67-1.577,4.854-2.67,6.554c-1.092,1.698-2.447,2.548-4.065,2.548
		c-1.619,0-2.894-0.506-3.823-1.517c-0.931-1.013-1.658-2.227-2.184-3.641c-0.527-1.416-0.87-2.912-1.031-4.49
		c-0.163-1.578-0.243-2.934-0.243-4.065c0-2.266,0.262-4.936,0.789-8.01c0.525-3.075,1.375-6.067,2.548-8.98
		c1.173-2.912,2.689-5.481,4.552-7.706c1.86-2.225,4.126-3.579,6.795-4.065v-10.072c0-4.126-0.102-8.252-0.303-12.378
		c-0.203-4.126-0.709-8.05-1.518-11.771c-0.405,0.891-0.891,2.427-1.456,4.61c-0.567,2.186-1.194,4.653-1.881,7.403
		c-0.688,2.751-1.438,5.624-2.245,8.616c-0.81,2.994-1.659,5.725-2.548,8.192c-0.892,2.468-1.781,4.489-2.671,6.067
		c-0.891,1.578-1.74,2.366-2.548,2.366c-0.81,0-1.478-0.788-2.003-2.366c-0.526-1.578-0.951-3.6-1.273-6.067
		c-0.324-2.468-0.567-5.158-0.729-8.071c-0.163-2.912-0.264-5.743-0.304-8.495c-0.041-2.749-0.061-5.218-0.061-7.402
		c0-2.184,0-3.72,0-4.612L128.271,78.929z M140.893,154.049c1.617-2.348,2.852-5.14,3.701-8.374
		c0.85-3.237,1.457-6.614,1.821-10.134c0.363-3.519,0.545-7.02,0.545-10.497c0-3.479,0-6.633,0-9.466
		c-1.295,0-2.528,0.527-3.701,1.577c-1.173,1.053-2.266,2.386-3.276,4.006c-1.013,1.616-1.902,3.438-2.67,5.461
		c-0.77,2.021-1.416,4.023-1.941,6.007c-0.527,1.981-0.931,3.842-1.214,5.582c-0.284,1.739-0.425,3.135-0.425,4.187
		c0,0.89,0.08,2.022,0.243,3.398c0.161,1.375,0.465,2.689,0.91,3.944c0.443,1.253,1.051,2.325,1.82,3.216
		c0.768,0.89,1.8,1.335,3.094,1.335C140.043,154.291,140.407,154.209,140.893,154.049z"/>
	<path fill="#191919" d="M186.034,65.095l0.85,0.849c0.162,6.231,0.344,12.421,0.547,18.568c0.201,6.149,0.504,12.338,0.91,18.567
		c0.079-0.972,0.322-2.731,0.729-5.279c0.403-2.549,0.91-5.44,1.517-8.678c0.606-3.234,1.273-6.593,2.002-10.072
		c0.729-3.478,1.496-6.675,2.306-9.587c0.808-2.912,1.639-5.298,2.488-7.16c0.85-1.859,1.678-2.791,2.487-2.791
		c0.485,0,0.89,0.628,1.214,1.881c0.322,1.255,0.546,2.751,0.668,4.49c0.121,1.74,0.2,3.5,0.242,5.279
		c0.04,1.78,0.061,3.155,0.061,4.126c0,0.242,0.02,1.092,0.061,2.549c0.04,1.456,0.122,3.216,0.243,5.278
		c0.121,2.063,0.243,4.29,0.364,6.676c0.121,2.387,0.282,4.692,0.485,6.916c0.2,2.227,0.443,4.188,0.728,5.886
		c0.283,1.699,0.586,2.873,0.91,3.52c0.809-1.293,1.618-3.295,2.428-6.007c0.808-2.71,1.597-5.704,2.366-8.98
		c0.768-3.276,1.577-6.653,2.427-10.133c0.85-3.478,1.699-6.634,2.549-9.467c0.85-2.83,1.76-5.157,2.73-6.978
		c0.971-1.819,1.981-2.73,3.034-2.73c0.565,0,1.071,0.749,1.517,2.245c0.443,1.498,0.85,3.479,1.213,5.946
		c0.365,2.47,0.708,5.239,1.032,8.313c0.322,3.075,0.626,6.21,0.91,9.404c0.283,3.198,0.546,6.292,0.789,9.284
		c0.242,2.994,0.485,5.582,0.728,7.767c0.162,1.862,0.465,3.805,0.91,5.825c0.444,2.023,0.668,3.926,0.668,5.704
		c0,0.163-0.061,0.385-0.182,0.667c-0.122,0.285-0.304,0.425-0.547,0.425c-0.485,0-0.91-0.667-1.274-2.003
		c-0.364-1.334-0.709-3.094-1.031-5.278c-0.324-2.185-0.627-4.651-0.91-7.403c-0.284-2.749-0.546-5.561-0.789-8.434
		c-0.242-2.871-0.484-5.643-0.728-8.312c-0.243-2.671-0.446-5.016-0.606-7.039c-0.243-2.507-0.467-4.994-0.668-7.464
		c-0.203-2.467-0.749-4.873-1.639-7.22c-0.891,1.213-1.74,3.114-2.548,5.703c-0.81,2.59-1.62,5.503-2.428,8.738
		c-0.81,3.236-1.638,6.573-2.487,10.012c-0.85,3.439-1.68,6.595-2.488,9.466c-0.81,2.873-1.638,5.219-2.487,7.038
		c-0.85,1.82-1.68,2.73-2.488,2.73c-0.728,0-1.376-1.192-1.941-3.58c-0.566-2.385-1.013-5.115-1.335-8.191
		c-0.324-3.073-0.567-6.047-0.728-8.919c-0.164-2.871-0.243-4.834-0.243-5.886V75.41c0-2.265-0.061-4.47-0.183-6.615
		c-0.121-2.143-0.466-4.266-1.031-6.37c-0.648,1.052-1.355,2.852-2.123,5.4c-0.771,2.548-1.538,5.521-2.306,8.919
		c-0.771,3.398-1.499,7.02-2.186,10.861c-0.688,3.844-1.315,7.524-1.88,11.044c-0.567,3.52-1.014,6.694-1.336,9.526
		c-0.324,2.833-0.484,4.936-0.484,6.31c0,0.083,0.019,0.164,0.061,0.243c0.039,0.082,0.061,0.163,0.061,0.243
		c0,0.081-0.082,0.121-0.243,0.121h-0.485h-0.121l-0.729-0.364c-0.163-0.322-0.324-1.617-0.485-3.883
		c-0.163-2.264-0.345-5.056-0.546-8.373c-0.203-3.317-0.385-6.918-0.547-10.802c-0.162-3.883-0.303-7.585-0.424-11.104
		c-0.122-3.52-0.224-6.614-0.304-9.284c-0.081-2.669-0.121-4.448-0.121-5.34L186.034,65.095z"/>
	<path fill="#191919" d="M237.976,100.895c0-1.536,0.182-3.721,0.546-6.554c0.364-2.831,0.99-5.602,1.881-8.312
		c0.89-2.71,2.042-5.076,3.459-7.1c1.414-2.021,3.216-3.034,5.4-3.034c1.374,0,2.567,0.446,3.579,1.335
		c1.011,0.892,1.882,1.82,2.609,2.791c0-0.403,0.061-0.768,0.183-1.092c0.121-0.322,0.383-0.564,0.788-0.729l0.85,0.85
		c0,0.728,0,2.145,0,4.247c0,2.105,0.04,4.532,0.121,7.282c0.08,2.752,0.223,5.643,0.425,8.677c0.201,3.034,0.526,5.807,0.971,8.313
		c0.444,2.509,1.032,4.593,1.76,6.249c0.729,1.659,1.658,2.488,2.792,2.488l2.184-0.972l0.729,0.972
		c-0.163,0.485-0.588,0.952-1.274,1.396c-0.688,0.445-1.274,0.668-1.759,0.668c-1.457,0-2.631-0.93-3.52-2.792
		c-0.892-1.859-1.599-4.004-2.124-6.432c-0.527-2.427-0.91-4.833-1.153-7.221c-0.242-2.385-0.405-4.145-0.484-5.279
		c-0.243,1.377-0.71,3.197-1.396,5.461c-0.688,2.267-1.559,4.532-2.609,6.796c-1.052,2.267-2.286,4.208-3.701,5.825
		c-1.416,1.62-3.015,2.427-4.793,2.427c-1.214,0-2.185-0.707-2.913-2.123c-0.728-1.414-1.274-3.034-1.638-4.854
		c-0.364-1.819-0.607-3.641-0.729-5.461S237.976,101.623,237.976,100.895z M243.922,114.851c1.132,0,2.203-0.565,3.216-1.699
		c1.011-1.132,1.96-2.589,2.852-4.369c0.89-1.778,1.657-3.762,2.306-5.946c0.647-2.185,1.214-4.309,1.699-6.371
		c0.485-2.063,0.85-3.944,1.093-5.644c0.242-1.699,0.363-2.992,0.363-3.883v-4.976c-0.485,0-0.91-0.223-1.273-0.667
		c-0.364-0.444-0.75-0.93-1.153-1.457c-0.406-0.525-0.87-1.011-1.396-1.456c-0.527-0.444-1.194-0.668-2.003-0.668
		c-1.941,0-3.54,0.972-4.793,2.912c-1.256,1.942-2.245,4.209-2.974,6.797c-0.729,2.59-1.255,5.179-1.577,7.767
		c-0.325,2.591-0.485,4.571-0.485,5.946c0,0.648,0.019,1.72,0.061,3.216c0.039,1.498,0.182,3.034,0.425,4.612
		c0.242,1.577,0.646,2.954,1.213,4.126C242.06,114.265,242.869,114.851,243.922,114.851z"/>
	<path fill="#191919" d="M276.99,69.099c-0.042,3.398-0.061,6.796-0.061,10.194c0,6.553,0.101,13.026,0.304,19.417
		c0.2,6.393,0.707,12.823,1.517,19.295l-0.85,0.729c-0.485,0-0.87-0.667-1.153-2.002c-0.284-1.336-0.527-3.053-0.728-5.157
		c-0.203-2.104-0.346-4.491-0.425-7.161c-0.082-2.669-0.143-5.379-0.183-8.13c-0.042-2.75-0.081-5.42-0.121-8.011
		c-0.042-2.587-0.061-4.894-0.061-6.916l-0.121-11.165c0,0.163,0-0.344,0-1.517s0.019-2.508,0.061-4.006
		c0.04-1.496,0.121-2.912,0.242-4.247c0.122-1.335,0.344-2.123,0.668-2.366l0.728,0.243l0.243,0.606
		C277.051,62.303,277.03,65.701,276.99,69.099z"/>
	<path fill="#191919" d="M289.307,100.895c0-1.536,0.182-3.721,0.546-6.554c0.364-2.831,0.99-5.602,1.881-8.312
		c0.889-2.71,2.042-5.076,3.459-7.1c1.414-2.021,3.216-3.034,5.399-3.034c1.376,0,2.568,0.446,3.581,1.335
		c1.011,0.892,1.881,1.82,2.608,2.791c0-0.403,0.062-0.768,0.183-1.092c0.121-0.322,0.383-0.564,0.788-0.729l0.85,0.85
		c0,0.728,0,2.145,0,4.247c0,2.105,0.04,4.532,0.122,7.282c0.079,2.752,0.222,5.643,0.424,8.677
		c0.201,3.034,0.525,5.807,0.972,8.313c0.443,2.509,1.031,4.593,1.759,6.249c0.729,1.659,1.658,2.488,2.792,2.488l2.185-0.972
		l0.728,0.972c-0.163,0.485-0.587,0.952-1.274,1.396c-0.688,0.445-1.274,0.668-1.759,0.668c-1.456,0-2.631-0.93-3.52-2.792
		c-0.892-1.859-1.599-4.004-2.124-6.432c-0.527-2.427-0.91-4.833-1.153-7.221c-0.242-2.385-0.405-4.145-0.485-5.279
		c-0.242,1.377-0.709,3.197-1.396,5.461c-0.688,2.267-1.558,4.532-2.609,6.796c-1.052,2.267-2.286,4.208-3.7,5.825
		c-1.417,1.62-3.016,2.427-4.794,2.427c-1.214,0-2.185-0.707-2.913-2.123c-0.729-1.414-1.274-3.034-1.638-4.854
		c-0.364-1.819-0.607-3.641-0.729-5.461S289.307,101.623,289.307,100.895z M295.253,114.851c1.132,0,2.203-0.565,3.216-1.699
		c1.011-1.132,1.961-2.589,2.853-4.369c0.889-1.778,1.656-3.762,2.305-5.946c0.647-2.185,1.214-4.309,1.699-6.371
		c0.485-2.063,0.85-3.944,1.092-5.644c0.243-1.699,0.364-2.992,0.364-3.883v-4.976c-0.485,0-0.91-0.223-1.274-0.667
		c-0.363-0.444-0.749-0.93-1.152-1.457c-0.406-0.525-0.87-1.011-1.396-1.456c-0.527-0.444-1.194-0.668-2.003-0.668
		c-1.941,0-3.54,0.972-4.793,2.912c-1.255,1.942-2.245,4.209-2.974,6.797c-0.728,2.59-1.255,5.179-1.577,7.767
		c-0.324,2.591-0.486,4.571-0.486,5.946c0,0.648,0.02,1.72,0.061,3.216c0.04,1.498,0.183,3.034,0.426,4.612
		c0.242,1.577,0.646,2.954,1.213,4.126C293.391,114.265,294.2,114.851,295.253,114.851z"/>
	<path fill="#191919" d="M326.318,82.69l0.85,0.85c0.729,4.612,1.192,9.224,1.396,13.835c0.201,4.611,0.95,9.184,2.245,13.713
		c0.323-0.889,0.626-2.366,0.911-4.429c0.282-2.063,0.564-4.369,0.849-6.918c0.283-2.548,0.586-5.177,0.911-7.888
		c0.321-2.71,0.746-5.177,1.273-7.403c0.525-2.224,1.172-4.064,1.941-5.521c0.769-1.456,1.719-2.185,2.852-2.185
		s2.003,0.83,2.609,2.488c0.607,1.658,1.093,3.783,1.457,6.371c0.363,2.59,0.646,5.461,0.85,8.616
		c0.201,3.155,0.464,6.23,0.789,9.223c0.322,2.994,0.746,5.685,1.273,8.07c0.525,2.388,1.314,4.146,2.367,5.279
		c0.728,0.81,1.456,1.578,2.184,2.306c0.729,0.729,1.496,1.415,2.306,2.063l-0.728,0.849c-2.428-0.729-4.289-2.226-5.582-4.489
		c-1.296-2.265-2.267-4.915-2.913-7.949c-0.648-3.034-1.073-6.25-1.274-9.647c-0.203-3.398-0.385-6.572-0.546-9.526
		c-0.163-2.952-0.446-5.501-0.85-7.646c-0.406-2.144-1.134-3.499-2.185-4.065c-0.81,0-1.478,0.688-2.002,2.062
		c-0.527,1.377-0.972,3.137-1.335,5.279c-0.364,2.145-0.688,4.551-0.971,7.221c-0.284,2.669-0.588,5.321-0.91,7.948
		c-0.324,2.63-0.668,5.118-1.032,7.464c-0.363,2.348-0.788,4.247-1.273,5.704l-0.364,0.12c-0.729,0-1.356-0.667-1.882-2.001
		c-0.527-1.336-0.991-3.014-1.395-5.037c-0.406-2.021-0.749-4.267-1.032-6.734c-0.284-2.468-0.527-4.855-0.728-7.161
		c-0.203-2.306-0.386-4.369-0.546-6.188c-0.163-1.82-0.285-3.095-0.364-3.823L326.318,82.69z"/>
</g>
<path d="M163.432,142.561h0.983l2.12,5.944l0.799,2.244h0.061l0.784-2.244l2.104-5.944h0.999v10.123h-0.691v-6.652
	c0-0.829,0.046-1.889,0.092-2.734h-0.061l-0.784,2.229l-2.181,6.053h-0.615l-2.181-6.053l-0.799-2.229H164
	c0.031,0.846,0.077,1.905,0.077,2.734v6.652h-0.645V142.561z"/>
<path d="M174.175,142.561h2.734c2.028,0,3.333,0.768,3.333,2.458c0,1.06-0.599,1.905-1.797,2.211v0.062
	c1.491,0.215,2.427,1.045,2.427,2.443c0,1.951-1.475,2.949-3.764,2.949h-2.934V142.561z M176.618,147.015
	c2.09,0,2.919-0.676,2.919-2.013c0-1.306-0.967-1.858-2.826-1.858h-1.828v3.871H176.618z M176.925,152.1
	c2.012,0,3.241-0.737,3.241-2.365c0-1.443-1.183-2.15-3.241-2.15h-2.043v4.516H176.925z"/>
<path d="M187.484,149.211h-4.009l-1.183,3.473h-0.722l3.579-10.123h0.707l3.564,10.123h-0.753L187.484,149.211z M187.284,148.612
	l-0.645-1.889c-0.4-1.198-0.768-2.258-1.122-3.503h-0.061c-0.354,1.245-0.707,2.305-1.122,3.503l-0.645,1.889H187.284z"/>
<path d="M205.988,142.561h2.735c2.027,0,3.333,0.768,3.333,2.458c0,1.06-0.599,1.905-1.798,2.211v0.062
	c1.491,0.215,2.427,1.045,2.427,2.443c0,1.951-1.475,2.949-3.764,2.949h-2.934V142.561z M208.43,147.015
	c2.09,0,2.919-0.676,2.919-2.013c0-1.306-0.967-1.858-2.826-1.858h-1.828v3.871H208.43z M208.738,152.1
	c2.012,0,3.241-0.737,3.241-2.365c0-1.443-1.183-2.15-3.241-2.15h-2.043v4.516H208.738z"/>
<path d="M214.258,150.856c0.737,0.829,1.797,1.367,2.98,1.367c1.536,0,2.52-0.831,2.52-2.029c0-1.26-0.83-1.674-1.828-2.119
	l-1.536-0.691c-0.876-0.384-2.043-1.015-2.043-2.52c0-1.46,1.26-2.489,2.934-2.489c1.229,0,2.212,0.553,2.827,1.214l-0.415,0.477
	c-0.584-0.63-1.398-1.045-2.412-1.045c-1.337,0-2.228,0.707-2.228,1.812c0,1.169,1.014,1.614,1.751,1.951l1.536,0.676
	c1.121,0.508,2.12,1.137,2.12,2.689c0,1.551-1.275,2.718-3.242,2.718c-1.475,0-2.612-0.629-3.411-1.52L214.258,150.856z"/>
<path d="M225.215,145.126c1.014,0,1.675,0.445,2.167,0.905l-0.4,0.477c-0.476-0.445-1.029-0.783-1.751-0.783
	c-1.505,0-2.673,1.336-2.673,3.288c0,1.935,1.06,3.256,2.673,3.256c0.784,0,1.459-0.384,1.966-0.845l0.354,0.461
	c-0.63,0.568-1.414,0.982-2.351,0.982c-1.905,0-3.349-1.413-3.349-3.854C221.851,146.538,223.418,145.126,225.215,145.126z"/>
<path d="M232.363,148.413c0-2.704,0.769-4.916,2.028-6.96l0.415,0.247c-1.213,1.935-1.844,4.285-1.844,6.713
	c0,2.427,0.63,4.777,1.844,6.714l-0.415,0.245C233.132,153.329,232.363,151.116,232.363,148.413z"/>
<path d="M236.083,147.584c0-3.196,1.735-5.209,4.178-5.209c2.428,0,4.163,2.013,4.163,5.209c0,3.21-1.735,5.283-4.163,5.283
	C237.819,152.867,236.083,150.794,236.083,147.584z M243.688,147.584c0-2.797-1.382-4.563-3.426-4.563
	c-2.059,0-3.441,1.767-3.441,4.563c0,2.811,1.382,4.64,3.441,4.64C242.305,152.224,243.688,150.395,243.688,147.584z"/>
<path d="M249.376,145.126c1.015,0,1.675,0.445,2.167,0.905l-0.4,0.477c-0.476-0.445-1.029-0.783-1.751-0.783
	c-1.505,0-2.673,1.336-2.673,3.288c0,1.935,1.061,3.256,2.673,3.256c0.784,0,1.459-0.384,1.966-0.845l0.354,0.461
	c-0.63,0.568-1.414,0.982-2.351,0.982c-1.905,0-3.349-1.413-3.349-3.854C246.012,146.538,247.58,145.126,249.376,145.126z"/>
<path d="M256.016,145.126c1.014,0,1.675,0.445,2.167,0.905l-0.4,0.477c-0.476-0.445-1.029-0.783-1.751-0.783
	c-1.505,0-2.673,1.336-2.673,3.288c0,1.935,1.061,3.256,2.673,3.256c0.784,0,1.459-0.384,1.966-0.845l0.354,0.461
	c-0.63,0.568-1.414,0.982-2.351,0.982c-1.905,0-3.349-1.413-3.349-3.854C252.652,146.538,254.219,145.126,256.016,145.126z"/>
<path d="M260.06,145.31h0.676v4.64c0,1.567,0.492,2.304,1.674,2.304c0.875,0,1.521-0.46,2.381-1.504v-5.439h0.676v7.374h-0.569
	l-0.077-1.229h-0.031c-0.722,0.846-1.49,1.413-2.504,1.413c-1.52,0-2.227-0.92-2.227-2.825V145.31z"/>
<path d="M268.975,153.329v2.688h-0.676V145.31h0.584l0.061,0.922h0.046c0.722-0.569,1.598-1.105,2.504-1.105
	c1.967,0,2.95,1.475,2.95,3.764c0,2.503-1.521,3.978-3.257,3.978c-0.691,0-1.443-0.337-2.211-0.905V153.329z M271.156,152.269
	c1.49,0,2.565-1.383,2.565-3.379c0-1.813-0.645-3.165-2.335-3.165c-0.737,0-1.521,0.43-2.412,1.214v4.378
	C269.819,152.008,270.588,152.269,271.156,152.269z"/>
<path d="M280.778,148.06c0.031-1.121-0.292-2.335-1.736-2.335c-0.998,0-1.859,0.492-2.351,0.859l-0.307-0.506
	c0.522-0.369,1.536-0.952,2.734-0.952c1.751,0,2.335,1.26,2.335,2.842v4.716h-0.568l-0.077-0.952h-0.031
	c-0.753,0.6-1.644,1.136-2.612,1.136c-1.167,0-2.15-0.629-2.15-2.027C276.016,149.211,277.505,148.428,280.778,148.06z
	 M278.273,152.285c0.845,0,1.598-0.416,2.504-1.199v-2.504c-3.026,0.353-4.056,1.06-4.056,2.228
	C276.722,151.869,277.429,152.285,278.273,152.285z"/>
<path d="M284.269,145.894h-1.152v-0.522l1.168-0.062l0.092-2.135h0.583v2.135h2.135v0.584h-2.135v4.809
	c0,0.938,0.231,1.566,1.245,1.566c0.276,0,0.661-0.107,0.922-0.23l0.184,0.553c-0.43,0.154-0.891,0.276-1.198,0.276
	c-1.429,0-1.843-0.905-1.843-2.227V145.894z"/>
<path d="M288.634,142.928c0-0.384,0.277-0.614,0.615-0.614c0.337,0,0.614,0.23,0.614,0.614c0,0.354-0.276,0.6-0.614,0.6
	C288.911,143.527,288.634,143.282,288.634,142.928z M288.896,145.31h0.676v7.374h-0.676V145.31z"/>
<path d="M295.104,145.126c1.782,0,3.318,1.412,3.318,3.887c0,2.441-1.537,3.854-3.318,3.854c-1.767,0-3.303-1.413-3.303-3.854
	C291.801,146.538,293.337,145.126,295.104,145.126z M295.104,152.269c1.49,0,2.612-1.321,2.612-3.256
	c0-1.952-1.122-3.288-2.612-3.288c-1.49,0-2.596,1.336-2.596,3.288C292.508,150.947,293.614,152.269,295.104,152.269z"/>
<path d="M300.639,145.31h0.583l0.062,1.138h0.046c0.753-0.754,1.521-1.321,2.535-1.321c1.521,0,2.227,0.922,2.227,2.825v4.732
	h-0.675v-4.64c0-1.567-0.492-2.304-1.69-2.304c-0.876,0-1.505,0.46-2.412,1.382v5.562h-0.676V145.31z"/>
<path d="M313.164,148.06c0.031-1.121-0.292-2.335-1.736-2.335c-0.998,0-1.859,0.492-2.35,0.859l-0.307-0.506
	c0.522-0.369,1.536-0.952,2.734-0.952c1.751,0,2.335,1.26,2.335,2.842v4.716h-0.569l-0.077-0.952h-0.031
	c-0.753,0.6-1.644,1.136-2.612,1.136c-1.167,0-2.15-0.629-2.15-2.027C308.401,149.211,309.891,148.428,313.164,148.06z
	 M310.659,152.285c0.845,0,1.598-0.416,2.504-1.199v-2.504c-3.026,0.353-4.056,1.06-4.056,2.228
	C309.107,151.869,309.814,152.285,310.659,152.285z"/>
<path d="M316.486,141.639h0.675v10.154c0,0.323,0.139,0.476,0.323,0.476c0.062,0,0.124,0,0.276-0.03l0.124,0.553
	c-0.138,0.047-0.276,0.076-0.492,0.076c-0.599,0-0.906-0.367-0.906-1.167V141.639z"/>
<path d="M323.356,145.894h-1.152v-0.522l1.168-0.062l0.092-2.135h0.583v2.135h2.135v0.584h-2.135v4.809
	c0,0.938,0.231,1.566,1.245,1.566c0.276,0,0.661-0.107,0.922-0.23l0.184,0.553c-0.43,0.154-0.891,0.276-1.199,0.276
	c-1.428,0-1.843-0.905-1.843-2.227V145.894z"/>
<path d="M327.983,141.639h0.676v3.194v1.629c0.768-0.769,1.536-1.336,2.55-1.336c1.521,0,2.228,0.922,2.228,2.825v4.732h-0.676
	v-4.64c0-1.567-0.491-2.304-1.69-2.304c-0.875,0-1.505,0.46-2.412,1.382v5.562h-0.676V141.639z"/>
<path d="M338.695,145.126c1.751,0,2.826,1.243,2.826,3.41c0,0.184,0,0.369-0.031,0.553h-5.315c0.031,1.858,1.122,3.196,2.78,3.196
	c0.799,0,1.429-0.262,1.982-0.661l0.276,0.521c-0.583,0.354-1.245,0.722-2.32,0.722c-1.889,0-3.411-1.443-3.411-3.854
	C335.484,146.601,337.051,145.126,338.695,145.126z M340.876,148.567c0-1.891-0.845-2.858-2.167-2.858
	c-1.259,0-2.381,1.091-2.534,2.858H340.876z"/>
<path d="M343.523,145.31h0.583l0.061,1.367h0.046c0.492-0.906,1.213-1.551,2.09-1.551c0.276,0,0.491,0.03,0.737,0.152l-0.154,0.615
	c-0.246-0.092-0.384-0.123-0.676-0.123c-0.661,0-1.444,0.508-2.012,1.89v5.023h-0.676V145.31z"/>
<path d="M352.389,148.06c0.031-1.121-0.292-2.335-1.736-2.335c-0.998,0-1.859,0.492-2.351,0.859l-0.307-0.506
	c0.522-0.369,1.536-0.952,2.734-0.952c1.751,0,2.335,1.26,2.335,2.842v4.716h-0.568l-0.077-0.952h-0.031
	c-0.753,0.6-1.644,1.136-2.612,1.136c-1.167,0-2.15-0.629-2.15-2.027C347.627,149.211,349.117,148.428,352.389,148.06z
	 M349.885,152.285c0.845,0,1.598-0.416,2.504-1.199v-2.504c-3.027,0.353-4.056,1.06-4.056,2.228
	C348.333,151.869,349.04,152.285,349.885,152.285z"/>
<path d="M356.388,153.329v2.688h-0.676V145.31h0.583l0.061,0.922h0.046c0.722-0.569,1.598-1.105,2.504-1.105
	c1.966,0,2.95,1.475,2.95,3.764c0,2.503-1.521,3.978-3.257,3.978c-0.691,0-1.444-0.337-2.211-0.905V153.329z M358.568,152.269
	c1.49,0,2.565-1.383,2.565-3.379c0-1.813-0.645-3.165-2.334-3.165c-0.738,0-1.521,0.43-2.412,1.214v4.378
	C357.232,152.008,358,152.269,358.568,152.269z"/>
<path d="M363.781,155.418c0.906,0,1.521-0.829,1.889-1.951l0.2-0.645l-3.026-7.513h0.737l1.782,4.64
	c0.23,0.614,0.522,1.413,0.798,2.059h0.062c0.231-0.646,0.477-1.444,0.676-2.059l1.582-4.64h0.691l-2.918,8.296
	c-0.416,1.229-1.153,2.443-2.474,2.443c-0.276,0-0.553-0.062-0.752-0.154l0.153-0.599
	C363.335,155.356,363.565,155.418,363.781,155.418z"/>
<path d="M371.696,148.413c0-2.428-0.63-4.778-1.843-6.713l0.415-0.247c1.26,2.044,2.028,4.256,2.028,6.96
	c0,2.703-0.768,4.916-2.028,6.959l-0.415-0.245C371.066,153.19,371.696,150.84,371.696,148.413z"/>
<path d="M388.152,142.561h2.734c2.028,0,3.334,0.768,3.334,2.458c0,1.06-0.599,1.905-1.798,2.211v0.062
	c1.491,0.215,2.427,1.045,2.427,2.443c0,1.951-1.475,2.949-3.764,2.949h-2.934V142.561z M390.594,147.015
	c2.09,0,2.919-0.676,2.919-2.013c0-1.306-0.967-1.858-2.826-1.858h-1.828v3.871H390.594z M390.902,152.1
	c2.012,0,3.241-0.737,3.241-2.365c0-1.443-1.183-2.15-3.241-2.15h-2.043v4.516H390.902z"/>
<path d="M396.422,150.856c0.737,0.829,1.797,1.367,2.98,1.367c1.536,0,2.52-0.831,2.52-2.029c0-1.26-0.83-1.674-1.828-2.119
	l-1.536-0.691c-0.876-0.384-2.043-1.015-2.043-2.52c0-1.46,1.26-2.489,2.934-2.489c1.229,0,2.212,0.553,2.827,1.214l-0.415,0.477
	c-0.584-0.63-1.398-1.045-2.412-1.045c-1.337,0-2.228,0.707-2.228,1.812c0,1.169,1.014,1.614,1.751,1.951l1.536,0.676
	c1.121,0.508,2.12,1.137,2.12,2.689c0,1.551-1.275,2.718-3.242,2.718c-1.475,0-2.612-0.629-3.411-1.52L396.422,150.856z"/>
<path d="M407.379,145.126c1.014,0,1.675,0.445,2.167,0.905l-0.4,0.477c-0.476-0.445-1.029-0.783-1.751-0.783
	c-1.505,0-2.673,1.336-2.673,3.288c0,1.935,1.06,3.256,2.673,3.256c0.784,0,1.459-0.384,1.966-0.845l0.354,0.461
	c-0.63,0.568-1.414,0.982-2.351,0.982c-1.905,0-3.349-1.413-3.349-3.854C404.015,146.538,405.583,145.126,407.379,145.126z"/>
<path d="M414.527,148.413c0-2.704,0.769-4.916,2.028-6.96l0.415,0.247c-1.213,1.935-1.844,4.285-1.844,6.713
	c0,2.427,0.63,4.777,1.844,6.714l-0.415,0.245C415.296,153.329,414.527,151.116,414.527,148.413z"/>
<path d="M418.909,142.561h2.765c2.259,0,3.595,0.736,3.595,2.825c0,1.983-1.352,2.95-3.595,2.95h-2.058v4.348h-0.707V142.561z
	 M421.489,147.736c2.074,0,3.057-0.69,3.057-2.351c0-1.704-0.999-2.227-3.057-2.227h-1.874v4.577H421.489z"/>
<path d="M426.671,151.348c0.63,0.521,1.29,0.938,2.35,0.938c1.152,0,1.751-0.677,1.751-1.46c0-0.922-0.953-1.321-1.797-1.629
	c-1.122-0.399-2.351-0.845-2.351-2.104c0-1.075,0.845-1.966,2.381-1.966c0.784,0,1.567,0.322,2.105,0.768l-0.369,0.476
	c-0.492-0.367-1.014-0.66-1.767-0.66c-1.137,0-1.66,0.66-1.66,1.337c0,0.814,0.861,1.167,1.736,1.49
	c1.152,0.43,2.412,0.814,2.412,2.258c0,1.106-0.891,2.073-2.488,2.073c-1.091,0-2.043-0.46-2.704-1.013L426.671,151.348z"/>
<path d="M433.126,155.418c0.906,0,1.521-0.829,1.89-1.951l0.2-0.645l-3.026-7.513h0.737l1.782,4.64
	c0.23,0.614,0.522,1.413,0.798,2.059h0.062c0.23-0.646,0.477-1.444,0.676-2.059l1.583-4.64h0.691l-2.918,8.296
	c-0.416,1.229-1.153,2.443-2.474,2.443c-0.276,0-0.553-0.062-0.752-0.154l0.153-0.599
	C432.681,155.356,432.911,155.418,433.126,155.418z"/>
<path d="M442.869,145.126c1.014,0,1.675,0.445,2.167,0.905l-0.4,0.477c-0.476-0.445-1.029-0.783-1.751-0.783
	c-1.505,0-2.673,1.336-2.673,3.288c0,1.935,1.06,3.256,2.673,3.256c0.784,0,1.459-0.384,1.966-0.845l0.354,0.461
	c-0.63,0.568-1.414,0.982-2.351,0.982c-1.905,0-3.349-1.413-3.349-3.854C439.505,146.538,441.072,145.126,442.869,145.126z"/>
<path d="M447.021,141.639h0.676v3.194v1.629c0.768-0.769,1.536-1.336,2.55-1.336c1.521,0,2.227,0.922,2.227,2.825v4.732h-0.675
	v-4.64c0-1.567-0.492-2.304-1.69-2.304c-0.875,0-1.505,0.46-2.412,1.382v5.562h-0.676V141.639z"/>
<path d="M457.824,145.126c1.782,0,3.318,1.412,3.318,3.887c0,2.441-1.536,3.854-3.318,3.854c-1.767,0-3.303-1.413-3.303-3.854
	C454.521,146.538,456.058,145.126,457.824,145.126z M457.824,152.269c1.491,0,2.611-1.321,2.611-3.256
	c0-1.952-1.121-3.288-2.611-3.288c-1.49,0-2.596,1.336-2.596,3.288C455.229,150.947,456.334,152.269,457.824,152.269z"/>
<path d="M463.36,141.639h0.675v10.154c0,0.323,0.139,0.476,0.323,0.476c0.062,0,0.123,0,0.276-0.03l0.123,0.553
	c-0.138,0.047-0.276,0.076-0.492,0.076c-0.598,0-0.905-0.367-0.905-1.167V141.639z"/>
<path d="M469.691,145.126c1.783,0,3.318,1.412,3.318,3.887c0,2.441-1.536,3.854-3.318,3.854c-1.766,0-3.302-1.413-3.302-3.854
	C466.389,146.538,467.925,145.126,469.691,145.126z M469.691,152.269c1.49,0,2.612-1.321,2.612-3.256
	c0-1.952-1.122-3.288-2.612-3.288s-2.596,1.336-2.596,3.288C467.095,150.947,468.201,152.269,469.691,152.269z"/>
<path d="M475.703,152.407v-0.062c-0.369-0.215-0.646-0.614-0.646-1.183c0-0.661,0.477-1.121,0.798-1.353v-0.062
	c-0.46-0.398-0.92-1.137-0.92-2.027c0-1.521,1.152-2.596,2.596-2.596c0.399,0,0.738,0.091,0.968,0.184h2.504v0.568h-1.721
	c0.477,0.415,0.814,1.075,0.814,1.858c0,1.506-1.122,2.597-2.565,2.597c-0.416,0-0.891-0.107-1.229-0.308
	c-0.323,0.262-0.599,0.569-0.599,1.061c0,0.538,0.306,0.968,1.412,0.968h1.583c1.66,0,2.428,0.522,2.428,1.689
	c0,1.276-1.367,2.489-3.487,2.489c-1.859,0-3.026-0.799-3.026-2.043C474.612,153.544,475.026,152.898,475.703,152.407z
	 M477.714,155.68c1.66,0,2.72-0.938,2.72-1.859c0-0.813-0.6-1.122-1.705-1.122h-1.583c-0.154,0-0.538-0.029-0.922-0.122
	c-0.675,0.46-0.968,1.029-0.968,1.551C475.256,155.049,476.148,155.68,477.714,155.68z M479.435,147.722
	c0-1.245-0.86-2.043-1.905-2.043c-1.045,0-1.92,0.783-1.92,2.043c0,1.244,0.891,2.074,1.92,2.074
	C478.544,149.796,479.435,148.966,479.435,147.722z"/>
<path d="M482.42,155.418c0.905,0,1.52-0.829,1.889-1.951l0.2-0.645l-3.027-7.513h0.738l1.782,4.64
	c0.23,0.614,0.522,1.413,0.798,2.059h0.061c0.23-0.646,0.477-1.444,0.677-2.059l1.583-4.64h0.69l-2.918,8.296
	c-0.415,1.229-1.152,2.443-2.473,2.443c-0.278,0-0.554-0.062-0.753-0.154l0.154-0.599
	C481.973,155.356,482.205,155.418,482.42,155.418z"/>
<path d="M490.335,148.413c0-2.428-0.63-4.778-1.844-6.713l0.415-0.247c1.26,2.044,2.028,4.256,2.028,6.96
	c0,2.703-0.768,4.916-2.028,6.959l-0.415-0.245C489.705,153.19,490.335,150.84,490.335,148.413z"/>
</svg>
