<svg version="1.1" id="Layer_1" xmlns="http://www.w3.org/2000/svg" x="0" y="0" width="514.896" height="149.146" viewBox="183.533 6.47 514.896 149.146" xml:space="preserve"><path opacity=".6" fill="#8F98A1" d="M614.121 155.617c-6.75-.097-14.278-1.015-21.534-3.625-1.836-.658-3.545-1.587-5.308-2.396-.362-.166-.926-.424-.731-.873.256-.617.817-.236 1.209-.037 9.821 5.066 20.358 6.438 31.211 5.779 8.467-.517 16.557-2.66 24.19-6.445 8.273-4.102 13.646-10.734 16.601-19.322 3.854-11.207 4.119-22.342-1.447-33.172-.623-1.207-1.396-2.344-2.137-3.49-.31-.479-.689-.938-1.322-1.041-.502-.08-1.125-.418-1.469.012-.252.312.315.701.51 1.062.772 1.447.381 2.322-1.33 2.746-2.582.644-5.111.24-7.607-.506-3.403-1.029-6.432-2.82-9.422-4.687-.645-.401-1.285-1.164-1.938.135-.33.64-1.218.525-1.898.468-2.529-.209-4.756-1.234-6.824-2.634-3.344-2.268-5.545-5.555-7.832-8.76-.168-.242-.594-.645-.09-.923.506-.278.728.23.967.558 1.861 2.488 3.894 4.826 6.312 6.8 2.1 1.709 4.373 3.104 7.096 3.569.58.103 1.424.406 1.717-.229.275-.584-.549-.912-.957-1.267-1.86-1.625-3.502-3.483-5.506-4.948-.424-.312-1.272-.746-.875-1.232.445-.553 1.008.21 1.396.572 5.293 4.892 11.51 8.226 18.176 10.799 1.719.666 3.465 1.281 5.338 1.229.955-.027 2.369.092 2.451-1.084.074-1.101-.816-2.23-2.107-2.428-5.485-.843-9.467-4.302-13.512-7.662-.354-.295-1.109-.703-.732-1.164.38-.455.953.139 1.312.467 3.328 3.062 7.039 5.457 11.395 6.814 5.248 1.635 10.496 2.059 15.779.235a16.047 16.047 0 0 0 1.879-.806c.604-.295.605-.69.041-1.034-1.885-1.146-3.713-2.031-6.139-1.951-6.783.228-13.381-.929-19.637-3.688-.318-.141-.832-.252-.648-.715.207-.541.713-.268 1.098-.16 3.384.955 6.707 2.119 10.173 2.787 5.666 1.094 11.271 1.25 16.717-1.061.545-.23 1.49-.328 1.36-1.039-.116-.65-1.034-.537-1.643-.57-2.201-.117-4.404-.197-6.611-.311-.18-.01-.504-.123-.504-.193-.008-.277.273-.277.467-.277 2.625-.006 5.257-.08 7.867.256.564.076 1.187.279 1.381.906.224.713-.289 1.197-.752 1.609-1.047.932-2.354 1.352-3.646 1.791-.287.102-.691.133-.688.498.006.156.365.328.58.461.943.6 2.354.912 2.133 2.387-.209 1.414-1.493 1.93-2.68 2.391-1.43.56-2.928.849-4.451.96-.823.063-.922.331-.543 1.096 6.463 13.092 6.181 26.39.691 39.621-3.123 7.537-9.142 12.578-16.142 16.465-9.479 5.257-19.753 7.213-31.385 7.257"/><path opacity=".6" fill="#8F98A1" d="M605.714 52.321c5.192.24 9.625 2.326 13.534 5.661 3.505 2.987 6.25 6.659 9.158 10.183.258.315.826.76.287 1.179-.408.321-.896-.091-1.25-.397-1.779-1.506-3.147-3.372-4.52-5.232-3.185-4.326-7.218-7.447-12.464-8.867-4.334-1.18-8.6-1.19-12.795.654-2.159.948-4.396 1.747-6.446 2.922-.244.139-.685.246-.49.648.065.134.467.155.707.145.84-.037 1.678-.15 2.516-.155.566-.005 1.238 0 1.447.691.209.719-.102 1.335-.682 1.796-.748.596-1.648.611-2.543.665-.216.011-.57-.226-.621.183-.017.112.262.284.43.386 1.396.837 2.82 1.624 4.193 2.499 9.075 5.801 15.092 14.159 19.672 23.692 1.021 2.123 1.03 4.477 1.403 6.756 1.568 9.736 4.298 19.061 10.306 27.107 4.69 6.285 10.715 10.58 18.514 12.209 1.215.258 2.514.492 3.5 1.42-1.275.199-2.512-.127-3.738-.348-6.885-1.232-12.498-4.757-17.268-9.742-7.371-7.711-11.537-17.142-12.332-27.531-.748-9.893-5.174-17.51-11.363-24.604-2.881-3.298-5.996-6.322-9.741-8.648-3.66-2.279-7.591-3.432-11.906-3.635-8.604-.402-17.129.311-25.568 1.85-4.99.911-9.514 2.997-12.873 7.051-.209.251-.498.781-.805.541-.348-.279.156-.622.338-.896 2.5-3.673 6.203-5.565 10.289-6.847 5.656-1.774 11.527-2.273 17.389-2.777 4.031-.349 8.062-.691 12.097-1.008 1.889-.14 3.549-.853 5.135-1.828 4.461-2.751 9.108-5.029 14.434-5.539.679-.067 1.36-.12 2.056-.184"/><path opacity=".6" fill="#8F98A1" d="M698.389 26.542c-.371 1.845-1.244 3.587-2.178 5.286-2.619 4.772-6.24 8.675-10.472 12.05-.242.19-.461.697-.862.327-.084-.078.123-.584.301-.809.397-.491.82-.963 1.299-1.367 4.129-3.472 7.16-7.791 9.707-12.487.18-.33.594-.635.316-1.113-.304.198-.634.362-.904.595-5.879 5.083-11.76 10.168-17.631 15.259-10.287 8.911-21.16 16.911-33.765 22.326-7.995 3.442-16.291 5.844-24.852 7.361-1.191.215-2.406.226-3.615.134-.356-.026-.879.006-.912-.429-.043-.606.574-.499.939-.53 3.887-.349 7.688-1.148 11.436-2.183 3.689-1.024 7.386-2.043 10.925-3.538 1.702-.719 3.338-1.571 4.694-2.842 7.254-6.777 15.15-12.825 22.314-19.704 1.362-1.308 2.715-2.63 4.096-3.925.295-.273.676-.632 1.109-.402.457.247.328.767.172 1.134-1.115 2.627-2.461 5.113-4.584 7.085-.166.15-.381.477-.633.268-.263-.22.024-.477.155-.676.986-1.485 2.08-2.906 2.824-4.541.076-.172.166-.499.092-.552-.203-.155-.348.086-.483.22-6.861 6.826-14.506 12.771-21.681 19.243-.268.24-.5.531-.746.799.479.268.798-.129 1.132-.306a204.395 204.395 0 0 0 25.125-15.629c8.213-5.979 15.944-12.509 23.063-19.766.773-.791 1.594-1.525 2.543-2.104.271-.164.562-.349.873-.134.306.21.255.548.203.95M655.469 79.371c-4.541-.019-8.986-.843-13.441-1.604-.358-.064-.99-.043-.869-.627.08-.408.629-.284.972-.246 2.346.251 4.686.627 7.039.787 7.354.504 14.567-.364 21.627-2.472.899-.268 1.756-.696 2.608-1.099.457-.221 1.109-.45.996-1.062-.113-.648-.813-.557-1.311-.552-2.207.017-4.422-.032-6.617.14-4.764.375-9.516.869-14.275 1.312-.287.026-.729.215-.781-.183-.059-.449.439-.541.781-.573 2.51-.226 5.031-.386 7.531-.638 8.023-.815 15.465-3.356 22.307-7.63.224-.14.461-.268.644-.45.494-.493 1.561-.857 1.242-1.588-.261-.6-1.326-.455-2.052-.391-2.469.209-4.856.848-7.266 1.383a882.971 882.971 0 0 1-11.854 2.563c-2.365.498-4.714 1.04-6.929 2.054-.315.145-.785.466-.959.059-.162-.381.381-.601.707-.697 2.617-.793 5.121-1.871 7.604-3.002 5.211-2.365 10.514-4.553 15.586-7.185 4.065-2.112 7.449-5.261 10.608-8.584.271-.284.755-.665.479-1.04-.269-.365-.795-.07-1.164.097-2.455 1.077-5.021 1.85-7.572 2.665-.451.145-.883.327-1.338.456-.287.081-.688.236-.793-.183-.104-.38.277-.536.566-.616 1.475-.413 2.868-1.029 4.258-1.646 2.203-.979 4.36-2.094 6.764-2.544.641-.118 1.402-.555 1.885.169.412.62.113 1.33-.18 1.957-.582 1.26-1.504 2.268-2.453 3.255-4.896 5.04-10.932 8.272-17.27 11.05-.568.246-1.213.354-1.642.863.64.332 1.217-.075 1.799-.193 2.886-.584 5.73-1.335 8.662-1.672 1.289-.146 2.941-.488 3.564.852.676 1.453-.91 2.284-1.854 3.104-2.563 2.23-5.553 3.759-8.69 5.019-.344.14-.979.092-.939.639.033.38.597.32.908.477.189.092.408.102.609.172 1.524.52 1.698 1.228.455 2.3-1.9 1.646-4.177 2.606-6.572 3.281-4.37 1.232-8.851 1.757-13.38 1.823"/><path opacity=".6" fill="#8F98A1" d="M659.521 14.199c.021 5.056-1.131 9.897-2.738 14.637-1.346 3.978-2.812 7.914-4.241 11.86-.107.289-.123.857-.613.713-.287-.086-.187-.563-.111-.858.172-.659.342-1.319.58-1.957 2.373-6.349 4.791-12.686 5.697-19.452.438-3.265 1.035-6.568-.08-9.833-.283-.821-.387-1.999-1.437-2.019-1.045-.013-1.243 1.157-1.512 1.977-1.281 3.908-1.768 7.993-2.463 12.02-1.848 10.616-5.086 20.798-9.406 30.636-1.471 3.351-3.506 6.45-5.811 9.335a511.11 511.11 0 0 1-4.48 5.496c-.369.434-.801.824-1.239 1.195-.191.166-.507.278-.722.074-.364-.332.023-.525.209-.744.568-.688 1.113-1.4 1.722-2.055 6.637-7.152 10.694-15.677 13.789-24.855 2.885-8.568 4.346-17.398 5.893-26.234.377-2.123.84-4.236 1.979-6.111.466-.763 1.011-1.564 2.027-1.554 1.102.008 1.609.862 2.059 1.721 1.003 1.895.895 3.96.898 6.008M666.718 22.896c-.131 4.176-1.629 7.747-3.355 11.253-1.828 3.721-3.817 7.356-6.02 10.878-.146.236-.457.472-.24.837.223-.19.475-.354.656-.574 2.655-3.254 5.303-6.515 7.951-9.774.666-.82 1.387-1.582 2.235-2.209.406-.3.865-.756 1.404-.466.477.255.301.847.295 1.292-.012.523-.033 1.067-.193 1.555-1.028 3.066-2.686 5.801-4.604 8.38-.187.244-.375.775-.793.477-.269-.188.026-.579.141-.858.486-1.174 1.221-2.198 1.924-3.244.996-1.49 1.828-3.067 2.363-4.782.135-.429.473-1.024.037-1.287-.342-.209-.66.391-.941.681-2.672 2.756-5.076 5.742-7.448 8.753-3.875 4.903-7.65 9.889-12.38 14.045-.391.348-.776.702-1.194 1.023-.181.135-.388.515-.619.242-.16-.193.131-.479.328-.623 1.19-.9 1.979-2.149 2.944-3.254 5.98-6.869 10.189-14.831 14.062-22.979 1.354-2.853 2.18-5.914 2.361-9.099.043-.681.312-1.694-.472-1.946-.66-.214-1.057.713-1.436 1.255-3.633 5.153-5.836 11.013-8.299 16.75-.519 1.204-1.117 2.375-1.697 3.549-.08.155-.279.254-.424.378.008-.196-.043-.416.026-.59 2.65-7.134 5.263-14.288 9.375-20.763.279-.439.578-.879.916-1.276.427-.504.808-1.217 1.642-.941.821.271 1.254.927 1.352 1.777.065.575.078 1.149.103 1.54M614.395 62.914c-.027.601-.436.467-.672.354a17.855 17.855 0 0 1-1.902-1.11c-2.106-1.389-4.381-2.262-6.932-2.3-1.146-.011-2.172-.386-3.111-.987-1.369-.873-2.766-1.254-4.311-.492-.23.117-.51.3-.644-.043-.123-.301.177-.478.406-.568.68-.285 1.359-.574 2.066-.777 1.08-.312 1.991-.746 2.713-1.717.895-1.211 2.69-1.099 3.414.338 1.2 2.402 3.25 3.619 5.491 4.708 1.046.509 1.992 1.174 2.871 1.94.236.199.428.451.611.654m-11.185-4.031c1.312-.033 2.284-.88 2.206-1.877-.098-1.174-.885-1.592-1.944-1.576-1.061.016-2.031 1.062-1.924 2.069.11 1.046.862 1.324 1.662 1.384"/><path opacity=".6" fill="#8F98A1" d="M603.216 56.39c.487.016.801.272.873.739.063.396-.068.783-.531.799-.529.016-.926-.295-1.012-.814-.066-.424.278-.633.67-.724M614.121 155.617c-6.75-.097-14.278-1.015-21.534-3.625-1.836-.658-3.545-1.587-5.308-2.396-.362-.166-.926-.424-.731-.873.256-.617.817-.236 1.209-.037 9.821 5.066 20.358 6.438 31.211 5.779 8.467-.517 16.557-2.66 24.19-6.445 8.273-4.102 13.646-10.734 16.601-19.322 3.854-11.207 4.119-22.342-1.447-33.172-.623-1.207-1.396-2.344-2.137-3.49-.31-.479-.689-.938-1.322-1.041-.502-.08-1.125-.418-1.469.012-.252.312.315.701.51 1.062.772 1.447.381 2.322-1.33 2.746-2.582.644-5.111.24-7.607-.506-3.403-1.029-6.432-2.82-9.422-4.687-.645-.401-1.285-1.164-1.938.135-.33.64-1.218.525-1.898.468-2.529-.209-4.756-1.234-6.824-2.634-3.344-2.268-5.545-5.555-7.832-8.76-.168-.242-.594-.645-.09-.923.506-.278.728.23.967.558 1.861 2.488 3.894 4.826 6.312 6.8 2.1 1.709 4.373 3.104 7.096 3.569.58.103 1.424.406 1.717-.229.275-.584-.549-.912-.957-1.267-1.86-1.625-3.502-3.483-5.506-4.948-.424-.312-1.272-.746-.875-1.232.445-.553 1.008.21 1.396.572 5.293 4.892 11.51 8.226 18.176 10.799 1.719.666 3.465 1.281 5.338 1.229.955-.027 2.369.092 2.451-1.084.074-1.101-.816-2.23-2.107-2.428-5.485-.843-9.467-4.302-13.512-7.662-.354-.295-1.109-.703-.732-1.164.38-.455.953.139 1.312.467 3.328 3.062 7.039 5.457 11.395 6.814 5.248 1.635 10.496 2.059 15.779.235a16.047 16.047 0 0 0 1.879-.806c.604-.295.605-.69.041-1.034-1.885-1.146-3.713-2.031-6.139-1.951-6.783.228-13.381-.929-19.637-3.688-.318-.141-.832-.252-.648-.715.207-.541.713-.268 1.098-.16 3.384.955 6.707 2.119 10.173 2.787 5.666 1.094 11.271 1.25 16.717-1.061.545-.23 1.49-.328 1.36-1.039-.116-.65-1.034-.537-1.643-.57-2.201-.117-4.404-.197-6.611-.311-.18-.01-.504-.123-.504-.193-.008-.277.273-.277.467-.277 2.625-.006 5.257-.08 7.867.256.564.076 1.187.279 1.381.906.224.713-.289 1.197-.752 1.609-1.047.932-2.354 1.352-3.646 1.791-.287.102-.691.133-.688.498.006.156.365.328.58.461.943.6 2.354.912 2.133 2.387-.209 1.414-1.493 1.93-2.68 2.391-1.43.56-2.928.849-4.451.96-.823.063-.922.331-.543 1.096 6.463 13.092 6.181 26.39.691 39.621-3.123 7.537-9.142 12.578-16.142 16.465-9.479 5.257-19.753 7.213-31.385 7.257"/><path opacity=".6" fill="#8F98A1" d="M605.714 52.321c5.192.24 9.625 2.326 13.534 5.661 3.505 2.987 6.25 6.659 9.158 10.183.258.315.826.76.287 1.179-.408.321-.896-.091-1.25-.397-1.779-1.506-3.147-3.372-4.52-5.232-3.185-4.326-7.218-7.447-12.464-8.867-4.334-1.18-8.6-1.19-12.795.654-2.159.948-4.396 1.747-6.446 2.922-.244.139-.685.246-.49.648.065.134.467.155.707.145.84-.037 1.678-.15 2.516-.155.566-.005 1.238 0 1.447.691.209.719-.102 1.335-.682 1.796-.748.596-1.648.611-2.543.665-.216.011-.57-.226-.621.183-.017.112.262.284.43.386 1.396.837 2.82 1.624 4.193 2.499 9.075 5.801 15.092 14.159 19.672 23.692 1.021 2.123 1.03 4.477 1.403 6.756 1.568 9.736 4.298 19.061 10.306 27.107 4.69 6.285 10.715 10.58 18.514 12.209 1.215.258 2.514.492 3.5 1.42-1.275.199-2.512-.127-3.738-.348-6.885-1.232-12.498-4.757-17.268-9.742-7.371-7.711-11.537-17.142-12.332-27.531-.748-9.893-5.174-17.51-11.363-24.604-2.881-3.298-5.996-6.322-9.741-8.648-3.66-2.279-7.591-3.432-11.906-3.635-8.604-.402-17.129.311-25.568 1.85-4.99.911-9.514 2.997-12.873 7.051-.209.251-.498.781-.805.541-.348-.279.156-.622.338-.896 2.5-3.673 6.203-5.565 10.289-6.847 5.656-1.774 11.527-2.273 17.389-2.777 4.031-.349 8.062-.691 12.097-1.008 1.889-.14 3.549-.853 5.135-1.828 4.461-2.751 9.108-5.029 14.434-5.539.679-.067 1.36-.12 2.056-.184"/><text transform="translate(183.533 105.707)" fill="#8F98A1" font-family="'Lora-Italic'" font-size="16.668">M</text><text transform="translate(198.985 105.707)" fill="#8F98A1" font-family="'Lora-Italic'" font-size="16.668">B</text><text transform="translate(209.47 105.707)" fill="#8F98A1" font-family="'Lora-Italic'" font-size="16.668">A</text><text transform="translate(220.12 105.707)" fill="#8F98A1" font-family="'Lora-Italic'" font-size="16.668">,</text><text transform="translate(224.237 105.707)" fill="#8F98A1" font-family="'Lora-Italic'" font-size="16.668"></text><text transform="translate(228.77 105.707)" fill="#8F98A1" font-family="'Lora-Italic'" font-size="16.668">B</text><text transform="translate(239.27 105.707)" fill="#8F98A1" font-family="'Lora-Italic'" font-size="16.668">S</text><text transform="translate(248.854 105.707)" fill="#8F98A1" font-family="'Lora-Italic'" font-size="16.668">c</text><text transform="translate(256.904 105.707)" fill="#8F98A1" font-family="'Lora-Italic'" font-size="16.668"></text><text transform="translate(261.436 105.707)" fill="#8F98A1" font-family="'Lora-Italic'" font-size="16.668">(OT</text><text transform="translate(290.139 105.707)" fill="#8F98A1" font-family="'Lora-Italic'" font-size="16.668">),</text><text transform="translate(299.356 105.707)" fill="#8F98A1" font-family="'Lora-Italic'" font-size="16.668"></text><text transform="translate(303.89 105.707)" fill="#8F98A1" font-family="'Lora-Italic'" font-size="16.668">B</text><text transform="translate(314.375 105.707)" fill="#8F98A1" font-family="'Lora-Italic'" font-size="16.668">S</text><text transform="translate(323.96 105.707)" fill="#8F98A1" font-family="'Lora-Italic'" font-size="16.668">c</text><text transform="translate(332.01 105.707)" fill="#8F98A1" font-family="'Lora-Italic'" font-size="16.668"></text><text transform="translate(336.526 105.707)" fill="#8F98A1" font-family="'Lora-Italic'" font-size="16.668">(</text><text transform="translate(341.658 105.707)" fill="#8F98A1" font-family="'Lora-Italic'" font-size="16.668">P</text><text transform="translate(351.775 105.707)" fill="#8F98A1" font-family="'Lora-Italic'" font-size="16.668">s</text><text transform="translate(359.058 105.707)" fill="#8F98A1" font-family="'Lora-Italic'" font-size="16.668">y</text><text transform="translate(367.775 105.707)" fill="#8F98A1" font-family="'Lora-Italic'" font-size="16.668">c</text><text transform="translate(375.844 105.707)" fill="#8F98A1" font-family="'Lora-Italic'" font-size="16.668">h</text><text transform="translate(385.527 105.707)" fill="#8F98A1" font-family="'Lora-Italic'" font-size="16.668">)</text><text transform="translate(390.66 105.707)" fill="#8F98A1" font-family="'Lora-Italic'" font-size="16.668">,</text><text transform="translate(394.762 105.707)" fill="#8F98A1" font-family="'Lora-Italic'" font-size="16.668">I</text><text transform="translate(404.962 105.707)" fill="#8F98A1" font-family="'Lora-Italic'" font-size="16.668">n</text><text transform="translate(415.361 105.707)" fill="#8F98A1" font-family="'Lora-Italic'" font-size="16.668">t</text><text transform="translate(421.603 105.707)" fill="#8F98A1" font-family="'Lora-Italic'" font-size="16.668">e</text><text transform="translate(429.713 105.707)" fill="#8F98A1" font-family="'Lora-Italic'" font-size="16.668">g</text><text transform="translate(438.498 105.707)" fill="#8F98A1" font-family="'Lora-Italic'" font-size="16.668">r</text><text transform="translate(446.246 105.707)" fill="#8F98A1" font-family="'Lora-Italic'" font-size="16.668">a</text><text transform="translate(455.531 105.707)" fill="#8F98A1" font-family="'Lora-Italic'" font-size="16.668">l</text><text transform="translate(460.416 105.707)" fill="#8F98A1" font-family="'Lora-Italic'" font-size="16.668"></text><text transform="translate(464.947 105.707)" fill="#8F98A1" font-family="'Lora-Italic'" font-size="16.668">M</text><text transform="translate(480.4 105.707)" fill="#8F98A1" font-family="'Lora-Italic'" font-size="16.668">a</text><text transform="translate(489.681 105.707)" fill="#8F98A1" font-family="'Lora-Italic'" font-size="16.668">s</text><text transform="translate(496.984 105.707)" fill="#8F98A1" font-family="'Lora-Italic'" font-size="16.668">t</text><text transform="translate(503.199 105.707)" fill="#8F98A1" font-family="'Lora-Italic'" font-size="16.668">e</text><text transform="translate(511.316 105.707)" fill="#8F98A1" font-family="'Lora-Italic'" font-size="16.668">r Co</text><text transform="translate(543.933 105.707)" fill="#8F98A1" font-family="'Lora-Italic'" font-size="16.668">a</text><text transform="translate(553.287 105.707)" fill="#8F98A1" font-family="'Lora-Italic'" font-size="16.668">c</text><text transform="translate(561.353 105.707)" fill="#8F98A1" font-family="'Lora-Italic'" font-size="16.668">h</text><text transform="translate(571.039 105.707)" fill="#8F98A1" font-family="'Lora-Italic'" font-size="16.668">™</text></svg>