<svg version="1.1" id="Layer_1" xmlns="http://www.w3.org/2000/svg" x="0" y="0" width="698.429" height="155.616" viewBox="0 0 698.429 155.616" xml:space="preserve"><path fill="#8B5C7A" d="M0 57.055l1.107-1.266c.949 0 2.371-.215 4.268-.628a83.137 83.137 0 0 0 5.771-1.506c1.949-.579 4.4-1.287 7.354-2.134 0-1.26.05-3.37.153-6.321.104-2.949.291-6.3.558-10.037.262-3.745.631-7.616 1.104-11.621.476-4.005 1.109-7.667 1.898-10.986.79-3.322 1.764-6.062 2.926-8.225 1.158-2.161 2.528-3.243 4.109-3.243 1.37 0 2.583.87 3.636 2.609 1.052 1.742 1.977 3.983 2.768 6.722.787 2.743 1.42 5.769 1.896 9.087.475 3.319.87 6.509 1.185 9.565.316 3.059.552 5.825.712 8.302.156 2.475.238 4.244.238 5.294a293.803 293.803 0 0 0 4.82-1.976 13.177 13.177 0 0 1 5.137-1.029l.95 1.107c-.104.316-.631.686-1.582 1.107-.946.426-2.004.844-3.162 1.268a49.44 49.44 0 0 1-3.399 1.102 80.58 80.58 0 0 1-2.292.635c.211 2.112.579 5.297 1.107 9.566a278.777 278.777 0 0 0 1.976 13.279c.793 4.584 1.687 8.852 2.688 12.803 1.003 3.957 2.082 6.664 3.243 8.145.524.734 1.317 1.34 2.371 1.818 1.052.473 1.684 1.131 1.897 1.979l-1.109 1.1c-1.578 0-3.031-1.004-4.346-3.004-1.32-2-2.506-4.557-3.555-7.66-1.056-3.111-1.98-6.563-2.77-10.36a194.473 194.473 0 0 1-1.974-10.986c-.529-3.533-.95-6.744-1.266-9.645-.318-2.896-.529-4.981-.631-6.241a564.8 564.8 0 0 0-8.54 3.549 501.237 501.237 0 0 1-8.539 3.56V80.45c0 .418-.104 1.293-.312 2.611-.214 1.318-.634 1.979-1.265 1.979s-1.026-.479-1.186-1.422c-.16-.953-.236-1.748-.236-2.373 0-4.532.102-9.094.312-13.678.212-4.584.319-9.142.319-13.678a91.326 91.326 0 0 1-8.381 2.771 53.958 53.958 0 0 1-8.697 1.657L0 57.055zM29.562 3.936c-1.158 0-2.185 1.003-3.08 3.004-.897 2.004-1.661 4.584-2.295 7.747-.631 3.161-1.158 6.616-1.582 10.351a297.833 297.833 0 0 0-1.025 10.753 241.07 241.07 0 0 0-.552 9.248c-.107 2.748-.16 4.584-.16 5.539a199.17 199.17 0 0 0 8.379-3.641 211.606 211.606 0 0 1 8.38-3.635c-.107-.949-.236-2.552-.398-4.82a221.474 221.474 0 0 0-.708-7.828 347.307 347.307 0 0 0-1.109-9.093c-.42-3.104-.922-5.973-1.501-8.611-.579-2.632-1.238-4.797-1.973-6.486-.739-1.682-1.53-2.528-2.376-2.528M59.599 74.924c-.843 0-1.478-1.265-1.896-3.796-.422-2.53-.739-5.849-.948-9.962-.212-4.111-.45-8.771-.713-13.993a426.726 426.726 0 0 0-1.105-15.887 177.36 177.36 0 0 0-2.054-15.572c-.898-5.005-2.137-9.405-3.717-13.199l-.157-.634L50.114.616c.843 0 1.503.637 1.977 1.899a95.95 95.95 0 0 1 1.027 2.841c1.367 4.956 2.42 10.124 3.162 15.494a239.42 239.42 0 0 1 1.661 16.367c.364 5.533.657 11.044.867 16.519.212 5.479.527 10.81.951 15.966.315-1.367.71-3.371 1.186-6.004a272.44 272.44 0 0 1 1.74-8.777 259.647 259.647 0 0 1 2.289-9.798c.843-3.319 1.792-6.351 2.85-9.091 1.048-2.745 2.21-4.98 3.476-6.718 1.265-1.742 2.688-2.614 4.268-2.614 2.001 0 3.662.818 4.979 2.453 1.317 1.635 2.344 3.56 3.083 5.769a33.644 33.644 0 0 1 1.503 6.796c.26 2.325.394 4.217.394 5.697 0 1.791-.291 4.477-.87 8.059a73.01 73.01 0 0 1-2.604 10.755c-1.163 3.581-2.587 6.718-4.272 9.404-1.689 2.687-3.69 4.033-6.006 4.033-.95 0-1.658-.264-2.135-.795-.476-.519-.816-1.184-1.027-1.972a12.554 12.554 0 0 1-.395-2.531 22.613 22.613 0 0 0-.239-2.289l1.265-1.265.949.787.947 5.379 1.425.154c3.582-3.688 6.321-8.09 8.222-13.199 1.897-5.11 2.843-10.246 2.843-15.415 0-1.051-.158-2.632-.472-4.745a42.6 42.6 0 0 0-1.501-6.402c-.689-2.16-1.529-4.053-2.53-5.688-1.005-1.636-2.189-2.451-3.559-2.451-1.158 0-2.267.869-3.319 2.608-1.057 1.737-2.031 3.976-2.926 6.715a119.376 119.376 0 0 0-2.528 9.013 195.473 195.473 0 0 0-2.056 9.485c-.582 3.061-1.106 5.801-1.582 8.225-.472 2.423-.815 4.111-1.029 5.055-.211.531-.499 1.422-.868 2.687-.37 1.264-.925 1.902-1.661 1.902M94.38 74.924c-.846 0-1.478-1.265-1.897-3.796-.424-2.53-.739-5.849-.948-9.962-.213-4.111-.451-8.771-.713-13.993a422.527 422.527 0 0 0-1.107-15.887 176.227 176.227 0 0 0-2.055-15.572c-.895-5.005-2.134-9.405-3.714-13.199l-.157-.634L84.894.616c.843 0 1.501.637 1.975 1.899.474 1.265.817 2.213 1.029 2.841 1.367 4.956 2.421 10.124 3.162 15.494a236.925 236.925 0 0 1 1.658 16.367c.367 5.533.66 11.044.87 16.519.211 5.479.526 10.81.95 15.966.312-1.367.708-3.371 1.187-6.004a274.6 274.6 0 0 1 1.737-8.777 261.723 261.723 0 0 1 2.292-9.798c.843-3.319 1.792-6.351 2.847-9.091 1.051-2.745 2.211-4.98 3.479-6.718 1.265-1.742 2.688-2.614 4.267-2.614 2.001 0 3.663.818 4.98 2.453 1.317 1.635 2.344 3.56 3.083 5.769a33.572 33.572 0 0 1 1.501 6.796c.261 2.325.396 4.217.396 5.697 0 1.791-.293 4.477-.87 8.059a73.01 73.01 0 0 1-2.604 10.755c-1.165 3.581-2.587 6.718-4.272 9.404-1.688 2.687-3.69 4.033-6.006 4.033-.95 0-1.658-.264-2.135-.795-.476-.519-.816-1.184-1.027-1.972a12.625 12.625 0 0 1-.395-2.531 23.207 23.207 0 0 0-.239-2.289l1.266-1.265.949.787.948 5.379 1.425.154c3.579-3.688 6.321-8.09 8.221-13.199 1.898-5.11 2.844-10.246 2.844-15.415 0-1.051-.16-2.632-.472-4.745a42.6 42.6 0 0 0-1.501-6.402c-.689-2.16-1.529-4.053-2.532-5.688-1.003-1.636-2.19-2.451-3.558-2.451-1.16 0-2.266.869-3.318 2.608-1.056 1.737-2.031 3.976-2.926 6.715a119.848 119.848 0 0 0-2.528 9.013 195.473 195.473 0 0 0-2.056 9.485c-.582 3.061-1.105 5.801-1.582 8.225-.474 2.423-.814 4.111-1.029 5.055-.211.531-.499 1.422-.868 2.687-.372 1.264-.926 1.902-1.662 1.902M125.365 28.442l1.267 1.102c0 1.796-.031 3.984-.081 6.565a400.619 400.619 0 0 0-.079 8.458c0 2.847.024 5.796.079 8.852.049 3.056.211 5.983.474 8.776.262 2.794.604 5.352 1.027 7.668.421 2.316 1 4.16 1.741 5.533.631-.107 1.446-1.314 2.449-3.641.999-2.316 2.056-5.158 3.162-8.53s2.237-7.089 3.398-11.152a896.974 896.974 0 0 0 3.242-11.619c1-3.689 1.896-6.98 2.685-9.881.793-2.895 1.396-4.922 1.82-6.085l.949-.472c.633.102 1.209 1.051 1.739 2.845.527 1.793.949 4.163 1.263 7.117.319 2.949.579 6.268.793 9.957.208 3.688.34 7.426.395 11.227.05 3.796.105 7.507.16 11.142.048 3.641.077 6.825.077 9.564v-1.736c.634.107 1.425.235 2.371.396.951.156 1.527.605 1.742 1.34l-1.422 1.111-2.531-.473v6.717c0 3.105-.107 6.611-.319 10.51s-.527 7.93-.946 12.096c-.424 4.166-1.082 7.982-1.977 11.463-.898 3.475-2.056 6.326-3.479 8.541-1.422 2.209-3.188 3.312-5.294 3.312-2.108 0-3.77-.66-4.984-1.973-1.21-1.318-2.159-2.9-2.843-4.744a23.675 23.675 0 0 1-1.346-5.85c-.211-2.061-.312-3.822-.312-5.293 0-2.953.34-6.428 1.026-10.434a56.636 56.636 0 0 1 3.321-11.703c1.525-3.791 3.5-7.143 5.926-10.037 2.425-2.895 5.375-4.665 8.851-5.297v-13.12c0-5.378-.131-10.755-.396-16.127-.263-5.377-.922-10.487-1.973-15.334-.531 1.161-1.162 3.158-1.896 6.005-.739 2.847-1.558 6.063-2.452 9.645a664.535 664.535 0 0 1-2.923 11.227c-1.057 3.897-2.164 7.452-3.323 10.67-1.161 3.217-2.316 5.849-3.474 7.903-1.162 2.053-2.271 3.082-3.322 3.082-1.058 0-1.924-1.029-2.611-3.082-.684-2.055-1.239-4.687-1.661-7.903-.419-3.218-.736-6.724-.945-10.515-.213-3.796-.343-7.484-.398-11.066s-.077-6.801-.077-9.643v-6.013l1.107-1.101zm16.441 97.861c2.108-3.061 3.717-6.689 4.823-10.91 1.107-4.215 1.897-8.615 2.373-13.201.472-4.582.708-9.146.708-13.676V76.184c-1.683 0-3.293.688-4.82 2.06-1.529 1.367-2.954 3.105-4.269 5.21-1.317 2.107-2.476 4.482-3.479 7.115a79.25 79.25 0 0 0-2.528 7.828 74.092 74.092 0 0 0-1.58 7.27c-.374 2.268-.552 4.086-.552 5.459 0 1.158.102 2.633.312 4.43.211 1.783.607 3.5 1.186 5.135.579 1.631 1.37 3.029 2.372 4.188 1.001 1.158 2.345 1.738 4.032 1.738.317-.001.791-.108 1.422-.314M181.644 10.42l1.106 1.104c.211 8.117.448 16.181.714 24.191.26 8.01.656 16.068 1.182 24.186.107-1.266.423-3.56.951-6.879a417.22 417.22 0 0 1 1.977-11.305c.79-4.211 1.658-8.583 2.607-13.117.949-4.53 1.951-8.696 3.004-12.492 1.053-3.793 2.135-6.9 3.24-9.325 1.107-2.423 2.189-3.637 3.24-3.637.634 0 1.16.818 1.584 2.452.417 1.635.708 3.579.867 5.851.16 2.263.263 4.558.318 6.874.049 2.322.08 4.107.08 5.372a217.06 217.06 0 0 0 .394 10.203c.156 2.684.312 5.587.473 8.691.159 3.112.367 6.117.631 9.013.264 2.9.579 5.453.95 7.666.368 2.215.763 3.743 1.186 4.585 1.055-1.684 2.108-4.289 3.163-7.823 1.051-3.533 2.078-7.43 3.082-11.698 1-4.273 2.057-8.669 3.162-13.205 1.106-4.525 2.214-8.638 3.319-12.327 1.106-3.688 2.292-6.723 3.558-9.092 1.263-2.373 2.58-3.562 3.95-3.562.735 0 1.397.978 1.979 2.926.576 1.956 1.105 4.537 1.578 7.749.476 3.217.924 6.825 1.346 10.831.419 4.005.814 8.091 1.186 12.251.367 4.166.711 8.195 1.027 12.095.317 3.898.634 7.27.949 10.117.209 2.43.606 4.954 1.184 7.586.578 2.639.869 5.115.869 7.432 0 .215-.076.504-.235.869-.157.375-.396.552-.71.552-.632 0-1.188-.868-1.662-2.605-.473-1.737-.926-4.032-1.342-6.874a220.314 220.314 0 0 1-1.188-9.645c-.369-3.582-.71-7.249-1.029-10.992-.314-3.739-.631-7.351-.945-10.825-.316-3.482-.58-6.536-.791-9.171a593.961 593.961 0 0 1-.867-9.726 34.429 34.429 0 0 0-2.14-9.404c-1.161 1.579-2.264 4.056-3.319 7.431-1.053 3.37-2.106 7.166-3.161 11.385a5589.18 5589.18 0 0 0-3.24 13.04A402.698 402.698 0 0 1 212.63 53.5c-1.055 3.742-2.134 6.798-3.239 9.168-1.106 2.369-2.188 3.56-3.242 3.56-.946 0-1.796-1.555-2.531-4.665-.738-3.109-1.317-6.664-1.737-10.674-.424-4-.738-7.876-.95-11.619-.212-3.743-.312-6.3-.312-7.667v-7.745c0-2.954-.084-5.822-.239-8.619a40.88 40.88 0 0 0-1.346-8.299c-.843 1.37-1.765 3.715-2.764 7.034-1.005 3.319-2.004 7.195-3.007 11.621a313.862 313.862 0 0 0-2.844 14.152 800.428 800.428 0 0 0-2.452 14.386c-.737 4.583-1.318 8.723-1.74 12.411-.422 3.688-.631 6.429-.631 8.22a.67.67 0 0 0 .079.316c.052.102.081.209.081.316s-.107.155-.319.155h-.791l-.946-.471c-.211-.418-.423-2.107-.631-5.062a888.27 888.27 0 0 1-.712-10.905 758.778 758.778 0 0 1-.713-14.075c-.211-5.058-.395-9.875-.555-14.465a3051.14 3051.14 0 0 1-.393-12.09c-.107-3.485-.158-5.796-.158-6.959l1.106-1.104zM239.824 57.055c0-2 .235-4.848.709-8.536a58.598 58.598 0 0 1 2.453-10.828c1.157-3.531 2.658-6.613 4.508-9.246 1.842-2.638 4.188-3.957 7.035-3.957 1.787 0 3.34.579 4.66 1.74 1.318 1.161 2.451 2.372 3.398 3.635 0-.525.08-1.002.24-1.418.156-.423.496-.737 1.025-.954l1.105 1.109v5.531c0 2.74.053 5.906.16 9.487.102 3.582.289 7.351.553 11.302s.686 7.565 1.266 10.83c.578 3.266 1.342 5.984 2.291 8.139.947 2.167 2.162 3.244 3.635 3.244l2.848-1.266.949 1.266c-.211.633-.768 1.244-1.658 1.819-.898.584-1.66.867-2.291.867-1.902 0-3.43-1.211-4.59-3.635-1.16-2.423-2.078-5.217-2.766-8.374a84.86 84.86 0 0 1-1.502-9.409c-.316-3.105-.529-5.399-.631-6.879-.316 1.795-.926 4.167-1.816 7.115a68.208 68.208 0 0 1-3.4 8.852c-1.371 2.954-2.98 5.485-4.824 7.593-1.844 2.106-3.926 3.163-6.242 3.163-1.583 0-2.848-.928-3.794-2.772-.95-1.838-1.661-3.945-2.137-6.32-.476-2.37-.79-4.74-.949-7.115-.154-2.373-.235-4.035-.235-4.983m7.746 18.185c1.477 0 2.871-.74 4.188-2.22 1.318-1.469 2.557-3.366 3.717-5.688 1.16-2.316 2.158-4.9 3.008-7.747.84-2.847 1.576-5.608 2.211-8.3.633-2.686 1.105-5.139 1.422-7.348.316-2.217.473-3.9.473-5.059v-6.484c-.631 0-1.182-.292-1.658-.872a66.347 66.347 0 0 1-1.504-1.898 12.522 12.522 0 0 0-1.816-1.896c-.688-.579-1.555-.871-2.607-.871-2.529 0-4.613 1.265-6.246 3.796-1.637 2.531-2.923 5.479-3.873 8.852a68.805 68.805 0 0 0-2.055 10.117c-.422 3.378-.633 5.957-.633 7.752 0 .843.025 2.236.08 4.188a47.49 47.49 0 0 0 .553 6.006c.317 2.053.842 3.85 1.58 5.377.735 1.529 1.787 2.295 3.16 2.295M281.166 15.636c-.055 4.426-.08 8.852-.08 13.281 0 8.533.133 16.969.395 25.29.262 8.332.924 16.707 1.977 25.141l-1.105.947c-.635 0-1.133-.867-1.506-2.61-.367-1.737-.686-3.973-.943-6.719-.266-2.734-.453-5.85-.557-9.328a675.442 675.442 0 0 1-.236-10.59c-.055-3.581-.105-7.061-.16-10.433s-.076-6.38-.076-9.016l-.16-14.543v-1.973c0-1.528.025-3.265.08-5.219a86.2 86.2 0 0 1 .316-5.535c.16-1.737.447-2.767.869-3.081l.949.314.314.791a1131.08 1131.08 0 0 1-.077 13.283M287.725 57.055c0-2 .236-4.848.709-8.536a58.436 58.436 0 0 1 2.453-10.828c1.158-3.531 2.658-6.613 4.506-9.246 1.842-2.638 4.189-3.957 7.037-3.957 1.787 0 3.34.579 4.66 1.74 1.318 1.161 2.451 2.372 3.398 3.635 0-.525.08-1.002.238-1.418.158-.423.498-.737 1.027-.954l1.107 1.109v5.531c0 2.74.051 5.906.158 9.487.102 3.582.289 7.351.555 11.302.26 3.951.684 7.565 1.264 10.83.578 3.266 1.342 5.984 2.291 8.139.947 2.167 2.16 3.244 3.635 3.244l2.846-1.266.951 1.266c-.213.633-.766 1.244-1.658 1.819-.898.584-1.662.867-2.291.867-1.902 0-3.43-1.211-4.59-3.635-1.16-2.423-2.08-5.217-2.766-8.374a84.394 84.394 0 0 1-1.502-9.409c-.316-3.105-.529-5.399-.631-6.879-.316 1.795-.926 4.167-1.818 7.115a67.635 67.635 0 0 1-3.4 8.852c-1.371 2.954-2.979 5.485-4.824 7.593-1.842 2.106-3.924 3.163-6.24 3.163-1.582 0-2.848-.928-3.795-2.772-.949-1.838-1.66-3.945-2.137-6.32a54.596 54.596 0 0 1-.947-7.115c-.154-2.373-.236-4.035-.236-4.983m7.746 18.185c1.477 0 2.871-.74 4.188-2.22 1.318-1.469 2.557-3.366 3.717-5.688 1.158-2.316 2.158-4.9 3.006-7.747a151.735 151.735 0 0 0 2.211-8.3c.635-2.686 1.107-5.139 1.424-7.348.316-2.217.473-3.9.473-5.059v-6.484c-.631 0-1.184-.292-1.658-.872s-.977-1.206-1.504-1.898a12.522 12.522 0 0 0-1.816-1.896c-.688-.579-1.555-.871-2.609-.871-2.527 0-4.611 1.265-6.244 3.796-1.637 2.531-2.924 5.479-3.873 8.852a68.288 68.288 0 0 0-2.055 10.117c-.422 3.378-.633 5.957-.633 7.752 0 .843.023 2.236.078 4.188.053 1.952.238 3.952.555 6.006.316 2.053.844 3.85 1.58 5.377.732 1.529 1.787 2.295 3.16 2.295M326.453 33.34l1.105 1.11a160.308 160.308 0 0 1 1.82 18.02 76.92 76.92 0 0 0 2.924 17.864c.42-1.157.818-3.082 1.186-5.768.367-2.687.738-5.695 1.107-9.014.367-3.318.764-6.745 1.186-10.272.42-3.533.975-6.745 1.66-9.646.684-2.896 1.529-5.297 2.531-7.193 1-1.9 2.236-2.844 3.713-2.844 1.475 0 2.609 1.077 3.4 3.238.791 2.161 1.426 4.927 1.896 8.297.475 3.375.844 7.117 1.105 11.224.264 4.112.607 8.117 1.027 12.021.422 3.896.975 7.404 1.66 10.508.686 3.109 1.711 5.404 3.082 6.879a82.412 82.412 0 0 0 2.848 3.008c.951.943 1.949 1.84 3.002 2.68l-.945 1.109c-3.162-.943-5.59-2.9-7.273-5.848-1.688-2.95-2.953-6.403-3.795-10.354s-1.396-8.145-1.662-12.572c-.262-4.429-.498-8.562-.707-12.412-.215-3.842-.582-7.163-1.105-9.957-.531-2.788-1.48-4.557-2.848-5.292-1.057 0-1.928.893-2.607 2.684-.689 1.793-1.27 4.088-1.74 6.879-.477 2.791-.898 5.927-1.266 9.404a681.04 681.04 0 0 1-1.186 10.356c-.422 3.426-.871 6.67-1.344 9.721-.475 3.061-1.029 5.533-1.662 7.431l-.473.161c-.951 0-1.766-.875-2.451-2.611-.688-1.737-1.289-3.92-1.818-6.562-.527-2.627-.975-5.555-1.342-8.771a328.217 328.217 0 0 1-.949-9.329l-.711-8.062a318.65 318.65 0 0 0-.475-4.978l1.107-1.109z"/><path opacity=".6" fill="#8F98A1" d="M614.121 155.616c-6.75-.096-14.279-1.014-21.535-3.625-1.836-.658-3.545-1.586-5.307-2.396-.363-.166-.926-.424-.732-.873.256-.617.818-.236 1.209-.037 9.822 5.066 20.359 6.438 31.211 5.779 8.467-.516 16.557-2.66 24.191-6.445 8.273-4.102 13.646-10.734 16.6-19.322 3.854-11.207 4.119-22.342-1.447-33.172-.623-1.207-1.395-2.344-2.137-3.49-.309-.479-.689-.939-1.322-1.041-.502-.08-1.125-.418-1.469.012-.252.311.316.701.51 1.061.773 1.447.381 2.322-1.33 2.746-2.582.643-5.111.24-7.607-.506-3.404-1.029-6.432-2.82-9.422-4.686-.645-.402-1.285-1.164-1.939.135-.33.639-1.217.525-1.898.467-2.529-.209-4.756-1.234-6.824-2.633-3.344-2.268-5.545-5.555-7.832-8.76-.168-.243-.594-.645-.09-.923.506-.278.727.23.967.558 1.861 2.487 3.893 4.825 6.311 6.799 2.1 1.709 4.373 3.104 7.096 3.57.58.102 1.424.406 1.717-.23.275-.584-.549-.912-.957-1.266-1.861-1.625-3.502-3.484-5.506-4.949-.424-.311-1.273-.746-.875-1.232.445-.553 1.008.209 1.396.572 5.293 4.891 11.51 8.225 18.176 10.799 1.719.666 3.465 1.281 5.338 1.229.955-.027 2.369.092 2.451-1.084.074-1.1-.816-2.23-2.107-2.428-5.486-.842-9.467-4.301-13.512-7.662-.354-.295-1.109-.703-.732-1.164.379-.455.953.139 1.312.467 3.328 3.062 7.039 5.457 11.395 6.814 5.248 1.635 10.496 2.059 15.779.236a16.113 16.113 0 0 0 1.879-.805c.604-.295.605-.691.041-1.035-1.885-1.146-3.713-2.031-6.139-1.951-6.783.227-13.381-.928-19.637-3.688-.318-.141-.832-.252-.648-.715.207-.541.713-.268 1.098-.16 3.383.955 6.707 2.119 10.172 2.787 5.666 1.094 11.271 1.25 16.717-1.061.545-.23 1.49-.328 1.361-1.039-.117-.65-1.035-.537-1.643-.57-2.201-.117-4.404-.197-6.611-.311-.18-.01-.504-.123-.504-.193-.008-.277.273-.277.467-.277 2.625-.006 5.256-.08 7.867.256.564.076 1.186.279 1.381.906.223.713-.289 1.197-.752 1.609-1.047.932-2.354 1.352-3.646 1.791-.287.102-.691.133-.688.498.006.156.365.328.58.461.943.6 2.354.912 2.133 2.387-.209 1.414-1.494 1.93-2.68 2.391-1.43.559-2.928.848-4.451.959-.824.064-.922.332-.543 1.096 6.463 13.092 6.18 26.389.691 39.621-3.123 7.537-9.141 12.578-16.141 16.465-9.477 5.258-19.752 7.215-31.383 7.258"/><path opacity=".6" fill="#8F98A1" d="M605.713 52.321c5.193.24 9.625 2.326 13.535 5.661 3.504 2.987 6.25 6.659 9.158 10.183.258.315.826.76.287 1.179-.408.321-.896-.091-1.25-.397-1.779-1.506-3.148-3.372-4.52-5.232-3.184-4.326-7.217-7.447-12.463-8.867-4.334-1.18-8.6-1.19-12.795.654-2.16.948-4.396 1.747-6.447 2.922-.244.139-.684.246-.49.648.066.134.467.155.707.145.84-.037 1.678-.15 2.516-.155.566-.005 1.238 0 1.447.691.209.719-.102 1.335-.682 1.796-.748.596-1.648.611-2.543.665-.215.011-.57-.226-.621.183-.016.112.262.284.43.386 1.395.837 2.82 1.624 4.193 2.499 9.076 5.801 15.092 14.159 19.672 23.692 1.021 2.123 1.031 4.477 1.404 6.756 1.568 9.736 4.297 19.061 10.305 27.107 4.691 6.285 10.715 10.58 18.514 12.209 1.215.258 2.514.492 3.5 1.42-1.275.199-2.512-.127-3.738-.348-6.885-1.232-12.498-4.756-17.268-9.742-7.371-7.711-11.537-17.141-12.332-27.531-.748-9.893-5.174-17.51-11.363-24.604-2.881-3.298-5.996-6.322-9.742-8.648-3.66-2.279-7.59-3.432-11.906-3.635-8.604-.402-17.129.311-25.568 1.85-4.99.911-9.514 2.997-12.873 7.051-.209.251-.498.781-.805.541-.348-.279.156-.622.338-.896 2.5-3.673 6.203-5.565 10.289-6.847 5.656-1.774 11.527-2.273 17.389-2.777 4.031-.349 8.061-.691 12.096-1.008 1.889-.14 3.549-.853 5.135-1.828 4.461-2.751 9.109-5.029 14.434-5.539.68-.067 1.362-.12 2.057-.184"/><path opacity=".6" fill="#8F98A1" d="M698.389 26.542c-.371 1.845-1.244 3.587-2.178 5.286-2.619 4.772-6.24 8.675-10.471 12.05-.242.19-.461.697-.863.327-.084-.078.123-.584.301-.809.398-.491.82-.963 1.299-1.367 4.129-3.472 7.16-7.791 9.707-12.487.18-.33.594-.635.316-1.113-.303.198-.633.362-.904.595-5.879 5.083-11.76 10.168-17.631 15.259-10.287 8.911-21.16 16.911-33.764 22.326-7.996 3.442-16.291 5.844-24.852 7.361-1.191.215-2.406.226-3.615.134-.357-.026-.879.006-.912-.429-.043-.606.574-.499.939-.53 3.887-.349 7.688-1.148 11.436-2.183 3.689-1.024 7.385-2.043 10.924-3.538 1.703-.719 3.338-1.571 4.695-2.842 7.254-6.777 15.15-12.825 22.314-19.704 1.363-1.308 2.715-2.63 4.096-3.925.295-.273.676-.632 1.109-.402.457.247.328.767.172 1.134-1.115 2.627-2.461 5.113-4.584 7.085-.166.15-.381.477-.633.268-.262-.22.025-.477.156-.676.986-1.485 2.08-2.906 2.824-4.541.076-.172.166-.499.092-.552-.203-.155-.348.086-.484.22-6.861 6.826-14.506 12.771-21.68 19.243-.268.24-.5.531-.746.799.479.268.797-.129 1.131-.306a204.395 204.395 0 0 0 25.125-15.629c8.213-5.979 15.945-12.509 23.064-19.766.773-.791 1.594-1.525 2.543-2.104.27-.164.561-.349.873-.134.304.21.253.548.201.95M655.469 79.37c-4.541-.018-8.986-.842-13.441-1.604-.359-.064-.99-.043-.869-.627.08-.408.629-.284.971-.246 2.346.251 4.686.627 7.039.787 7.354.504 14.568-.364 21.627-2.472.9-.268 1.756-.696 2.609-1.099.457-.221 1.109-.45.996-1.062-.113-.648-.814-.557-1.311-.552-2.207.017-4.422-.032-6.617.14-4.764.375-9.516.869-14.275 1.313-.287.026-.729.215-.781-.183-.059-.449.439-.541.781-.573 2.51-.226 5.031-.386 7.531-.638 8.023-.815 15.465-3.356 22.307-7.63.223-.14.461-.268.643-.45.494-.493 1.561-.857 1.242-1.588-.26-.6-1.326-.455-2.051-.391-2.469.209-4.857.848-7.266 1.383a882.971 882.971 0 0 1-11.854 2.563c-2.365.498-4.713 1.04-6.928 2.054-.316.145-.785.466-.959.059-.162-.381.381-.601.707-.697 2.617-.793 5.121-1.871 7.604-3.002 5.211-2.365 10.514-4.553 15.586-7.185 4.066-2.112 7.449-5.261 10.609-8.584.27-.284.754-.665.479-1.04-.268-.365-.795-.07-1.164.097-2.455 1.077-5.02 1.85-7.572 2.665-.451.145-.883.327-1.338.456-.287.081-.688.236-.793-.183-.104-.38.277-.536.566-.616 1.475-.413 2.869-1.029 4.258-1.646 2.203-.979 4.361-2.094 6.764-2.544.641-.118 1.402-.555 1.885.169.412.62.113 1.33-.18 1.957-.582 1.26-1.504 2.268-2.453 3.255-4.896 5.04-10.932 8.272-17.27 11.05-.568.246-1.213.354-1.641.863.639.332 1.217-.075 1.799-.193 2.885-.584 5.73-1.335 8.662-1.672 1.289-.146 2.941-.488 3.564.852.676 1.453-.91 2.284-1.854 3.104-2.564 2.23-5.553 3.759-8.691 5.019-.344.14-.979.092-.939.639.033.38.596.32.908.477.189.092.408.102.609.172 1.525.52 1.699 1.228.455 2.3-1.9 1.646-4.176 2.606-6.572 3.281-4.372 1.232-8.853 1.757-13.382 1.822"/><path opacity=".6" fill="#8F98A1" d="M659.521 14.199c.021 5.056-1.131 9.897-2.738 14.637-1.346 3.978-2.812 7.914-4.242 11.86-.107.289-.123.857-.613.713-.287-.086-.186-.563-.111-.858.172-.659.342-1.319.58-1.957 2.373-6.349 4.791-12.686 5.697-19.452.438-3.265 1.035-6.568-.08-9.833-.283-.821-.387-1.999-1.436-2.019-1.045-.013-1.244 1.157-1.512 1.977-1.281 3.908-1.768 7.993-2.463 12.02-1.848 10.616-5.086 20.798-9.406 30.636-1.471 3.351-3.506 6.45-5.811 9.335a499.308 499.308 0 0 1-4.48 5.496c-.369.434-.801.824-1.24 1.195-.191.166-.506.278-.721.074-.365-.332.023-.525.209-.744.568-.688 1.113-1.4 1.721-2.055 6.637-7.152 10.695-15.677 13.789-24.855 2.885-8.568 4.346-17.398 5.893-26.234.377-2.123.84-4.236 1.979-6.111.465-.763 1.01-1.564 2.027-1.554 1.102.008 1.609.862 2.059 1.721 1.003 1.895.896 3.96.899 6.008M666.717 22.896c-.131 4.176-1.629 7.747-3.355 11.253-1.828 3.721-3.818 7.356-6.02 10.878-.146.236-.457.472-.24.837.223-.19.475-.354.656-.574 2.656-3.254 5.303-6.515 7.951-9.774.666-.82 1.387-1.582 2.236-2.209.406-.3.865-.756 1.404-.466.477.255.301.847.295 1.292-.012.523-.033 1.067-.193 1.555-1.029 3.066-2.686 5.801-4.605 8.38-.186.244-.375.775-.793.477-.268-.188.027-.579.141-.858.486-1.174 1.221-2.198 1.924-3.244.996-1.49 1.828-3.067 2.363-4.782.135-.429.473-1.024.037-1.287-.342-.209-.66.391-.941.681-2.672 2.756-5.076 5.742-7.449 8.753-3.875 4.903-7.65 9.889-12.379 14.045-.391.348-.777.702-1.195 1.023-.18.135-.387.515-.619.242-.16-.193.131-.479.328-.623 1.191-.9 1.98-2.149 2.945-3.254 5.98-6.869 10.189-14.831 14.061-22.98 1.354-2.853 2.18-5.914 2.361-9.099.043-.681.312-1.694-.471-1.946-.66-.214-1.057.713-1.436 1.255-3.633 5.153-5.836 11.013-8.299 16.75-.518 1.204-1.117 2.375-1.697 3.549-.08.155-.279.254-.424.378.008-.196-.043-.416.027-.59 2.65-7.134 5.262-14.288 9.375-20.763.279-.439.578-.879.916-1.276.426-.504.807-1.217 1.641-.941.822.271 1.254.927 1.352 1.777.066.576.079 1.15.103 1.541M614.395 62.914c-.027.601-.436.467-.672.354a17.855 17.855 0 0 1-1.902-1.11c-2.107-1.389-4.381-2.262-6.932-2.3-1.145-.011-2.172-.386-3.111-.987-1.369-.873-2.766-1.254-4.311-.492-.23.117-.51.3-.643-.043-.123-.301.176-.478.406-.568.68-.285 1.359-.574 2.066-.777 1.08-.312 1.992-.746 2.713-1.717.895-1.211 2.691-1.099 3.414.338 1.201 2.402 3.25 3.619 5.492 4.708 1.045.509 1.992 1.174 2.871 1.94.234.199.425.451.609.654m-11.186-4.031c1.312-.033 2.285-.88 2.207-1.877-.098-1.174-.885-1.592-1.945-1.576s-2.031 1.062-1.924 2.069c.111 1.046.863 1.324 1.662 1.384"/><path opacity=".6" fill="#8F98A1" d="M603.215 56.39c.488.016.801.272.873.739.064.396-.068.783-.531.799-.529.016-.926-.295-1.012-.814-.065-.424.279-.633.67-.724M614.121 155.616c-6.75-.096-14.279-1.014-21.535-3.625-1.836-.658-3.545-1.586-5.307-2.396-.363-.166-.926-.424-.732-.873.256-.617.818-.236 1.209-.037 9.822 5.066 20.359 6.438 31.211 5.779 8.467-.516 16.557-2.66 24.191-6.445 8.273-4.102 13.646-10.734 16.6-19.322 3.854-11.207 4.119-22.342-1.447-33.172-.623-1.207-1.395-2.344-2.137-3.49-.309-.479-.689-.939-1.322-1.041-.502-.08-1.125-.418-1.469.012-.252.311.316.701.51 1.061.773 1.447.381 2.322-1.33 2.746-2.582.643-5.111.24-7.607-.506-3.404-1.029-6.432-2.82-9.422-4.686-.645-.402-1.285-1.164-1.939.135-.33.639-1.217.525-1.898.467-2.529-.209-4.756-1.234-6.824-2.633-3.344-2.268-5.545-5.555-7.832-8.76-.168-.243-.594-.645-.09-.923.506-.278.727.23.967.558 1.861 2.487 3.893 4.825 6.311 6.799 2.1 1.709 4.373 3.104 7.096 3.57.58.102 1.424.406 1.717-.23.275-.584-.549-.912-.957-1.266-1.861-1.625-3.502-3.484-5.506-4.949-.424-.311-1.273-.746-.875-1.232.445-.553 1.008.209 1.396.572 5.293 4.891 11.51 8.225 18.176 10.799 1.719.666 3.465 1.281 5.338 1.229.955-.027 2.369.092 2.451-1.084.074-1.1-.816-2.23-2.107-2.428-5.486-.842-9.467-4.301-13.512-7.662-.354-.295-1.109-.703-.732-1.164.379-.455.953.139 1.312.467 3.328 3.062 7.039 5.457 11.395 6.814 5.248 1.635 10.496 2.059 15.779.236a16.113 16.113 0 0 0 1.879-.805c.604-.295.605-.691.041-1.035-1.885-1.146-3.713-2.031-6.139-1.951-6.783.227-13.381-.928-19.637-3.688-.318-.141-.832-.252-.648-.715.207-.541.713-.268 1.098-.16 3.383.955 6.707 2.119 10.172 2.787 5.666 1.094 11.271 1.25 16.717-1.061.545-.23 1.49-.328 1.361-1.039-.117-.65-1.035-.537-1.643-.57-2.201-.117-4.404-.197-6.611-.311-.18-.01-.504-.123-.504-.193-.008-.277.273-.277.467-.277 2.625-.006 5.256-.08 7.867.256.564.076 1.186.279 1.381.906.223.713-.289 1.197-.752 1.609-1.047.932-2.354 1.352-3.646 1.791-.287.102-.691.133-.688.498.006.156.365.328.58.461.943.6 2.354.912 2.133 2.387-.209 1.414-1.494 1.93-2.68 2.391-1.43.559-2.928.848-4.451.959-.824.064-.922.332-.543 1.096 6.463 13.092 6.18 26.389.691 39.621-3.123 7.537-9.141 12.578-16.141 16.465-9.477 5.258-19.752 7.215-31.383 7.258"/><path opacity=".6" fill="#8F98A1" d="M605.713 52.321c5.193.24 9.625 2.326 13.535 5.661 3.504 2.987 6.25 6.659 9.158 10.183.258.315.826.76.287 1.179-.408.321-.896-.091-1.25-.397-1.779-1.506-3.148-3.372-4.52-5.232-3.184-4.326-7.217-7.447-12.463-8.867-4.334-1.18-8.6-1.19-12.795.654-2.16.948-4.396 1.747-6.447 2.922-.244.139-.684.246-.49.648.066.134.467.155.707.145.84-.037 1.678-.15 2.516-.155.566-.005 1.238 0 1.447.691.209.719-.102 1.335-.682 1.796-.748.596-1.648.611-2.543.665-.215.011-.57-.226-.621.183-.016.112.262.284.43.386 1.395.837 2.82 1.624 4.193 2.499 9.076 5.801 15.092 14.159 19.672 23.692 1.021 2.123 1.031 4.477 1.404 6.756 1.568 9.736 4.297 19.061 10.305 27.107 4.691 6.285 10.715 10.58 18.514 12.209 1.215.258 2.514.492 3.5 1.42-1.275.199-2.512-.127-3.738-.348-6.885-1.232-12.498-4.756-17.268-9.742-7.371-7.711-11.537-17.141-12.332-27.531-.748-9.893-5.174-17.51-11.363-24.604-2.881-3.298-5.996-6.322-9.742-8.648-3.66-2.279-7.59-3.432-11.906-3.635-8.604-.402-17.129.311-25.568 1.85-4.99.911-9.514 2.997-12.873 7.051-.209.251-.498.781-.805.541-.348-.279.156-.622.338-.896 2.5-3.673 6.203-5.565 10.289-6.847 5.656-1.774 11.527-2.273 17.389-2.777 4.031-.349 8.061-.691 12.096-1.008 1.889-.14 3.549-.853 5.135-1.828 4.461-2.751 9.109-5.029 14.434-5.539.68-.067 1.362-.12 2.057-.184"/><text transform="translate(183.533 105.708)"><tspan x="0" y="0" fill="#8F98A1" font-family="'Lora-Italic'" font-size="16.668">M</tspan><tspan x="15.451" y="0" fill="#8F98A1" font-family="'Lora-Italic'" font-size="16.668">B</tspan></text><text transform="translate(209.47 105.708)"><tspan x="0" y="0" fill="#8F98A1" font-family="'Lora-Italic'" font-size="16.668">A</tspan><tspan x="10.65" y="0" fill="#8F98A1" font-family="'Lora-Italic'" font-size="16.668">,</tspan></text><text transform="translate(224.236 105.708)"><tspan x="0" y="0" fill="#8F98A1" font-family="'Lora-Italic'" font-size="16.668"></tspan><tspan x="4.533" y="0" fill="#8F98A1" font-family="'Lora-Italic'" font-size="16.668">B</tspan></text><text transform="translate(239.27 105.708)" fill="#8F98A1" font-family="'Lora-Italic'" font-size="16.668">S</text><text transform="translate(248.853 105.708)" fill="#8F98A1" font-family="'Lora-Italic'" font-size="16.668">c</text><text transform="translate(256.904 105.708)" fill="#8F98A1" font-family="'Lora-Italic'" font-size="16.668"></text><text transform="translate(261.435 105.708)" fill="#8F98A1" font-family="'Lora-Italic'" font-size="16.668">(OT</text><text transform="translate(290.139 105.708)"><tspan x="0" y="0" fill="#8F98A1" font-family="'Lora-Italic'" font-size="16.668">),</tspan><tspan x="9.217" y="0" fill="#8F98A1" font-family="'Lora-Italic'" font-size="16.668"></tspan></text><text transform="translate(303.89 105.708)" fill="#8F98A1" font-family="'Lora-Italic'" font-size="16.668">B</text><text transform="translate(314.375 105.708)" fill="#8F98A1" font-family="'Lora-Italic'" font-size="16.668">S</text><text transform="translate(323.959 105.708)" fill="#8F98A1" font-family="'Lora-Italic'" font-size="16.668">c</text><text transform="translate(332.01 105.708)"><tspan x="0" y="0" fill="#8F98A1" font-family="'Lora-Italic'" font-size="16.668"></tspan><tspan x="4.516" y="0" fill="#8F98A1" font-family="'Lora-Italic'" font-size="16.668">(</tspan></text><text transform="translate(341.658 105.708)" fill="#8F98A1" font-family="'Lora-Italic'" font-size="16.668">P</text><text transform="translate(351.775 105.708)" fill="#8F98A1" font-family="'Lora-Italic'" font-size="16.668">s</text><text transform="translate(359.059 105.708)"><tspan x="0" y="0" fill="#8F98A1" font-family="'Lora-Italic'" font-size="16.668">y</tspan><tspan x="8.717" y="0" fill="#8F98A1" font-family="'Lora-Italic'" font-size="16.668">c</tspan></text><text transform="translate(375.844 105.708)" fill="#8F98A1" font-family="'Lora-Italic'" font-size="16.668">h</text><text transform="translate(385.527 105.708)" fill="#8F98A1" font-family="'Lora-Italic'" font-size="16.668">)</text><text transform="translate(390.66 105.708)"><tspan x="0" y="0" fill="#8F98A1" font-family="'Lora-Italic'" font-size="16.668">,</tspan><tspan x="4.102" y="0" fill="#8F98A1" font-family="'Lora-Italic'" font-size="16.668"> I</tspan><tspan x="14.301" y="0" fill="#8F98A1" font-family="'Lora-Italic'" font-size="16.668">n</tspan><tspan x="24.701" y="0" fill="#8F98A1" font-family="'Lora-Italic'" font-size="16.668">t</tspan></text><text transform="translate(421.603 105.708)" fill="#8F98A1" font-family="'Lora-Italic'" font-size="16.668">e</text><text transform="translate(429.713 105.708)" fill="#8F98A1" font-family="'Lora-Italic'" font-size="16.668">g</text><text transform="translate(438.498 105.708)" fill="#8F98A1" font-family="'Lora-Italic'" font-size="16.668">r</text><text transform="translate(446.246 105.708)" fill="#8F98A1" font-family="'Lora-Italic'" font-size="16.668">a</text><text transform="translate(455.531 105.708)" fill="#8F98A1" font-family="'Lora-Italic'" font-size="16.668">l</text><text transform="translate(460.416 105.708)" fill="#8F98A1" font-family="'Lora-Italic'" font-size="16.668"></text><text transform="translate(464.947 105.708)" fill="#8F98A1" font-family="'Lora-Italic'" font-size="16.668">M</text><text transform="translate(480.4 105.708)" fill="#8F98A1" font-family="'Lora-Italic'" font-size="16.668">a</text><text transform="translate(489.682 105.708)" fill="#8F98A1" font-family="'Lora-Italic'" font-size="16.668">s</text><text transform="translate(496.984 105.708)" fill="#8F98A1" font-family="'Lora-Italic'" font-size="16.668">t</text><text transform="translate(503.2 105.708)" fill="#8F98A1" font-family="'Lora-Italic'" font-size="16.668">e</text><text transform="translate(511.316 105.708)"><tspan x="0" y="0" fill="#8F98A1" font-family="'Lora-Italic'" font-size="16.668">r Co</tspan><tspan x="32.617" y="0" fill="#8F98A1" font-family="'Lora-Italic'" font-size="16.668">a</tspan></text><text transform="translate(553.287 105.708)" fill="#8F98A1" font-family="'Lora-Italic'" font-size="16.668">c</text><text transform="translate(561.354 105.708)" fill="#8F98A1" font-family="'Lora-Italic'" font-size="16.668">h</text><text transform="translate(571.04 105.708)" fill="#8F98A1" font-family="'Lora-Italic'" font-size="16.668">™</text></svg>