<svg version="1.1" id="Layer_1" xmlns="http://www.w3.org/2000/svg" x="0" y="0" width="694.429" height="162.073" viewBox="0 0 694.429 162.073" xml:space="preserve"><path opacity=".6" fill="#8F98A1" d="M610.121 155.617c-6.75-.097-14.277-1.015-21.533-3.625-1.837-.658-3.546-1.587-5.309-2.396-.362-.166-.926-.425-.73-.873.256-.617.816-.236 1.209-.037 9.82 5.065 20.357 6.438 31.211 5.778 8.467-.517 16.557-2.659 24.189-6.444 8.273-4.103 13.646-10.734 16.602-19.322 3.854-11.207 4.119-22.342-1.447-33.172-.623-1.207-1.396-2.344-2.137-3.49-.311-.479-.689-.938-1.322-1.041-.502-.08-1.125-.418-1.469.012-.252.312.314.701.51 1.062.771 1.447.381 2.322-1.33 2.746-2.582.644-5.111.24-7.607-.506-3.402-1.029-6.432-2.82-9.422-4.688-.645-.4-1.285-1.164-1.938.135-.33.641-1.218.525-1.898.469-2.528-.209-4.756-1.234-6.824-2.635-3.344-2.268-5.545-5.555-7.831-8.76-.169-.242-.595-.645-.091-.923.506-.278.729.23.968.558 1.86 2.488 3.894 4.826 6.312 6.801 2.1 1.709 4.373 3.104 7.096 3.568.58.104 1.425.406 1.718-.229.274-.584-.55-.912-.957-1.268-1.86-1.625-3.502-3.482-5.507-4.947-.424-.312-1.271-.746-.875-1.232.445-.553 1.009.21 1.396.572 5.293 4.892 11.51 8.226 18.176 10.799 1.719.666 3.465 1.281 5.338 1.229.955-.026 2.369.093 2.451-1.084.074-1.101-.815-2.229-2.106-2.428-5.485-.843-9.468-4.302-13.513-7.662-.354-.295-1.108-.703-.731-1.164.38-.455.953.14 1.312.468 3.328 3.062 7.039 5.457 11.396 6.813 5.248 1.635 10.496 2.06 15.778.235a16.067 16.067 0 0 0 1.88-.807c.604-.295.604-.689.041-1.033-1.886-1.146-3.714-2.031-6.14-1.951-6.783.228-13.381-.929-19.637-3.688-.318-.141-.832-.252-.648-.715.207-.541.713-.268 1.099-.16 3.384.955 6.707 2.119 10.173 2.787 5.666 1.094 11.271 1.25 16.717-1.061.545-.23 1.49-.328 1.36-1.039-.116-.65-1.034-.537-1.644-.57-2.201-.117-4.403-.197-6.61-.311-.181-.011-.505-.123-.505-.193-.008-.277.273-.277.468-.277 2.625-.006 5.257-.08 7.866.257.564.075 1.188.278 1.382.905.224.713-.289 1.197-.753 1.609-1.047.932-2.354 1.352-3.646 1.791-.287.102-.691.133-.688.498.007.156.365.328.58.461.943.6 2.354.912 2.134 2.387-.209 1.414-1.493 1.93-2.681 2.392-1.43.56-2.928.849-4.451.96-.822.062-.922.331-.543 1.096 6.464 13.092 6.182 26.39.691 39.621-3.123 7.537-9.142 12.578-16.142 16.465-9.482 5.257-19.755 7.213-31.388 7.257"/><path opacity=".6" fill="#8F98A1" d="M601.715 52.321c5.191.24 9.625 2.326 13.533 5.661 3.506 2.987 6.25 6.659 9.158 10.183.258.315.826.76.287 1.18-.408.32-.896-.092-1.25-.397-1.779-1.506-3.146-3.372-4.52-5.232-3.186-4.325-7.219-7.446-12.464-8.866-4.334-1.181-8.601-1.19-12.796.653-2.158.948-4.396 1.747-6.445 2.922-.244.14-.686.246-.49.648.065.134.467.155.707.145.84-.036 1.678-.149 2.516-.154.566-.005 1.238 0 1.447.69.209.72-.102 1.335-.682 1.796-.748.597-1.648.611-2.543.665-.217.012-.57-.226-.621.184-.018.111.262.284.43.386 1.396.837 2.82 1.624 4.193 2.499 9.075 5.801 15.092 14.159 19.672 23.692 1.021 2.123 1.03 4.477 1.403 6.756 1.567 9.735 4.298 19.061 10.306 27.106 4.689 6.285 10.715 10.58 18.514 12.209 1.215.259 2.515.492 3.5 1.42-1.274.199-2.512-.127-3.737-.348-6.886-1.231-12.498-4.757-17.269-9.742-7.371-7.711-11.537-17.142-12.332-27.53-.748-9.894-5.174-17.511-11.363-24.604-2.881-3.298-5.995-6.322-9.74-8.648-3.66-2.278-7.592-3.432-11.906-3.635-8.604-.401-17.129.312-25.568 1.851-4.989.911-9.514 2.997-12.873 7.051-.209.251-.498.781-.805.541-.348-.279.156-.622.338-.896 2.5-3.673 6.203-5.564 10.289-6.847 5.656-1.774 11.527-2.273 17.389-2.777 4.031-.349 8.062-.69 12.098-1.008 1.889-.14 3.549-.853 5.135-1.828 4.461-2.751 9.108-5.028 14.434-5.539.678-.07 1.358-.123 2.055-.187"/><path opacity=".6" fill="#8F98A1" d="M694.389 26.542c-.371 1.846-1.244 3.587-2.178 5.286-2.619 4.772-6.24 8.675-10.473 12.05-.242.19-.461.697-.861.327-.084-.078.123-.584.301-.809.396-.491.82-.963 1.299-1.367 4.129-3.472 7.16-7.791 9.707-12.487.18-.33.594-.635.316-1.112-.305.197-.635.361-.904.595-5.879 5.083-11.76 10.168-17.631 15.259-10.287 8.911-21.16 16.911-33.766 22.326-7.995 3.442-16.291 5.844-24.852 7.361-1.191.215-2.406.226-3.615.134-.355-.026-.879.006-.912-.43-.043-.605.574-.498.939-.529 3.887-.35 7.688-1.148 11.436-2.184 3.689-1.023 7.387-2.043 10.925-3.538 1.702-.719 3.339-1.57 4.694-2.842 7.254-6.776 15.15-12.825 22.314-19.704 1.361-1.308 2.715-2.63 4.096-3.925.295-.272.676-.632 1.109-.402.457.247.327.768.172 1.135-1.115 2.627-2.461 5.112-4.584 7.085-.166.149-.381.477-.633.268-.264-.22.023-.477.154-.676.986-1.485 2.08-2.906 2.824-4.541.076-.172.166-.499.092-.552-.203-.155-.348.086-.482.22-6.861 6.826-14.506 12.771-21.682 19.243-.268.24-.5.531-.746.799.479.268.799-.129 1.133-.306a204.516 204.516 0 0 0 25.125-15.629c8.213-5.979 15.943-12.51 23.062-19.767.773-.791 1.594-1.524 2.543-2.104.271-.164.562-.35.873-.135.308.211.257.549.205.951M651.469 79.371c-4.541-.019-8.986-.843-13.441-1.604-.357-.064-.99-.043-.869-.627.08-.408.629-.284.973-.246 2.346.251 4.686.627 7.039.787 7.354.504 14.566-.364 21.627-2.473.898-.268 1.756-.695 2.607-1.099.457-.221 1.109-.45.996-1.062-.113-.647-.812-.557-1.311-.552-2.207.018-4.422-.032-6.617.141-4.764.375-9.517.868-14.275 1.312-.287.026-.729.215-.781-.183-.059-.449.439-.541.781-.573 2.51-.227 5.031-.386 7.531-.638 8.023-.815 15.465-3.356 22.307-7.631.225-.14.461-.268.645-.449.494-.493 1.561-.857 1.242-1.588-.262-.601-1.326-.455-2.053-.392-2.469.209-4.855.849-7.266 1.383a867.698 867.698 0 0 1-11.854 2.563c-2.364.498-4.714 1.04-6.929 2.054-.314.146-.785.466-.959.06-.162-.382.381-.602.707-.697 2.617-.793 5.121-1.871 7.604-3.002 5.211-2.365 10.514-4.553 15.586-7.186 4.064-2.111 7.448-5.261 10.607-8.584.271-.283.755-.665.479-1.04-.27-.364-.795-.069-1.164.098-2.455 1.077-5.021 1.85-7.572 2.665-.451.145-.883.327-1.338.456-.287.081-.688.235-.793-.184-.104-.38.276-.536.565-.616 1.476-.412 2.868-1.028 4.259-1.646 2.202-.979 4.359-2.094 6.764-2.544.641-.118 1.402-.555 1.885.169.412.62.113 1.33-.18 1.957-.582 1.26-1.504 2.268-2.453 3.255-4.896 5.04-10.932 8.272-17.271 11.05-.567.246-1.213.354-1.642.863.64.332 1.217-.075 1.799-.193 2.886-.584 5.73-1.335 8.662-1.672 1.289-.146 2.941-.488 3.564.853.676 1.453-.91 2.283-1.854 3.104-2.562 2.23-5.553 3.759-8.689 5.02-.345.14-.979.092-.939.639.033.38.597.32.908.477.188.093.408.103.608.173 1.524.52 1.698 1.228.455 2.3-1.899 1.646-4.177 2.605-6.571 3.28-4.369 1.231-8.85 1.756-13.379 1.822"/><path opacity=".6" fill="#8F98A1" d="M655.521 14.199c.021 5.056-1.131 9.897-2.738 14.637-1.346 3.979-2.812 7.914-4.241 11.86-.106.289-.122.857-.612.713-.287-.086-.188-.562-.111-.857.172-.659.342-1.319.58-1.957 2.373-6.35 4.791-12.687 5.697-19.452.438-3.266 1.035-6.568-.08-9.833-.283-.821-.387-1.999-1.438-2.02-1.045-.013-1.242 1.157-1.512 1.978-1.281 3.907-1.768 7.993-2.463 12.02-1.848 10.616-5.086 20.798-9.406 30.636-1.471 3.352-3.506 6.45-5.811 9.335a503.608 503.608 0 0 1-4.48 5.496c-.369.435-.801.824-1.239 1.195-.19.166-.507.278-.722.074-.364-.332.023-.525.209-.744.568-.688 1.113-1.4 1.722-2.055 6.638-7.152 10.694-15.678 13.789-24.855 2.886-8.568 4.347-17.397 5.894-26.233.377-2.123.84-4.236 1.979-6.111.467-.763 1.012-1.564 2.027-1.554 1.102.008 1.609.861 2.059 1.721 1.002 1.893.894 3.958.897 6.006M662.719 22.896c-.131 4.176-1.629 7.747-3.355 11.253-1.828 3.721-3.816 7.355-6.02 10.878-.146.236-.457.472-.24.837.223-.19.475-.354.656-.574 2.655-3.254 5.303-6.515 7.951-9.773.666-.82 1.387-1.582 2.234-2.209.406-.301.865-.756 1.404-.467.477.256.301.848.295 1.292-.012.523-.033 1.067-.193 1.556-1.027 3.065-2.686 5.801-4.604 8.38-.188.244-.375.775-.793.477-.27-.188.025-.579.141-.857.486-1.174 1.221-2.198 1.924-3.244.996-1.49 1.828-3.067 2.363-4.782.135-.429.473-1.023.037-1.287-.342-.209-.66.392-.941.682-2.672 2.756-5.075 5.741-7.447 8.753-3.875 4.902-7.65 9.889-12.381 14.045-.391.348-.775.702-1.193 1.022-.182.136-.388.516-.619.242-.16-.193.131-.479.328-.623 1.189-.899 1.979-2.148 2.943-3.254 5.98-6.869 10.189-14.831 14.062-22.979 1.354-2.854 2.18-5.914 2.361-9.1.043-.681.312-1.693-.473-1.946-.659-.214-1.057.714-1.436 1.256-3.633 5.152-5.836 11.013-8.299 16.75-.52 1.203-1.117 2.375-1.697 3.549-.08.154-.279.254-.424.378.008-.196-.043-.416.025-.59 2.65-7.135 5.264-14.288 9.375-20.764.279-.438.578-.879.916-1.275.428-.504.809-1.217 1.643-.941.821.271 1.254.927 1.352 1.777.066.573.079 1.147.105 1.538M610.395 62.914c-.027.602-.436.467-.672.354a17.855 17.855 0 0 1-1.902-1.11c-2.105-1.389-4.381-2.262-6.932-2.3-1.146-.011-2.172-.386-3.111-.987-1.369-.873-2.766-1.254-4.311-.492-.23.117-.51.301-.645-.043-.123-.301.178-.478.406-.567.68-.285 1.359-.574 2.066-.777 1.08-.312 1.99-.746 2.713-1.717.895-1.211 2.689-1.1 3.414.338 1.199 2.402 3.25 3.619 5.49 4.708 1.047.509 1.992 1.174 2.871 1.94.238.198.431.45.613.653m-11.184-4.031c1.312-.032 2.283-.88 2.206-1.877-.099-1.174-.886-1.592-1.944-1.575-1.062.016-2.031 1.062-1.924 2.068.109 1.046.861 1.324 1.662 1.384"/><path opacity=".6" fill="#8F98A1" d="M599.217 56.39c.486.016.801.271.873.738.062.396-.068.783-.531.8-.529.016-.926-.296-1.012-.814-.067-.424.277-.633.67-.724M610.121 155.617c-6.75-.097-14.277-1.015-21.533-3.625-1.837-.658-3.546-1.587-5.309-2.396-.362-.166-.926-.425-.73-.873.256-.617.816-.236 1.209-.037 9.82 5.065 20.357 6.438 31.211 5.778 8.467-.517 16.557-2.659 24.189-6.444 8.273-4.103 13.646-10.734 16.602-19.322 3.854-11.207 4.119-22.342-1.447-33.172-.623-1.207-1.396-2.344-2.137-3.49-.311-.479-.689-.938-1.322-1.041-.502-.08-1.125-.418-1.469.012-.252.312.314.701.51 1.062.771 1.447.381 2.322-1.33 2.746-2.582.644-5.111.24-7.607-.506-3.402-1.029-6.432-2.82-9.422-4.688-.645-.4-1.285-1.164-1.938.135-.33.641-1.218.525-1.898.469-2.528-.209-4.756-1.234-6.824-2.635-3.344-2.268-5.545-5.555-7.831-8.76-.169-.242-.595-.645-.091-.923.506-.278.729.23.968.558 1.86 2.488 3.894 4.826 6.312 6.801 2.1 1.709 4.373 3.104 7.096 3.568.58.104 1.425.406 1.718-.229.274-.584-.55-.912-.957-1.268-1.86-1.625-3.502-3.482-5.507-4.947-.424-.312-1.271-.746-.875-1.232.445-.553 1.009.21 1.396.572 5.293 4.892 11.51 8.226 18.176 10.799 1.719.666 3.465 1.281 5.338 1.229.955-.026 2.369.093 2.451-1.084.074-1.101-.815-2.229-2.106-2.428-5.485-.843-9.468-4.302-13.513-7.662-.354-.295-1.108-.703-.731-1.164.38-.455.953.14 1.312.468 3.328 3.062 7.039 5.457 11.396 6.813 5.248 1.635 10.496 2.06 15.778.235a16.067 16.067 0 0 0 1.88-.807c.604-.295.604-.689.041-1.033-1.886-1.146-3.714-2.031-6.14-1.951-6.783.228-13.381-.929-19.637-3.688-.318-.141-.832-.252-.648-.715.207-.541.713-.268 1.099-.16 3.384.955 6.707 2.119 10.173 2.787 5.666 1.094 11.271 1.25 16.717-1.061.545-.23 1.49-.328 1.36-1.039-.116-.65-1.034-.537-1.644-.57-2.201-.117-4.403-.197-6.61-.311-.181-.011-.505-.123-.505-.193-.008-.277.273-.277.468-.277 2.625-.006 5.257-.08 7.866.257.564.075 1.188.278 1.382.905.224.713-.289 1.197-.753 1.609-1.047.932-2.354 1.352-3.646 1.791-.287.102-.691.133-.688.498.007.156.365.328.58.461.943.6 2.354.912 2.134 2.387-.209 1.414-1.493 1.93-2.681 2.392-1.43.56-2.928.849-4.451.96-.822.062-.922.331-.543 1.096 6.464 13.092 6.182 26.39.691 39.621-3.123 7.537-9.142 12.578-16.142 16.465-9.482 5.257-19.755 7.213-31.388 7.257"/><path opacity=".6" fill="#8F98A1" d="M601.715 52.321c5.191.24 9.625 2.326 13.533 5.661 3.506 2.987 6.25 6.659 9.158 10.183.258.315.826.76.287 1.18-.408.32-.896-.092-1.25-.397-1.779-1.506-3.146-3.372-4.52-5.232-3.186-4.325-7.219-7.446-12.464-8.866-4.334-1.181-8.601-1.19-12.796.653-2.158.948-4.396 1.747-6.445 2.922-.244.14-.686.246-.49.648.065.134.467.155.707.145.84-.036 1.678-.149 2.516-.154.566-.005 1.238 0 1.447.69.209.72-.102 1.335-.682 1.796-.748.597-1.648.611-2.543.665-.217.012-.57-.226-.621.184-.018.111.262.284.43.386 1.396.837 2.82 1.624 4.193 2.499 9.075 5.801 15.092 14.159 19.672 23.692 1.021 2.123 1.03 4.477 1.403 6.756 1.567 9.735 4.298 19.061 10.306 27.106 4.689 6.285 10.715 10.58 18.514 12.209 1.215.259 2.515.492 3.5 1.42-1.274.199-2.512-.127-3.737-.348-6.886-1.231-12.498-4.757-17.269-9.742-7.371-7.711-11.537-17.142-12.332-27.53-.748-9.894-5.174-17.511-11.363-24.604-2.881-3.298-5.995-6.322-9.74-8.648-3.66-2.278-7.592-3.432-11.906-3.635-8.604-.401-17.129.312-25.568 1.851-4.989.911-9.514 2.997-12.873 7.051-.209.251-.498.781-.805.541-.348-.279.156-.622.338-.896 2.5-3.673 6.203-5.564 10.289-6.847 5.656-1.774 11.527-2.273 17.389-2.777 4.031-.349 8.062-.69 12.098-1.008 1.889-.14 3.549-.853 5.135-1.828 4.461-2.751 9.108-5.028 14.434-5.539.678-.07 1.358-.123 2.055-.187"/><text transform="translate(179.533 105.708)" fill="#8F98A1" font-family="'Lora-Italic'" font-size="16.668">M</text><text transform="translate(194.985 105.708)" fill="#8F98A1" font-family="'Lora-Italic'" font-size="16.668">B</text><text transform="translate(205.47 105.708)" fill="#8F98A1" font-family="'Lora-Italic'" font-size="16.668">A</text><text transform="translate(216.12 105.708)" fill="#8F98A1" font-family="'Lora-Italic'" font-size="16.668">,</text><text transform="translate(220.237 105.708)" fill="#8F98A1" font-family="'Lora-Italic'" font-size="16.668"></text><text transform="translate(224.77 105.708)" fill="#8F98A1" font-family="'Lora-Italic'" font-size="16.668">B</text><text transform="translate(235.271 105.708)" fill="#8F98A1" font-family="'Lora-Italic'" font-size="16.668">S</text><text transform="translate(244.854 105.708)" fill="#8F98A1" font-family="'Lora-Italic'" font-size="16.668">c</text><text transform="translate(252.905 105.708)" fill="#8F98A1" font-family="'Lora-Italic'" font-size="16.668"></text><text transform="translate(257.436 105.708)" fill="#8F98A1" font-family="'Lora-Italic'" font-size="16.668">(OT</text><text transform="translate(286.14 105.708)" fill="#8F98A1" font-family="'Lora-Italic'" font-size="16.668">),</text><text transform="translate(295.356 105.708)" fill="#8F98A1" font-family="'Lora-Italic'" font-size="16.668"></text><text transform="translate(299.891 105.708)" fill="#8F98A1" font-family="'Lora-Italic'" font-size="16.668">B</text><text transform="translate(310.376 105.708)" fill="#8F98A1" font-family="'Lora-Italic'" font-size="16.668">S</text><text transform="translate(319.96 105.708)" fill="#8F98A1" font-family="'Lora-Italic'" font-size="16.668">c</text><text transform="translate(328.01 105.708)" fill="#8F98A1" font-family="'Lora-Italic'" font-size="16.668"></text><text transform="translate(332.526 105.708)" fill="#8F98A1" font-family="'Lora-Italic'" font-size="16.668">(</text><text transform="translate(337.659 105.708)" fill="#8F98A1" font-family="'Lora-Italic'" font-size="16.668">P</text><text transform="translate(347.775 105.708)" fill="#8F98A1" font-family="'Lora-Italic'" font-size="16.668">s</text><text transform="translate(355.058 105.708)" fill="#8F98A1" font-family="'Lora-Italic'" font-size="16.668">y</text><text transform="translate(363.775 105.708)" fill="#8F98A1" font-family="'Lora-Italic'" font-size="16.668">c</text><text transform="translate(371.844 105.708)" fill="#8F98A1" font-family="'Lora-Italic'" font-size="16.668">h</text><text transform="translate(381.527 105.708)" fill="#8F98A1" font-family="'Lora-Italic'" font-size="16.668">)</text><text transform="translate(386.66 105.708)" fill="#8F98A1" font-family="'Lora-Italic'" font-size="16.668">,</text><text transform="translate(390.762 105.708)" fill="#8F98A1" font-family="'Lora-Italic'" font-size="16.668">I</text><text transform="translate(400.962 105.708)" fill="#8F98A1" font-family="'Lora-Italic'" font-size="16.668">n</text><text transform="translate(411.362 105.708)" fill="#8F98A1" font-family="'Lora-Italic'" font-size="16.668">t</text><text transform="translate(417.604 105.708)" fill="#8F98A1" font-family="'Lora-Italic'" font-size="16.668">e</text><text transform="translate(425.713 105.708)" fill="#8F98A1" font-family="'Lora-Italic'" font-size="16.668">g</text><text transform="translate(434.498 105.708)" fill="#8F98A1" font-family="'Lora-Italic'" font-size="16.668">r</text><text transform="translate(442.246 105.708)" fill="#8F98A1" font-family="'Lora-Italic'" font-size="16.668">a</text><text transform="translate(451.531 105.708)" fill="#8F98A1" font-family="'Lora-Italic'" font-size="16.668">l</text><text transform="translate(456.417 105.708)" fill="#8F98A1" font-family="'Lora-Italic'" font-size="16.668"></text><text transform="translate(460.947 105.708)" fill="#8F98A1" font-family="'Lora-Italic'" font-size="16.668">M</text><text transform="translate(476.4 105.708)" fill="#8F98A1" font-family="'Lora-Italic'" font-size="16.668">a</text><text transform="translate(485.681 105.708)" fill="#8F98A1" font-family="'Lora-Italic'" font-size="16.668">s</text><text transform="translate(492.984 105.708)" fill="#8F98A1" font-family="'Lora-Italic'" font-size="16.668">t</text><text transform="translate(499.199 105.708)" fill="#8F98A1" font-family="'Lora-Italic'" font-size="16.668">e</text><text transform="translate(507.316 105.708)" fill="#8F98A1" font-family="'Lora-Italic'" font-size="16.668">r Co</text><text transform="translate(539.933 105.708)" fill="#8F98A1" font-family="'Lora-Italic'" font-size="16.668">a</text><text transform="translate(549.288 105.708)" fill="#8F98A1" font-family="'Lora-Italic'" font-size="16.668">c</text><text transform="translate(557.353 105.708)" fill="#8F98A1" font-family="'Lora-Italic'" font-size="16.668">h</text><text transform="translate(567.039 105.708)" fill="#8F98A1" font-family="'Lora-Italic'" font-size="16.668">™</text><path fill="#8B5C7A" d="M3 58.054l1.107-1.266c.949 0 2.371-.216 4.268-.628a83.72 83.72 0 0 0 5.771-1.507 918.644 918.644 0 0 1 7.354-2.134c0-1.26.05-3.37.153-6.32.104-2.949.291-6.301.558-10.037.263-3.745.631-7.616 1.104-11.621.476-4.005 1.108-7.667 1.897-10.986.79-3.322 1.765-6.062 2.927-8.225 1.157-2.161 2.527-3.243 4.108-3.243 1.37 0 2.583.87 3.636 2.608 1.053 1.742 1.978 3.983 2.769 6.723.787 2.743 1.42 5.769 1.896 9.087.476 3.319.87 6.509 1.186 9.564.315 3.06.552 5.825.712 8.303.156 2.475.238 4.244.238 5.294a281.954 281.954 0 0 0 4.819-1.977 13.185 13.185 0 0 1 5.138-1.028l.949 1.106c-.104.316-.631.687-1.582 1.107a47.79 47.79 0 0 1-3.161 1.268 50.015 50.015 0 0 1-3.399 1.103 88.241 88.241 0 0 1-2.292.635c.211 2.112.579 5.297 1.107 9.565a277.316 277.316 0 0 0 1.976 13.279c.793 4.584 1.687 8.853 2.688 12.803 1.004 3.957 2.082 6.664 3.243 8.146.524.734 1.317 1.341 2.371 1.818 1.052.473 1.685 1.131 1.897 1.979l-1.109 1.1c-1.578 0-3.031-1.004-4.346-3.004-1.32-2-2.506-4.557-3.555-7.66-1.057-3.109-1.98-6.562-2.771-10.359a194.473 194.473 0 0 1-1.974-10.986c-.529-3.533-.95-6.744-1.267-9.645-.317-2.896-.528-4.981-.631-6.241a564.8 564.8 0 0 0-8.54 3.549 506.08 506.08 0 0 1-8.539 3.561v27.667c0 .418-.104 1.293-.312 2.609-.214 1.317-.634 1.979-1.266 1.979-.631 0-1.025-.479-1.186-1.422-.16-.953-.236-1.748-.236-2.373 0-4.533.103-9.096.312-13.68.212-4.584.318-9.142.318-13.678a91.125 91.125 0 0 1-8.381 2.771 53.858 53.858 0 0 1-8.696 1.657L3 58.054zM32.562 4.935c-1.158 0-2.186 1.003-3.08 3.004-.897 2.004-1.661 4.584-2.295 7.747-.631 3.161-1.158 6.616-1.582 10.352a295.579 295.579 0 0 0-1.025 10.753 241.07 241.07 0 0 0-.552 9.248c-.107 2.748-.16 4.584-.16 5.539a197.881 197.881 0 0 0 8.379-3.642 211.606 211.606 0 0 1 8.38-3.635c-.106-.949-.235-2.552-.397-4.82a221.474 221.474 0 0 0-.708-7.828c-.319-2.948-.689-5.98-1.109-9.093-.42-3.104-.922-5.973-1.501-8.61-.579-2.633-1.238-4.798-1.973-6.486-.74-1.683-1.531-2.529-2.377-2.529M62.599 75.924c-.844 0-1.479-1.265-1.896-3.796-.422-2.53-.739-5.85-.948-9.962-.212-4.111-.449-8.771-.713-13.993-.264-5.211-.631-10.512-1.104-15.887s-1.162-10.567-2.055-15.572c-.897-5.005-2.137-9.405-3.717-13.199l-.157-.634 1.105-1.265c.843 0 1.503.637 1.977 1.898a93.102 93.102 0 0 1 1.027 2.841c1.367 4.956 2.42 10.124 3.162 15.494a239.42 239.42 0 0 1 1.661 16.367c.364 5.533.657 11.044.867 16.519.212 5.479.526 10.811.95 15.967.315-1.367.711-3.371 1.187-6.005a271.878 271.878 0 0 1 1.74-8.776 257.716 257.716 0 0 1 2.289-9.798c.843-3.319 1.792-6.352 2.85-9.092 1.048-2.744 2.21-4.979 3.476-6.718 1.266-1.742 2.688-2.613 4.269-2.613 2.001 0 3.662.817 4.979 2.452 1.317 1.636 2.345 3.561 3.083 5.77a33.629 33.629 0 0 1 1.503 6.796c.261 2.325.395 4.217.395 5.697 0 1.791-.291 4.477-.87 8.059a73.01 73.01 0 0 1-2.604 10.755c-1.163 3.581-2.588 6.718-4.272 9.404-1.689 2.687-3.69 4.033-6.006 4.033-.95 0-1.658-.265-2.135-.795-.477-.52-.816-1.185-1.027-1.973a12.626 12.626 0 0 1-.396-2.53 22.938 22.938 0 0 0-.238-2.289l1.265-1.266.949.787.947 5.379 1.425.154c3.582-3.688 6.321-8.09 8.222-13.199 1.897-5.109 2.843-10.246 2.843-15.415 0-1.051-.157-2.632-.472-4.745a42.588 42.588 0 0 0-1.501-6.401c-.689-2.16-1.529-4.054-2.53-5.688-1.005-1.636-2.188-2.451-3.559-2.451-1.158 0-2.268.869-3.319 2.608-1.057 1.737-2.031 3.976-2.926 6.715a119.376 119.376 0 0 0-2.528 9.013 195.73 195.73 0 0 0-2.056 9.485c-.582 3.062-1.106 5.801-1.582 8.225-.472 2.424-.815 4.111-1.029 5.056-.211.53-.499 1.422-.868 2.687-.372 1.263-.927 1.901-1.663 1.901M97.38 75.924c-.846 0-1.478-1.265-1.896-3.796-.424-2.53-.739-5.85-.948-9.962-.213-4.111-.451-8.771-.713-13.993a422.527 422.527 0 0 0-1.107-15.887c-.472-5.375-1.16-10.567-2.055-15.572s-2.134-9.405-3.714-13.199l-.157-.634 1.105-1.265c.843 0 1.501.637 1.975 1.898.474 1.265.817 2.213 1.029 2.841 1.367 4.956 2.421 10.124 3.162 15.494a236.927 236.927 0 0 1 1.657 16.367c.367 5.533.66 11.044.87 16.519.211 5.479.526 10.811.95 15.967.312-1.367.708-3.371 1.188-6.005a276.624 276.624 0 0 1 4.028-18.574c.844-3.319 1.792-6.352 2.848-9.092 1.051-2.744 2.211-4.979 3.479-6.718 1.266-1.742 2.688-2.613 4.268-2.613 2.001 0 3.663.817 4.979 2.452 1.317 1.636 2.344 3.561 3.083 5.77a33.557 33.557 0 0 1 1.501 6.796c.261 2.325.396 4.217.396 5.697 0 1.791-.293 4.477-.87 8.059a73.01 73.01 0 0 1-2.604 10.755c-1.165 3.581-2.587 6.718-4.271 9.404-1.688 2.687-3.69 4.033-6.006 4.033-.95 0-1.658-.265-2.136-.795-.476-.52-.815-1.185-1.026-1.973s-.344-1.636-.396-2.53a23.207 23.207 0 0 0-.239-2.289l1.267-1.266.949.787.947 5.379 1.426.154c3.578-3.688 6.32-8.09 8.221-13.199 1.897-5.109 2.844-10.246 2.844-15.415 0-1.051-.16-2.632-.472-4.745a42.588 42.588 0 0 0-1.501-6.401c-.689-2.16-1.529-4.054-2.532-5.688-1.003-1.636-2.19-2.451-3.558-2.451-1.16 0-2.267.869-3.318 2.608-1.056 1.737-2.031 3.976-2.926 6.715a119.376 119.376 0 0 0-2.528 9.013 195.73 195.73 0 0 0-2.056 9.485 1339.87 1339.87 0 0 1-1.582 8.225c-.475 2.424-.814 4.111-1.029 5.056-.211.53-.499 1.422-.868 2.687-.374 1.263-.928 1.901-1.664 1.901M128.365 29.441l1.267 1.103c0 1.796-.03 3.983-.081 6.564a400.995 400.995 0 0 0-.078 8.458c0 2.848.023 5.796.078 8.853.05 3.056.212 5.982.475 8.775.262 2.794.604 5.353 1.026 7.668.422 2.316 1 4.16 1.741 5.533.631-.106 1.446-1.313 2.449-3.641.999-2.316 2.056-5.158 3.162-8.53a304.029 304.029 0 0 0 3.397-11.152 901.455 901.455 0 0 0 3.242-11.618c1-3.689 1.896-6.98 2.686-9.882.793-2.895 1.396-4.922 1.819-6.085l.949-.472c.633.103 1.209 1.051 1.739 2.845.527 1.793.949 4.163 1.263 7.117.319 2.949.579 6.269.793 9.957.208 3.688.34 7.426.396 11.228.05 3.796.104 7.507.16 11.142.048 3.641.076 6.825.076 9.564v-1.736c.635.106 1.426.235 2.371.396.951.156 1.527.605 1.742 1.341l-1.422 1.11-2.531-.473v6.717c0 3.104-.106 6.61-.318 10.51-.212 3.9-.527 7.932-.946 12.098-.424 4.166-1.082 7.98-1.978 11.463-.897 3.475-2.056 6.326-3.479 8.541-1.422 2.209-3.188 3.312-5.294 3.312-2.108 0-3.771-.66-4.984-1.974-1.21-1.317-2.158-2.899-2.843-4.743a23.694 23.694 0 0 1-1.346-5.851c-.211-2.062-.312-3.822-.312-5.293 0-2.953.34-6.429 1.026-10.435a56.636 56.636 0 0 1 3.321-11.703c1.524-3.791 3.5-7.143 5.926-10.037 2.425-2.895 5.375-4.665 8.851-5.297v-13.12c0-5.378-.131-10.755-.396-16.127-.264-5.377-.922-10.486-1.974-15.334-.53 1.161-1.161 3.158-1.896 6.005-.739 2.848-1.558 6.063-2.452 9.646a655.14 655.14 0 0 1-2.923 11.227c-1.057 3.897-2.164 7.452-3.323 10.67-1.161 3.218-2.315 5.85-3.474 7.903-1.162 2.053-2.271 3.082-3.322 3.082-1.058 0-1.924-1.029-2.611-3.082-.684-2.055-1.238-4.687-1.66-7.903-.42-3.218-.736-6.724-.945-10.515a272.088 272.088 0 0 1-.398-11.065 629.493 629.493 0 0 1-.077-9.644v-6.013l1.108-1.103zm16.441 97.861c2.107-3.062 3.717-6.689 4.822-10.91 1.107-4.215 1.897-8.615 2.373-13.201.473-4.582.708-9.146.708-13.676V77.183c-1.683 0-3.293.688-4.819 2.061-1.529 1.366-2.954 3.104-4.27 5.21s-2.476 4.48-3.479 7.113a79.156 79.156 0 0 0-2.528 7.828 74.046 74.046 0 0 0-1.58 7.271c-.374 2.268-.552 4.086-.552 5.459 0 1.158.102 2.633.312 4.43a23.64 23.64 0 0 0 1.187 5.135c.579 1.631 1.37 3.029 2.372 4.188 1.001 1.158 2.345 1.738 4.031 1.738.318.001.792-.107 1.423-.314M184.643 11.42l1.105 1.104c.211 8.117.447 16.182.714 24.191.261 8.01.656 16.068 1.183 24.186.106-1.266.424-3.56.951-6.879a414.333 414.333 0 0 1 1.978-11.305c.79-4.211 1.657-8.583 2.606-13.117.948-4.53 1.95-8.696 3.004-12.492 1.053-3.793 2.135-6.899 3.239-9.324 1.106-2.424 2.188-3.638 3.24-3.638.634 0 1.16.818 1.584 2.452.417 1.635.708 3.579.867 5.851.159 2.264.263 4.559.317 6.874.049 2.322.08 4.107.08 5.372a222.72 222.72 0 0 0 .392 10.203c.156 2.685.312 5.587.474 8.691.159 3.112.367 6.117.632 9.013.264 2.9.578 5.453.949 7.666.368 2.215.764 3.743 1.188 4.585 1.055-1.684 2.106-4.289 3.162-7.823 1.051-3.532 2.078-7.43 3.082-11.697 1-4.273 2.058-8.669 3.162-13.205 1.105-4.525 2.215-8.639 3.318-12.327 1.105-3.688 2.292-6.723 3.559-9.092 1.264-2.373 2.58-3.562 3.949-3.562.735 0 1.396.979 1.979 2.926.576 1.956 1.104 4.537 1.578 7.749.477 3.218.924 6.825 1.347 10.831a846.64 846.64 0 0 1 1.187 12.251c.366 4.166.711 8.195 1.026 12.096.317 3.897.634 7.27.948 10.116.209 2.431.607 4.954 1.185 7.587.578 2.639.869 5.114.869 7.432 0 .215-.076.504-.233.869-.158.375-.396.552-.711.552-.633 0-1.188-.868-1.662-2.605-.474-1.736-.926-4.031-1.342-6.873-.424-2.848-.818-6.063-1.188-9.646s-.711-7.249-1.029-10.992a1710.75 1710.75 0 0 0-.943-10.825c-.316-3.481-.58-6.535-.791-9.171a593.961 593.961 0 0 1-.867-9.726 34.47 34.47 0 0 0-2.142-9.404c-1.159 1.579-2.264 4.057-3.317 7.432-1.053 3.369-2.106 7.166-3.162 11.385-1.051 4.214-2.133 8.56-3.239 13.04a394.187 394.187 0 0 1-3.241 12.332c-1.055 3.742-2.134 6.798-3.238 9.168-1.105 2.369-2.188 3.56-3.242 3.56-.945 0-1.795-1.555-2.53-4.665-.738-3.108-1.317-6.664-1.737-10.674-.424-4-.736-7.876-.949-11.619-.211-3.743-.312-6.3-.312-7.667v-7.745c0-2.954-.084-5.821-.239-8.619a40.742 40.742 0 0 0-1.346-8.299c-.844 1.37-1.766 3.715-2.764 7.034-1.006 3.319-2.004 7.195-3.008 11.621-1 4.426-1.951 9.141-2.845 14.152a809.429 809.429 0 0 0-2.452 14.386c-.736 4.583-1.316 8.723-1.738 12.411-.422 3.688-.631 6.429-.631 8.22 0 .103.022.215.077.316a.671.671 0 0 1 .081.315c0 .107-.105.155-.318.155h-.791l-.948-.473c-.211-.418-.424-2.107-.631-5.062a885.784 885.784 0 0 1-.713-10.905c-.262-4.326-.5-9.013-.713-14.074a2116.43 2116.43 0 0 1-.556-14.466c-.156-4.584-.288-8.615-.393-12.09-.107-3.484-.158-5.796-.158-6.959l1.107-1.104zM242.824 58.054c0-2 .235-4.848.709-8.536a58.677 58.677 0 0 1 2.452-10.828c1.158-3.53 2.658-6.612 4.509-9.246 1.842-2.638 4.188-3.957 7.034-3.957 1.787 0 3.341.579 4.66 1.74 1.317 1.161 2.451 2.372 3.397 3.635 0-.524.08-1.002.24-1.418.155-.423.495-.736 1.024-.953l1.104 1.108v5.531c0 2.74.054 5.906.159 9.487.104 3.582.289 7.351.554 11.302s.687 7.564 1.267 10.83c.578 3.266 1.342 5.983 2.291 8.139.946 2.167 2.162 3.244 3.635 3.244l2.849-1.266.949 1.266c-.212.633-.769 1.244-1.658 1.82-.897.584-1.66.865-2.291.865-1.901 0-3.431-1.211-4.59-3.635-1.16-2.423-2.078-5.217-2.767-8.374a84.394 84.394 0 0 1-1.502-9.409c-.315-3.104-.529-5.398-.631-6.879-.316 1.795-.927 4.167-1.816 7.115a68.057 68.057 0 0 1-3.399 8.852c-1.371 2.954-2.979 5.485-4.823 7.594-1.845 2.105-3.927 3.163-6.242 3.163-1.582 0-2.849-.929-3.793-2.772-.951-1.838-1.662-3.945-2.139-6.32a54.24 54.24 0 0 1-.947-7.114c-.154-2.373-.235-4.035-.235-4.984m7.745 18.185c1.478 0 2.871-.739 4.188-2.22 1.318-1.469 2.558-3.366 3.718-5.688 1.16-2.316 2.157-4.9 3.008-7.747a154.748 154.748 0 0 0 2.211-8.3c.634-2.687 1.104-5.14 1.423-7.349.315-2.217.473-3.899.473-5.059v-6.484c-.631 0-1.182-.292-1.657-.872a64.177 64.177 0 0 1-1.504-1.897 12.524 12.524 0 0 0-1.816-1.896c-.688-.579-1.555-.871-2.606-.871-2.528 0-4.612 1.266-6.246 3.796-1.637 2.531-2.923 5.479-3.872 8.853a68.809 68.809 0 0 0-2.056 10.117c-.422 3.378-.634 5.957-.634 7.752 0 .843.025 2.235.08 4.188.052 1.952.236 3.952.554 6.006s.842 3.851 1.58 5.377c.732 1.528 1.783 2.294 3.156 2.294M284.166 16.635c-.056 4.426-.08 8.852-.08 13.281 0 8.533.134 16.969.396 25.29.263 8.332.924 16.707 1.978 25.141l-1.104.946c-.635 0-1.133-.866-1.506-2.609-.367-1.737-.687-3.973-.943-6.719-.266-2.734-.452-5.851-.557-9.328a675.442 675.442 0 0 1-.236-10.59c-.055-3.581-.104-7.062-.159-10.434-.056-3.371-.076-6.38-.076-9.016l-.16-14.543v-1.973c0-1.528.025-3.266.08-5.22.054-1.951.156-3.793.315-5.534.16-1.737.447-2.768.869-3.081l.949.313.313.791c-.003 4.43-.026 8.858-.079 13.285M290.725 58.054c0-2 .234-4.848.709-8.536a58.436 58.436 0 0 1 2.453-10.828c1.156-3.53 2.656-6.612 4.506-9.246 1.842-2.638 4.188-3.957 7.037-3.957 1.785 0 3.34.579 4.658 1.74s2.451 2.372 3.398 3.635c0-.524.08-1.002.238-1.418.157-.423.498-.736 1.025-.953l1.107 1.108v5.531c0 2.74.051 5.906.158 9.487.102 3.582.289 7.351.555 11.302.26 3.951.684 7.564 1.264 10.83.578 3.266 1.344 5.983 2.291 8.139.947 2.167 2.16 3.244 3.637 3.244l2.846-1.266.951 1.266c-.213.633-.768 1.244-1.658 1.82-.898.584-1.662.865-2.291.865-1.902 0-3.43-1.211-4.59-3.635-1.16-2.423-2.08-5.217-2.768-8.374a84.394 84.394 0 0 1-1.502-9.409c-.314-3.104-.527-5.398-.631-6.879-.314 1.795-.926 4.167-1.816 7.115a67.635 67.635 0 0 1-3.4 8.852c-1.371 2.954-2.979 5.485-4.824 7.594-1.842 2.105-3.924 3.163-6.24 3.163-1.581 0-2.848-.929-3.795-2.772-.947-1.838-1.658-3.945-2.137-6.32a54.581 54.581 0 0 1-.947-7.114c-.152-2.373-.234-4.035-.234-4.984m7.746 18.185c1.477 0 2.869-.739 4.188-2.22 1.318-1.469 2.557-3.366 3.717-5.688 1.158-2.316 2.158-4.9 3.006-7.747a152.037 152.037 0 0 0 2.213-8.3c.635-2.687 1.105-5.14 1.424-7.349.314-2.217.473-3.899.473-5.059v-6.484c-.631 0-1.184-.292-1.658-.872s-.977-1.206-1.504-1.897a12.461 12.461 0 0 0-1.814-1.896c-.688-.579-1.557-.871-2.609-.871-2.527 0-4.611 1.266-6.244 3.796-1.637 2.531-2.924 5.479-3.873 8.853a68.288 68.288 0 0 0-2.055 10.117c-.422 3.378-.633 5.957-.633 7.752 0 .843.021 2.235.078 4.188.053 1.952.236 3.952.555 6.006.314 2.054.844 3.851 1.58 5.377.728 1.528 1.783 2.294 3.156 2.294M329.453 34.34l1.104 1.11a160.305 160.305 0 0 1 1.819 18.02 76.869 76.869 0 0 0 2.925 17.864c.42-1.157.817-3.082 1.186-5.769.367-2.687.738-5.694 1.107-9.014a1125.5 1125.5 0 0 1 1.186-10.272c.421-3.532.976-6.744 1.66-9.646.685-2.896 1.529-5.297 2.531-7.193 1-1.899 2.235-2.844 3.713-2.844 1.476 0 2.608 1.077 3.399 3.238s1.427 4.927 1.896 8.297c.476 3.375.845 7.117 1.104 11.224a281.87 281.87 0 0 0 1.026 12.021c.423 3.896.976 7.403 1.66 10.508.687 3.109 1.711 5.404 3.082 6.879a80.736 80.736 0 0 0 2.849 3.008c.95.942 1.948 1.84 3.002 2.682l-.944 1.107c-3.162-.941-5.591-2.898-7.273-5.849-1.688-2.949-2.952-6.402-3.795-10.354-.842-3.951-1.396-8.145-1.662-12.571-.262-4.43-.497-8.562-.707-12.412-.215-3.843-.581-7.163-1.104-9.957-.531-2.788-1.48-4.558-2.849-5.292-1.058 0-1.929.893-2.606 2.684-.688 1.793-1.271 4.088-1.74 6.879-.478 2.791-.897 5.927-1.266 9.404-.371 3.481-.77 6.931-1.188 10.355-.422 3.427-.87 6.671-1.344 9.722-.476 3.061-1.028 5.533-1.662 7.431l-.473.161c-.951 0-1.767-.875-2.451-2.611-.688-1.736-1.289-3.92-1.817-6.562-.527-2.627-.976-5.555-1.343-8.771a328.125 328.125 0 0 1-.948-9.329l-.712-8.062a308.027 308.027 0 0 0-.475-4.979l1.11-1.107z"/></svg>