<?xml version="1.0" encoding="utf-8"?>
<!-- Generator: Adobe Illustrator 16.0.0, SVG Export Plug-In . SVG Version: 6.00 Build 0)  -->
<!DOCTYPE svg PUBLIC "-//W3C//DTD SVG 1.1//EN" "http://www.w3.org/Graphics/SVG/1.1/DTD/svg11.dtd">
<svg version="1.1" id="Layer_1" xmlns="http://www.w3.org/2000/svg" xmlns:xlink="http://www.w3.org/1999/xlink" x="0px" y="0px"
	 width="788.924px" height="198.355px" viewBox="0 0 788.924 198.355" enable-background="new 0 0 788.924 198.355"
	 xml:space="preserve">
<g>
	<path fill="#1C1C1C" d="M204.924,91.349l1.107-1.266c0.949,0,2.371-0.216,4.268-0.628c1.941-0.434,3.866-0.937,5.771-1.509
		c2.449-0.721,4.9-1.432,7.354-2.134c0-1.26,0.05-3.37,0.153-6.319c0.104-2.948,0.291-6.302,0.558-10.036
		c0.263-3.745,0.631-7.616,1.104-11.621c0.476-4.005,1.108-7.667,1.897-10.986c0.79-3.322,1.765-6.062,2.927-8.225
		c1.157-2.161,2.527-3.243,4.108-3.243c1.37,0,2.583,0.87,3.636,2.606c1.053,1.742,1.978,3.983,2.769,6.725
		c0.787,2.743,1.42,5.769,1.896,9.087s0.87,6.509,1.186,9.562c0.315,3.062,0.552,5.825,0.712,8.305
		c0.156,2.475,0.238,4.243,0.238,5.294c1.612-0.645,3.219-1.304,4.819-1.979c1.627-0.683,3.374-1.031,5.138-1.026l0.949,1.104
		c-0.104,0.316-0.631,0.688-1.582,1.107c-1.038,0.46-2.092,0.883-3.161,1.268c-1.12,0.408-2.253,0.776-3.399,1.104
		c-0.762,0.221-1.526,0.433-2.292,0.635c0.211,2.112,0.579,5.296,1.107,9.563c0.551,4.442,1.21,8.869,1.976,13.279
		c0.793,4.584,1.687,8.855,2.688,12.803c1.004,3.957,2.082,6.664,3.243,8.146c0.524,0.734,1.317,1.342,2.371,1.818
		c1.052,0.473,1.685,1.131,1.897,1.979l-1.109,1.1c-1.578,0-3.031-1.004-4.346-3.004c-1.32-2-2.506-4.557-3.555-7.658
		c-1.057-3.109-1.98-6.561-2.771-10.359c-0.763-3.643-1.421-7.305-1.974-10.986c-0.529-3.533-0.95-6.744-1.267-9.645
		c-0.317-2.896-0.528-4.981-0.631-6.241c-2.856,1.159-5.703,2.343-8.54,3.548c-2.836,1.213-5.682,2.4-8.539,3.562v27.667
		c0,0.418-0.104,1.293-0.312,2.607c-0.214,1.316-0.634,1.979-1.266,1.979c-0.631,0-1.025-0.479-1.186-1.422
		c-0.16-0.953-0.236-1.748-0.236-2.373c0-4.533,0.103-9.098,0.312-13.682c0.212-4.583,0.318-9.141,0.318-13.677
		c-2.747,1.059-5.544,1.983-8.381,2.771c-2.849,0.79-5.757,1.344-8.696,1.656L204.924,91.349z M234.486,38.23
		c-1.158,0-2.186,1.003-3.08,3.004c-0.897,2.004-1.661,4.584-2.295,7.747c-0.631,3.161-1.158,6.616-1.582,10.354
		c-0.407,3.577-0.749,7.162-1.025,10.753c-0.243,3.078-0.427,6.162-0.552,9.248c-0.107,2.748-0.16,4.583-0.16,5.539
		c2.82-1.149,5.614-2.364,8.379-3.643c2.767-1.271,5.561-2.483,8.38-3.635c-0.106-0.949-0.235-2.552-0.397-4.82
		c-0.189-2.613-0.426-5.223-0.708-7.828c-0.33-3.035-0.7-6.066-1.109-9.093c-0.42-3.104-0.922-5.973-1.501-8.608
		c-0.579-2.635-1.238-4.8-1.973-6.486C236.123,39.077,235.332,38.23,234.486,38.23 M264.523,109.219
		c-0.844,0-1.479-1.266-1.896-3.797c-0.422-2.529-0.739-5.851-0.948-9.961c-0.212-4.111-0.449-8.771-0.713-13.993
		c-0.264-5.211-0.631-10.512-1.104-15.887s-1.162-10.567-2.055-15.572c-0.897-5.005-2.137-9.405-3.717-13.199l-0.157-0.634
		l1.105-1.266c0.843,0,1.503,0.638,1.977,1.897c0.358,0.941,0.7,1.889,1.027,2.841c1.367,4.956,2.42,10.124,3.162,15.494
		c0.741,5.435,1.295,10.894,1.661,16.367c0.364,5.533,0.657,11.043,0.867,16.518c0.212,5.479,0.526,10.812,0.95,15.969
		c0.315-1.367,0.711-3.371,1.187-6.005c0.532-2.935,1.112-5.86,1.74-8.776c0.699-3.28,1.462-6.547,2.289-9.797
		c0.843-3.319,1.792-6.354,2.85-9.092c1.048-2.744,2.21-4.979,3.476-6.72c1.266-1.74,2.688-2.612,4.269-2.612
		c2.001,0,3.662,0.816,4.979,2.451c1.317,1.638,2.345,3.562,3.083,5.771c0.735,2.207,1.238,4.484,1.503,6.796
		c0.261,2.325,0.395,4.217,0.395,5.697c0,1.791-0.291,4.476-0.87,8.058c-0.595,3.646-1.465,7.241-2.604,10.754
		c-1.163,3.582-2.588,6.721-4.272,9.404c-1.689,2.688-3.69,4.033-6.006,4.033c-0.95,0-1.658-0.266-2.135-0.795
		c-0.477-0.521-0.816-1.186-1.027-1.975c-0.217-0.826-0.35-1.674-0.396-2.529c-0.041-0.766-0.12-1.529-0.238-2.287l1.265-1.268
		l0.949,0.787l0.947,5.379l1.425,0.154c3.582-3.689,6.321-8.09,8.222-13.2c1.897-5.108,2.843-10.246,2.843-15.415
		c0-1.05-0.157-2.631-0.472-4.745c-0.335-2.169-0.837-4.309-1.501-6.399c-0.689-2.16-1.529-4.056-2.53-5.688
		c-1.005-1.636-2.188-2.451-3.559-2.451c-1.158,0-2.268,0.869-3.319,2.608c-1.057,1.737-2.031,3.976-2.926,6.715
		c-0.96,2.97-1.804,5.977-2.528,9.013c-0.764,3.145-1.449,6.308-2.056,9.485c-0.582,3.062-1.106,5.801-1.582,8.225
		c-0.472,2.425-0.815,4.111-1.029,5.058c-0.211,0.529-0.499,1.422-0.868,2.686C265.814,108.58,265.259,109.219,264.523,109.219
		 M299.304,109.219c-0.846,0-1.478-1.266-1.896-3.797c-0.424-2.529-0.739-5.851-0.948-9.961c-0.213-4.111-0.451-8.771-0.713-13.993
		c-0.269-5.303-0.638-10.599-1.107-15.887c-0.472-5.375-1.16-10.567-2.055-15.572s-2.134-9.405-3.714-13.199l-0.157-0.634
		l1.105-1.266c0.843,0,1.501,0.638,1.975,1.897c0.474,1.265,0.817,2.213,1.029,2.841c1.367,4.956,2.421,10.124,3.162,15.494
		c0.742,5.435,1.294,10.894,1.657,16.367c0.367,5.533,0.66,11.043,0.87,16.518c0.211,5.479,0.526,10.812,0.95,15.969
		c0.312-1.367,0.708-3.371,1.188-6.005c1.128-6.235,2.472-12.431,4.028-18.573c0.844-3.319,1.792-6.354,2.848-9.092
		c1.051-2.744,2.211-4.979,3.479-6.72c1.266-1.741,2.688-2.612,4.268-2.612c2.001,0,3.663,0.816,4.979,2.451
		c1.317,1.638,2.344,3.562,3.083,5.771c0.734,2.207,1.237,4.484,1.501,6.796c0.261,2.325,0.396,4.217,0.396,5.697
		c0,1.791-0.293,4.476-0.87,8.058c-0.595,3.646-1.465,7.241-2.604,10.754c-1.165,3.582-2.587,6.721-4.271,9.404
		c-1.688,2.688-3.69,4.033-6.006,4.033c-0.95,0-1.658-0.266-2.136-0.795c-0.476-0.521-0.815-1.186-1.026-1.975
		c-0.211-0.787-0.344-1.635-0.396-2.529c-0.042-0.766-0.122-1.529-0.239-2.287l1.267-1.268l0.949,0.787l0.947,5.379l1.426,0.154
		c3.578-3.689,6.32-8.09,8.221-13.2c1.897-5.108,2.844-10.246,2.844-15.415c0-1.05-0.16-2.631-0.472-4.745
		c-0.334-2.169-0.836-4.309-1.501-6.399c-0.689-2.16-1.529-4.056-2.532-5.688c-1.003-1.636-2.19-2.451-3.558-2.451
		c-1.16,0-2.267,0.869-3.318,2.608c-1.056,1.737-2.031,3.976-2.926,6.715c-0.96,2.97-1.803,5.977-2.528,9.013
		c-0.764,3.145-1.449,6.308-2.056,9.485c-0.519,2.743-1.046,5.485-1.582,8.225c-0.475,2.425-0.814,4.111-1.029,5.058
		c-0.211,0.529-0.499,1.422-0.868,2.686C300.594,108.58,300.04,109.219,299.304,109.219 M330.289,62.736l1.267,1.104
		c0,1.796-0.03,3.981-0.081,6.562c-0.056,2.819-0.082,5.639-0.078,8.458c0,2.85,0.023,5.795,0.078,8.854
		c0.05,3.056,0.212,5.98,0.475,8.773c0.262,2.796,0.604,5.354,1.026,7.668c0.422,2.316,1,4.16,1.741,5.533
		c0.631-0.105,1.446-1.312,2.449-3.641c0.999-2.316,2.056-5.158,3.162-8.531c1.204-3.694,2.336-7.412,3.397-11.15
		c1.106-3.865,2.188-7.738,3.242-11.618c1-3.689,1.896-6.98,2.686-9.882c0.793-2.896,1.396-4.924,1.819-6.087l0.949-0.472
		c0.633,0.104,1.209,1.051,1.739,2.845c0.527,1.793,0.949,4.163,1.263,7.117c0.319,2.949,0.579,6.271,0.793,9.957
		c0.208,3.688,0.34,7.425,0.396,11.229c0.05,3.796,0.104,7.507,0.16,11.141c0.048,3.641,0.076,6.826,0.076,9.564v-1.736
		c0.635,0.107,1.426,0.234,2.371,0.396c0.951,0.156,1.527,0.605,1.742,1.342l-1.422,1.109l-2.531-0.473v6.717
		c0,3.104-0.106,6.609-0.318,10.51s-0.527,7.934-0.946,12.1c-0.424,4.166-1.082,7.979-1.978,11.463
		c-0.897,3.475-2.056,6.326-3.479,8.541c-1.422,2.209-3.188,3.311-5.294,3.311c-2.108,0-3.771-0.66-4.984-1.973
		c-1.21-1.318-2.158-2.9-2.843-4.744c-0.695-1.885-1.147-3.852-1.346-5.85c-0.211-2.062-0.312-3.822-0.312-5.293
		c0-2.953,0.34-6.432,1.026-10.438c0.684-4.008,1.797-7.932,3.321-11.703c1.524-3.791,3.5-7.143,5.926-10.037
		c2.425-2.895,5.375-4.664,8.851-5.297v-13.12c0-5.378-0.131-10.755-0.396-16.126c-0.264-5.377-0.922-10.484-1.974-15.334
		c-0.53,1.161-1.161,3.158-1.896,6.006c-0.739,2.849-1.558,6.062-2.452,9.646c-0.941,3.751-1.916,7.492-2.923,11.226
		c-1.057,3.897-2.164,7.452-3.323,10.672c-1.161,3.217-2.315,5.85-3.474,7.9c-1.162,2.055-2.271,3.082-3.322,3.082
		c-1.058,0-1.924-1.027-2.611-3.082c-0.684-2.055-1.238-4.686-1.66-7.9c-0.42-3.22-0.736-6.726-0.945-10.517
		c-0.208-3.685-0.34-7.374-0.398-11.063c-0.05-3.215-0.076-6.431-0.077-9.646V63.84L330.289,62.736L330.289,62.736z M346.73,160.598
		c2.107-3.062,3.717-6.689,4.822-10.91c1.107-4.215,1.897-8.615,2.373-13.201c0.473-4.582,0.708-9.146,0.708-13.676v-12.332
		c-1.683,0-3.293,0.688-4.819,2.062c-1.529,1.363-2.954,3.104-4.27,5.209s-2.476,4.479-3.479,7.111
		c-0.978,2.564-1.822,5.178-2.528,7.828c-0.648,2.396-1.175,4.822-1.58,7.271c-0.374,2.268-0.552,4.086-0.552,5.459
		c0,1.158,0.102,2.633,0.312,4.43c0.203,1.752,0.601,3.473,1.187,5.135c0.579,1.631,1.37,3.029,2.372,4.189
		c1.001,1.158,2.345,1.736,4.031,1.736C345.625,160.91,346.099,160.803,346.73,160.598 M386.568,44.716l1.105,1.104
		c0.211,8.117,0.447,16.184,0.714,24.191c0.264,8.067,0.659,16.13,1.183,24.185c0.106-1.266,0.424-3.56,0.951-6.879
		c0.607-3.776,1.267-7.545,1.979-11.304c0.79-4.211,1.656-8.583,2.604-13.117c0.948-4.53,1.95-8.696,3.004-12.492
		c1.053-3.793,2.135-6.897,3.239-9.322c1.106-2.426,2.188-3.64,3.24-3.64c0.634,0,1.16,0.818,1.584,2.452
		c0.417,1.635,0.708,3.579,0.867,5.854c0.159,2.263,0.263,4.558,0.317,6.873c0.049,2.32,0.08,4.105,0.08,5.37
		c0,0.322,0.021,1.429,0.073,3.325c0.056,1.898,0.156,4.188,0.315,6.878c0.156,2.687,0.312,5.587,0.476,8.691
		c0.159,3.112,0.367,6.117,0.632,9.012c0.266,2.9,0.578,5.453,0.949,7.666c0.368,2.215,0.766,3.743,1.188,4.585
		c1.056-1.684,2.105-4.289,3.162-7.823c1.051-3.53,2.078-7.43,3.082-11.695c1-4.273,2.059-8.669,3.162-13.205
		c1.002-4.137,2.107-8.247,3.317-12.327c1.104-3.688,2.292-6.723,3.56-9.092c1.264-2.373,2.58-3.562,3.948-3.562
		c0.735,0,1.396,0.979,1.979,2.927c0.576,1.955,1.104,4.536,1.578,7.748c0.477,3.22,0.924,6.825,1.347,10.831
		c0.425,4.081,0.821,8.165,1.187,12.251c0.366,4.166,0.711,8.195,1.026,12.097c0.317,3.896,0.634,7.27,0.948,10.116
		c0.209,2.431,0.604,4.952,1.185,7.586c0.578,2.639,0.869,5.113,0.869,7.432c0,0.215-0.076,0.504-0.233,0.869
		c-0.158,0.375-0.396,0.553-0.711,0.553c-0.633,0-1.188-0.869-1.662-2.604c-0.474-1.738-0.926-4.033-1.342-6.875
		c-0.424-2.85-0.818-6.063-1.188-9.646c-0.37-3.583-0.711-7.249-1.029-10.992c-0.312-3.736-0.631-7.35-0.943-10.824
		c-0.314-3.48-0.58-6.534-0.791-9.172c-0.314-3.239-0.604-6.481-0.867-9.726c-0.27-3.22-0.99-6.386-2.142-9.404
		c-1.159,1.579-2.264,4.059-3.317,7.434c-1.053,3.368-2.104,7.166-3.162,11.385c-1.051,4.214-2.133,8.56-3.237,13.04
		c-1.015,4.128-2.095,8.239-3.241,12.332c-1.055,3.742-2.134,6.798-3.236,9.168c-1.105,2.369-2.188,3.56-3.242,3.56
		c-0.945,0-1.795-1.555-2.53-4.666c-0.738-3.106-1.317-6.664-1.737-10.674c-0.424-4-0.736-7.875-0.949-11.619
		c-0.211-3.743-0.312-6.3-0.312-7.667v-7.747c0-2.953-0.084-5.819-0.239-8.616c-0.161-2.807-0.612-5.588-1.346-8.302
		c-0.844,1.37-1.766,3.716-2.764,7.034c-1.006,3.319-2.004,7.195-3.008,11.621c-1,4.426-1.951,9.142-2.847,14.152
		c-0.861,4.787-1.678,9.582-2.451,14.385c-0.736,4.583-1.316,8.723-1.738,12.411c-0.422,3.688-0.631,6.43-0.631,8.221
		c0,0.104,0.021,0.215,0.076,0.316c0.055,0.1,0.081,0.209,0.081,0.312c0,0.107-0.104,0.156-0.317,0.156h-0.791l-0.949-0.473
		c-0.211-0.418-0.424-2.107-0.631-5.062c-0.26-3.635-0.498-7.269-0.713-10.906c-0.262-4.324-0.5-9.013-0.713-14.072
		c-0.371-8.851-0.687-17.703-0.95-26.558c-0.107-3.482-0.158-5.796-0.158-6.959L386.568,44.716L386.568,44.716z M444.748,91.349
		c0-2,0.235-4.848,0.709-8.536c0.474-3.679,1.294-7.304,2.452-10.828c1.158-3.528,2.658-6.61,4.509-9.246
		c1.842-2.638,4.188-3.957,7.034-3.957c1.787,0,3.341,0.579,4.66,1.74c1.315,1.161,2.451,2.372,3.396,3.635
		c0-0.522,0.08-1.002,0.239-1.418c0.154-0.423,0.494-0.734,1.023-0.951l1.104,1.106v5.531c0,2.74,0.054,5.906,0.159,9.487
		c0.104,3.581,0.289,7.35,0.554,11.301s0.687,7.562,1.267,10.83c0.578,3.266,1.342,5.982,2.291,8.139
		c0.946,2.168,2.162,3.244,3.635,3.244l2.851-1.266l0.948,1.266c-0.213,0.633-0.77,1.244-1.657,1.82
		c-0.896,0.584-1.66,0.863-2.291,0.863c-1.899,0-3.433-1.211-4.59-3.635c-1.16-2.422-2.078-5.217-2.769-8.373
		c-0.678-3.106-1.179-6.248-1.502-9.41c-0.313-3.104-0.527-5.396-0.631-6.879c-0.316,1.795-0.927,4.167-1.816,7.115
		c-0.924,3.026-2.061,5.984-3.397,8.851c-1.371,2.955-2.979,5.486-4.822,7.596c-1.846,2.104-3.928,3.164-6.241,3.164
		c-1.582,0-2.851-0.932-3.793-2.773c-0.951-1.838-1.662-3.945-2.141-6.32c-0.473-2.346-0.789-4.723-0.945-7.112
		C444.829,93.96,444.747,92.298,444.748,91.349 M452.493,109.535c1.478,0,2.871-0.74,4.188-2.223
		c1.318-1.469,2.559-3.365,3.719-5.688c1.159-2.316,2.156-4.9,3.008-7.747c0.814-2.746,1.551-5.514,2.211-8.301
		c0.635-2.688,1.104-5.14,1.424-7.349c0.314-2.217,0.473-3.897,0.473-5.059v-6.484c-0.631,0-1.182-0.292-1.656-0.872
		c-0.514-0.622-1.016-1.255-1.505-1.896c-0.536-0.694-1.146-1.33-1.815-1.896c-0.688-0.579-1.555-0.871-2.605-0.871
		c-2.527,0-4.611,1.268-6.246,3.796c-1.637,2.531-2.923,5.479-3.871,8.854c-0.938,3.315-1.625,6.698-2.057,10.117
		c-0.422,3.378-0.633,5.957-0.633,7.752c0,0.843,0.023,2.233,0.078,4.188c0.053,1.952,0.236,3.953,0.555,6.005
		c0.318,2.057,0.842,3.854,1.58,5.377C450.069,108.768,451.12,109.535,452.493,109.535 M486.09,49.931
		c-0.056,4.426-0.08,8.852-0.08,13.281c0,8.532,0.134,16.969,0.396,25.29c0.271,8.406,0.932,16.794,1.979,25.14l-1.104,0.947
		c-0.637,0-1.133-0.867-1.506-2.609c-0.367-1.736-0.688-3.973-0.942-6.719c-0.267-2.734-0.452-5.851-0.558-9.329
		c-0.106-3.529-0.186-7.06-0.236-10.59c-0.055-3.581-0.104-7.062-0.158-10.433c-0.051-3.005-0.076-6.012-0.076-9.018l-0.16-14.543
		v-1.973c0-1.528,0.025-3.268,0.08-5.221c0.055-1.95,0.156-3.794,0.314-5.533c0.16-1.737,0.447-2.77,0.869-3.081l0.949,0.312
		l0.312,0.791C486.166,41.076,486.143,45.504,486.09,49.931 M492.649,91.349c0-2,0.234-4.848,0.709-8.536
		c0.473-3.679,1.295-7.305,2.453-10.828c1.156-3.528,2.656-6.61,4.506-9.246c1.842-2.638,4.188-3.957,7.037-3.957
		c1.785,0,3.34,0.579,4.658,1.74s2.451,2.372,3.398,3.635c0-0.522,0.08-1.002,0.238-1.418c0.155-0.423,0.498-0.734,1.023-0.951
		l1.105,1.106v5.531c0,2.74,0.053,5.906,0.158,9.487c0.104,3.581,0.289,7.35,0.555,11.301c0.262,3.951,0.686,7.562,1.266,10.83
		c0.578,3.266,1.346,5.982,2.291,8.139c0.945,2.168,2.16,3.244,3.639,3.244l2.846-1.266l0.951,1.266
		c-0.213,0.633-0.77,1.244-1.658,1.82c-0.898,0.584-1.662,0.863-2.291,0.863c-1.902,0-3.43-1.211-4.59-3.635
		c-1.16-2.422-2.08-5.217-2.77-8.373c-0.678-3.106-1.18-6.248-1.502-9.41c-0.312-3.104-0.525-5.396-0.631-6.879
		c-0.312,1.795-0.928,4.167-1.816,7.115c-0.924,3.026-2.061,5.984-3.398,8.851c-1.371,2.955-2.979,5.486-4.824,7.596
		c-1.842,2.104-3.924,3.164-6.24,3.164c-1.581,0-2.848-0.932-3.795-2.773c-0.947-1.838-1.659-3.945-2.137-6.32
		c-0.472-2.348-0.788-4.723-0.947-7.112C492.731,93.96,492.649,92.298,492.649,91.349 M500.396,109.535
		c1.479,0,2.869-0.74,4.188-2.223c1.317-1.469,2.557-3.365,3.717-5.688c1.158-2.316,2.158-4.9,3.006-7.747
		c0.815-2.746,1.554-5.514,2.214-8.301c0.582-2.427,1.057-4.879,1.424-7.349c0.313-2.217,0.474-3.897,0.474-5.059v-6.484
		c-0.632,0-1.185-0.292-1.658-0.872s-0.978-1.206-1.504-1.896c-0.536-0.694-1.144-1.33-1.813-1.896
		c-0.688-0.579-1.558-0.871-2.608-0.871c-2.527,0-4.611,1.268-6.244,3.796c-1.638,2.531-2.924,5.479-3.873,8.854
		c-0.939,3.315-1.627,6.697-2.056,10.117c-0.422,3.378-0.633,5.957-0.633,7.752c0,0.843,0.021,2.233,0.078,4.188
		c0.053,1.952,0.235,3.953,0.555,6.005c0.313,2.057,0.845,3.854,1.58,5.377C497.967,108.768,499.022,109.535,500.396,109.535
		 M531.377,67.635l1.104,1.109c0.944,5.968,1.551,11.983,1.817,18.02c0.269,6.049,1.25,12.045,2.925,17.865
		c0.422-1.158,0.817-3.082,1.188-5.771c0.367-2.687,0.738-5.692,1.105-9.014c0.366-3.318,0.766-6.745,1.188-10.272
		c0.421-3.53,0.976-6.742,1.66-9.646c0.685-2.896,1.527-5.297,2.531-7.193c1-1.897,2.233-2.844,3.713-2.844
		c1.476,0,2.606,1.077,3.397,3.238s1.427,4.927,1.896,8.297c0.477,3.375,0.846,7.117,1.104,11.223
		c0.267,4.112,0.604,8.117,1.024,12.021c0.424,3.896,0.978,7.402,1.66,10.507c0.688,3.109,1.711,5.404,3.082,6.879
		c0.924,1.027,1.875,2.031,2.851,3.008c0.948,0.943,1.946,1.84,3.002,2.684l-0.944,1.105c-3.16-0.939-5.591-2.896-7.271-5.848
		c-1.688-2.949-2.952-6.402-3.795-10.355c-0.842-3.949-1.396-8.144-1.662-12.569c-0.246-4.138-0.48-8.274-0.707-12.412
		c-0.215-3.843-0.581-7.163-1.104-9.957c-0.531-2.788-1.48-4.56-2.849-5.292c-1.058,0-1.929,0.893-2.606,2.684
		c-0.688,1.793-1.271,4.088-1.74,6.879c-0.478,2.791-0.896,5.929-1.266,9.404c-0.371,3.481-0.77,6.93-1.188,10.355
		c-0.422,3.427-0.87,6.67-1.344,9.722c-0.478,3.061-1.028,5.533-1.662,7.43l-0.474,0.162c-0.95,0-1.767-0.875-2.45-2.611
		c-0.688-1.734-1.289-3.92-1.816-6.561c-0.527-2.627-0.977-5.556-1.344-8.772c-0.359-3.104-0.676-6.215-0.947-9.329l-0.711-8.062
		c-0.146-1.661-0.305-3.32-0.477-4.979L531.377,67.635L531.377,67.635z"/>
	<text transform="matrix(1 0 0 1 382.4507 144.0022)" fill="#8F98A1" font-family="'Lora-Italic'" font-size="16.668">M</text>
	<text transform="matrix(1 0 0 1 397.9014 144.0022)" fill="#8F98A1" font-family="'Lora-Italic'" font-size="16.668">B</text>
	<text transform="matrix(1 0 0 1 408.3877 144.0022)" fill="#8F98A1" font-family="'Lora-Italic'" font-size="16.668">A</text>
	<text transform="matrix(1 0 0 1 419.0381 144.0022)" fill="#8F98A1" font-family="'Lora-Italic'" font-size="16.668">,</text>
	<text transform="matrix(1 0 0 1 427.6885 144.0022)" fill="#8F98A1" font-family="'Lora-Italic'" font-size="16.668">B</text>
	<text transform="matrix(1 0 0 1 438.1885 144.0022)" fill="#8F98A1" font-family="'Lora-Italic'" font-size="16.668">S</text>
	<text transform="matrix(1 0 0 1 447.7725 144.0022)" fill="#8F98A1" font-family="'Lora-Italic'" font-size="16.668">c</text>
	<text transform="matrix(1 0 0 1 460.3545 144.0022)" fill="#8F98A1" font-family="'Lora-Italic'" font-size="16.668">(OT</text>
	<text transform="matrix(1 0 0 1 489.0566 144.0022)" fill="#8F98A1" font-family="'Lora-Italic'" font-size="16.668">),</text>
	<text transform="matrix(1 0 0 1 502.8096 144.0022)" fill="#8F98A1" font-family="'Lora-Italic'" font-size="16.668">B</text>
	<text transform="matrix(1 0 0 1 513.2939 144.0022)" fill="#8F98A1" font-family="'Lora-Italic'" font-size="16.668">S</text>
	<text transform="matrix(1 0 0 1 522.877 144.0022)" fill="#8F98A1" font-family="'Lora-Italic'" font-size="16.668">c</text>
	<text transform="matrix(1 0 0 1 535.4443 144.0022)" fill="#8F98A1" font-family="'Lora-Italic'" font-size="16.668">(</text>
	<text transform="matrix(1 0 0 1 540.5752 144.0022)" fill="#8F98A1" font-family="'Lora-Italic'" font-size="16.668">P</text>
	<text transform="matrix(1 0 0 1 550.6924 144.0022)" fill="#8F98A1" font-family="'Lora-Italic'" font-size="16.668">s</text>
	<text transform="matrix(1 0 0 1 557.9756 144.0022)" fill="#8F98A1" font-family="'Lora-Italic'" font-size="16.668">y</text>
	<text transform="matrix(1 0 0 1 566.6924 144.0022)" fill="#8F98A1" font-family="'Lora-Italic'" font-size="16.668">c</text>
	<text transform="matrix(1 0 0 1 574.7617 144.0022)" fill="#8F98A1" font-family="'Lora-Italic'" font-size="16.668">h</text>
	<text transform="matrix(1 0 0 1 584.4463 144.0022)" fill="#8F98A1" font-family="'Lora-Italic'" font-size="16.668">)</text>
	<text transform="matrix(1 0 0 1 589.5771 144.0022)" fill="#8F98A1" font-family="'Lora-Italic'" font-size="16.668">,</text>
	<text transform="matrix(1 0 0 1 593.6807 144.0022)" fill="#8F98A1" font-family="'Lora-Italic'" font-size="16.668">I</text>
	<text transform="matrix(1 0 0 1 603.8799 144.0022)" fill="#8F98A1" font-family="'Lora-Italic'" font-size="16.668">n</text>
	<text transform="matrix(1 0 0 1 614.2803 144.0022)" fill="#8F98A1" font-family="'Lora-Italic'" font-size="16.668">t</text>
	<text transform="matrix(1 0 0 1 620.5225 144.0022)" fill="#8F98A1" font-family="'Lora-Italic'" font-size="16.668">e</text>
	<text transform="matrix(1 0 0 1 628.6299 144.0022)" fill="#8F98A1" font-family="'Lora-Italic'" font-size="16.668">g</text>
	<text transform="matrix(1 0 0 1 637.416 144.0022)" fill="#8F98A1" font-family="'Lora-Italic'" font-size="16.668">r</text>
	<text transform="matrix(1 0 0 1 645.1641 144.0022)" fill="#8F98A1" font-family="'Lora-Italic'" font-size="16.668">a</text>
	<text transform="matrix(1 0 0 1 654.4482 144.0022)" fill="#8F98A1" font-family="'Lora-Italic'" font-size="16.668">l</text>
	<text transform="matrix(1 0 0 1 663.8643 144.0022)" fill="#8F98A1" font-family="'Lora-Italic'" font-size="16.668">M</text>
	<text transform="matrix(1 0 0 1 679.3174 144.0022)" fill="#8F98A1" font-family="'Lora-Italic'" font-size="16.668">a</text>
	<text transform="matrix(1 0 0 1 688.5996 144.0022)" fill="#8F98A1" font-family="'Lora-Italic'" font-size="16.668">s</text>
	<text transform="matrix(1 0 0 1 695.9014 144.0022)" fill="#8F98A1" font-family="'Lora-Italic'" font-size="16.668">t</text>
	<text transform="matrix(1 0 0 1 702.1162 144.0022)" fill="#8F98A1" font-family="'Lora-Italic'" font-size="16.668">e</text>
	<text transform="matrix(1 0 0 1 710.2334 144.0022)" fill="#8F98A1" font-family="'Lora-Italic'" font-size="16.668">r Co</text>
	<text transform="matrix(1 0 0 1 742.8506 144.0022)" fill="#8F98A1" font-family="'Lora-Italic'" font-size="16.668">a</text>
	<text transform="matrix(1 0 0 1 752.2051 144.0022)" fill="#8F98A1" font-family="'Lora-Italic'" font-size="16.668">c</text>
	<text transform="matrix(1 0 0 1 760.2725 144.0022)" fill="#8F98A1" font-family="'Lora-Italic'" font-size="16.668">h</text>
	<text transform="matrix(1 0 0 1 769.957 144.0022)" fill="#8F98A1" font-family="'Lora-Italic'" font-size="16.668">™</text>
	<g>
		<path opacity="0.6" fill="#8F98A1" enable-background="new    " d="M91.618,197.102c-8.864-0.127-18.75-1.332-28.277-4.76
			c-2.411-0.865-4.655-2.084-6.969-3.146c-0.476-0.219-1.217-0.559-0.96-1.146c0.336-0.811,1.073-0.311,1.587-0.049
			c12.896,6.65,26.733,8.453,40.984,7.588c11.117-0.68,21.743-3.492,31.766-8.463c10.861-5.387,17.917-14.096,21.797-25.371
			c5.062-14.717,5.409-29.338-1.9-43.561c-0.816-1.584-1.832-3.078-2.806-4.584c-0.405-0.627-0.902-1.229-1.736-1.365
			c-0.659-0.105-1.477-0.549-1.928,0.016c-0.331,0.41,0.416,0.92,0.669,1.395c1.016,1.9,0.502,3.051-1.747,3.607
			c-3.388,0.844-6.709,0.314-9.987-0.666c-4.47-1.352-8.445-3.703-12.372-6.154c-0.849-0.525-1.688-1.527-2.546,0.178
			c-0.434,0.842-1.598,0.689-2.49,0.615c-3.321-0.273-6.245-1.621-8.961-3.461c-4.391-2.977-7.282-7.293-10.285-11.502
			c-0.221-0.316-0.78-0.846-0.118-1.211c0.664-0.366,0.955,0.302,1.27,0.731c2.444,3.268,5.113,6.337,8.29,8.931
			c2.757,2.244,5.74,4.074,9.318,4.686c0.762,0.137,1.87,0.533,2.254-0.301c0.362-0.766-0.72-1.197-1.256-1.664
			c-2.444-2.135-4.599-4.572-7.23-6.496c-0.557-0.41-1.672-0.979-1.149-1.618c0.584-0.727,1.323,0.274,1.831,0.75
			c6.953,6.424,15.116,10.803,23.87,14.182c2.257,0.873,4.55,1.682,7.009,1.613c1.254-0.035,3.111,0.121,3.219-1.426
			c0.095-1.443-1.072-2.928-2.767-3.188c-7.205-1.105-12.431-5.648-17.743-10.062c-0.467-0.387-1.457-0.922-0.962-1.527
			c0.498-0.599,1.251,0.183,1.724,0.613c4.37,4.021,9.243,7.166,14.962,8.947c6.891,2.146,13.783,2.705,20.72,0.311
			c0.844-0.301,1.668-0.656,2.467-1.061c0.792-0.387,0.795-0.906,0.054-1.355c-2.475-1.506-4.875-2.668-8.061-2.562
			c-8.907,0.299-17.57-1.221-25.788-4.844c-0.416-0.185-1.093-0.331-0.849-0.938c0.272-0.711,0.936-0.352,1.441-0.211
			c4.442,1.254,8.807,2.784,13.357,3.661c7.44,1.438,14.801,1.643,21.954-1.393c0.716-0.305,1.955-0.432,1.785-1.365
			c-0.154-0.854-1.359-0.706-2.157-0.749c-2.891-0.154-5.784-0.259-8.682-0.408c-0.236-0.014-0.662-0.161-0.662-0.254
			c-0.01-0.364,0.356-0.364,0.613-0.364c3.447-0.008,6.901-0.104,10.331,0.336c0.739,0.102,1.557,0.367,1.813,1.19
			c0.292,0.936-0.38,1.573-0.988,2.114c-1.375,1.223-3.093,1.773-4.788,2.352c-0.377,0.133-0.908,0.174-0.903,0.654
			c0.008,0.203,0.479,0.43,0.762,0.604c1.239,0.787,3.09,1.197,2.801,3.135c-0.274,1.855-1.962,2.533-3.519,3.139
			c-1.88,0.736-3.844,1.117-5.845,1.264c-1.083,0.082-1.21,0.434-0.713,1.438c8.486,17.191,8.115,34.652,0.905,52.027
			c-4.099,9.896-12.003,16.518-21.195,21.619C120.384,194.475,106.892,197.043,91.618,197.102"/>
		<path opacity="0.6" fill="#8F98A1" enable-background="new    " d="M80.578,61.462c6.818,0.314,12.639,3.055,17.772,7.434
			c4.602,3.921,8.208,8.745,12.026,13.371c0.338,0.414,1.085,0.998,0.377,1.547c-0.536,0.422-1.177-0.119-1.642-0.521
			c-2.336-1.978-4.134-4.429-5.937-6.871c-4.181-5.68-9.477-9.778-16.366-11.643c-5.691-1.551-11.292-1.562-16.801,0.858
			c-2.835,1.245-5.773,2.294-8.465,3.836c-0.32,0.184-0.898,0.323-0.642,0.852c0.084,0.177,0.613,0.204,0.927,0.19
			c1.104-0.047,2.204-0.196,3.304-0.203c0.743-0.006,1.626,0,1.9,0.907c0.274,0.945-0.134,1.753-0.896,2.357
			c-0.982,0.784-2.164,0.804-3.339,0.874c-0.283,0.016-0.749-0.296-0.815,0.241c-0.022,0.146,0.345,0.374,0.565,0.507
			c1.833,1.1,3.702,2.133,5.505,3.281c11.917,7.617,19.817,18.593,25.832,31.112c1.341,2.787,1.353,5.877,1.843,8.871
			c2.06,12.783,5.644,25.027,13.532,35.594c6.16,8.254,14.072,13.893,24.313,16.031c1.595,0.34,3.301,0.646,4.596,1.863
			c-1.675,0.264-3.301-0.166-4.909-0.455c-9.041-1.617-16.411-6.246-22.674-12.793c-9.68-10.125-15.15-22.51-16.194-36.15
			c-0.982-12.99-6.795-22.994-14.921-32.309c-3.783-4.33-7.874-8.302-12.792-11.355c-4.806-2.992-9.968-4.506-15.634-4.773
			c-11.297-0.526-22.493,0.409-33.573,2.431c-6.553,1.194-12.494,3.936-16.904,9.258c-0.274,0.33-0.654,1.026-1.057,0.711
			c-0.458-0.367,0.204-0.817,0.444-1.178c3.283-4.822,8.146-7.307,13.511-8.99c7.426-2.33,15.135-2.985,22.833-3.647
			c5.293-0.458,10.585-0.906,15.884-1.322c2.481-0.185,4.66-1.12,6.743-2.4c5.859-3.613,11.96-6.603,18.954-7.273
			C78.77,61.615,79.664,61.545,80.578,61.462"/>
		<path opacity="0.6" fill="#8F98A1" enable-background="new    " d="M202.273,27.609c-0.487,2.424-1.634,4.71-2.86,6.941
			c-3.439,6.267-8.194,11.391-13.752,15.823c-0.318,0.25-0.605,0.916-1.131,0.43c-0.11-0.104,0.162-0.768,0.395-1.062
			c0.521-0.645,1.077-1.265,1.706-1.795c5.422-4.559,9.402-10.229,12.747-16.396c0.236-0.435,0.779-0.833,0.416-1.46
			c-0.4,0.259-0.834,0.475-1.188,0.78c-7.72,6.676-15.442,13.353-23.152,20.037c-13.508,11.702-27.786,22.207-44.338,29.317
			c-10.497,4.519-21.392,7.673-32.634,9.667c-1.563,0.282-3.158,0.296-4.746,0.176c-0.468-0.035-1.156,0.008-1.198-0.563
			c-0.057-0.795,0.752-0.655,1.232-0.695c5.105-0.459,10.095-1.508,15.017-2.867c4.845-1.344,9.7-2.683,14.347-4.646
			c2.234-0.944,4.383-2.062,6.163-3.732c9.525-8.897,19.895-16.841,29.302-25.874c1.788-1.717,3.565-3.454,5.378-5.154
			c0.387-0.357,0.887-0.829,1.457-0.527c0.6,0.324,0.431,1.008,0.226,1.49c-1.464,3.449-3.231,6.713-6.019,9.304
			c-0.218,0.196-0.5,0.625-0.831,0.351c-0.346-0.289,0.031-0.625,0.203-0.887c1.295-1.95,2.731-3.816,3.708-5.963
			c0.1-0.227,0.218-0.655,0.121-0.726c-0.267-0.203-0.457,0.113-0.634,0.289c-9.01,8.965-19.048,16.77-28.471,25.27
			c-0.351,0.314-0.656,0.698-0.979,1.049c0.628,0.351,1.049-0.169,1.487-0.401c11.479-6.035,22.505-12.894,32.992-20.522
			c10.785-7.853,20.936-16.427,30.284-25.956c1.016-1.039,2.093-2.001,3.339-2.762c0.356-0.216,0.738-0.459,1.146-0.178
			C202.408,26.638,202.342,27.083,202.273,27.609 M145.913,96.981c-5.963-0.023-11.8-1.106-17.65-2.105
			c-0.47-0.084-1.3-0.057-1.142-0.823c0.105-0.535,0.826-0.373,1.277-0.322c3.08,0.329,6.153,0.823,9.243,1.033
			c9.656,0.661,19.127-0.479,28.399-3.247c1.18-0.352,2.306-0.913,3.424-1.442c0.6-0.29,1.457-0.592,1.308-1.396
			c-0.149-0.851-1.067-0.73-1.721-0.726c-2.898,0.023-5.806-0.042-8.689,0.186c-6.255,0.493-12.495,1.141-18.746,1.723
			c-0.377,0.034-0.957,0.282-1.026-0.239c-0.077-0.591,0.577-0.711,1.026-0.754c3.296-0.297,6.607-0.506,9.89-0.837
			c10.536-1.069,20.307-4.406,29.292-10.02c0.295-0.185,0.605-0.353,0.846-0.59c0.649-0.647,2.049-1.125,1.631-2.085
			c-0.344-0.789-1.742-0.599-2.696-0.515c-3.242,0.274-6.376,1.113-9.541,1.816c-5.18,1.158-10.369,2.28-15.565,3.366
			c-3.106,0.653-6.191,1.365-9.1,2.695c-0.413,0.191-1.031,0.612-1.259,0.078c-0.213-0.501,0.5-0.79,0.928-0.915
			c3.437-1.042,6.725-2.457,9.984-3.941c6.843-3.106,13.806-5.979,20.466-9.437c5.34-2.771,9.782-6.908,13.931-11.271
			c0.354-0.373,0.99-0.873,0.628-1.366c-0.354-0.479-1.043-0.091-1.528,0.128c-3.224,1.415-6.594,2.429-9.943,3.5
			c-0.592,0.19-1.159,0.428-1.757,0.599c-0.377,0.106-0.903,0.31-1.042-0.24c-0.136-0.499,0.364-0.704,0.744-0.811
			c1.936-0.541,3.765-1.35,5.591-2.161c2.893-1.286,5.725-2.75,8.881-3.34c0.841-0.155,1.842-0.729,2.475,0.222
			c0.541,0.814,0.149,1.747-0.236,2.57c-0.764,1.654-1.975,2.979-3.221,4.274c-6.43,6.618-14.354,10.862-22.677,14.51
			c-0.746,0.323-1.593,0.466-2.157,1.134c0.841,0.437,1.598-0.099,2.362-0.254c3.791-0.767,7.525-1.753,11.375-2.195
			c1.693-0.19,3.863-0.641,4.681,1.119c0.887,1.907-1.195,2.999-2.434,4.076c-3.367,2.929-7.294,4.937-11.413,6.591
			c-0.452,0.185-1.285,0.12-1.231,0.839c0.041,0.498,0.782,0.42,1.19,0.625c0.249,0.122,0.536,0.136,0.8,0.228
			c2.003,0.683,2.231,1.612,0.597,3.021c-2.495,2.161-5.483,3.422-8.63,4.309C157.744,96.204,151.861,96.895,145.913,96.981"/>
		<path opacity="0.6" fill="#8F98A1" enable-background="new    " d="M151.235,11.402c0.026,6.64-1.487,12.997-3.596,19.221
			c-1.767,5.225-3.693,10.392-5.57,15.573c-0.141,0.379-0.162,1.126-0.805,0.937c-0.377-0.113-0.244-0.739-0.144-1.127
			c0.226-0.864,0.449-1.731,0.762-2.57c3.116-8.336,6.292-16.658,7.479-25.542c0.577-4.288,1.359-8.625-0.105-12.912
			c-0.369-1.079-0.508-2.625-1.885-2.651c-1.372-0.018-1.634,1.52-1.985,2.597c-1.682,5.13-2.323,10.495-3.236,15.783
			c-2.426,13.939-6.679,27.311-12.349,40.229c-1.934,4.401-4.604,8.47-7.632,12.258c-1.943,2.42-3.903,4.826-5.881,7.218
			c-0.485,0.57-1.052,1.083-1.629,1.569c-0.251,0.218-0.664,0.365-0.946,0.098c-0.479-0.437,0.028-0.69,0.274-0.978
			c0.744-0.904,1.459-1.839,2.26-2.698c8.714-9.392,14.044-20.586,18.106-32.638c3.788-11.251,5.707-22.845,7.738-34.449
			c0.495-2.787,1.105-5.562,2.601-8.023c0.61-1.002,1.326-2.055,2.662-2.04c1.446,0.01,2.111,1.131,2.703,2.26
			C151.371,6.001,151.23,8.714,151.235,11.402 M160.683,22.823c-0.172,5.483-2.139,10.174-4.403,14.776
			c-2.4,4.886-5.014,9.659-7.907,14.284c-0.189,0.311-0.6,0.62-0.312,1.099c0.292-0.25,0.623-0.465,0.859-0.754
			c3.488-4.272,6.966-8.555,10.441-12.834c0.875-1.077,1.821-2.077,2.937-2.9c0.531-0.395,1.134-0.993,1.841-0.612
			c0.628,0.336,0.398,1.112,0.388,1.695c-0.016,0.688-0.041,1.402-0.251,2.043c-1.352,4.025-3.529,7.617-6.048,11.004
			c-0.244,0.32-0.492,1.017-1.041,0.626c-0.352-0.246,0.036-0.761,0.187-1.126c0.636-1.541,1.603-2.887,2.526-4.261
			c1.308-1.957,2.4-4.027,3.104-6.279c0.177-0.563,0.621-1.345,0.046-1.69c-0.449-0.274-0.864,0.514-1.233,0.896
			c-3.509,3.618-6.666,7.538-9.782,11.493c-5.088,6.438-10.046,12.985-16.255,18.443c-0.513,0.457-1.021,0.922-1.569,1.342
			c-0.236,0.177-0.508,0.677-0.813,0.318c-0.208-0.254,0.174-0.628,0.431-0.818c1.564-1.181,2.601-2.82,3.868-4.272
			c7.851-9.021,13.38-19.476,18.463-30.173c1.78-3.747,2.865-7.767,3.101-11.949c0.057-0.895,0.41-2.226-0.618-2.557
			c-0.867-0.28-1.39,0.938-1.888,1.649c-4.77,6.766-7.663,14.461-10.897,21.995c-0.679,1.58-1.467,3.119-2.229,4.66
			c-0.103,0.203-0.364,0.333-0.557,0.496c0.01-0.259-0.056-0.547,0.036-0.774c3.48-9.369,6.909-18.762,12.311-27.265
			c0.367-0.576,0.759-1.154,1.203-1.676c0.559-0.661,1.059-1.599,2.154-1.235c1.08,0.355,1.646,1.217,1.777,2.334
			C160.635,21.556,160.653,22.308,160.683,22.823 M91.977,75.37c-0.035,0.79-0.572,0.613-0.882,0.466
			c-0.861-0.435-1.695-0.922-2.497-1.458c-2.766-1.824-5.752-2.971-9.104-3.021c-1.504-0.014-2.852-0.506-4.084-1.296
			c-1.798-1.146-3.633-1.646-5.662-0.646c-0.301,0.153-0.669,0.395-0.845-0.057c-0.162-0.395,0.232-0.627,0.534-0.745
			c0.893-0.375,1.784-0.754,2.712-1.021c1.418-0.409,2.615-0.98,3.562-2.254c1.176-1.59,3.533-1.444,4.483,0.442
			c1.576,3.155,4.268,4.752,7.211,6.183c1.373,0.668,2.616,1.542,3.77,2.547C91.485,74.773,91.737,75.104,91.977,75.37
			 M77.291,70.077c1.723-0.042,3-1.155,2.896-2.465c-0.128-1.542-1.162-2.09-2.553-2.067c-1.393,0.021-2.666,1.394-2.526,2.716
			C75.253,69.634,76.24,69.999,77.291,70.077"/>
		<path opacity="0.6" fill="#8F98A1" enable-background="new    " d="M77.299,66.804c0.64,0.021,1.051,0.355,1.146,0.97
			c0.083,0.521-0.088,1.028-0.697,1.05c-0.694,0.021-1.216-0.389-1.329-1.069C76.333,67.198,76.784,66.925,77.299,66.804
			 M91.618,197.102c-8.864-0.127-18.75-1.332-28.277-4.76c-2.411-0.865-4.655-2.084-6.969-3.146
			c-0.476-0.219-1.217-0.559-0.96-1.146c0.336-0.811,1.073-0.311,1.587-0.049c12.896,6.65,26.733,8.453,40.984,7.588
			c11.117-0.68,21.743-3.492,31.766-8.463c10.861-5.387,17.917-14.096,21.797-25.371c5.062-14.717,5.409-29.338-1.9-43.561
			c-0.816-1.584-1.832-3.078-2.806-4.584c-0.405-0.627-0.902-1.229-1.736-1.365c-0.659-0.105-1.477-0.549-1.928,0.016
			c-0.331,0.41,0.416,0.92,0.669,1.395c1.016,1.9,0.502,3.051-1.747,3.607c-3.388,0.844-6.709,0.314-9.987-0.666
			c-4.47-1.352-8.445-3.703-12.372-6.154c-0.849-0.525-1.688-1.527-2.546,0.178c-0.434,0.842-1.598,0.689-2.49,0.615
			c-3.321-0.273-6.245-1.621-8.961-3.461c-4.391-2.977-7.282-7.293-10.285-11.502c-0.221-0.316-0.78-0.846-0.118-1.211
			c0.664-0.366,0.955,0.302,1.27,0.731c2.444,3.268,5.113,6.337,8.29,8.931c2.757,2.244,5.74,4.074,9.318,4.686
			c0.762,0.137,1.87,0.533,2.254-0.301c0.362-0.766-0.72-1.197-1.256-1.664c-2.444-2.135-4.599-4.572-7.23-6.496
			c-0.557-0.41-1.672-0.979-1.149-1.618c0.584-0.727,1.323,0.274,1.831,0.75c6.953,6.424,15.116,10.803,23.87,14.182
			c2.257,0.873,4.55,1.682,7.009,1.613c1.254-0.035,3.111,0.121,3.219-1.426c0.095-1.443-1.072-2.928-2.767-3.188
			c-7.205-1.105-12.431-5.648-17.743-10.062c-0.467-0.387-1.457-0.922-0.962-1.527c0.498-0.599,1.251,0.183,1.724,0.613
			c4.37,4.021,9.243,7.166,14.962,8.947c6.891,2.146,13.783,2.705,20.72,0.311c0.844-0.301,1.668-0.656,2.467-1.061
			c0.792-0.387,0.795-0.906,0.054-1.355c-2.475-1.506-4.875-2.668-8.061-2.562c-8.907,0.299-17.57-1.221-25.788-4.844
			c-0.416-0.185-1.093-0.331-0.849-0.938c0.272-0.711,0.936-0.352,1.441-0.211c4.442,1.254,8.807,2.784,13.357,3.661
			c7.44,1.438,14.801,1.643,21.954-1.393c0.716-0.305,1.955-0.432,1.785-1.365c-0.154-0.854-1.359-0.706-2.157-0.749
			c-2.891-0.154-5.784-0.259-8.682-0.408c-0.236-0.014-0.662-0.161-0.662-0.254c-0.01-0.364,0.356-0.364,0.613-0.364
			c3.447-0.008,6.901-0.104,10.331,0.336c0.739,0.102,1.557,0.367,1.813,1.19c0.292,0.936-0.38,1.573-0.988,2.114
			c-1.375,1.223-3.093,1.773-4.788,2.352c-0.377,0.133-0.908,0.174-0.903,0.654c0.008,0.203,0.479,0.43,0.762,0.604
			c1.239,0.787,3.09,1.197,2.801,3.135c-0.274,1.855-1.962,2.533-3.519,3.139c-1.88,0.736-3.844,1.117-5.845,1.264
			c-1.083,0.082-1.21,0.434-0.713,1.438c8.486,17.191,8.115,34.652,0.905,52.027c-4.099,9.896-12.003,16.518-21.195,21.619
			C120.384,194.475,106.892,197.043,91.618,197.102"/>
		<path opacity="0.6" fill="#8F98A1" enable-background="new    " d="M80.578,61.462c6.818,0.314,12.639,3.055,17.772,7.434
			c4.602,3.921,8.208,8.745,12.026,13.371c0.338,0.414,1.085,0.998,0.377,1.547c-0.536,0.422-1.177-0.119-1.642-0.521
			c-2.336-1.978-4.134-4.429-5.937-6.871c-4.181-5.68-9.477-9.778-16.366-11.643c-5.691-1.551-11.292-1.562-16.801,0.858
			c-2.835,1.245-5.773,2.294-8.465,3.836c-0.32,0.184-0.898,0.323-0.642,0.852c0.084,0.177,0.613,0.204,0.927,0.19
			c1.104-0.047,2.204-0.196,3.304-0.203c0.743-0.006,1.626,0,1.9,0.907c0.274,0.945-0.134,1.753-0.896,2.357
			c-0.982,0.784-2.164,0.804-3.339,0.874c-0.283,0.016-0.749-0.296-0.815,0.241c-0.022,0.146,0.345,0.374,0.565,0.507
			c1.833,1.1,3.702,2.133,5.505,3.281c11.917,7.617,19.817,18.593,25.832,31.112c1.341,2.787,1.353,5.877,1.843,8.871
			c2.06,12.783,5.644,25.027,13.532,35.594c6.16,8.254,14.072,13.893,24.313,16.031c1.595,0.34,3.301,0.646,4.596,1.863
			c-1.675,0.264-3.301-0.166-4.909-0.455c-9.041-1.617-16.411-6.246-22.674-12.793c-9.68-10.125-15.15-22.51-16.194-36.15
			c-0.982-12.99-6.795-22.994-14.921-32.309c-3.783-4.33-7.874-8.302-12.792-11.355c-4.806-2.992-9.968-4.506-15.634-4.773
			c-11.297-0.526-22.493,0.409-33.573,2.431c-6.553,1.194-12.494,3.936-16.904,9.258c-0.274,0.33-0.654,1.026-1.057,0.711
			c-0.458-0.367,0.204-0.817,0.444-1.178c3.283-4.822,8.146-7.307,13.511-8.99c7.426-2.33,15.135-2.985,22.833-3.647
			c5.293-0.458,10.585-0.906,15.884-1.322c2.481-0.185,4.66-1.12,6.743-2.4c5.859-3.613,11.96-6.603,18.954-7.273
			C78.77,61.615,79.664,61.545,80.578,61.462"/>
	</g>
</g>
</svg>
