<?xml version="1.0" encoding="utf-8"?>
<!-- Generator: Adobe Illustrator 16.0.0, SVG Export Plug-In . SVG Version: 6.00 Build 0)  -->
<!DOCTYPE svg PUBLIC "-//W3C//DTD SVG 1.1//EN" "http://www.w3.org/Graphics/SVG/1.1/DTD/svg11.dtd">
<svg version="1.1" id="Layer_1" xmlns="http://www.w3.org/2000/svg" xmlns:xlink="http://www.w3.org/1999/xlink" x="0px" y="0px"
	 width="361.705px" height="129.145px" viewBox="0 0 361.705 129.145" enable-background="new 0 0 361.705 129.145"
	 xml:space="preserve">
<path fill="#8B5C7A" d="M0,57.055l1.107-1.266c0.949,0,2.371-0.215,4.268-0.628c1.897-0.423,3.822-0.922,5.771-1.506
	c1.949-0.579,4.399-1.287,7.354-2.134c0-1.26,0.05-3.37,0.153-6.321c0.104-2.949,0.291-6.3,0.558-10.037
	c0.263-3.745,0.631-7.616,1.104-11.621c0.476-4.005,1.108-7.667,1.897-10.986c0.79-3.322,1.765-6.062,2.927-8.225
	c1.157-2.161,2.527-3.243,4.108-3.243c1.37,0,2.583,0.87,3.636,2.609c1.053,1.742,1.978,3.983,2.769,6.722
	c0.787,2.743,1.42,5.769,1.896,9.087c0.476,3.319,0.87,6.509,1.186,9.565c0.315,3.059,0.552,5.825,0.712,8.302
	c0.156,2.475,0.238,4.244,0.238,5.294c1.579-0.632,3.188-1.289,4.819-1.976c1.635-0.684,3.348-1.029,5.138-1.029l0.949,1.107
	c-0.104,0.316-0.631,0.686-1.582,1.107c-0.945,0.426-2.004,0.844-3.161,1.268c-1.161,0.421-2.292,0.789-3.399,1.102
	c-1.103,0.319-1.871,0.528-2.292,0.635c0.211,2.112,0.579,5.297,1.107,9.566c0.525,4.267,1.185,8.695,1.976,13.279
	c0.793,4.584,1.687,8.852,2.688,12.803c1.004,3.957,2.082,6.664,3.243,8.145c0.524,0.734,1.317,1.341,2.371,1.818
	c1.052,0.473,1.685,1.131,1.897,1.979l-1.109,1.1c-1.578,0-3.031-1.004-4.346-3.004c-1.32-2-2.506-4.557-3.555-7.66
	c-1.057-3.11-1.98-6.562-2.771-10.36c-0.788-3.795-1.45-7.453-1.974-10.986c-0.529-3.533-0.95-6.744-1.267-9.645
	c-0.317-2.896-0.528-4.981-0.631-6.241c-2.85,1.153-5.694,2.343-8.54,3.549c-2.844,1.217-5.69,2.403-8.539,3.56v27.667
	c0,0.418-0.104,1.293-0.312,2.61c-0.214,1.317-0.634,1.979-1.266,1.979c-0.631,0-1.025-0.479-1.186-1.422
	c-0.16-0.953-0.236-1.748-0.236-2.373c0-4.533,0.103-9.095,0.312-13.679c0.212-4.584,0.318-9.142,0.318-13.678
	c-2.741,1.057-5.533,1.979-8.381,2.771c-2.843,0.789-5.745,1.341-8.696,1.657L0,57.055z M29.562,3.936
	c-1.158,0-2.186,1.003-3.08,3.004c-0.897,2.004-1.661,4.584-2.295,7.747c-0.631,3.161-1.158,6.616-1.582,10.351
	c-0.422,3.745-0.766,7.332-1.025,10.753c-0.264,3.429-0.448,6.514-0.552,9.248c-0.107,2.748-0.16,4.584-0.16,5.539
	c2.844-1.158,5.637-2.375,8.379-3.641c2.738-1.26,5.533-2.471,8.38-3.635c-0.106-0.949-0.235-2.552-0.397-4.82
	c-0.157-2.268-0.396-4.874-0.708-7.828c-0.319-2.949-0.689-5.981-1.109-9.093c-0.42-3.104-0.922-5.973-1.501-8.611
	c-0.579-2.632-1.238-4.797-1.973-6.486C31.199,4.782,30.408,3.936,29.562,3.936"/>
<path fill="#8B5C7A" d="M59.599,74.924c-0.844,0-1.479-1.265-1.896-3.796c-0.422-2.53-0.739-5.849-0.948-9.962
	c-0.212-4.111-0.449-8.771-0.713-13.993c-0.264-5.211-0.631-10.512-1.104-15.887s-1.162-10.567-2.055-15.572
	c-0.897-5.005-2.137-9.405-3.717-13.199l-0.157-0.634l1.105-1.265c0.843,0,1.503,0.637,1.977,1.899
	c0.476,1.265,0.815,2.213,1.027,2.841c1.367,4.956,2.42,10.124,3.162,15.494c0.736,5.378,1.288,10.833,1.661,16.367
	c0.364,5.533,0.657,11.044,0.867,16.519c0.212,5.479,0.526,10.81,0.95,15.966c0.315-1.367,0.711-3.371,1.187-6.004
	c0.475-2.639,1.051-5.561,1.74-8.777c0.684-3.211,1.446-6.482,2.289-9.798c0.843-3.319,1.792-6.351,2.85-9.091
	c1.048-2.745,2.21-4.979,3.476-6.718c1.266-1.742,2.688-2.614,4.269-2.614c2.001,0,3.662,0.818,4.979,2.453
	c1.317,1.635,2.345,3.56,3.083,5.769c0.736,2.212,1.238,4.485,1.503,6.796c0.261,2.325,0.395,4.217,0.395,5.697
	c0,1.791-0.291,4.477-0.87,8.059c-0.579,3.587-1.449,7.168-2.604,10.755c-1.163,3.581-2.588,6.718-4.272,9.404
	c-1.689,2.687-3.69,4.033-6.006,4.033c-0.95,0-1.658-0.264-2.135-0.795c-0.477-0.519-0.816-1.184-1.027-1.972
	c-0.212-0.788-0.343-1.636-0.396-2.531c-0.053-0.896-0.136-1.661-0.238-2.289l1.265-1.265l0.949,0.787l0.947,5.379l1.425,0.154
	c3.582-3.688,6.321-8.09,8.222-13.199c1.897-5.11,2.843-10.246,2.843-15.415c0-1.051-0.157-2.632-0.472-4.745
	c-0.319-2.104-0.82-4.238-1.501-6.402c-0.689-2.16-1.529-4.053-2.53-5.688c-1.005-1.636-2.188-2.451-3.559-2.451
	c-1.158,0-2.268,0.869-3.319,2.608c-1.057,1.737-2.031,3.976-2.926,6.715c-0.896,2.745-1.74,5.748-2.528,9.013
	c-0.791,3.271-1.477,6.434-2.056,9.485c-0.582,3.061-1.106,5.801-1.582,8.225c-0.472,2.423-0.815,4.111-1.029,5.055
	c-0.211,0.531-0.499,1.422-0.868,2.687C60.89,74.286,60.335,74.924,59.599,74.924"/>
<path fill="#8B5C7A" d="M94.38,74.924c-0.846,0-1.478-1.265-1.896-3.796c-0.424-2.53-0.739-5.849-0.948-9.962
	c-0.213-4.111-0.451-8.771-0.713-13.993c-0.264-5.211-0.631-10.512-1.107-15.887c-0.472-5.375-1.16-10.567-2.055-15.572
	c-0.895-5.005-2.134-9.405-3.714-13.199l-0.157-0.634l1.105-1.265c0.843,0,1.501,0.637,1.975,1.899
	c0.474,1.265,0.817,2.213,1.029,2.841c1.367,4.956,2.421,10.124,3.162,15.494c0.735,5.378,1.289,10.833,1.657,16.367
	c0.367,5.533,0.66,11.044,0.87,16.519c0.211,5.479,0.526,10.81,0.95,15.966c0.312-1.367,0.708-3.371,1.188-6.004
	c0.474-2.639,1.05-5.561,1.736-8.777c0.687-3.211,1.449-6.482,2.292-9.798c0.844-3.319,1.792-6.351,2.848-9.091
	c1.051-2.745,2.211-4.979,3.479-6.718c1.266-1.742,2.688-2.614,4.268-2.614c2.001,0,3.663,0.818,4.979,2.453
	c1.317,1.635,2.344,3.56,3.083,5.769c0.735,2.212,1.238,4.485,1.501,6.796c0.261,2.325,0.396,4.217,0.396,5.697
	c0,1.791-0.293,4.477-0.87,8.059c-0.579,3.587-1.449,7.168-2.604,10.755c-1.165,3.581-2.587,6.718-4.271,9.404
	c-1.688,2.687-3.69,4.033-6.006,4.033c-0.95,0-1.658-0.264-2.136-0.795c-0.476-0.519-0.815-1.184-1.026-1.972
	s-0.344-1.636-0.396-2.531c-0.055-0.896-0.136-1.661-0.239-2.289l1.267-1.265l0.949,0.787l0.947,5.379l1.426,0.154
	c3.578-3.688,6.32-8.09,8.221-13.199c1.897-5.11,2.844-10.246,2.844-15.415c0-1.051-0.16-2.632-0.472-4.745
	c-0.319-2.104-0.82-4.238-1.501-6.402c-0.689-2.16-1.529-4.053-2.532-5.688c-1.003-1.636-2.19-2.451-3.558-2.451
	c-1.16,0-2.267,0.869-3.318,2.608c-1.056,1.737-2.031,3.976-2.926,6.715c-0.896,2.745-1.74,5.748-2.528,9.013
	c-0.791,3.271-1.477,6.434-2.056,9.485c-0.582,3.061-1.105,5.801-1.582,8.225c-0.475,2.423-0.814,4.111-1.029,5.055
	c-0.211,0.531-0.499,1.422-0.868,2.687C95.67,74.286,95.116,74.924,94.38,74.924"/>
<path fill="#8B5C7A" d="M125.365,28.442l1.267,1.102c0,1.796-0.03,3.984-0.081,6.565c-0.055,2.582-0.078,5.402-0.078,8.458
	c0,2.847,0.023,5.796,0.078,8.852c0.05,3.056,0.212,5.983,0.475,8.776c0.262,2.794,0.604,5.352,1.026,7.668
	c0.422,2.316,1,4.16,1.741,5.533c0.631-0.107,1.446-1.314,2.449-3.641c0.999-2.316,2.056-5.158,3.162-8.53
	c1.105-3.372,2.237-7.089,3.397-11.152c1.159-4.053,2.239-7.924,3.242-11.619c1-3.689,1.896-6.98,2.686-9.881
	c0.793-2.895,1.396-4.922,1.819-6.085l0.949-0.472c0.633,0.102,1.209,1.051,1.739,2.845c0.527,1.793,0.949,4.163,1.263,7.117
	c0.319,2.949,0.579,6.268,0.793,9.957c0.208,3.688,0.34,7.426,0.396,11.227c0.05,3.796,0.104,7.507,0.16,11.142
	c0.048,3.641,0.076,6.825,0.076,9.564v-1.736c0.635,0.107,1.426,0.235,2.371,0.396c0.951,0.156,1.527,0.605,1.742,1.34l-1.422,1.111
	l-2.531-0.473v6.717c0,3.104-0.106,6.61-0.318,10.51s-0.527,7.931-0.946,12.097c-0.424,4.166-1.082,7.981-1.978,11.463
	c-0.897,3.475-2.056,6.326-3.479,8.541c-1.422,2.209-3.188,3.312-5.294,3.312c-2.108,0-3.771-0.66-4.984-1.974
	c-1.21-1.317-2.158-2.899-2.843-4.743c-0.687-1.847-1.134-3.798-1.346-5.851c-0.211-2.061-0.312-3.822-0.312-5.293
	c0-2.953,0.34-6.428,1.026-10.434c0.684-4.01,1.79-7.908,3.321-11.703c1.524-3.791,3.5-7.143,5.926-10.037
	c2.425-2.895,5.375-4.665,8.851-5.297v-13.12c0-5.378-0.131-10.755-0.396-16.127c-0.264-5.377-0.922-10.487-1.974-15.334
	c-0.53,1.161-1.161,3.158-1.896,6.005c-0.739,2.847-1.558,6.063-2.452,9.645c-0.897,3.587-1.873,7.324-2.923,11.227
	c-1.057,3.897-2.164,7.452-3.323,10.67c-1.161,3.217-2.315,5.849-3.474,7.903c-1.162,2.053-2.271,3.082-3.322,3.082
	c-1.058,0-1.924-1.029-2.611-3.082c-0.684-2.055-1.238-4.687-1.66-7.903c-0.42-3.218-0.736-6.724-0.945-10.515
	c-0.213-3.796-0.343-7.484-0.398-11.066c-0.055-3.582-0.077-6.801-0.077-9.643v-6.013L125.365,28.442z M141.806,126.303
	c2.107-3.062,3.717-6.689,4.822-10.91c1.107-4.215,1.897-8.615,2.373-13.201c0.473-4.582,0.708-9.146,0.708-13.676V76.184
	c-1.683,0-3.293,0.688-4.819,2.06c-1.529,1.367-2.954,3.105-4.27,5.21c-1.316,2.106-2.476,4.481-3.479,7.114
	c-1.001,2.64-1.845,5.244-2.528,7.828c-0.689,2.578-1.213,5.002-1.58,7.271c-0.374,2.268-0.552,4.086-0.552,5.459
	c0,1.158,0.102,2.633,0.312,4.43c0.211,1.783,0.607,3.5,1.187,5.135c0.579,1.631,1.37,3.029,2.372,4.188
	c1.001,1.158,2.345,1.738,4.031,1.738C140.701,126.617,141.175,126.509,141.806,126.303"/>
<path fill="#8B5C7A" d="M181.644,10.42l1.105,1.104c0.211,8.117,0.448,16.181,0.714,24.191c0.261,8.01,0.656,16.068,1.183,24.186
	c0.106-1.266,0.423-3.56,0.951-6.879c0.526-3.319,1.186-7.085,1.977-11.305c0.79-4.211,1.658-8.583,2.607-13.117
	c0.948-4.53,1.95-8.696,3.004-12.492c1.053-3.793,2.135-6.9,3.239-9.325c1.107-2.423,2.189-3.637,3.24-3.637
	c0.634,0,1.16,0.818,1.584,2.452c0.417,1.635,0.708,3.579,0.867,5.851c0.16,2.263,0.263,4.558,0.318,6.874
	c0.049,2.322,0.08,4.107,0.08,5.372c0,0.322,0.022,1.426,0.075,3.325c0.054,1.898,0.156,4.187,0.318,6.878
	c0.156,2.684,0.312,5.587,0.473,8.691c0.159,3.112,0.367,6.117,0.632,9.013c0.264,2.9,0.578,5.453,0.949,7.666
	c0.368,2.215,0.764,3.743,1.187,4.585c1.055-1.684,2.107-4.289,3.163-7.823c1.051-3.533,2.078-7.43,3.082-11.698
	c1-4.273,2.057-8.669,3.162-13.205c1.105-4.525,2.214-8.638,3.318-12.327c1.106-3.688,2.292-6.723,3.559-9.092
	c1.263-2.373,2.58-3.562,3.949-3.562c0.735,0,1.397,0.978,1.979,2.926c0.576,1.956,1.104,4.537,1.578,7.749
	c0.476,3.217,0.924,6.825,1.346,10.831c0.419,4.005,0.814,8.091,1.187,12.251c0.366,4.166,0.711,8.195,1.026,12.095
	c0.317,3.898,0.634,7.27,0.949,10.117c0.209,2.43,0.606,4.954,1.184,7.586c0.578,2.639,0.869,5.115,0.869,7.432
	c0,0.215-0.076,0.504-0.234,0.869c-0.157,0.375-0.396,0.552-0.71,0.552c-0.633,0-1.188-0.868-1.662-2.605
	c-0.474-1.737-0.926-4.032-1.342-6.874c-0.424-2.847-0.818-6.063-1.188-9.645c-0.369-3.582-0.71-7.249-1.029-10.992
	c-0.313-3.739-0.631-7.351-0.944-10.825c-0.316-3.482-0.58-6.536-0.791-9.171c-0.316-3.268-0.609-6.506-0.867-9.726
	c-0.269-3.209-0.979-6.345-2.141-9.404c-1.16,1.579-2.264,4.056-3.318,7.431c-1.053,3.37-2.106,7.166-3.161,11.385
	c-1.052,4.214-2.133,8.56-3.24,13.04c-1.104,4.477-2.189,8.589-3.241,12.332c-1.055,3.742-2.134,6.798-3.238,9.168
	c-1.106,2.369-2.188,3.56-3.242,3.56c-0.946,0-1.796-1.555-2.531-4.665c-0.738-3.109-1.317-6.664-1.737-10.674
	c-0.424-4-0.737-7.876-0.949-11.619s-0.312-6.3-0.312-7.667v-7.745c0-2.954-0.084-5.822-0.239-8.619
	c-0.158-2.791-0.609-5.56-1.346-8.299c-0.843,1.37-1.765,3.715-2.764,7.034c-1.005,3.319-2.004,7.195-3.007,11.621
	c-1.001,4.426-1.951,9.141-2.845,14.152c-0.896,5.002-1.716,9.801-2.452,14.386c-0.736,4.583-1.317,8.723-1.739,12.411
	s-0.631,6.429-0.631,8.22c0,0.102,0.023,0.215,0.078,0.316c0.053,0.102,0.081,0.209,0.081,0.316s-0.106,0.155-0.318,0.155h-0.631
	h-0.16L183.7,75.08c-0.211-0.418-0.423-2.107-0.631-5.062c-0.214-2.949-0.453-6.585-0.712-10.905
	c-0.262-4.327-0.501-9.013-0.713-14.075c-0.211-5.058-0.396-9.875-0.556-14.465c-0.156-4.584-0.288-8.616-0.393-12.09
	c-0.107-3.485-0.158-5.796-0.158-6.959L181.644,10.42z"/>
<path fill="#8B5C7A" d="M239.824,57.055c0-2,0.235-4.848,0.709-8.536c0.476-3.688,1.292-7.297,2.453-10.828
	c1.157-3.531,2.658-6.613,4.508-9.246c1.842-2.638,4.188-3.957,7.035-3.957c1.787,0,3.34,0.579,4.66,1.74
	c1.317,1.161,2.451,2.372,3.397,3.635c0-0.525,0.08-1.002,0.24-1.418c0.156-0.423,0.496-0.737,1.025-0.954l1.104,1.109v5.531
	c0,2.74,0.054,5.906,0.16,9.487c0.103,3.582,0.289,7.351,0.553,11.302c0.265,3.951,0.687,7.565,1.267,10.83
	c0.578,3.266,1.342,5.984,2.291,8.139c0.946,2.167,2.162,3.244,3.635,3.244l2.848-1.266l0.949,1.266
	c-0.211,0.633-0.768,1.244-1.658,1.82c-0.897,0.584-1.66,0.866-2.291,0.866c-1.901,0-3.43-1.211-4.59-3.635
	c-1.16-2.423-2.078-5.217-2.766-8.374c-0.687-3.163-1.187-6.3-1.502-9.409c-0.316-3.105-0.529-5.399-0.631-6.879
	c-0.316,1.795-0.927,4.167-1.816,7.115c-0.898,2.954-2.035,5.909-3.4,8.852c-1.371,2.954-2.979,5.485-4.823,7.593
	c-1.845,2.106-3.927,3.163-6.242,3.163c-1.583,0-2.849-0.928-3.794-2.772c-0.95-1.838-1.661-3.945-2.138-6.32
	c-0.476-2.37-0.789-4.74-0.948-7.115C239.905,59.665,239.824,58.003,239.824,57.055 M247.57,75.24c1.477,0,2.871-0.74,4.188-2.22
	c1.318-1.469,2.558-3.366,3.718-5.688c1.16-2.316,2.157-4.9,3.008-7.747c0.84-2.847,1.576-5.608,2.211-8.3
	c0.633-2.686,1.104-5.139,1.422-7.348c0.316-2.217,0.473-3.9,0.473-5.059v-6.484c-0.631,0-1.182-0.292-1.657-0.872
	c-0.476-0.579-0.978-1.206-1.504-1.898c-0.527-0.681-1.132-1.316-1.816-1.896c-0.688-0.579-1.555-0.871-2.607-0.871
	c-2.528,0-4.612,1.265-6.246,3.796c-1.637,2.531-2.923,5.479-3.872,8.852c-0.947,3.377-1.638,6.747-2.056,10.117
	c-0.422,3.378-0.633,5.957-0.633,7.752c0,0.843,0.025,2.236,0.08,4.188c0.051,1.952,0.236,3.952,0.553,6.006
	c0.317,2.053,0.842,3.85,1.58,5.377C245.145,74.474,246.197,75.24,247.57,75.24"/>
<path fill="#8B5C7A" d="M281.166,15.636c-0.055,4.426-0.08,8.852-0.08,13.281c0,8.533,0.134,16.969,0.396,25.29
	c0.262,8.332,0.924,16.707,1.977,25.141l-1.104,0.946c-0.636,0-1.133-0.866-1.506-2.609c-0.367-1.737-0.687-3.973-0.943-6.719
	c-0.266-2.734-0.453-5.85-0.557-9.328c-0.105-3.475-0.185-7.008-0.236-10.59c-0.055-3.581-0.105-7.061-0.16-10.433
	c-0.055-3.372-0.076-6.38-0.076-9.016l-0.16-14.543v-1.973c0-1.528,0.025-3.265,0.08-5.219c0.054-1.952,0.156-3.793,0.316-5.535
	c0.16-1.737,0.447-2.767,0.869-3.081l0.949,0.314l0.313,0.791C281.242,6.781,281.219,11.208,281.166,15.636"/>
<path fill="#8B5C7A" d="M287.725,57.055c0-2,0.235-4.848,0.709-8.536c0.475-3.688,1.291-7.297,2.453-10.828
	c1.157-3.531,2.657-6.613,4.506-9.246c1.842-2.638,4.188-3.957,7.037-3.957c1.786,0,3.34,0.579,4.659,1.74
	c1.318,1.161,2.451,2.372,3.398,3.635c0-0.525,0.08-1.002,0.238-1.418c0.158-0.423,0.498-0.737,1.026-0.954l1.107,1.109v5.531
	c0,2.74,0.051,5.906,0.158,9.487c0.102,3.582,0.289,7.351,0.555,11.302c0.26,3.951,0.684,7.565,1.264,10.83
	c0.578,3.266,1.343,5.984,2.291,8.139c0.947,2.167,2.16,3.244,3.636,3.244l2.846-1.266l0.951,1.266
	c-0.213,0.633-0.767,1.244-1.658,1.82c-0.898,0.584-1.662,0.866-2.291,0.866c-1.902,0-3.43-1.211-4.59-3.635
	c-1.16-2.423-2.08-5.217-2.767-8.374c-0.686-3.163-1.188-6.3-1.502-9.409c-0.315-3.105-0.528-5.399-0.631-6.879
	c-0.315,1.795-0.926,4.167-1.817,7.115c-0.896,2.954-2.033,5.909-3.4,8.852c-1.371,2.954-2.979,5.485-4.824,7.593
	c-1.842,2.106-3.924,3.163-6.24,3.163c-1.581,0-2.848-0.928-3.795-2.772c-0.948-1.838-1.659-3.945-2.137-6.32
	c-0.475-2.37-0.789-4.74-0.947-7.115C287.807,59.665,287.725,58.003,287.725,57.055 M295.471,75.24c1.477,0,2.87-0.74,4.188-2.22
	c1.318-1.469,2.557-3.366,3.717-5.688c1.158-2.316,2.158-4.9,3.006-7.747c0.843-2.847,1.578-5.608,2.212-8.3
	c0.635-2.686,1.106-5.139,1.424-7.348c0.315-2.217,0.473-3.9,0.473-5.059v-6.484c-0.631,0-1.184-0.292-1.658-0.872
	c-0.474-0.58-0.977-1.206-1.504-1.898c-0.526-0.681-1.131-1.316-1.815-1.896c-0.688-0.579-1.556-0.871-2.609-0.871
	c-2.527,0-4.611,1.265-6.244,3.796c-1.637,2.531-2.924,5.479-3.873,8.852c-0.949,3.377-1.639,6.747-2.055,10.117
	c-0.422,3.378-0.633,5.957-0.633,7.752c0,0.843,0.022,2.236,0.078,4.188c0.053,1.952,0.237,3.952,0.555,6.006
	c0.315,2.053,0.844,3.85,1.58,5.377C293.043,74.474,294.098,75.24,295.471,75.24"/>
<path fill="#8B5C7A" d="M326.453,33.34l1.105,1.11c0.95,6.004,1.555,12.015,1.819,18.02c0.263,6.005,1.236,11.968,2.925,17.864
	c0.42-1.157,0.817-3.082,1.186-5.768c0.367-2.687,0.738-5.695,1.107-9.014c0.366-3.318,0.764-6.745,1.186-10.272
	c0.42-3.533,0.975-6.745,1.66-9.646c0.684-2.896,1.529-5.297,2.531-7.193c1-1.9,2.235-2.844,3.713-2.844
	c1.475,0,2.608,1.077,3.399,3.238s1.427,4.927,1.896,8.297c0.475,3.375,0.844,7.117,1.104,11.224
	c0.265,4.112,0.607,8.117,1.027,12.021c0.422,3.896,0.975,7.404,1.66,10.508c0.686,3.109,1.711,5.404,3.082,6.879
	c0.951,1.057,1.897,2.053,2.848,3.008c0.951,0.942,1.949,1.84,3.002,2.681l-0.944,1.108c-3.162-0.942-5.591-2.899-7.273-5.849
	c-1.688-2.949-2.953-6.402-3.795-10.354c-0.842-3.951-1.396-8.145-1.662-12.572c-0.262-4.429-0.498-8.562-0.707-12.412
	c-0.215-3.842-0.582-7.163-1.104-9.957c-0.531-2.788-1.48-4.557-2.849-5.292c-1.057,0-1.928,0.893-2.606,2.684
	c-0.689,1.793-1.271,4.088-1.74,6.879c-0.478,2.791-0.898,5.927-1.266,9.404c-0.371,3.482-0.769,6.931-1.187,10.356
	c-0.422,3.426-0.871,6.67-1.344,9.721c-0.476,3.061-1.029,5.533-1.662,7.431l-0.473,0.161c-0.951,0-1.767-0.875-2.451-2.611
	c-0.688-1.737-1.289-3.92-1.818-6.562c-0.527-2.627-0.975-5.555-1.342-8.771c-0.371-3.211-0.689-6.327-0.949-9.329
	c-0.264-3.002-0.502-5.686-0.711-8.062c-0.213-2.372-0.373-4.032-0.475-4.978L326.453,33.34z"/>
</svg>
